<svg width="618" height="141" viewBox="0 0 618 141" fill="none" xmlns="http://www.w3.org/2000/svg">
<path d="M6.6665 55.6667V54.3333C6.6665 51.858 7.64983 49.484 9.40017 47.7337C11.1505 45.9833 13.5245 45 15.9998 45M15.9998 45C18.4752 45 20.8492 45.9833 22.5995 47.7337C24.3498 49.484 25.3332 51.858 25.3332 54.3333V55.6667M15.9998 45C17.4143 45 18.7709 44.4381 19.7711 43.4379C20.7713 42.4377 21.3332 41.0812 21.3332 39.6667C21.3332 38.2522 20.7713 36.8956 19.7711 35.8954C18.7709 34.8952 17.4143 34.3333 15.9998 34.3333C14.5853 34.3333 13.2288 34.8952 12.2286 35.8954C11.2284 36.8956 10.6665 38.2522 10.6665 39.6667C10.6665 41.0812 11.2284 42.4377 12.2286 43.4379C13.2288 44.4381 14.5853 45 15.9998 45Z" stroke="#404040" stroke-width="2" stroke-linecap="round" stroke-linejoin="round"/>
<path d="M6.6665 95.6667V94.3333C6.6665 91.858 7.64983 89.484 9.40017 87.7337C11.1505 85.9833 13.5245 85 15.9998 85M15.9998 85C18.4752 85 20.8492 85.9833 22.5995 87.7337C24.3498 89.484 25.3332 91.858 25.3332 94.3333V95.6667M15.9998 85C17.4143 85 18.7709 84.4381 19.7711 83.4379C20.7713 82.4377 21.3332 81.0812 21.3332 79.6667C21.3332 78.2522 20.7713 76.8956 19.7711 75.8954C18.7709 74.8952 17.4143 74.3333 15.9998 74.3333C14.5853 74.3333 13.2288 74.8952 12.2286 75.8954C11.2284 76.8956 10.6665 78.2522 10.6665 79.6667C10.6665 81.0812 11.2284 82.4377 12.2286 83.4379C13.2288 84.4381 14.5853 85 15.9998 85Z" stroke="#404040" stroke-width="2" stroke-linecap="round" stroke-linejoin="round"/>
<path d="M6.6665 135.667V134.333C6.6665 131.858 7.64983 129.484 9.40017 127.734C11.1505 125.983 13.5245 125 15.9998 125M15.9998 125C18.4752 125 20.8492 125.983 22.5995 127.734C24.3498 129.484 25.3332 131.858 25.3332 134.333V135.667M15.9998 125C17.4143 125 18.7709 124.438 19.7711 123.438C20.7713 122.438 21.3332 121.081 21.3332 119.667C21.3332 118.252 20.7713 116.896 19.7711 115.895C18.7709 114.895 17.4143 114.333 15.9998 114.333C14.5853 114.333 13.2288 114.895 12.2286 115.895C11.2284 116.896 10.6665 118.252 10.6665 119.667C10.6665 121.081 11.2284 122.438 12.2286 123.438C13.2288 124.438 14.5853 125 15.9998 125Z" stroke="#404040" stroke-width="2" stroke-linecap="round" stroke-linejoin="round"/>
<path d="M68.0001 42.3333V54.3333C68.0001 55.0406 68.281 55.7189 68.7811 56.219C69.2812 56.719 69.9595 57 70.6667 57H89.3334C90.0406 57 90.7189 56.719 91.219 56.219C91.7191 55.7189 92.0001 55.0406 92.0001 54.3333V42.3333M83.7774 57V49C83.7774 48.2928 83.4965 47.6145 82.9964 47.1144C82.4963 46.6143 81.818 46.3333 81.1107 46.3333H78.4441C77.7368 46.3333 77.0585 46.6143 76.5585 47.1144C76.0584 47.6145 75.7774 48.2928 75.7774 49V57M84.6667 33H90.0627C90.2366 33 90.4057 33.0565 90.5445 33.1612C90.6833 33.2658 90.7843 33.4129 90.8321 33.58L93.0907 41.4853C93.1231 41.5911 93.132 41.7026 93.1167 41.8121C93.1015 41.9216 93.0626 42.0265 93.0027 42.1195C92.9428 42.2124 92.8633 42.2911 92.7698 42.3502C92.6763 42.4092 92.5711 42.4472 92.4614 42.4613C91.3334 42.6 89.3547 42.7507 88.0001 42.3333C87.2067 42.0893 86.1907 41.516 85.6707 41.2053C85.5658 41.1419 85.4775 41.0544 85.413 40.95C85.3486 40.8457 85.3099 40.7276 85.3001 40.6053L84.6667 33ZM84.6667 33L85.2934 40.5187C85.3062 40.6634 85.278 40.8089 85.212 40.9384C85.146 41.0678 85.0448 41.1761 84.9201 41.2507C84.3841 41.568 83.4241 42.1 82.6667 42.3333C80.6761 42.9467 79.3241 42.9467 77.3334 42.3333C76.5761 42.1 75.6161 41.568 75.0801 41.252C74.9551 41.1773 74.8538 41.0688 74.7878 40.9391C74.7217 40.8094 74.6936 40.6636 74.7067 40.5187L75.3334 33M84.6667 33L75.3334 33M75.3334 33L74.7001 40.6053C74.6905 40.7278 74.6519 40.8462 74.5874 40.9508C74.5229 41.0554 74.4345 41.1431 74.3294 41.2067C73.8107 41.516 72.7934 42.0893 72.0001 42.3333C70.6454 42.7493 68.6654 42.6 67.5387 42.46C67.4294 42.4457 67.3244 42.4079 67.2312 42.349C67.1379 42.2901 67.0586 42.2116 66.9987 42.119C66.9389 42.0264 66.8999 41.9219 66.8844 41.8127C66.869 41.7035 66.8775 41.5922 66.9094 41.4867L69.1681 33.58C69.2159 33.4129 69.3168 33.2658 69.4556 33.1612C69.5944 33.0565 69.7636 33 69.9374 33L75.3334 33Z" stroke="#404040" stroke-width="2"/>
<path d="M68.0001 82.3333V94.3333C68.0001 95.0406 68.281 95.7189 68.7811 96.219C69.2812 96.719 69.9595 97 70.6667 97H89.3334C90.0406 97 90.7189 96.719 91.219 96.219C91.7191 95.7189 92.0001 95.0406 92.0001 94.3333V82.3333M83.7774 97V89C83.7774 88.2928 83.4965 87.6145 82.9964 87.1144C82.4963 86.6143 81.818 86.3333 81.1107 86.3333H78.4441C77.7368 86.3333 77.0585 86.6143 76.5585 87.1144C76.0584 87.6145 75.7774 88.2928 75.7774 89V97M84.6667 73H90.0627C90.2366 73 90.4057 73.0565 90.5445 73.1612C90.6833 73.2658 90.7843 73.4129 90.8321 73.58L93.0907 81.4853C93.1231 81.5911 93.132 81.7026 93.1167 81.8121C93.1015 81.9216 93.0626 82.0265 93.0027 82.1195C92.9428 82.2124 92.8633 82.2911 92.7698 82.3502C92.6763 82.4092 92.5711 82.4472 92.4614 82.4613C91.3334 82.6 89.3547 82.7507 88.0001 82.3333C87.2067 82.0893 86.1907 81.516 85.6707 81.2053C85.5658 81.1419 85.4775 81.0544 85.413 80.95C85.3486 80.8457 85.3099 80.7276 85.3001 80.6053L84.6667 73ZM84.6667 73L85.2934 80.5187C85.3062 80.6634 85.278 80.8089 85.212 80.9384C85.146 81.0678 85.0448 81.1761 84.9201 81.2507C84.3841 81.568 83.4241 82.1 82.6667 82.3333C80.6761 82.9467 79.3241 82.9467 77.3334 82.3333C76.5761 82.1 75.6161 81.568 75.0801 81.252C74.9551 81.1773 74.8538 81.0688 74.7878 80.9391C74.7217 80.8094 74.6936 80.6636 74.7067 80.5187L75.3334 73M84.6667 73L75.3334 73M75.3334 73L74.7001 80.6053C74.6905 80.7278 74.6519 80.8462 74.5874 80.9508C74.5229 81.0554 74.4345 81.1431 74.3294 81.2067C73.8107 81.516 72.7934 82.0893 72.0001 82.3333C70.6454 82.7493 68.6654 82.6 67.5387 82.46C67.4294 82.4457 67.3244 82.4079 67.2312 82.349C67.1379 82.2901 67.0586 82.2116 66.9987 82.119C66.9389 82.0264 66.8999 81.9219 66.8844 81.8127C66.869 81.7035 66.8775 81.5922 66.9094 81.4867L69.1681 73.58C69.2159 73.4129 69.3168 73.2658 69.4556 73.1612C69.5944 73.0565 69.7636 73 69.9374 73L75.3334 73Z" stroke="#404040" stroke-width="2"/>
<path d="M68.0001 122.333V134.333C68.0001 135.041 68.281 135.719 68.7811 136.219C69.2812 136.719 69.9595 137 70.6667 137H89.3334C90.0406 137 90.7189 136.719 91.219 136.219C91.7191 135.719 92.0001 135.041 92.0001 134.333V122.333M83.7774 137V129C83.7774 128.293 83.4965 127.614 82.9964 127.114C82.4963 126.614 81.818 126.333 81.1107 126.333H78.4441C77.7368 126.333 77.0585 126.614 76.5585 127.114C76.0584 127.614 75.7774 128.293 75.7774 129V137M84.6667 113H90.0627C90.2366 113 90.4057 113.057 90.5445 113.161C90.6833 113.266 90.7843 113.413 90.8321 113.58L93.0907 121.485C93.1231 121.591 93.132 121.703 93.1167 121.812C93.1015 121.922 93.0626 122.027 93.0027 122.119C92.9428 122.212 92.8633 122.291 92.7698 122.35C92.6763 122.409 92.5711 122.447 92.4614 122.461C91.3334 122.6 89.3547 122.751 88.0001 122.333C87.2067 122.089 86.1907 121.516 85.6707 121.205C85.5658 121.142 85.4775 121.054 85.413 120.95C85.3486 120.846 85.3099 120.728 85.3001 120.605L84.6667 113ZM84.6667 113L85.2934 120.519C85.3062 120.663 85.278 120.809 85.212 120.938C85.146 121.068 85.0448 121.176 84.9201 121.251C84.3841 121.568 83.4241 122.1 82.6667 122.333C80.6761 122.947 79.3241 122.947 77.3334 122.333C76.5761 122.1 75.6161 121.568 75.0801 121.252C74.9551 121.177 74.8538 121.069 74.7878 120.939C74.7217 120.809 74.6936 120.664 74.7067 120.519L75.3334 113M84.6667 113L75.3334 113M75.3334 113L74.7001 120.605C74.6905 120.728 74.6519 120.846 74.5874 120.951C74.5229 121.055 74.4345 121.143 74.3294 121.207C73.8107 121.516 72.7934 122.089 72.0001 122.333C70.6454 122.749 68.6654 122.6 67.5387 122.46C67.4294 122.446 67.3244 122.408 67.2312 122.349C67.1379 122.29 67.0586 122.212 66.9987 122.119C66.9389 122.026 66.8999 121.922 66.8844 121.813C66.869 121.703 66.8775 121.592 66.9094 121.487L69.1681 113.58C69.2159 113.413 69.3168 113.266 69.4556 113.161C69.5944 113.057 69.7636 113 69.9374 113L75.3334 113Z" stroke="#404040" stroke-width="2"/>
<path d="M201.333 41.0133L201.347 40.9987M206.667 41.0133L206.68 40.9987M201.333 46.3467L201.347 46.332M206.667 46.3467L206.68 46.332M201.333 51.68L201.347 51.6653M206.667 51.68L206.68 51.6653M212 57H196.8C196.588 57 196.384 56.9157 196.234 56.7657C196.084 56.6157 196 56.4122 196 56.2V36.4667C196 36.2545 196.084 36.051 196.234 35.901C196.384 35.751 196.588 35.6667 196.8 35.6667H204V33.8C204 33.5878 204.084 33.3843 204.234 33.2343C204.384 33.0843 204.588 33 204.8 33H211.2C211.412 33 211.616 33.0843 211.766 33.2343C211.916 33.3843 212 33.5878 212 33.8V41M212 57H219.2C219.412 57 219.616 56.9157 219.766 56.7657C219.916 56.6157 220 56.4122 220 56.2V41.8C220 41.5878 219.916 41.3843 219.766 41.2343C219.616 41.0843 219.412 41 219.2 41H212M212 57V51.6667M212 41V46.3333M212 51.6667V46.3333M212 51.6667H214.667M212 46.3333H214.667" stroke="#404040" stroke-width="2" stroke-linecap="round" stroke-linejoin="round"/>
<path d="M137.333 41.0133L137.347 40.9987M142.667 41.0133L142.68 40.9987M137.333 46.3467L137.347 46.332M142.667 46.3467L142.68 46.332M137.333 51.68L137.347 51.6653M142.667 51.68L142.68 51.6653M148 57H132.8C132.588 57 132.384 56.9157 132.234 56.7657C132.084 56.6157 132 56.4122 132 56.2V36.4667C132 36.2545 132.084 36.051 132.234 35.901C132.384 35.751 132.588 35.6667 132.8 35.6667H140V33.8C140 33.5878 140.084 33.3843 140.234 33.2343C140.384 33.0843 140.588 33 140.8 33H147.2C147.412 33 147.616 33.0843 147.766 33.2343C147.916 33.3843 148 33.5878 148 33.8V41M148 57H155.2C155.412 57 155.616 56.9157 155.766 56.7657C155.916 56.6157 156 56.4122 156 56.2V41.8C156 41.5878 155.916 41.3843 155.766 41.2343C155.616 41.0843 155.412 41 155.2 41H148M148 57V51.6667M148 41V46.3333M148 51.6667V46.3333M148 51.6667H150.667M148 46.3333H150.667" stroke="#404040" stroke-width="2" stroke-linecap="round" stroke-linejoin="round"/>
<path d="M137.333 81.0133L137.347 80.9987M142.667 81.0133L142.68 80.9987M137.333 86.3467L137.347 86.332M142.667 86.3467L142.68 86.332M137.333 91.68L137.347 91.6653M142.667 91.68L142.68 91.6653M148 97H132.8C132.588 97 132.384 96.9157 132.234 96.7657C132.084 96.6157 132 96.4122 132 96.2V76.4667C132 76.2545 132.084 76.051 132.234 75.901C132.384 75.751 132.588 75.6667 132.8 75.6667H140V73.8C140 73.5878 140.084 73.3843 140.234 73.2343C140.384 73.0843 140.588 73 140.8 73H147.2C147.412 73 147.616 73.0843 147.766 73.2343C147.916 73.3843 148 73.5878 148 73.8V81M148 97H155.2C155.412 97 155.616 96.9157 155.766 96.7657C155.916 96.6157 156 96.4122 156 96.2V81.8C156 81.5878 155.916 81.3843 155.766 81.2343C155.616 81.0843 155.412 81 155.2 81H148M148 97V91.6667M148 81V86.3333M148 91.6667V86.3333M148 91.6667H150.667M148 86.3333H150.667" stroke="#404040" stroke-width="2" stroke-linecap="round" stroke-linejoin="round"/>
<path fill-rule="evenodd" clip-rule="evenodd" d="M309.586 3.30375H301.988V1.5135L289.5 3.441V20.3362L301.988 22.4872V19.8337H309.586C309.816 19.8454 310.041 19.7655 310.213 19.6114C310.384 19.4574 310.487 19.2418 310.5 19.0117V4.125C310.487 3.89509 310.384 3.67967 310.212 3.52579C310.041 3.37191 309.816 3.29208 309.586 3.30375ZM309.706 19.1482H301.963L301.95 17.7315H303.815V16.0815H301.936L301.927 15.1065H303.815V13.4565H301.912L301.904 12.4815H303.815V10.8315H301.898V9.8565H303.815V8.2065H301.898V7.2315H303.815V5.5815H301.898V4.0815H309.706V19.1482Z" fill="#20744A"/>
<path d="M304.865 5.57925H308.107V7.22925H304.865V5.57925ZM304.865 8.205H308.107V9.855H304.865V8.205ZM304.865 10.8308H308.107V12.4808H304.865V10.8308ZM304.865 13.4565H308.107V15.1065H304.865V13.4565ZM304.865 16.0823H308.107V17.7323H304.865V16.0823Z" fill="#20744A"/>
<path fill-rule="evenodd" clip-rule="evenodd" d="M292.76 8.00475L294.37 7.9125L295.381 10.6942L296.577 7.79775L298.186 7.7055L296.232 11.655L298.186 15.6142L296.485 15.4995L295.336 12.4815L294.186 15.3847L292.622 15.2467L294.439 11.7495L292.76 8.00475Z" fill="white"/>
<path d="M316.608 10.72H331.424V12.816H316.608V10.72ZM345.68 4.48L346.896 6.032C344.624 6.672 341.52 7.072 338.88 7.264C338.816 6.816 338.576 6.112 338.384 5.68C340.96 5.456 343.856 5.024 345.68 4.48ZM338.128 9.2H347.536V11.008H338.128V9.2ZM338.624 13.264H346.832V19.376H344.896V15.008H340.48V19.44H338.624V13.264ZM339.792 17.136H345.664V18.864H339.792V17.136ZM341.776 6.08H343.632V14.16H341.776V6.08ZM332.416 12.544C333.792 12.24 335.856 11.728 337.792 11.2L338 12.976C336.256 13.472 334.368 13.984 332.88 14.384L332.416 12.544ZM332.608 7.456H337.84V9.248H332.608V7.456ZM334.4 4.416H336.224V17.36C336.224 18.304 336.048 18.784 335.536 19.072C335.008 19.376 334.272 19.424 333.184 19.424C333.136 18.928 332.88 18.144 332.656 17.648C333.264 17.664 333.92 17.664 334.112 17.664C334.32 17.648 334.4 17.584 334.4 17.344V4.416ZM351.664 5.312H356.192V7.264H351.664V5.312ZM355.248 5.312H357.232C357.232 8.352 357.664 14.24 363.6 17.712C363.152 18.064 362.384 18.912 362.048 19.392C355.952 15.728 355.248 8.576 355.248 5.312ZM354.56 8.816L356.768 9.216C355.648 13.968 353.52 17.408 350.176 19.424C349.824 19.008 348.928 18.208 348.432 17.856C351.776 16.16 353.696 13.056 354.56 8.816ZM373.856 4.416H375.712V6.704H373.856V4.416ZM370.288 5.952H379.184V7.44H370.288V5.952ZM373.136 9.328V10.288H376.48V9.328H373.136ZM371.52 8.032H378.192V11.584H371.52V8.032ZM370.4 12.16H378.112V13.648H372.112V19.456H370.4V12.16ZM377.456 12.16H379.2V17.792C379.2 18.512 379.072 18.928 378.624 19.184C378.16 19.424 377.552 19.44 376.72 19.44C376.672 18.992 376.464 18.368 376.272 17.952C376.688 17.968 377.12 17.968 377.264 17.968C377.408 17.952 377.456 17.92 377.456 17.76V12.16ZM372.784 14.288H374.096V18.464H372.784V14.288ZM373.776 14.288H376.752V17.712H373.776V16.56H375.424V15.456H373.776V14.288ZM366.688 5.888H368.528V19.44H366.688V5.888ZM364.576 8.944H370.272V10.704H364.576V8.944ZM366.816 9.648L367.936 10.128C367.392 12.384 366.368 15.28 365.216 16.864C365.056 16.32 364.624 15.504 364.336 15.024C365.344 13.728 366.368 11.392 366.816 9.648ZM369.152 4.64L370.496 6.08C368.912 6.672 366.816 7.056 365.024 7.264C364.944 6.864 364.704 6.208 364.496 5.808C366.16 5.552 368.016 5.136 369.152 4.64ZM368.464 10.864C368.864 11.216 370.192 12.736 370.48 13.136L369.376 14.624C369.024 13.808 368.096 12.304 367.632 11.6L368.464 10.864ZM385.568 12.576H395.376V14.064H385.568V12.576ZM386.864 15.616L387.84 14.464C388.592 14.928 389.6 15.648 390.08 16.144L389.056 17.44C388.608 16.912 387.632 16.128 386.864 15.616ZM392.08 11.984L393.008 11.136C393.52 11.456 394.16 11.936 394.464 12.288L393.472 13.2C393.184 12.848 392.576 12.32 392.08 11.984ZM386.624 13.344H388.32C388.128 15.792 387.68 18.016 385.68 19.424C385.456 19.024 384.992 18.432 384.592 18.144C386.224 17.056 386.512 15.216 386.624 13.344ZM389.376 4.432H391.04C390.896 11.744 391.968 17.84 393.888 17.84C394.288 17.84 394.432 17.552 394.512 16.272C394.848 16.64 395.376 16.96 395.76 17.136C395.472 18.976 395.008 19.456 393.76 19.456C390.24 19.44 389.376 12.368 389.376 4.432ZM393.04 14.032L394.624 14.624C393.52 16.864 391.552 18.48 389.136 19.424C388.928 19.088 388.448 18.512 388.128 18.192C390.416 17.392 392.16 15.92 393.04 14.032ZM390.8 7.424L391.504 6.384C392.176 6.864 392.976 7.584 393.344 8.064L392.608 9.264C392.24 8.736 391.44 7.968 390.8 7.424ZM393.792 9.28L394.864 8.88C395.248 9.648 395.616 10.64 395.712 11.264L394.56 11.744C394.464 11.104 394.144 10.064 393.792 9.28ZM391.088 10.144C392.048 10.08 393.312 9.984 394.656 9.872L394.688 11.088C393.52 11.248 392.384 11.392 391.36 11.52L391.088 10.144ZM392.56 4.512L394 5.04C393.488 5.952 392.944 6.96 392.496 7.616L391.472 7.152C391.856 6.432 392.32 5.312 392.56 4.512ZM393.904 6.224L395.232 6.864C394.368 8.208 393.28 9.84 392.4 10.864L391.408 10.304C392.256 9.232 393.312 7.488 393.904 6.224ZM385.2 7.424L385.92 6.384C386.576 6.864 387.392 7.584 387.744 8.064L387.008 9.264C386.656 8.736 385.856 7.968 385.2 7.424ZM387.936 9.472L389.008 9.12C389.36 9.888 389.664 10.896 389.728 11.52L388.576 11.952C388.512 11.296 388.24 10.272 387.936 9.472ZM385.312 10.4C386.288 10.336 387.568 10.24 388.928 10.128L388.96 11.424C387.776 11.568 386.608 11.696 385.568 11.808L385.312 10.4ZM386.976 4.512L388.4 5.056C387.872 5.952 387.344 7.008 386.912 7.664L385.888 7.216C386.256 6.48 386.72 5.312 386.976 4.512ZM388.32 6.224L389.632 6.864C388.736 8.288 387.6 10 386.672 11.072L385.68 10.528C386.576 9.408 387.68 7.568 388.32 6.224ZM380.704 7.728H385.584V9.488H380.704V7.728ZM382.416 4.416H384.128V19.44H382.416V4.416ZM382.384 8.944L383.376 9.28C382.992 11.792 382.176 14.88 381.136 16.512C380.976 16.032 380.592 15.312 380.32 14.88C381.248 13.504 382.048 10.976 382.384 8.944ZM384.048 10.016C384.368 10.448 385.6 12.496 385.84 12.96L384.928 14.288C384.608 13.344 383.744 11.472 383.344 10.72L384.048 10.016ZM398.896 4.336L400.896 4.768C400.32 6.24 399.6 7.808 398.992 8.832L397.328 8.4C397.904 7.312 398.56 5.616 398.896 4.336ZM396.48 7.616C398.208 7.568 400.8 7.456 403.28 7.344L403.264 9.008C400.912 9.184 398.448 9.328 396.624 9.44L396.48 7.616ZM397.424 10.192H402.512V11.776H399.2V19.424H397.424V10.192ZM401.6 10.192H403.504V17.504C403.504 18.32 403.344 18.8 402.8 19.088C402.24 19.376 401.52 19.408 400.544 19.408C400.448 18.896 400.176 18.16 399.936 17.696C400.496 17.728 401.136 17.728 401.344 17.712C401.536 17.712 401.6 17.664 401.6 17.456V10.192ZM398.24 12.608H402.672V14.032H398.24V12.608ZM398.24 14.96H402.672V16.384H398.24V14.96ZM404.752 4.48H406.672V9.28C406.672 9.84 406.768 9.92 407.376 9.92C407.632 9.92 408.784 9.92 409.12 9.92C409.648 9.92 409.744 9.68 409.808 8.272C410.208 8.576 410.992 8.864 411.52 8.976C411.312 11.056 410.8 11.632 409.312 11.632C408.912 11.632 407.472 11.632 407.104 11.632C405.216 11.632 404.752 11.088 404.752 9.312V4.48ZM409.552 5.424L410.768 6.816C409.344 7.504 407.488 8.112 405.904 8.544C405.824 8.16 405.568 7.584 405.36 7.216C406.848 6.752 408.496 6.032 409.552 5.424ZM404.752 11.952H406.656V16.992C406.656 17.584 406.768 17.648 407.392 17.648C407.664 17.648 408.864 17.648 409.216 17.648C409.776 17.648 409.872 17.36 409.952 15.728C410.352 16.016 411.12 16.32 411.648 16.432C411.44 18.688 410.928 19.328 409.392 19.328C408.992 19.328 407.504 19.328 407.12 19.328C405.232 19.328 404.752 18.784 404.752 17.008V11.952ZM409.68 12.624L410.928 14.032C409.472 14.816 407.536 15.488 405.888 15.952C405.792 15.584 405.52 14.976 405.328 14.608C406.88 14.112 408.592 13.328 409.68 12.624ZM401.072 6.096L402.704 5.488C403.488 6.64 404.32 8.16 404.624 9.216L402.88 9.92C402.608 8.896 401.84 7.296 401.072 6.096Z" fill="#404040"/>
<path d="M6 18.01L6.01 17.999M6 6.01L6.01 5.999M2 9.4V2.6C2 2.44087 2.06321 2.28826 2.17574 2.17574C2.28826 2.06321 2.44087 2 2.6 2H21.4C21.5591 2 21.7117 2.06321 21.8243 2.17574C21.9368 2.28826 22 2.44087 22 2.6V9.4C22 9.55913 21.9368 9.71174 21.8243 9.82426C21.7117 9.93679 21.5591 10 21.4 10H2.6C2.44087 10 2.28826 9.93679 2.17574 9.82426C2.06321 9.71174 2 9.55913 2 9.4ZM2 21.4V14.6C2 14.4409 2.06321 14.2883 2.17574 14.1757C2.28826 14.0632 2.44087 14 2.6 14H21.4C21.5591 14 21.7117 14.0632 21.8243 14.1757C21.9368 14.2883 22 14.4409 22 14.6V21.4C22 21.4788 21.9845 21.5568 21.9543 21.6296C21.9242 21.7024 21.88 21.7685 21.8243 21.8243C21.7685 21.88 21.7024 21.9242 21.6296 21.9543C21.5568 21.9845 21.4788 22 21.4 22H2.6C2.52121 22 2.44319 21.9845 2.37039 21.9543C2.29759 21.9242 2.23145 21.88 2.17574 21.8243C2.12002 21.7685 2.07582 21.7024 2.04567 21.6296C2.01552 21.5568 2 21.4788 2 21.4Z" stroke="#404040" stroke-width="2" stroke-linecap="round"/>
<path d="M36.608 9.168H41.392V10.896H36.608V9.168ZM36.608 13.184H41.392V14.912H36.608V13.184ZM35.616 5.216H42.48V18.352H40.544V6.944H37.472V18.352H35.616V5.216ZM34.144 17.296H43.552V19.024H34.144V17.296ZM30.88 4.432L32.576 5.024C31.92 6.272 31.168 7.696 30.544 8.576L29.248 8.048C29.824 7.088 30.512 5.552 30.88 4.432ZM32.8 6.32L34.416 6.992C33.232 8.832 31.664 11.056 30.432 12.416L29.264 11.824C30.496 10.384 31.952 8.032 32.8 6.32ZM28.416 8.224L29.312 6.896C30.176 7.632 31.168 8.656 31.584 9.36L30.608 10.864C30.208 10.096 29.232 8.992 28.416 8.224ZM32.4 10.176L33.76 9.584C34.4 10.656 35.04 12.048 35.248 12.976L33.792 13.648C33.6 12.736 33.008 11.28 32.4 10.176ZM28.4 11.472C29.888 11.424 32.096 11.328 34.24 11.216V12.736C32.224 12.896 30.144 13.04 28.56 13.136L28.4 11.472ZM32.688 14.192L34.096 13.728C34.512 14.688 34.944 15.936 35.136 16.752L33.632 17.296C33.488 16.464 33.072 15.168 32.688 14.192ZM29.088 13.824L30.672 14.096C30.512 15.632 30.16 17.232 29.696 18.256C29.36 18.048 28.64 17.712 28.24 17.552C28.704 16.608 28.96 15.184 29.088 13.824ZM30.944 12.32H32.656V19.456H30.944V12.32ZM51.392 4.4H53.136V6.752H51.392V4.4ZM50.144 7.568L51.424 7.28C51.68 7.952 51.872 8.848 51.904 9.408L50.544 9.744C50.544 9.152 50.384 8.256 50.144 7.568ZM49.568 5.952H54.96V7.392H49.568V5.952ZM49.296 9.552H59.376V11.056H49.296V9.552ZM50.88 14.064H53.872V15.344H50.88V14.064ZM50.752 11.776H54.752V17.648H50.752V16.336H53.2V13.104H50.752V11.776ZM50.192 11.776H51.648V18.48H50.192V11.776ZM53.088 7.184L54.64 7.52C54.336 8.304 54.064 9.152 53.808 9.712L52.528 9.392C52.72 8.768 52.976 7.824 53.088 7.184ZM55.152 4.512H56.784C56.736 11.616 57.168 17.36 58.112 17.424C58.32 17.44 58.48 16.704 58.56 15.456C58.816 15.824 59.488 16.32 59.744 16.496C59.36 18.992 58.624 19.568 58.048 19.552C55.6 19.456 55.232 13.536 55.152 4.512ZM56.672 6L58.064 5.44C58.64 6.368 59.248 7.6 59.504 8.416L58.032 9.056C57.792 8.24 57.216 6.944 56.672 6ZM57.872 11.648L59.376 12.064C58.4 15.232 56.624 17.808 54.016 19.472C53.776 19.12 53.216 18.512 52.864 18.24C55.312 16.8 57.072 14.4 57.872 11.648ZM46.432 4.432L48.048 4.944C47.488 6.176 46.864 7.6 46.352 8.496L45.104 8.016C45.6 7.056 46.144 5.536 46.432 4.432ZM48.096 6.368L49.584 7.008C48.56 8.816 47.2 11.04 46.096 12.416L45.04 11.856C46.08 10.416 47.376 8.08 48.096 6.368ZM44.432 8.096L45.216 6.736C46.016 7.504 46.96 8.544 47.312 9.264L46.448 10.816C46.096 10.032 45.2 8.896 44.432 8.096ZM47.552 10.112L48.816 9.632C49.392 10.72 49.936 12.112 50.08 13.04L48.72 13.6C48.592 12.688 48.096 11.232 47.552 10.112ZM44.336 11.44C45.6 11.392 47.424 11.296 49.28 11.184L49.264 12.672C47.584 12.848 45.872 12.992 44.496 13.104L44.336 11.44ZM47.968 14.112L49.232 13.712C49.568 14.64 49.888 15.84 50.032 16.624L48.688 17.088C48.592 16.272 48.272 15.04 47.968 14.112ZM44.928 13.824L46.368 14.064C46.256 15.568 45.984 17.152 45.584 18.176C45.296 17.984 44.64 17.696 44.288 17.552C44.688 16.608 44.848 15.168 44.928 13.824ZM46.464 12.288H48.032V19.44H46.464V12.288ZM64.72 17.616H72.528V19.024H64.72V17.616ZM67.008 7.776H68.864V9.696H67.008V7.776ZM61.104 8.88H75.024V12.064H73.152V10.32H62.912V12.064H61.104V8.88ZM64.656 10.992H72.496V14.576H64.656V13.2H70.576V12.368H64.656V10.992ZM64.736 15.296H73.712V19.456H71.792V16.704H64.736V15.296ZM63.6 10.992H65.424V19.472H63.6V10.992ZM62.72 5.536H67.76V7.04H62.72V5.536ZM69.2 5.536H75.408V7.04H69.2V5.536ZM62.784 4.288L64.576 4.768C63.952 6.208 62.928 7.664 61.984 8.576C61.616 8.288 60.848 7.776 60.416 7.552C61.376 6.752 62.288 5.504 62.784 4.288ZM69.296 4.288L71.12 4.736C70.544 6.112 69.552 7.44 68.592 8.272C68.208 7.984 67.392 7.568 66.912 7.36C67.936 6.624 68.832 5.456 69.296 4.288ZM63.312 6.704L64.944 6.272C65.344 6.816 65.792 7.584 65.984 8.096L64.256 8.592C64.112 8.096 63.696 7.28 63.312 6.704ZM70.464 6.752L72.144 6.304C72.608 6.832 73.168 7.6 73.424 8.112L71.648 8.608C71.44 8.128 70.912 7.312 70.464 6.752ZM84.208 9.568V10.944H89.056V9.568H84.208ZM84.208 6.72V8.064H89.056V6.72H84.208ZM82.48 5.088H90.88V12.56H82.48V5.088ZM82.368 13.936H91.056V15.664H82.368V13.936ZM81.248 17.2H91.584V18.928H81.248V17.2ZM76.56 5.328H81.872V7.12H76.56V5.328ZM76.72 9.936H81.6V11.712H76.72V9.936ZM76.384 16.016C77.76 15.664 79.808 15.024 81.728 14.4L82.064 16.24C80.272 16.848 78.352 17.472 76.816 17.968L76.384 16.016ZM78.336 6.032H80.16V15.872L78.336 16.16V6.032ZM85.856 5.776H87.472V11.808H87.648V18.016H85.68V11.808H85.856V5.776ZM96.928 5.344C97.984 5.92 99.744 7.04 100.576 7.632L99.392 9.392C98.496 8.768 96.832 7.696 95.776 7.104L96.928 5.344ZM93.968 16.704C95.76 16.4 97.664 15.856 99.408 14.896C102.128 13.376 104.368 11.184 105.632 8.896L106.864 11.072C105.392 13.296 103.12 15.312 100.512 16.832C98.88 17.744 96.576 18.544 95.168 18.8L93.968 16.704ZM94.464 8.992C95.536 9.568 97.296 10.656 98.128 11.248L96.944 13.04C96.048 12.4 94.384 11.328 93.312 10.752L94.464 8.992ZM121.328 7.168C121.2 7.344 120.912 7.824 120.768 8.16C120.112 9.68 118.928 11.856 117.552 13.456C115.76 15.52 113.344 17.504 110.864 18.672L109.2 16.944C111.792 15.984 114.256 14.032 115.76 12.368C116.816 11.168 117.792 9.584 118.16 8.448C117.488 8.448 113.408 8.448 112.72 8.448C112.064 8.448 111.184 8.528 110.832 8.56V6.272C111.264 6.336 112.256 6.384 112.72 6.384C113.568 6.384 117.664 6.384 118.368 6.384C119.072 6.384 119.696 6.304 120.032 6.192L121.328 7.168ZM117.76 12.128C119.408 13.472 121.68 15.856 122.72 17.136L120.896 18.72C119.712 17.072 117.968 15.168 116.256 13.616L117.76 12.128ZM127.216 5.744C127.728 5.808 128.384 5.856 128.928 5.856C129.936 5.856 134.416 5.856 135.36 5.856C135.888 5.856 136.528 5.808 137.072 5.744V7.808C136.528 7.776 135.904 7.744 135.36 7.744C134.416 7.744 129.936 7.744 128.928 7.744C128.384 7.744 127.696 7.776 127.216 7.808V5.744ZM125.344 9.824C125.824 9.888 126.384 9.92 126.88 9.92C127.888 9.92 136.416 9.92 137.36 9.92C137.696 9.92 138.4 9.904 138.832 9.824V11.904C138.416 11.888 137.808 11.872 137.36 11.872C136.416 11.872 127.888 11.872 126.88 11.872C126.416 11.872 125.792 11.888 125.344 11.92V9.824ZM133.536 10.944C133.536 13.04 133.168 14.64 132.48 15.968C131.936 17.088 130.688 18.32 129.28 19.056L127.392 17.696C128.528 17.248 129.664 16.336 130.288 15.392C131.088 14.176 131.312 12.672 131.312 10.96L133.536 10.944ZM148.38 5.936C148.172 6.416 147.948 7.008 147.708 7.728C147.116 9.52 145.452 14.672 144.764 16.336L142.412 16.416C143.276 14.368 144.94 9.12 145.468 7.264C145.692 6.464 145.772 5.952 145.836 5.424L148.38 5.936ZM151.244 11.104C152.396 12.832 154.028 15.984 154.764 17.76L152.604 18.72C151.884 16.784 150.396 13.472 149.26 11.936L151.244 11.104ZM142.252 15.696C144.476 15.616 149.708 15.024 151.948 14.72L152.412 16.768C150.044 17.072 144.54 17.648 142.38 17.872C141.98 17.92 141.372 18 140.876 18.064L140.492 15.712C141.036 15.728 141.74 15.712 142.252 15.696Z" fill="#404040"/>
<path d="M241.902 46.5503C240.92 45.75 240.92 44.25 241.902 43.4497L253.736 33.8037C255.043 32.7388 257 33.6684 257 35.354L257 54.646C257 56.3316 255.043 57.2612 253.736 56.1963L241.902 46.5503Z" fill="#4A4A4A"/>
<rect x="248" y="39.6667" width="24" height="10.6667" rx="2" fill="#4A4A4A"/>
<path d="M164 43.5C163.172 43.5 162.5 44.1716 162.5 45C162.5 45.8284 163.172 46.5 164 46.5V43.5ZM164 46.5H188V43.5H164V46.5Z" fill="#B3B3B3"/>
<path d="M100 43.5C99.1716 43.5 98.5 44.1716 98.5 45C98.5 45.8284 99.1716 46.5 100 46.5V43.5ZM100 46.5H124V43.5H100V46.5Z" fill="#B3B3B3"/>
<path d="M100 83.5C99.1716 83.5 98.5 84.1716 98.5 85C98.5 85.8284 99.1716 86.5 100 86.5V83.5ZM100 86.5H124V83.5H100V86.5Z" fill="#B3B3B3"/>
<path d="M164 83.5C163.172 83.5 162.5 84.1716 162.5 85C162.5 85.8284 163.172 86.5 164 86.5V83.5ZM177.5 73V57H174.5V73H177.5ZM177.5 57C177.5 51.201 182.201 46.5 188 46.5V43.5C180.544 43.5 174.5 49.5442 174.5 57H177.5ZM164 86.5C171.456 86.5 177.5 80.4558 177.5 73H174.5C174.5 78.799 169.799 83.5 164 83.5V86.5Z" fill="#B3B3B3"/>
<path d="M100 123.5C99.1716 123.5 98.5 124.172 98.5 125C98.5 125.828 99.1716 126.5 100 126.5V123.5ZM113.5 113V97H110.5V113H113.5ZM113.5 97C113.5 91.201 118.201 86.5 124 86.5V83.5C116.544 83.5 110.5 89.5442 110.5 97H113.5ZM100 126.5C107.456 126.5 113.5 120.456 113.5 113H110.5C110.5 118.799 105.799 123.5 100 123.5V126.5Z" fill="#B3B3B3"/>
<path d="M36 43.5C35.1716 43.5 34.5 44.1716 34.5 45C34.5 45.8284 35.1716 46.5 36 46.5V43.5ZM36 46.5H60V43.5H36V46.5Z" fill="#B3B3B3"/>
<path d="M36 83.5C35.1716 83.5 34.5 84.1716 34.5 85C34.5 85.8284 35.1716 86.5 36 86.5V83.5ZM36 86.5H60V83.5H36V86.5Z" fill="#B3B3B3"/>
<path d="M36 123.5C35.1716 123.5 34.5 124.172 34.5 125C34.5 125.828 35.1716 126.5 36 126.5V123.5ZM49.5 113V97H46.5V113H49.5ZM49.5 97C49.5 91.201 54.201 86.5 60 86.5V83.5C52.5442 83.5 46.5 89.5442 46.5 97H49.5ZM36 126.5C43.4558 126.5 49.5 120.456 49.5 113H46.5C46.5 118.799 41.799 123.5 36 123.5V126.5Z" fill="#B3B3B3"/>
<g clip-path="url(#clip0_59_817)">
<rect width="94.7249" height="19" transform="translate(288 48.3191)" fill="#4F60C6"/>
<path d="M301.4 61.9529H307.501V62.8244H301.4V61.9529ZM300.971 52.9856H305.606V53.8318H300.971V52.9856ZM301.539 51.6721L302.6 51.8868C301.653 53.5287 300.137 55.2464 297.94 56.5473C297.801 56.3073 297.485 55.9789 297.27 55.8147C299.354 54.678 300.807 53.0488 301.539 51.6721ZM305.29 52.9856H305.467L305.644 52.9351L306.275 53.2761C304.76 57.0904 301.198 59.629 297.763 60.7404C297.649 60.4878 297.409 60.0963 297.207 59.8942C300.478 58.947 303.977 56.4715 305.29 53.1498V52.9856ZM299.392 55.2338L300.099 54.6275C301.097 55.3095 302.31 56.3199 302.891 57.0399L302.12 57.7219C301.59 57.002 300.39 55.941 299.392 55.2338ZM307.033 57.9618H308.006V63.3548H307.033V57.9618ZM301.83 57.9618H307.513V58.8333H301.83V63.3296H300.882V58.707L301.64 57.9618H301.83ZM309.862 53.7055H321.154V54.5896H309.862V53.7055ZM311.163 57.7724H314.7V58.5176H311.163V57.7724ZM311.163 59.7932H314.7V60.5384H311.163V59.7932ZM316.809 55.8274H317.706V61.0183H316.809V55.8274ZM314.359 55.7137H315.281V62.2434C315.281 62.7233 315.167 62.9759 314.813 63.1275C314.472 63.2791 313.917 63.2791 313.058 63.2791C313.007 63.0391 312.868 62.6855 312.742 62.4455C313.374 62.4707 313.955 62.4707 314.131 62.4581C314.308 62.4455 314.359 62.395 314.359 62.2308V55.7137ZM319.373 55.4485H320.307V62.155C320.307 62.7107 320.181 62.9759 319.79 63.1275C319.398 63.2664 318.767 63.2917 317.781 63.2917C317.731 63.0391 317.579 62.6349 317.44 62.3823C318.211 62.4076 318.893 62.4076 319.108 62.395C319.31 62.3823 319.373 62.3318 319.373 62.155V55.4485ZM311.82 52.0258L312.692 51.6974C313.184 52.2405 313.715 52.9856 313.955 53.4782L313.02 53.8192C312.818 53.3393 312.3 52.5688 311.82 52.0258ZM318.312 51.6595L319.322 51.9879C318.842 52.7709 318.274 53.6424 317.807 54.236L316.973 53.9202C317.428 53.314 317.996 52.3415 318.312 51.6595ZM310.658 55.7137H314.662V56.5347H311.555V63.2664H310.658V55.7137Z" fill="white"/>
<rect x="330.626" y="48.3191" width="0.789374" height="18.945" fill="#B3B3B3"/>
<path d="M345.331 52.4172H350.774V53.2887H345.331V52.4172ZM351.671 56.0168H356.748V56.9261H351.671V56.0168ZM354.412 56.6104H355.346V63.3422H354.412V56.6104ZM351.305 52.9603L352.492 53.2761C352.479 53.3645 352.416 53.415 352.239 53.4403V56.3325C352.239 58.3786 351.974 61.2708 350.08 63.3043C349.941 63.1022 349.6 62.7864 349.372 62.6728C351.128 60.8035 351.305 58.2649 351.305 56.3325V52.9603ZM345.798 54.6022H346.695V58.0123C346.695 59.629 346.543 61.8645 345.571 63.3548C345.419 63.178 345.028 62.8875 344.826 62.7738C345.71 61.4098 345.798 59.4648 345.798 58.0123V54.6022ZM355.662 51.8615L356.496 52.5814C355.245 53.1877 353.414 53.7055 351.835 54.0718C351.785 53.857 351.633 53.516 351.507 53.3013C353.01 52.9477 354.715 52.4046 355.662 51.8615ZM346.316 54.6022H350.459V58.5428H346.316V57.6839H349.537V55.4737H346.316V54.6022ZM358.706 52.2657H359.641V55.9663C359.641 58.1007 359.464 61.1951 358.175 63.2538C358.011 63.1148 357.594 62.8622 357.354 62.7864C358.605 60.7909 358.706 57.9871 358.706 55.9663V52.2657ZM359.274 52.2657H368.128V54.9053H359.274V54.1475H367.193V53.0235H359.274V52.2657ZM363.72 55.7389H364.591V61.776H363.72V55.7389ZM361.484 57.5197V58.4165H366.89V57.5197H361.484ZM360.626 56.9135H367.774V59.0227H360.626V56.9135ZM360.12 59.7553H367.964V60.4373H360.992V63.3422H360.12V59.7553ZM367.458 59.7553H368.33V62.4833C368.33 62.8875 368.254 63.0896 367.951 63.2032C367.635 63.3169 367.13 63.3169 366.334 63.3169C366.284 63.1148 366.17 62.8496 366.082 62.6475C366.638 62.6728 367.105 62.6728 367.269 62.6601C367.421 62.6475 367.458 62.6096 367.458 62.4833V59.7553ZM361.497 61.4982C362.71 61.4729 364.516 61.4098 366.322 61.334L366.309 61.9908C364.579 62.0792 362.823 62.1676 361.56 62.2307L361.497 61.4982ZM367.016 55.2085L367.597 55.7894C365.804 56.1431 362.924 56.3073 360.563 56.3325C360.55 56.1431 360.449 55.8652 360.373 55.701C362.672 55.6631 365.501 55.4989 367.016 55.2085ZM365.375 60.8035L365.943 60.6267C366.36 61.1824 366.852 61.9276 367.08 62.3697L366.486 62.597C366.259 62.1297 365.791 61.3719 365.375 60.8035Z" fill="white"/>
</g>
<g clip-path="url(#clip1_59_817)">
<rect width="94.7249" height="19" transform="translate(288 67.2915)" fill="white"/>
<path d="M303.497 74.6354H308.006V75.5069H303.497V74.6354ZM304.722 75.1785C305.429 78.0203 306.882 80.42 309.105 81.5061C308.89 81.6703 308.599 82.024 308.46 82.2639C306.174 81.0009 304.709 78.4876 303.952 75.3553L304.722 75.1785ZM299.859 72.8293H300.68V74.3323H299.859V72.8293ZM298.167 74.0166H299.026V81.1399H298.167V74.0166ZM298.672 75.709H301.741V76.391H298.672V75.709ZM297.296 80.9504C298.382 80.6599 300.024 80.18 301.602 79.7127L301.716 80.4831C300.289 80.963 298.799 81.4556 297.624 81.8345L297.296 80.9504ZM300.466 78.8286L301.236 78.5381C301.729 79.3212 302.272 80.3568 302.474 81.0136L301.666 81.3798C301.463 80.7104 300.946 79.6369 300.466 78.8286ZM298.672 74.0166H302.196V78.1339H298.672V77.4267H301.35V74.7238H298.672V74.0166ZM303.661 71.3137H308.7V72.1978H303.661V71.3137ZM303.181 71.3137H304.078V75.7469C304.078 77.755 303.876 80.521 302.436 82.3145C302.284 82.1376 301.893 81.8724 301.691 81.7714C303.055 80.0663 303.181 77.6287 303.181 75.7469V71.3137ZM307.804 74.6354H307.981L308.157 74.5975L308.713 74.8122C308.044 78.6265 306.288 81.0262 304.065 82.2639C303.926 82.0492 303.636 81.683 303.434 81.5314C305.593 80.42 307.235 78.2223 307.804 74.8249V74.6354ZM299.632 70.6949H300.137V70.897H300.428V71.1496C299.885 72.1094 298.975 73.4103 297.611 74.4586C297.472 74.2692 297.195 74.0039 296.992 73.8776C298.268 72.943 299.152 71.6926 299.632 70.6949ZM299.885 70.6949H300.554C301.337 71.339 302.284 72.2736 302.739 72.9051L302.12 73.5745C301.691 72.9556 300.807 71.9452 300.062 71.3264H299.885V70.6949ZM309.761 73.7134H313.336V74.5975H309.761V73.7134ZM314.232 73.4229H320.168V74.2439H314.232V73.4229ZM311.176 70.8591H312.06V78.7528H311.176V70.8591ZM309.521 79.3338C310.456 78.9423 311.871 78.2729 313.235 77.6287L313.437 78.4623C312.212 79.0938 310.885 79.7506 309.837 80.2558L309.521 79.3338ZM313.399 71.2632H321.027V73.4735H320.093V72.1094H314.308V73.4735H313.399V71.2632ZM315.281 75.5069L315.95 75.0648C318.754 77.1614 318.868 80.8746 317.668 81.8345C317.276 82.2008 316.897 82.2892 316.367 82.3018C316.102 82.3018 315.71 82.2892 315.344 82.2766C315.331 82.024 315.255 81.6451 315.091 81.3925C315.521 81.4304 315.925 81.443 316.177 81.443C316.481 81.443 316.733 81.4177 316.973 81.1904C317.832 80.521 317.769 77.4267 315.281 75.5069ZM317.112 73.7008L317.857 74.0292C316.746 75.0901 315.079 76.1131 313.651 76.7573C313.525 76.5931 313.247 76.2521 313.07 76.1131C314.51 75.5574 316.127 74.6481 317.112 73.7008ZM318.426 73.8271C318.918 76.4668 319.966 79.0559 321.495 80.2052C321.267 80.3821 320.939 80.7357 320.775 80.9883C319.196 79.6369 318.198 76.8836 317.655 74.0039L318.426 73.8271ZM316.417 76.2773L317.011 76.6815C316.278 77.414 314.876 78.3234 313.866 78.8412C313.727 78.6518 313.5 78.3613 313.298 78.2223C314.321 77.8056 315.723 76.972 316.417 76.2773ZM317.15 77.7298L317.807 78.1718C316.708 79.4348 314.649 80.8999 313.045 81.6577C312.919 81.443 312.692 81.1272 312.489 80.9378C314.106 80.2937 316.139 78.9296 317.15 77.7298ZM320.674 74.7996L321.293 75.4816C320.598 76.0879 319.726 76.7952 319.057 77.2246L318.59 76.6562C319.234 76.2015 320.156 75.3806 320.674 74.7996Z" fill="#424242"/>
<rect x="330.626" y="67.2915" width="0.789374" height="18.945" fill="#B3B3B3"/>
<path d="M343.013 73.9029H350.49V74.7239H343.013V73.9029ZM343.367 71.8569H350.212V72.6399H343.367V71.8569ZM344.857 70.6949H345.766V74.4081H344.857V70.6949ZM346.272 74.4334H347.156V79.5864H346.272V74.4334ZM347.775 70.6949H348.671V74.446H347.775V70.6949ZM344.402 78.1087V79.2075H349.139V78.1087H344.402ZM344.402 76.3532V77.4393H349.139V76.3532H344.402ZM343.569 75.6459H350.01V79.9148H343.569V75.6459ZM345.236 80.1801L346.057 80.6979C345.35 81.3041 344.213 81.9482 343.291 82.3145C343.152 82.1377 342.862 81.8472 342.66 81.6704C343.581 81.3167 344.693 80.6979 345.236 80.1801ZM339.009 73.3977H343.152V74.2945H339.009V73.3977ZM340.778 70.6823H341.662V82.2893H340.778V70.6823ZM340.752 73.9535L341.333 74.1555C340.942 76.1637 340.096 78.6518 339.174 79.9148C339.073 79.6622 338.858 79.3086 338.694 79.0939C339.54 77.9572 340.399 75.7596 340.752 73.9535ZM341.586 75.1533C341.876 75.4817 342.963 77.0478 343.19 77.4141L342.66 78.1466C342.382 77.5278 341.498 76.05 341.182 75.5575L341.586 75.1533ZM347.497 80.7484L348.179 80.2306C348.987 80.6474 350.073 81.2915 350.629 81.7335L349.909 82.3271C349.391 81.8851 348.33 81.2031 347.497 80.7484ZM351.5 81.5567C352.119 80.5589 352.991 78.8665 353.622 77.4015L354.38 77.9824C353.787 79.3338 353.003 80.9505 352.347 82.1377L351.5 81.5567ZM356.755 79.3212L357.714 79.6496C356.969 80.6474 355.858 81.6704 354.898 82.3271C354.721 82.1503 354.317 81.8346 354.09 81.683C355.075 81.102 356.11 80.1927 356.755 79.3212ZM359.558 79.7885L360.341 79.3212C361.289 80.0285 362.451 81.0641 363.006 81.7714L362.148 82.3145C361.63 81.6199 360.506 80.5337 359.558 79.7885ZM361.226 70.8339L361.983 71.579C360.405 72.0969 358.119 72.5263 356.148 72.8168C356.11 72.6021 355.984 72.2611 355.858 72.0463C357.765 71.7559 359.975 71.2885 361.226 70.8339ZM354.355 77.894H362.931V78.7908H354.355V77.894ZM356.123 74.2187H362.653V75.1028H356.123V74.2187ZM359.925 74.6607H360.847V78.5255H359.925V74.6607ZM355.656 71.7811L356.603 72.0085V78.4624H355.656V71.7811ZM351.879 71.478L352.41 70.796C353.218 71.137 354.229 71.718 354.721 72.1726L354.165 72.9431C353.685 72.4758 352.688 71.8569 351.879 71.478ZM351.197 74.9007L351.703 74.1934C352.524 74.5092 353.547 75.0649 354.064 75.4943L353.534 76.2774C353.029 75.8353 352.031 75.2544 351.197 74.9007ZM370.231 75.0144H374.992V75.8606H370.231V75.0144ZM367.263 80.9757H373.628V81.8219H367.263V80.9757ZM369.776 73.5114H370.736V78.134H369.776V73.5114ZM366.758 77.6793H374.146V82.3019H373.174V78.5382H367.679V82.3271H366.758V77.6793ZM369.334 70.6949H370.307V72.842H369.334V70.6949ZM365.128 72.3242H375.169V73.2336H365.128V72.3242ZM364.661 72.3242H365.608V75.5954C365.608 77.5404 365.431 80.3948 364.345 82.3145C364.181 82.1503 363.764 81.8851 363.537 81.7841C364.573 79.9653 364.661 77.4141 364.661 75.5954V72.3242Z" fill="#424242"/>
</g>
<g clip-path="url(#clip2_59_817)">
<rect width="94.7249" height="19" transform="translate(288 105.681)" fill="white"/>
<path d="M297.662 114.452H308.612V115.172H297.662V114.452ZM297.46 119.668H308.789V120.414H297.46V119.668ZM300.024 116.498V117.61H306.149V116.498H300.024ZM299.102 115.829H307.122V118.279H299.102V115.829ZM300.264 118.481L301.072 118.229C301.375 118.62 301.678 119.163 301.792 119.542L300.933 119.845C300.832 119.454 300.554 118.898 300.264 118.481ZM305.139 118.178L305.972 118.481C305.682 118.986 305.366 119.479 305.101 119.845L304.356 119.555C304.608 119.176 304.962 118.57 305.139 118.178ZM299.493 112.204V113.113H306.604V112.204H299.493ZM299.493 110.663V111.56H306.604V110.663H299.493ZM298.622 109.981H307.513V113.795H298.622V109.981ZM301.236 109.059H302.057V113.555H301.236V109.059ZM303.914 109.059H304.76V113.555H303.914V109.059ZM310.001 111.737H321.027V112.697H310.001V111.737ZM312.527 117.37H318.413V118.33H312.527V117.37ZM314.99 109.084H315.988V120.691H314.99V109.084ZM314.7 112.052L315.546 112.343C314.422 115.021 312.439 117.433 310.254 118.708C310.102 118.469 309.787 118.115 309.572 117.925C311.681 116.827 313.689 114.477 314.7 112.052ZM316.304 112.09C317.301 114.49 319.284 116.789 321.469 117.837C321.229 118.039 320.901 118.418 320.749 118.683C318.514 117.445 316.569 115.033 315.457 112.381L316.304 112.09Z" fill="#424242"/>
<rect x="330.626" y="105.681" width="0.789374" height="18.945" fill="#B3B3B3"/>
<path d="M346.726 118.342L347.37 117.723C348.444 118.355 349.821 119.315 350.49 119.984L349.821 120.704C349.177 120.022 347.838 119.024 346.726 118.342ZM342.028 113.366H350.49V114.275H342.028V113.366ZM346.625 110.827H350.01V111.711H346.625V110.827ZM346.095 109.072H347.029V113.947H346.095V109.072ZM343.544 110.145H344.453V113.871H343.544V110.145ZM342.824 115.159L343.518 114.642C344.238 115.21 345.11 116.044 345.501 116.625L344.769 117.193C344.39 116.612 343.556 115.753 342.824 115.159ZM349.088 114.49L349.947 115.046C349.227 115.791 348.318 116.65 347.598 117.193L346.903 116.713C347.598 116.145 348.545 115.197 349.088 114.49ZM342.003 119.807C342.849 119.34 344.162 118.544 345.413 117.761L345.716 118.582C344.642 119.315 343.468 120.06 342.546 120.628L342.003 119.807ZM339.502 109.867L340.032 109.185C340.828 109.526 341.826 110.095 342.306 110.537L341.763 111.307C341.283 110.853 340.31 110.246 339.502 109.867ZM338.833 113.303L339.35 112.596C340.159 112.899 341.182 113.442 341.687 113.859L341.144 114.642C340.651 114.212 339.654 113.644 338.833 113.303ZM339.212 119.908C339.856 118.936 340.778 117.256 341.46 115.816L342.18 116.397C341.561 117.736 340.727 119.34 340.032 120.515L339.212 119.908ZM353.9 119.353H360.266V120.186H353.9V119.353ZM353.534 115.627H360.67V120.691H359.672V116.473H354.506V120.704H353.534V115.627ZM357.032 112.393C355.997 113.997 353.963 115.854 351.854 117.029C351.728 116.814 351.475 116.486 351.261 116.284C353.446 115.147 355.529 113.189 356.502 111.471H357.449C358.763 113.416 360.96 115.223 362.943 116.145C362.716 116.372 362.501 116.7 362.337 116.966C360.379 115.917 358.194 114.086 357.032 112.393ZM358.232 109.83L358.965 109.312C360.177 110.171 361.68 111.421 362.4 112.292L361.604 112.886C360.935 112.015 359.47 110.726 358.232 109.83ZM354.911 109.35L355.845 109.678C354.961 110.954 353.635 112.204 352.46 113C352.284 112.823 351.905 112.482 351.677 112.33C352.89 111.61 354.14 110.486 354.911 109.35ZM370.231 113.404H374.992V114.25H370.231V113.404ZM367.263 119.365H373.628V120.211H367.263V119.365ZM369.776 111.901H370.736V116.523H369.776V111.901ZM366.758 116.069H374.146V120.691H373.174V116.928H367.679V120.717H366.758V116.069ZM369.334 109.084H370.307V111.232H369.334V109.084ZM365.128 110.714H375.169V111.623H365.128V110.714ZM364.661 110.714H365.608V113.985C365.608 115.93 365.431 118.784 364.345 120.704C364.181 120.54 363.764 120.275 363.537 120.174C364.573 118.355 364.661 115.804 364.661 113.985V110.714Z" fill="#424242"/>
</g>
<g clip-path="url(#clip3_59_817)">
<rect width="94.7249" height="19" transform="translate(288 86.264)" fill="#DFE2F4"/>
<path d="M299.733 92.547H307.362V93.4059H299.733V92.547ZM299.733 95.073H307.21V95.894H299.733V95.073ZM299.518 97.6622H307.261V98.4958H299.518V97.6622ZM299.215 92.547H300.137V95.7172C300.137 97.5106 299.809 99.8345 297.877 101.338C297.75 101.148 297.409 100.807 297.22 100.668C299.013 99.2788 299.215 97.3212 299.215 95.7045V92.547ZM306.856 92.547H307.804V100.075C307.804 100.693 307.64 100.996 307.172 101.135C306.692 101.287 305.859 101.3 304.583 101.3C304.533 101.047 304.356 100.63 304.217 100.378C305.227 100.416 306.212 100.416 306.503 100.39C306.781 100.39 306.856 100.314 306.856 100.075V92.547ZM302.941 92.9007H303.838V98.079H302.941V92.9007ZM300.933 90.3999H304.911V91.2083H300.933V90.3999ZM301.059 89.6295L302.082 89.8063C301.249 91.3093 299.986 92.9891 298.192 94.29C298.041 94.0626 297.738 93.7469 297.51 93.608C299.215 92.4586 300.415 90.8925 301.059 89.6295ZM304.596 90.3999H304.798L304.962 90.362L305.593 90.7788C305.164 91.625 304.444 92.6102 303.863 93.2291C303.686 93.0901 303.383 92.9007 303.181 92.787C303.712 92.2187 304.305 91.2461 304.596 90.5768V90.3999ZM310.911 99.443H320.143V100.403H310.911V99.443ZM310.936 94.9341H320.143V95.8814H310.936V94.9341ZM310.405 90.5262H320.636V101.173H319.663V91.4482H311.34V101.173H310.405V90.5262ZM314.952 90.9683H315.912V99.9229H314.952V90.9683Z" fill="#424242"/>
<rect x="330.626" y="86.264" width="0.789374" height="18.945" fill="#B3B3B3"/>
<path d="M346.726 98.9252L347.37 98.3063C348.444 98.9378 349.821 99.8977 350.49 100.567L349.821 101.287C349.177 100.605 347.838 99.6072 346.726 98.9252ZM342.028 93.949H350.49V94.8583H342.028V93.949ZM346.625 91.4103H350.01V92.2944H346.625V91.4103ZM346.095 89.6548H347.029V94.5299H346.095V89.6548ZM343.544 90.7283H344.453V94.4542H343.544V90.7283ZM342.824 95.7424L343.518 95.2246C344.238 95.7929 345.11 96.6265 345.501 97.2075L344.769 97.7759C344.39 97.1949 343.556 96.336 342.824 95.7424ZM349.088 95.073L349.947 95.6288C349.227 96.3739 348.318 97.2328 347.598 97.7759L346.903 97.2959C347.598 96.7276 348.545 95.7803 349.088 95.073ZM342.003 100.39C342.849 99.9229 344.162 99.1273 345.413 98.3442L345.716 99.1651C344.642 99.8977 343.468 100.643 342.546 101.211L342.003 100.39ZM339.502 90.4505L340.032 89.7684C340.828 90.1095 341.826 90.6778 342.306 91.1198L341.763 91.8903C341.283 91.4356 340.31 90.8294 339.502 90.4505ZM338.833 93.8858L339.35 93.1785C340.159 93.4817 341.182 94.0247 341.687 94.4415L341.144 95.2246C340.651 94.7952 339.654 94.2268 338.833 93.8858ZM339.212 100.491C339.856 99.5188 340.778 97.839 341.46 96.3992L342.18 96.9802C341.561 98.3189 340.727 99.9229 340.032 101.098L339.212 100.491ZM353.9 99.9356H360.266V100.769H353.9V99.9356ZM353.534 96.2097H360.67V101.274H359.672V97.0559H354.506V101.287H353.534V96.2097ZM357.032 92.9765C355.997 94.5805 353.963 96.4371 351.854 97.6117C351.728 97.397 351.475 97.0686 351.261 96.8665C353.446 95.7298 355.529 93.7721 356.502 92.0545H357.449C358.763 93.9995 360.96 95.8056 362.943 96.7276C362.716 96.9549 362.501 97.2833 362.337 97.5485C360.379 96.5002 358.194 94.6689 357.032 92.9765ZM358.232 90.4126L358.965 89.8947C360.177 90.7536 361.68 92.0039 362.4 92.8754L361.604 93.469C360.935 92.5976 359.47 91.3093 358.232 90.4126ZM354.911 89.9326L355.845 90.261C354.961 91.5366 353.635 92.787 352.46 93.5827C352.284 93.4059 351.905 93.0649 351.677 92.9133C352.89 92.1934 354.14 91.0693 354.911 89.9326ZM370.231 93.9869H374.992V94.8331H370.231V93.9869ZM367.263 99.9482H373.628V100.794H367.263V99.9482ZM369.776 92.4839H370.736V97.1065H369.776V92.4839ZM366.758 96.6518H374.146V101.274H373.174V97.5106H367.679V101.3H366.758V96.6518ZM369.334 89.6674H370.307V91.8145H369.334V89.6674ZM365.128 91.2967H375.169V92.206H365.128V91.2967ZM364.661 91.2967H365.608V94.5678C365.608 96.5129 365.431 99.3672 364.345 101.287C364.181 101.123 363.764 100.858 363.537 100.757C364.573 98.9378 364.661 96.3866 364.661 94.5678V91.2967Z" fill="#424242"/>
</g>
<g clip-path="url(#clip4_59_817)">
<rect width="103.408" height="19" transform="translate(396.524 48.3191)" fill="#4F60C6"/>
<path d="M416.754 56.042H421.516V56.8882H416.754V56.042ZM413.786 62.0034H420.152V62.8496H413.786V62.0034ZM416.299 54.5391H417.259V59.1616H416.299V54.5391ZM413.281 58.707H420.669V63.3295H419.697V59.5658H414.203V63.3548H413.281V58.707ZM415.857 51.7226H416.83V53.8697H415.857V51.7226ZM411.652 53.3518H421.692V54.2612H411.652V53.3518ZM411.184 53.3518H412.132V56.623C412.132 58.568 411.955 61.4224 410.869 63.3422C410.704 63.178 410.288 62.9127 410.06 62.8117C411.096 60.993 411.184 58.4417 411.184 56.623V53.3518ZM426.656 61.9529H432.756V62.8243H426.656V61.9529ZM426.227 52.9856H430.862V53.8318H426.227V52.9856ZM426.795 51.6721L427.856 51.8868C426.909 53.5287 425.393 55.2463 423.195 56.5472C423.056 56.3073 422.741 55.9789 422.526 55.8147C424.61 54.678 426.062 53.0487 426.795 51.6721ZM430.546 52.9856H430.723L430.9 52.9351L431.531 53.2761C430.016 57.0903 426.454 59.629 423.019 60.7404C422.905 60.4878 422.665 60.0963 422.463 59.8942C425.734 58.9469 429.233 56.4715 430.546 53.1498V52.9856ZM424.648 55.2337L425.355 54.6275C426.353 55.3095 427.565 56.3199 428.146 57.0398L427.376 57.7218C426.845 57.0019 425.646 55.941 424.648 55.2337ZM432.289 57.9618H433.262V63.3548H432.289V57.9618ZM427.085 57.9618H432.769V58.8333H427.085V63.3295H426.138V58.707L426.896 57.9618H427.085Z" fill="white"/>
<rect x="447.833" y="48.3191" width="0.789374" height="18.945" fill="#B3B3B3"/>
<path d="M463.693 53.0866H464.59V60.0457H463.693V53.0866ZM466.27 51.9373H467.205V62.0286C467.205 62.6728 467.053 62.9506 466.649 63.1148C466.257 63.2664 465.537 63.3043 464.552 63.3043C464.514 63.0264 464.375 62.5844 464.237 62.2939C465.007 62.3318 465.752 62.3191 466.005 62.3191C466.207 62.3065 466.27 62.2434 466.27 62.0286V51.9373ZM457.479 61.9023H461.723V62.6601H457.479V61.9023ZM456.267 57.9365H462.797V58.6943H456.267V57.9365ZM456.962 54.8296H462.203V55.5495H456.962V54.8296ZM457.025 56.3704H462.052V57.0651H457.025V56.3704ZM459.096 51.7478H460.018V53.314H459.096V51.7478ZM459.121 54.0086H460.005V58.3533H459.121V54.0086ZM457.025 59.389H462.216V63.1653H461.319V60.1342H457.896V63.3043H457.025V59.389ZM456.267 52.8845H462.936V54.8801H462.052V53.6423H457.113V54.8801H456.267V52.8845ZM473.747 51.71H474.77V56.6988H473.747V51.71ZM469.478 52.6193L470.337 52.2657C471.044 53.1498 471.726 54.3496 472.017 55.1453L471.12 55.5495C470.842 54.7285 470.147 53.5034 469.478 52.6193ZM478.079 52.1646L479.089 52.5056C478.559 53.5792 477.839 54.8169 477.271 55.6379L476.45 55.3095C477.005 54.4759 477.7 53.1245 478.079 52.1646ZM469.655 56.181H478.925V63.3422H477.927V57.1282H469.655V56.181ZM470.084 58.9596H478.306V59.8816H470.084V58.9596ZM469.415 61.8518H478.433V62.7864H469.415V61.8518ZM487.817 57.8102H488.764V61.7887C488.764 62.1676 488.852 62.2307 489.332 62.2307C489.547 62.2307 490.633 62.2307 490.936 62.2307C491.404 62.2307 491.467 61.9781 491.517 60.3362C491.732 60.5004 492.136 60.652 492.401 60.7151C492.3 62.6349 492.022 63.1401 490.999 63.1401C490.759 63.1401 489.459 63.1401 489.219 63.1401C488.095 63.1401 487.817 62.8243 487.817 61.776V57.8102ZM481.123 57.1535H492.225V58.0628H481.123V57.1535ZM483.194 53.6802H491.315V54.6022H483.194V53.6802ZM484.444 57.8481H485.43C485.177 60.4246 484.52 62.3823 481.552 63.4053C481.439 63.1527 481.161 62.7864 480.946 62.597C483.712 61.7382 484.23 60.0457 484.444 57.8481ZM483.447 52.0131L484.407 52.2025C484.015 53.6423 483.346 55.4105 482.462 56.5346C482.247 56.383 481.868 56.181 481.641 56.0799C482.499 55.019 483.144 53.3266 483.447 52.0131ZM486.187 51.7226H487.147V57.444H486.187V51.7226Z" fill="white"/>
</g>
<g clip-path="url(#clip5_59_817)">
<rect width="103.408" height="19" transform="translate(396.524 67.1433)" fill="white"/>
<path d="M408.122 73.7547H415.598V74.5757H408.122V73.7547ZM408.475 71.7087H415.321V72.4917H408.475V71.7087ZM409.966 70.5467H410.875V74.2599H409.966V70.5467ZM411.38 74.2852H412.264V79.4382H411.38V74.2852ZM412.883 70.5467H413.78V74.2978H412.883V70.5467ZM409.511 77.9605V79.0593H414.247V77.9605H409.511ZM409.511 76.2049V77.2911H414.247V76.2049H409.511ZM408.677 75.4977H415.119V79.7666H408.677V75.4977ZM410.344 80.0318L411.165 80.5496C410.458 81.1559 409.321 81.8 408.399 82.1663C408.26 81.9895 407.97 81.699 407.768 81.5222C408.69 81.1685 409.801 80.5496 410.344 80.0318ZM404.118 73.2495H408.26V74.1462H404.118V73.2495ZM405.886 70.5341H406.77V82.141H405.886V70.5341ZM405.861 73.8052L406.442 74.0073C406.05 76.0155 405.204 78.5036 404.282 79.7666C404.181 79.514 403.966 79.1603 403.802 78.9456C404.648 77.8089 405.507 75.6113 405.861 73.8052ZM406.694 75.0051C406.985 75.3335 408.071 76.8996 408.298 77.2658L407.768 77.9984C407.49 77.3795 406.606 75.9018 406.29 75.4092L406.694 75.0051ZM412.605 80.6002L413.287 80.0823C414.096 80.4991 415.182 81.1433 415.737 81.5853L415.018 82.1789C414.5 81.7369 413.439 81.0548 412.605 80.6002ZM416.609 81.4085C417.228 80.4107 418.099 78.7183 418.731 77.2532L419.489 77.8342C418.895 79.1856 418.112 80.8022 417.455 81.9895L416.609 81.4085ZM421.863 79.173L422.823 79.5014C422.078 80.4991 420.966 81.5222 420.006 82.1789C419.83 82.0021 419.425 81.6863 419.198 81.5348C420.183 80.9538 421.219 80.0444 421.863 79.173ZM424.667 79.6403L425.45 79.173C426.397 79.8803 427.559 80.9159 428.115 81.6232L427.256 82.1663C426.738 81.4716 425.614 80.3855 424.667 79.6403ZM426.334 70.6856L427.092 71.4308C425.513 71.9486 423.227 72.378 421.257 72.6685C421.219 72.4538 421.093 72.1128 420.966 71.8981C422.873 71.6076 425.084 71.1403 426.334 70.6856ZM419.463 77.7458H428.039V78.6425H419.463V77.7458ZM421.231 74.0705H427.761V74.9546H421.231V74.0705ZM425.033 74.5125H425.955V78.3773H425.033V74.5125ZM420.764 71.6329L421.711 71.8602V78.3141H420.764V71.6329ZM416.988 71.3298L417.518 70.6477C418.327 70.9887 419.337 71.5697 419.83 72.0244L419.274 72.7948C418.794 72.3275 417.796 71.7087 416.988 71.3298ZM416.306 74.7525L416.811 74.0452C417.632 74.361 418.655 74.9167 419.173 75.3461L418.642 76.1291C418.137 75.6871 417.139 75.1061 416.306 74.7525ZM435.339 74.8662H440.101V75.7124H435.339V74.8662ZM432.371 80.8275H438.737V81.6737H432.371V80.8275ZM434.884 73.3632H435.844V77.9858H434.884V73.3632ZM431.866 77.5311H439.254V82.1537H438.282V78.3899H432.788V82.1789H431.866V77.5311ZM434.442 70.5467H435.415V72.6938H434.442V70.5467ZM430.237 72.176H440.277V73.0853H430.237V72.176ZM429.769 72.176H430.717V75.4471C430.717 77.3921 430.54 80.2465 429.454 82.1663C429.289 82.0021 428.873 81.7369 428.645 81.6358C429.681 79.8171 429.769 77.2658 429.769 75.4471V72.176Z" fill="#424242"/>
<rect x="447.833" y="67.1433" width="0.789374" height="18.945" fill="#B3B3B3"/>
<path d="M461.458 75.2198H466.99V76.0534H461.458V75.2198ZM461.433 77.7205H467.129V78.5794H461.433V77.7205ZM463.693 70.5341H464.603V82.1537H463.693V70.5341ZM460.978 72.7317H467.432V79.0593H466.535V73.5905H461.862V79.1225H460.978V72.7317ZM456.267 72.9085H460.081V73.78H456.267V72.9085ZM457.997 70.5467H458.919V73.3379H457.997V70.5467ZM459.02 75.7755C459.361 76.0281 460.523 77.1017 460.801 77.3795L460.245 78.1499C459.879 77.6826 458.881 76.647 458.477 76.2554L459.02 75.7755ZM459.74 72.9085H459.942L460.107 72.8706L460.637 73.2116C459.765 75.5103 457.972 77.6321 456.292 78.8067C456.204 78.5667 455.964 78.1247 455.8 77.9605C457.378 76.9375 459.033 75.0177 459.74 73.1106V72.9085ZM457.997 76.7101L458.919 75.5734V82.141H457.997V76.7101ZM468.783 72.1886H479.759V73.0474H468.783V72.1886ZM469.731 77.3416H478.824V78.1752H469.731V77.3416ZM471.638 75.043H476.93V75.8766H471.638V75.043ZM475.919 72.5549C476.778 74.0073 478.508 75.3714 480.201 76.0029C479.986 76.1797 479.696 76.5333 479.544 76.7733C477.839 76.0281 476.109 74.5125 475.136 72.8454L475.919 72.5549ZM473.797 77.7963H474.745V81.1559C474.745 81.6611 474.631 81.9011 474.239 82.0274C473.848 82.1537 473.229 82.1663 472.294 82.1663C472.231 81.9137 472.08 81.5727 471.941 81.3327C472.673 81.358 473.355 81.358 473.545 81.3453C473.734 81.3453 473.797 81.2948 473.797 81.1433V77.7963ZM471.183 78.8825L472.092 79.1477C471.461 80.1581 470.463 81.1433 469.566 81.8C469.39 81.6358 469.023 81.3201 468.809 81.1938C469.705 80.6128 470.627 79.754 471.183 78.8825ZM476.197 79.3245L476.955 78.8699C477.839 79.6024 478.938 80.6254 479.468 81.3074L478.66 81.8126C478.155 81.1433 477.081 80.0697 476.197 79.3245ZM473.381 70.5341L474.416 70.673C473.658 73.0095 471.966 75.4092 468.922 76.8869C468.783 76.647 468.48 76.3186 468.265 76.167C471.221 74.8409 472.825 72.5801 473.381 70.5341ZM482.361 71.2287H483.32V75.5355C483.32 77.9479 483.144 80.3728 481.489 82.2547C481.312 82.0526 480.933 81.7495 480.693 81.5979C482.184 79.8929 482.361 77.7079 482.361 75.5229V71.2287ZM486.377 71.7465H487.324V81.0422H486.377V71.7465ZM490.621 71.1908H491.606V82.141H490.621V71.1908Z" fill="#424242"/>
</g>
<g clip-path="url(#clip6_59_817)">
<rect width="103.408" height="19" transform="translate(396.524 86.264)" fill="#DFE2F4"/>
<path d="M411.835 98.9252L412.479 98.3063C413.552 98.9378 414.929 99.8977 415.598 100.567L414.929 101.287C414.285 100.605 412.946 99.6072 411.835 98.9252ZM407.136 93.949H415.598V94.8583H407.136V93.949ZM411.734 91.4103H415.119V92.2944H411.734V91.4103ZM411.203 89.6548H412.138V94.5299H411.203V89.6548ZM408.652 90.7283H409.561V94.4542H408.652V90.7283ZM407.932 95.7424L408.627 95.2246C409.347 95.7929 410.218 96.6265 410.61 97.2075L409.877 97.7759C409.498 97.1949 408.665 96.336 407.932 95.7424ZM414.197 95.073L415.055 95.6288C414.335 96.3739 413.426 97.2328 412.706 97.7759L412.012 97.2959C412.706 96.7276 413.653 95.7803 414.197 95.073ZM407.111 100.39C407.957 99.9229 409.271 99.1273 410.521 98.3442L410.824 99.1651C409.751 99.8977 408.576 100.643 407.654 101.211L407.111 100.39ZM404.61 90.4505L405.141 89.7684C405.937 90.1095 406.934 90.6778 407.414 91.1198L406.871 91.8903C406.391 91.4356 405.419 90.8294 404.61 90.4505ZM403.941 93.8858L404.459 93.1785C405.267 93.4817 406.29 94.0247 406.795 94.4415L406.252 95.2246C405.76 94.7952 404.762 94.2268 403.941 93.8858ZM404.32 100.491C404.964 99.5188 405.886 97.839 406.568 96.3992L407.288 96.9802C406.669 98.3189 405.836 99.9229 405.141 101.098L404.32 100.491ZM419.009 99.9356H425.374V100.769H419.009V99.9356ZM418.642 96.2097H425.778V101.274H424.78V97.0559H419.615V101.287H418.642V96.2097ZM422.141 92.9765C421.105 94.5805 419.072 96.4371 416.963 97.6117C416.836 97.397 416.584 97.0686 416.369 96.8665C418.554 95.7298 420.638 93.7721 421.61 92.0545H422.558C423.871 93.9995 426.069 95.8056 428.052 96.7276C427.824 96.9549 427.61 97.2833 427.445 97.5485C425.488 96.5002 423.303 94.6689 422.141 92.9765ZM423.341 90.4126L424.073 89.8947C425.286 90.7536 426.789 92.0039 427.509 92.8754L426.713 93.469C426.043 92.5976 424.578 91.3093 423.341 90.4126ZM420.019 89.9326L420.954 90.261C420.07 91.5366 418.743 92.787 417.569 93.5827C417.392 93.4059 417.013 93.0649 416.786 92.9133C417.998 92.1934 419.249 91.0693 420.019 89.9326ZM435.339 93.9869H440.101V94.8331H435.339V93.9869ZM432.371 99.9482H438.737V100.794H432.371V99.9482ZM434.884 92.4839H435.844V97.1065H434.884V92.4839ZM431.866 96.6518H439.254V101.274H438.282V97.5106H432.788V101.3H431.866V96.6518ZM434.442 89.6674H435.415V91.8145H434.442V89.6674ZM430.237 91.2967H440.277V92.206H430.237V91.2967ZM429.769 91.2967H430.717V94.5678C430.717 96.5129 430.54 99.3672 429.454 101.287C429.289 101.123 428.873 100.858 428.645 100.757C429.681 98.9378 429.769 96.3866 429.769 94.5678V91.2967Z" fill="#424242"/>
<rect x="447.833" y="86.264" width="0.789374" height="18.945" fill="#B3B3B3"/>
<path d="M462.588 90.8673H473.627V91.7513H462.588V90.8673ZM467.552 89.6674H468.537V101.274H467.552V89.6674ZM467.261 96.9044L468.057 97.258C466.87 98.8494 464.786 100.327 462.942 101.085C462.79 100.845 462.5 100.479 462.273 100.289C464.117 99.6451 466.188 98.2937 467.261 96.9044ZM468.853 96.917C469.939 98.3063 472.048 99.6577 473.917 100.289C473.69 100.479 473.4 100.845 473.248 101.11C471.379 100.365 469.27 98.8494 468.082 97.2707L468.853 96.917ZM464.622 95.4898V96.7023H471.644V95.4898H464.622ZM464.622 93.5701V94.7699H471.644V93.5701H464.622ZM463.7 92.8249H472.604V97.4601H463.7V92.8249ZM474.966 91.1198H485.992V92.0292H474.966V91.1198ZM479.942 89.6548H480.94V91.5998H479.942V89.6548ZM477.454 94.0247V96.0961H483.541V94.0247H477.454ZM476.519 93.1912H484.539V96.9423H476.519V93.1912ZM482.822 98.1042L483.68 97.6874C484.527 98.5084 485.575 99.6703 486.093 100.416L485.171 100.895C484.703 100.163 483.68 98.9504 482.822 98.1042ZM479.955 96.5886H480.94V100.176C480.94 100.731 480.813 100.996 480.371 101.135C479.942 101.274 479.222 101.287 478.098 101.274C478.047 101.022 477.908 100.643 477.782 100.39C478.641 100.416 479.437 100.403 479.664 100.39C479.891 100.39 479.955 100.34 479.955 100.163V96.5886ZM477.05 97.6748L478.01 97.9779C477.403 98.9757 476.431 100.1 475.484 100.807C475.294 100.63 474.953 100.378 474.738 100.251C475.648 99.5946 476.582 98.5463 477.05 97.6748Z" fill="#424242"/>
</g>
<g clip-path="url(#clip7_59_817)">
<rect width="103.408" height="19" transform="translate(396.524 105.236)" fill="white"/>
<path d="M404.686 110.888H414.866V116.837H413.881V111.822H405.633V116.9H404.686V110.888ZM405.191 115.182H414.449V116.104H405.191V115.182ZM409.258 108.627H410.243V120.234H409.258V108.627ZM417.569 112.176V113.565H421.408V112.176H417.569ZM417.569 110.054V111.431H421.408V110.054H417.569ZM416.773 109.271H422.229V114.361H416.773V109.271ZM416.748 115.776H422.242V116.647H416.748V115.776ZM416.344 118.845C417.859 118.655 420.246 118.34 422.545 118.024L422.57 118.87C420.385 119.198 418.061 119.539 416.47 119.767L416.344 118.845ZM422.646 109.284H427.256V110.143H422.646V109.284ZM422.507 113.351H427.445V114.247H422.507V113.351ZM426.852 109.284H427.079L427.281 109.233L427.9 109.65C427.243 110.661 426.22 111.759 425.273 112.441C425.147 112.277 424.882 112.025 424.73 111.898C425.526 111.292 426.422 110.244 426.852 109.461V109.284ZM423.151 111.494L423.745 110.913C424.869 111.481 426.157 112.416 426.801 113.073L426.195 113.73C425.538 113.035 424.263 112.088 423.151 111.494ZM427.155 113.351H427.306L427.458 113.313L428.102 113.477C427.786 114.525 427.408 115.738 427.029 116.483L426.258 116.268C426.574 115.586 426.928 114.437 427.155 113.515V113.351ZM424.541 113.793H425.475V119.097C425.475 119.628 425.374 119.918 424.97 120.082C424.578 120.234 423.934 120.234 422.987 120.234C422.949 119.969 422.81 119.577 422.671 119.299C423.429 119.325 424.073 119.325 424.288 119.312C424.49 119.312 424.541 119.249 424.541 119.072V113.793ZM419.084 109.562H419.905V114.007H419.956V118.681H419.046V114.007H419.084V109.562ZM435.339 112.959H440.101V113.805H435.339V112.959ZM432.371 118.921H438.737V119.767H432.371V118.921ZM434.884 111.456H435.844V116.079H434.884V111.456ZM431.866 115.624H439.254V120.247H438.282V116.483H432.788V120.272H431.866V115.624ZM434.442 108.64H435.415V110.787H434.442V108.64ZM430.237 110.269H440.277V111.178H430.237V110.269ZM429.769 110.269H430.717V113.54C430.717 115.485 430.54 118.34 429.454 120.259C429.289 120.095 428.873 119.83 428.645 119.729C429.681 117.91 429.769 115.359 429.769 113.54V110.269Z" fill="#424242"/>
<rect x="447.833" y="105.236" width="0.789374" height="18.945" fill="#B3B3B3"/>
<path d="M462.588 109.84H473.627V110.724H462.588V109.84ZM467.552 108.64H468.537V120.247H467.552V108.64ZM467.261 115.877L468.057 116.23C466.87 117.822 464.786 119.299 462.942 120.057C462.79 119.817 462.5 119.451 462.273 119.262C464.117 118.617 466.188 117.266 467.261 115.877ZM468.853 115.889C469.939 117.279 472.048 118.63 473.917 119.262C473.69 119.451 473.4 119.817 473.248 120.082C471.379 119.337 469.27 117.822 468.082 116.243L468.853 115.889ZM464.622 114.462V115.675H471.644V114.462H464.622ZM464.622 112.542V113.742H471.644V112.542H464.622ZM463.7 111.797H472.604V116.432H463.7V111.797ZM474.966 110.092H485.992V111.002H474.966V110.092ZM479.942 108.627H480.94V110.572H479.942V108.627ZM477.454 112.997V115.068H483.541V112.997H477.454ZM476.519 112.163H484.539V115.915H476.519V112.163ZM482.822 117.077L483.68 116.66C484.527 117.481 485.575 118.643 486.093 119.388L485.171 119.868C484.703 119.135 483.68 117.923 482.822 117.077ZM479.955 115.561H480.94V119.148C480.94 119.704 480.813 119.969 480.371 120.108C479.942 120.247 479.222 120.259 478.098 120.247C478.047 119.994 477.908 119.615 477.782 119.363C478.641 119.388 479.437 119.375 479.664 119.363C479.891 119.363 479.955 119.312 479.955 119.135V115.561ZM477.05 116.647L478.01 116.95C477.403 117.948 476.431 119.072 475.484 119.779C475.294 119.603 474.953 119.35 474.738 119.224C475.648 118.567 476.582 117.519 477.05 116.647Z" fill="#424242"/>
</g>
<g clip-path="url(#clip8_59_817)">
<rect width="103.408" height="19" transform="translate(513.731 48.3191)" fill="#4F60C6"/>
<path d="M528.259 52.4678H532.048V53.3645H529.181V63.3422H528.259V52.4678ZM521.527 53.1119H527.564V53.9581H521.527V53.1119ZM521.199 56.6104H527.728V57.4819H521.199V56.6104ZM524.066 51.7605H524.988V53.6297H524.066V51.7605ZM522.31 54.4001L523.106 54.2233C523.384 54.8548 523.624 55.701 523.699 56.2567L522.853 56.4588C522.79 55.9031 522.575 55.0443 522.31 54.4001ZM525.935 54.1349L526.844 54.3496C526.566 55.0948 526.263 55.941 525.985 56.4967L525.228 56.2946C525.48 55.7137 525.783 54.779 525.935 54.1349ZM522.386 61.7634H526.541V62.6096H522.386V61.7634ZM522.045 58.5807H527.021V63.279H526.112V59.4269H522.929V63.3422H522.045V58.5807ZM531.795 52.4678H531.985L532.136 52.4299L532.831 52.8719C532.313 54.0591 531.656 55.5242 531.075 56.6862C532.351 57.8608 532.654 58.8585 532.667 59.7679C532.667 60.5383 532.49 61.1319 532.048 61.435C531.82 61.574 531.543 61.6624 531.214 61.7129C530.898 61.7508 530.482 61.7382 530.115 61.7255C530.103 61.4603 530.014 61.0561 529.85 60.7909C530.216 60.8162 530.583 60.8288 530.835 60.8162C531.05 60.8035 531.227 60.753 531.378 60.6646C531.656 60.5004 531.745 60.1342 531.745 59.6668C531.732 58.8712 531.366 57.9239 530.09 56.8125C530.734 55.5116 531.416 53.7686 531.795 52.7709V52.4678ZM534.675 54.2233H538.186V54.9432H534.675V54.2233ZM540.485 54.2233H544.059V54.9432H540.485V54.2233ZM543.655 52.3162H544.602V62.0413C544.602 62.6854 544.45 62.9885 544.021 63.1401C543.579 63.3043 542.834 63.3169 541.684 63.3169C541.634 63.0517 541.47 62.6096 541.331 62.3318C542.202 62.3823 543.074 62.3697 543.326 62.357C543.579 62.3444 543.655 62.2812 543.655 62.0413V52.3162ZM534.751 52.3162H538.742V56.9514H534.751V56.1557H537.845V53.1119H534.751V52.3162ZM544.147 52.3162V53.1119H540.838V56.1683H544.147V56.964H539.929V52.3162H544.147ZM534.22 52.3162H535.155V63.3295H534.22V52.3162ZM550.058 61.9529H556.158V62.8243H550.058V61.9529ZM549.629 52.9856H554.264V53.8318H549.629V52.9856ZM550.197 51.6721L551.258 51.8868C550.311 53.5287 548.795 55.2463 546.597 56.5472C546.459 56.3073 546.143 55.9789 545.928 55.8147C548.012 54.678 549.464 53.0487 550.197 51.6721ZM553.948 52.9856H554.125L554.302 52.9351L554.933 53.2761C553.418 57.0903 549.856 59.629 546.421 60.7404C546.307 60.4878 546.067 60.0963 545.865 59.8942C549.136 58.9469 552.635 56.4715 553.948 53.1498V52.9856ZM548.05 55.2337L548.757 54.6275C549.755 55.3095 550.967 56.3199 551.548 57.0398L550.778 57.7218C550.248 57.0019 549.048 55.941 548.05 55.2337ZM555.691 57.9618H556.664V63.3548H555.691V57.9618ZM550.487 57.9618H556.171V58.8333H550.487V63.3295H549.54V58.707L550.298 57.9618H550.487Z" fill="white"/>
<rect x="565.04" y="48.3191" width="0.789374" height="18.945" fill="#B3B3B3"/>
<path d="M573.537 53.0361H578.829V53.857H573.537V53.0361ZM573.285 55.9915H578.968V56.7998H573.285V55.9915ZM575.76 51.7478H576.669V53.5666H575.76V51.7478ZM575.785 56.7493H576.695V63.3295H575.785V56.7493ZM575.773 58.4165L576.442 58.808C575.874 60.1594 574.762 61.6371 573.714 62.4707C573.588 62.2434 573.36 61.915 573.158 61.7382C574.169 61.0561 575.255 59.6921 575.773 58.4165ZM576.581 59.1238C577.023 59.4269 578.526 60.6899 578.867 61.0056L578.273 61.7255C577.844 61.2077 576.581 59.9826 576.076 59.5405L576.581 59.1238ZM574.308 54.0718L575.053 53.9076C575.318 54.4885 575.545 55.2716 575.596 55.7894L574.8 55.9789C574.762 55.4737 574.56 54.6654 574.308 54.0718ZM577.351 53.8823L578.21 54.0844C577.983 54.7411 577.743 55.4863 577.528 55.9789L576.796 55.7894C576.985 55.2716 577.238 54.438 577.351 53.8823ZM580.256 55.1832V56.4967H583.426V55.1832H580.256ZM580.256 57.2671V58.5933H583.426V57.2671H580.256ZM580.256 53.1119V54.4128H583.426V53.1119H580.256ZM579.397 52.2657H584.323V59.4395H579.397V52.2657ZM582.113 59.1616H582.972V62.016C582.972 62.2939 583.01 62.3318 583.25 62.3318C583.338 62.3318 583.793 62.3318 583.919 62.3318C584.172 62.3318 584.21 62.1676 584.235 60.652C584.424 60.8162 584.79 60.9551 585.03 61.0182C584.967 62.7612 584.727 63.178 584.033 63.178C583.856 63.178 583.275 63.178 583.111 63.178C582.29 63.178 582.113 62.9001 582.113 62.0286V59.1616ZM580.244 59.2122H581.115C580.951 61.2582 580.471 62.6096 578.501 63.3674C578.412 63.1653 578.16 62.837 577.97 62.6728C579.726 62.0539 580.105 60.9425 580.244 59.2122ZM573.411 58.0881H578.854V58.909H573.411V58.0881ZM592.747 52.4678H596.536V53.3645H593.669V63.3422H592.747V52.4678ZM586.016 53.1119H592.053V53.9581H586.016V53.1119ZM585.687 56.6104H592.217V57.4819H585.687V56.6104ZM588.554 51.7605H589.476V53.6297H588.554V51.7605ZM586.799 54.4001L587.594 54.2233C587.872 54.8548 588.112 55.701 588.188 56.2567L587.342 56.4588C587.279 55.9031 587.064 55.0443 586.799 54.4001ZM590.423 54.1349L591.333 54.3496C591.055 55.0948 590.752 55.941 590.474 56.4967L589.716 56.2946C589.969 55.7137 590.272 54.779 590.423 54.1349ZM586.874 61.7634H591.03V62.6096H586.874V61.7634ZM586.533 58.5807H591.51V63.279H590.6V59.4269H587.418V63.3422H586.533V58.5807ZM596.284 52.4678H596.473L596.625 52.4299L597.319 52.8719C596.802 54.0591 596.145 55.5242 595.564 56.6862C596.839 57.8608 597.143 58.8585 597.155 59.7679C597.155 60.5383 596.978 61.1319 596.536 61.435C596.309 61.574 596.031 61.6624 595.703 61.7129C595.387 61.7508 594.97 61.7382 594.604 61.7255C594.591 61.4603 594.503 61.0561 594.339 60.7909C594.705 60.8162 595.071 60.8288 595.324 60.8162C595.539 60.8035 595.715 60.753 595.867 60.6646C596.145 60.5004 596.233 60.1342 596.233 59.6668C596.221 58.8712 595.854 57.9239 594.579 56.8125C595.223 55.5116 595.905 53.7686 596.284 52.7709V52.4678ZM599.163 54.2233H602.675V54.9432H599.163V54.2233ZM604.973 54.2233H608.547V54.9432H604.973V54.2233ZM608.143 52.3162H609.091V62.0413C609.091 62.6854 608.939 62.9885 608.51 63.1401C608.068 63.3043 607.322 63.3169 606.173 63.3169C606.123 63.0517 605.958 62.6096 605.819 62.3318C606.691 62.3823 607.562 62.3697 607.815 62.357C608.068 62.3444 608.143 62.2812 608.143 62.0413V52.3162ZM599.239 52.3162H603.23V56.9514H599.239V56.1557H602.334V53.1119H599.239V52.3162ZM608.636 52.3162V53.1119H605.327V56.1683H608.636V56.964H604.417V52.3162H608.636ZM598.709 52.3162H599.643V63.3295H598.709V52.3162Z" fill="white"/>
</g>
<g clip-path="url(#clip9_59_817)">
<rect width="103.408" height="19" transform="translate(513.731 67.2915)" fill="white"/>
<path d="M526.566 75.368H532.098V76.2016H526.566V75.368ZM526.541 77.8688H532.237V78.7276H526.541V77.8688ZM528.802 70.6823H529.711V82.3019H528.802V70.6823ZM526.086 72.8799H532.54V79.2075H531.644V73.7388H526.97V79.2707H526.086V72.8799ZM521.375 73.0567H525.19V73.9282H521.375V73.0567ZM523.106 70.6949H524.028V73.4862H523.106V70.6949ZM524.129 75.9237C524.47 76.1763 525.632 77.2499 525.91 77.5278L525.354 78.2982C524.988 77.8309 523.99 76.7952 523.586 76.4037L524.129 75.9237ZM524.849 73.0567H525.051L525.215 73.0188L525.745 73.3599C524.874 75.6585 523.08 77.7804 521.401 78.9549C521.312 78.715 521.072 78.2729 520.908 78.1087C522.487 77.0857 524.141 75.1659 524.849 73.2588V73.0567ZM523.106 76.8584L524.028 75.7217V82.2893H523.106V76.8584ZM533.892 72.3368H544.867V73.1957H533.892V72.3368ZM534.839 77.4899H543.933V78.3234H534.839V77.4899ZM536.746 75.1912H542.038V76.0248H536.746V75.1912ZM541.028 72.7031C541.886 74.1555 543.617 75.5196 545.309 76.1511C545.094 76.3279 544.804 76.6815 544.652 76.9215C542.947 76.1763 541.217 74.6607 540.245 72.9936L541.028 72.7031ZM538.906 77.9445H539.853V81.3041C539.853 81.8093 539.739 82.0493 539.348 82.1756C538.956 82.3019 538.337 82.3145 537.403 82.3145C537.34 82.0619 537.188 81.7209 537.049 81.4809C537.782 81.5062 538.464 81.5062 538.653 81.4936C538.843 81.4936 538.906 81.443 538.906 81.2915V77.9445ZM536.291 79.0307L537.201 79.296C536.569 80.3063 535.571 81.2915 534.675 81.9482C534.498 81.7841 534.132 81.4683 533.917 81.342C534.814 80.761 535.736 79.9022 536.291 79.0307ZM541.305 79.4728L542.063 79.0181C542.947 79.7506 544.046 80.7737 544.577 81.4557L543.768 81.9609C543.263 81.2915 542.19 80.2179 541.305 79.4728ZM538.489 70.6823L539.525 70.8212C538.767 73.1578 537.074 75.5575 534.031 77.0352C533.892 76.7952 533.589 76.4668 533.374 76.3153C536.329 74.9891 537.933 72.7284 538.489 70.6823ZM547.469 71.377H548.429V75.6838C548.429 78.0961 548.252 80.5211 546.597 82.4029C546.421 82.2008 546.042 81.8977 545.802 81.7462C547.292 80.0411 547.469 77.8561 547.469 75.6711V71.377ZM551.485 71.8948H552.433V81.1904H551.485V71.8948ZM555.729 71.3391H556.714V82.2893H555.729V71.3391Z" fill="#424242"/>
<rect x="565.04" y="67.2915" width="0.789374" height="18.945" fill="#B3B3B3"/>
<path d="M582.182 76.77H588.371V77.4772H582.182V76.77ZM581.98 78.475H588.573V79.2075H581.98V78.475ZM584.734 77.111H585.605V78.3613C585.605 79.4728 585.239 80.8368 582.422 81.7209C582.296 81.5315 582.043 81.241 581.867 81.0894C584.468 80.3695 584.734 79.1697 584.734 78.3487V77.111ZM585.592 78.7781C586.047 79.9022 587.083 80.6852 588.573 80.9884C588.384 81.1526 588.156 81.4683 588.043 81.683C586.464 81.2662 585.378 80.319 584.86 78.9423L585.592 78.7781ZM582.978 75.7343L583.723 75.4943C584.026 75.8859 584.317 76.4163 584.418 76.77L583.635 77.0352C583.534 76.6563 583.269 76.1258 582.978 75.7343ZM586.666 75.4691L587.525 75.7469C587.222 76.2395 586.906 76.7447 586.641 77.0983L586.009 76.8457C586.237 76.4542 586.527 75.8606 586.666 75.4691ZM580.578 72.9304H584.127V73.5746H580.578V72.9304ZM586.376 72.9304H589.962V73.5746H586.376V72.9304ZM589.609 71.2254H590.543V81.1778C590.543 81.6956 590.43 81.9735 590.089 82.1377C589.773 82.2893 589.23 82.3019 588.422 82.3019C588.396 82.0619 588.27 81.6451 588.144 81.3925C588.699 81.4178 589.23 81.4178 589.394 81.4052C589.546 81.4052 589.609 81.342 589.609 81.1652V71.2254ZM580.654 71.2254H584.708V75.3301H580.654V74.6229H583.812V71.9327H580.654V71.2254ZM590.064 71.2254V71.9327H586.729V74.6355H590.064V75.3428H585.82V71.2254H590.064ZM580.086 71.2254H581.02V82.3145H580.086V71.2254ZM592.185 71.8948H603.224V72.7789H592.185V71.8948ZM597.149 70.6949H598.134V82.3019H597.149V70.6949ZM596.858 77.9319L597.654 78.2856C596.467 79.8769 594.383 81.3546 592.539 82.1124C592.387 81.8725 592.097 81.5062 591.87 81.3167C593.714 80.6726 595.785 79.3212 596.858 77.9319ZM598.45 77.9445C599.536 79.3338 601.645 80.6852 603.514 81.3167C603.287 81.5062 602.997 81.8725 602.845 82.1377C600.976 81.3925 598.867 79.8769 597.679 78.2982L598.45 77.9445ZM594.219 76.5174V77.7298H601.241V76.5174H594.219ZM594.219 74.5976V75.7974H601.241V74.5976H594.219ZM593.297 73.8524H602.201V78.4876H593.297V73.8524Z" fill="#424242"/>
</g>
<g clip-path="url(#clip10_59_817)">
<rect width="103.408" height="19" transform="translate(513.731 86.264)" fill="#DFE2F4"/>
<path d="M527.697 90.8673H538.735V91.7513H527.697V90.8673ZM532.66 89.6674H533.645V101.274H532.66V89.6674ZM532.37 96.9044L533.165 97.258C531.978 98.8494 529.894 100.327 528.05 101.085C527.899 100.845 527.608 100.479 527.381 100.289C529.225 99.6451 531.296 98.2937 532.37 96.9044ZM533.961 96.917C535.047 98.3063 537.157 99.6577 539.026 100.289C538.798 100.479 538.508 100.845 538.356 101.11C536.487 100.365 534.378 98.8494 533.191 97.2707L533.961 96.917ZM529.73 95.4898V96.7023H536.752V95.4898H529.73ZM529.73 93.5701V94.7699H536.752V93.5701H529.73ZM528.808 92.8249H537.712V97.4601H528.808V92.8249ZM540.074 91.1198H551.1V92.0292H540.074V91.1198ZM545.05 89.6548H546.048V91.5998H545.05V89.6548ZM542.562 94.0247V96.0961H548.65V94.0247H542.562ZM541.628 93.1912H549.648V96.9423H541.628V93.1912ZM547.93 98.1042L548.789 97.6874C549.635 98.5084 550.683 99.6703 551.201 100.416L550.279 100.895C549.812 100.163 548.789 98.9504 547.93 98.1042ZM545.063 96.5886H546.048V100.176C546.048 100.731 545.922 100.996 545.48 101.135C545.05 101.274 544.33 101.287 543.206 101.274C543.156 101.022 543.017 100.643 542.891 100.39C543.749 100.416 544.545 100.403 544.772 100.39C545 100.39 545.063 100.34 545.063 100.163V96.5886ZM542.158 97.6748L543.118 97.9779C542.512 98.9757 541.539 100.1 540.592 100.807C540.402 100.63 540.061 100.378 539.847 100.251C540.756 99.5946 541.691 98.5463 542.158 97.6748Z" fill="#424242"/>
<rect x="565.04" y="86.264" width="0.789374" height="18.945" fill="#B3B3B3"/>
<path d="M582.182 95.7424H588.371V96.4497H582.182V95.7424ZM581.98 97.4475H588.573V98.18H581.98V97.4475ZM584.734 96.0834H585.605V97.3338C585.605 98.4452 585.239 99.8093 582.422 100.693C582.296 100.504 582.043 100.213 581.867 100.062C584.468 99.342 584.734 98.1421 584.734 97.3212V96.0834ZM585.592 97.7506C586.047 98.8747 587.083 99.6577 588.573 99.9608C588.384 100.125 588.156 100.441 588.043 100.655C586.464 100.239 585.378 99.2914 584.86 97.9148L585.592 97.7506ZM582.978 94.7068L583.723 94.4668C584.026 94.8583 584.317 95.3888 584.418 95.7424L583.635 96.0077C583.534 95.6288 583.269 95.0983 582.978 94.7068ZM586.666 94.4415L587.525 94.7194C587.222 95.212 586.906 95.7172 586.641 96.0708L586.009 95.8182C586.237 95.4267 586.527 94.8331 586.666 94.4415ZM580.578 91.9029H584.127V92.547H580.578V91.9029ZM586.376 91.9029H589.962V92.547H586.376V91.9029ZM589.609 90.1979H590.543V100.15C590.543 100.668 590.43 100.946 590.089 101.11C589.773 101.262 589.23 101.274 588.422 101.274C588.396 101.034 588.27 100.618 588.144 100.365C588.699 100.39 589.23 100.39 589.394 100.378C589.546 100.378 589.609 100.314 589.609 100.138V90.1979ZM580.654 90.1979H584.708V94.3026H580.654V93.5953H583.812V90.9051H580.654V90.1979ZM590.064 90.1979V90.9051H586.729V93.608H590.064V94.3152H585.82V90.1979H590.064ZM580.086 90.1979H581.02V101.287H580.086V90.1979ZM592.185 90.8673H603.224V91.7513H592.185V90.8673ZM597.149 89.6674H598.134V101.274H597.149V89.6674ZM596.858 96.9044L597.654 97.258C596.467 98.8494 594.383 100.327 592.539 101.085C592.387 100.845 592.097 100.479 591.87 100.289C593.714 99.6451 595.785 98.2937 596.858 96.9044ZM598.45 96.917C599.536 98.3063 601.645 99.6577 603.514 100.289C603.287 100.479 602.997 100.845 602.845 101.11C600.976 100.365 598.867 98.8494 597.679 97.2707L598.45 96.917ZM594.219 95.4898V96.7023H601.241V95.4898H594.219ZM594.219 93.5701V94.7699H601.241V93.5701H594.219ZM593.297 92.8249H602.201V97.4601H593.297V92.8249Z" fill="#424242"/>
</g>
<g clip-path="url(#clip11_59_817)">
<rect width="103.408" height="19" transform="translate(513.731 105.236)" fill="white"/>
<path d="M530.084 114.715H536.272V115.422H530.084V114.715ZM529.882 116.42H536.475V117.152H529.882V116.42ZM532.635 115.056H533.506V116.306C533.506 117.418 533.14 118.782 530.324 119.666C530.197 119.476 529.945 119.186 529.768 119.034C532.37 118.314 532.635 117.114 532.635 116.293V115.056ZM533.494 116.723C533.949 117.847 534.984 118.63 536.475 118.933C536.285 119.097 536.058 119.413 535.944 119.628C534.365 119.211 533.279 118.264 532.761 116.887L533.494 116.723ZM530.879 113.679L531.625 113.439C531.928 113.831 532.218 114.361 532.319 114.715L531.536 114.98C531.435 114.601 531.17 114.071 530.879 113.679ZM534.567 113.414L535.426 113.692C535.123 114.184 534.807 114.689 534.542 115.043L533.911 114.791C534.138 114.399 534.428 113.805 534.567 113.414ZM528.48 110.875H532.029V111.519H528.48V110.875ZM534.277 110.875H537.864V111.519H534.277V110.875ZM537.51 109.17H538.445V119.123C538.445 119.64 538.331 119.918 537.99 120.082C537.674 120.234 537.131 120.247 536.323 120.247C536.298 120.007 536.171 119.59 536.045 119.337C536.601 119.363 537.131 119.363 537.295 119.35C537.447 119.35 537.51 119.287 537.51 119.11V109.17ZM528.556 109.17H532.61V113.275H528.556V112.568H531.713V109.877H528.556V109.17ZM537.965 109.17V109.877H534.631V112.58H537.965V113.288H533.721V109.17H537.965ZM527.987 109.17H528.922V120.259H527.987V109.17ZM540.087 109.84H551.125V110.724H540.087V109.84ZM545.05 108.64H546.035V120.247H545.05V108.64ZM544.76 115.877L545.555 116.23C544.368 117.822 542.284 119.299 540.44 120.057C540.289 119.817 539.998 119.451 539.771 119.262C541.615 118.617 543.686 117.266 544.76 115.877ZM546.351 115.889C547.437 117.279 549.547 118.63 551.416 119.262C551.188 119.451 550.898 119.817 550.746 120.082C548.877 119.337 546.768 117.822 545.581 116.243L546.351 115.889ZM542.12 114.462V115.675H549.142V114.462H542.12ZM542.12 112.542V113.742H549.142V112.542H542.12ZM541.198 111.797H550.102V116.432H541.198V111.797Z" fill="#424242"/>
<rect x="565.04" y="105.236" width="0.789374" height="18.945" fill="#B3B3B3"/>
<path d="M573.6 109.84H584.639V110.724H573.6V109.84ZM578.564 108.64H579.549V120.247H578.564V108.64ZM578.273 115.877L579.069 116.23C577.882 117.822 575.798 119.299 573.954 120.057C573.802 119.817 573.512 119.451 573.285 119.262C575.129 118.617 577.2 117.266 578.273 115.877ZM579.865 115.889C580.951 117.279 583.06 118.63 584.929 119.262C584.702 119.451 584.412 119.817 584.26 120.082C582.391 119.337 580.282 117.822 579.094 116.243L579.865 115.889ZM575.634 114.462V115.675H582.656V114.462H575.634ZM575.634 112.542V113.742H582.656V112.542H575.634ZM574.712 111.797H583.616V116.432H574.712V111.797ZM587.392 109.486H595.665V120.057H594.667V110.446H588.365V120.108H587.392V109.486ZM588.036 113.869H595.084V114.803H588.036V113.869ZM588.024 118.34H595.109V119.287H588.024V118.34ZM598.368 111.292H609.394V112.252H598.368V111.292ZM600.894 116.925H606.779V117.885H600.894V116.925ZM603.357 108.64H604.354V120.247H603.357V108.64ZM603.066 111.608L603.912 111.898C602.788 114.576 600.805 116.988 598.62 118.264C598.469 118.024 598.153 117.67 597.938 117.481C600.048 116.382 602.056 114.033 603.066 111.608ZM604.67 111.646C605.668 114.045 607.651 116.344 609.836 117.392C609.596 117.594 609.267 117.973 609.116 118.238C606.88 117.001 604.935 114.588 603.824 111.936L604.67 111.646Z" fill="#424242"/>
</g>
<path d="M321.319 34.296C321.271 34.416 321.235 34.596 321.223 34.692C321.091 35.904 320.527 39.492 320.359 40.548H319.279C319.483 39.504 320.059 35.856 320.083 34.968C319.039 34.968 315.931 34.968 315.367 34.968C314.911 34.968 314.587 34.98 314.215 35.016V33.948C314.575 33.984 314.959 34.02 315.355 34.02C315.919 34.02 318.931 34.02 319.771 34.02C320.011 34.02 320.383 33.972 320.515 33.912L321.319 34.296ZM312.871 40.224C313.219 40.284 313.591 40.296 313.927 40.296H322.015C322.387 40.296 322.711 40.26 323.023 40.224V41.328C322.699 41.28 322.267 41.268 322.015 41.268H313.927C313.591 41.268 313.231 41.292 312.871 41.328V40.224ZM325.003 36.804C325.375 36.84 325.999 36.876 326.683 36.876C327.559 36.876 332.371 36.876 333.259 36.876C333.859 36.876 334.279 36.828 334.555 36.804V37.98C334.303 37.968 333.799 37.932 333.271 37.932C332.359 37.932 327.571 37.932 326.683 37.932C326.023 37.932 325.387 37.956 325.003 37.98V36.804ZM344.977 32.856C345.205 33.288 345.517 34.032 345.685 34.512L345.085 34.716C344.917 34.212 344.641 33.492 344.401 33.036L344.977 32.856ZM346.177 32.484C346.405 32.928 346.717 33.66 346.897 34.14L346.297 34.344C346.105 33.804 345.841 33.12 345.589 32.664L346.177 32.484ZM343.837 36.708C343.837 39.9 343.153 41.544 340.417 42.768L339.601 42.012C341.785 41.172 342.877 40.14 342.877 36.78V33.864C342.877 33.396 342.841 33 342.817 32.88H343.897C343.885 33 343.837 33.396 343.837 33.864V36.708ZM339.517 32.964C339.505 33.072 339.457 33.408 339.457 33.828V38.232C339.457 38.664 339.493 39.192 339.505 39.312H338.449C338.461 39.192 338.497 38.688 338.497 38.232V33.828C338.497 33.576 338.485 33.228 338.449 32.964H339.517ZM336.001 35.292C336.109 35.304 336.697 35.364 337.213 35.364H345.157C345.685 35.364 346.093 35.328 346.261 35.304V36.324C346.129 36.3 345.685 36.288 345.157 36.288H337.213C336.685 36.288 336.145 36.312 336.001 36.324V35.292ZM348.505 36.804C348.877 36.84 349.501 36.876 350.185 36.876C351.061 36.876 355.873 36.876 356.761 36.876C357.361 36.876 357.781 36.828 358.057 36.804V37.98C357.805 37.968 357.301 37.932 356.773 37.932C355.861 37.932 351.073 37.932 350.185 37.932C349.525 37.932 348.889 37.956 348.505 37.98V36.804Z" fill="#424242"/>
<path d="M443.216 36.036H447.74V36.84H443.216V36.036ZM440.396 41.7H446.444V42.504H440.396V41.7ZM442.784 34.608H443.696V39H442.784V34.608ZM439.916 38.568H446.936V42.96H446.012V39.384H440.792V42.984H439.916V38.568ZM442.364 31.932H443.288V33.972H442.364V31.932ZM438.368 33.48H447.908V34.344H438.368V33.48ZM437.924 33.48H438.824V36.588C438.824 38.436 438.656 41.148 437.624 42.972C437.468 42.816 437.072 42.564 436.856 42.468C437.84 40.74 437.924 38.316 437.924 36.588V33.48ZM453.776 33.6H459.812V34.392H453.776V33.6ZM454.508 37.512H459.224V38.268H454.508V37.512ZM454.508 39.504H459.224V40.26H454.508V39.504ZM456.392 31.92H457.208V42.876H456.392V31.92ZM458.78 35.532H459.584V42.036C459.584 42.432 459.512 42.672 459.248 42.792C458.984 42.936 458.6 42.948 457.976 42.948C457.952 42.732 457.832 42.396 457.724 42.18C458.132 42.192 458.504 42.192 458.624 42.18C458.732 42.18 458.78 42.144 458.78 42.012V35.532ZM454.112 35.532H459.2V36.312H454.916V42.936H454.112V35.532ZM457.58 32.388L458.072 31.956C458.648 32.22 459.344 32.664 459.68 32.988L459.152 33.492C458.816 33.144 458.132 32.688 457.58 32.388ZM449.42 38.976H453.44V42.648H452.612V39.732H450.224V42.876H449.42V38.976ZM450.98 34.272H451.82V37.704H450.98V34.272ZM449.48 35.448H453.392V36.168H449.48V35.448ZM449.024 37.404H453.716V38.16H449.024V37.404ZM449.744 41.484H453.068V42.24H449.744V41.484ZM450.848 31.932H451.34V32.124H451.616V32.376C451.136 33.264 450.356 34.5 449.216 35.544C449.084 35.352 448.796 35.076 448.616 34.956C449.66 34.056 450.428 32.856 450.848 31.932ZM451.028 31.932H451.688C452.42 32.58 453.32 33.516 453.74 34.128L453.176 34.824C452.756 34.2 451.916 33.168 451.196 32.544H451.028V31.932Z" fill="#424242"/>
<path d="M560.806 32.64H564.406V33.492H561.682V42.972H560.806V32.64ZM554.41 33.252H560.146V34.056H554.41V33.252ZM554.098 36.576H560.302V37.404H554.098V36.576ZM556.822 31.968H557.698V33.744H556.822V31.968ZM555.154 34.476L555.91 34.308C556.174 34.908 556.402 35.712 556.474 36.24L555.67 36.432C555.61 35.904 555.406 35.088 555.154 34.476ZM558.598 34.224L559.462 34.428C559.198 35.136 558.91 35.94 558.646 36.468L557.926 36.276C558.166 35.724 558.454 34.836 558.598 34.224ZM555.226 41.472H559.174V42.276H555.226V41.472ZM554.902 38.448H559.63V42.912H558.766V39.252H555.742V42.972H554.902V38.448ZM564.166 32.64H564.346L564.49 32.604L565.15 33.024C564.658 34.152 564.034 35.544 563.482 36.648C564.694 37.764 564.982 38.712 564.994 39.576C564.994 40.308 564.826 40.872 564.406 41.16C564.19 41.292 563.926 41.376 563.614 41.424C563.314 41.46 562.918 41.448 562.57 41.436C562.558 41.184 562.474 40.8 562.318 40.548C562.666 40.572 563.014 40.584 563.254 40.572C563.458 40.56 563.626 40.512 563.77 40.428C564.034 40.272 564.118 39.924 564.118 39.48C564.106 38.724 563.758 37.824 562.546 36.768C563.158 35.532 563.806 33.876 564.166 32.928V32.64ZM566.998 34.308H570.334V34.992H566.998V34.308ZM572.518 34.308H575.914V34.992H572.518V34.308ZM575.53 32.496H576.43V41.736C576.43 42.348 576.286 42.636 575.878 42.78C575.458 42.936 574.75 42.948 573.658 42.948C573.61 42.696 573.454 42.276 573.322 42.012C574.15 42.06 574.978 42.048 575.218 42.036C575.458 42.024 575.53 41.964 575.53 41.736V32.496ZM567.07 32.496H570.862V36.9H567.07V36.144H570.01V33.252H567.07V32.496ZM575.998 32.496V33.252H572.854V36.156H575.998V36.912H571.99V32.496H575.998ZM566.566 32.496H567.454V42.96H566.566V32.496Z" fill="#424242"/>
<defs>
<clipPath id="clip0_59_817">
<rect width="94.7249" height="19" fill="white" transform="translate(288 48.3191)"/>
</clipPath>
<clipPath id="clip1_59_817">
<rect width="94.7249" height="19" fill="white" transform="translate(288 67.2915)"/>
</clipPath>
<clipPath id="clip2_59_817">
<rect width="94.7249" height="19" fill="white" transform="translate(288 105.681)"/>
</clipPath>
<clipPath id="clip3_59_817">
<rect width="94.7249" height="19" fill="white" transform="translate(288 86.264)"/>
</clipPath>
<clipPath id="clip4_59_817">
<rect width="103.408" height="19" fill="white" transform="translate(396.524 48.3191)"/>
</clipPath>
<clipPath id="clip5_59_817">
<rect width="103.408" height="19" fill="white" transform="translate(396.524 67.1433)"/>
</clipPath>
<clipPath id="clip6_59_817">
<rect width="103.408" height="19" fill="white" transform="translate(396.524 86.264)"/>
</clipPath>
<clipPath id="clip7_59_817">
<rect width="103.408" height="19" fill="white" transform="translate(396.524 105.236)"/>
</clipPath>
<clipPath id="clip8_59_817">
<rect width="103.408" height="19" fill="white" transform="translate(513.731 48.3191)"/>
</clipPath>
<clipPath id="clip9_59_817">
<rect width="103.408" height="19" fill="white" transform="translate(513.731 67.2915)"/>
</clipPath>
<clipPath id="clip10_59_817">
<rect width="103.408" height="19" fill="white" transform="translate(513.731 86.264)"/>
</clipPath>
<clipPath id="clip11_59_817">
<rect width="103.408" height="19" fill="white" transform="translate(513.731 105.236)"/>
</clipPath>
</defs>
</svg>
