<svg width="482" height="121" viewBox="0 0 482 121" fill="none" xmlns="http://www.w3.org/2000/svg">
<path d="M83.5083 8.616C83.4283 8.84 83.3483 9.224 83.3323 9.352C83.1243 10.968 82.4203 15.304 82.1963 16.76H79.8443C80.1003 15.32 80.7883 11.208 80.8363 10.056C79.5883 10.056 76.3243 10.056 75.3163 10.056C74.6603 10.056 74.0683 10.088 73.4923 10.136V7.88C74.0203 7.944 74.7563 7.992 75.3003 7.992C76.3083 7.992 79.3803 7.992 80.3403 7.992C80.7563 7.992 81.5563 7.912 81.8283 7.784L83.5083 8.616ZM71.7483 16.104C72.2603 16.2 72.8363 16.232 73.3323 16.232H83.9883C84.5643 16.232 85.0763 16.168 85.4923 16.104V18.44C85.0443 18.376 84.3723 18.344 83.9883 18.344H73.3323C72.8363 18.344 72.2763 18.376 71.7483 18.44V16.104ZM87.7643 11.592C88.3563 11.64 89.5083 11.704 90.3403 11.704C92.2283 11.704 97.5083 11.704 98.9323 11.704C99.6843 11.704 100.388 11.624 100.82 11.592V14.12C100.436 14.104 99.6203 14.024 98.9483 14.024C97.4923 14.024 92.2283 14.024 90.3403 14.024C89.4443 14.024 88.3723 14.072 87.7643 14.12V11.592ZM114.764 6.568C115.068 7.192 115.42 8.12 115.596 8.744L114.492 9.112C114.268 8.424 113.996 7.56 113.676 6.904L114.764 6.568ZM116.412 6.056C116.716 6.68 117.084 7.624 117.276 8.232L116.188 8.584C115.948 7.88 115.644 7.032 115.324 6.392L116.412 6.056ZM113.388 12.184C113.388 16.136 112.428 18.568 108.572 20.264L106.844 18.648C109.948 17.576 111.292 16.184 111.292 12.264V8.008C111.292 7.352 111.26 6.824 111.212 6.52H113.484C113.452 6.84 113.388 7.352 113.388 8.008V12.184ZM107.596 6.664C107.564 6.952 107.5 7.464 107.5 8.104V13.832C107.5 14.536 107.548 15.192 107.58 15.496H105.34C105.372 15.192 105.42 14.552 105.42 13.832V8.104C105.42 7.64 105.388 7.144 105.324 6.664H107.596ZM102.332 9.544C102.62 9.592 103.276 9.688 104.076 9.688H114.556C115.404 9.688 115.884 9.656 116.332 9.576V11.704C115.98 11.656 115.404 11.656 114.572 11.656H104.076C103.26 11.656 102.7 11.688 102.332 11.72V9.544ZM118.844 11.592C119.436 11.64 120.588 11.704 121.42 11.704C123.308 11.704 128.588 11.704 130.012 11.704C130.764 11.704 131.468 11.624 131.9 11.592V14.12C131.516 14.104 130.7 14.024 130.028 14.024C128.572 14.024 123.308 14.024 121.42 14.024C120.524 14.024 119.452 14.072 118.844 14.12V11.592Z" fill="black"/>
<g clip-path="url(#clip0_35_1050)">
<rect width="204" height="24" transform="translate(0 25)" fill="#4F60C6"/>
<path d="M16.976 42.536H24.704V43.64H16.976V42.536ZM16.432 31.176H22.304V32.248H16.432V31.176ZM17.152 29.512L18.496 29.784C17.296 31.864 15.376 34.04 12.592 35.688C12.416 35.384 12.016 34.968 11.744 34.76C14.384 33.32 16.224 31.256 17.152 29.512ZM21.904 31.176H22.128L22.352 31.112L23.152 31.544C21.232 36.376 16.72 39.592 12.368 41C12.224 40.68 11.92 40.184 11.664 39.928C15.808 38.728 20.24 35.592 21.904 31.384V31.176ZM14.432 34.024L15.328 33.256C16.592 34.12 18.128 35.4 18.864 36.312L17.888 37.176C17.216 36.264 15.696 34.92 14.432 34.024ZM24.112 37.48H25.344V44.312H24.112V37.48ZM17.52 37.48H24.72V38.584H17.52V44.28H16.32V38.424L17.28 37.48H17.52ZM27.696 32.088H42V33.208H27.696V32.088ZM29.344 37.24H33.824V38.184H29.344V37.24ZM29.344 39.8H33.824V40.744H29.344V39.8ZM36.496 34.776H37.632V41.352H36.496V34.776ZM33.392 34.632H34.56V42.904C34.56 43.512 34.416 43.832 33.968 44.024C33.536 44.216 32.832 44.216 31.744 44.216C31.68 43.912 31.504 43.464 31.344 43.16C32.144 43.192 32.88 43.192 33.104 43.176C33.328 43.16 33.392 43.096 33.392 42.888V34.632ZM39.744 34.296H40.928V42.792C40.928 43.496 40.768 43.832 40.272 44.024C39.776 44.2 38.976 44.232 37.728 44.232C37.664 43.912 37.472 43.4 37.296 43.08C38.272 43.112 39.136 43.112 39.408 43.096C39.664 43.08 39.744 43.016 39.744 42.792V34.296ZM30.176 29.96L31.28 29.544C31.904 30.232 32.576 31.176 32.88 31.8L31.696 32.232C31.44 31.624 30.784 30.648 30.176 29.96ZM38.4 29.496L39.68 29.912C39.072 30.904 38.352 32.008 37.76 32.76L36.704 32.36C37.28 31.592 38 30.36 38.4 29.496ZM28.704 34.632H33.776V35.672H29.84V44.2H28.704V34.632Z" fill="white"/>
<rect x="54" y="25" width="1" height="24" fill="#B3B3B3"/>
<path d="M68.284 32.68H79.372V33.848H68.284V32.68ZM67.58 37.368H78.796V38.52H67.58V37.368ZM65.836 42.6H80.124V43.768H65.836V42.6ZM72.364 29.576H73.596V43.192H72.364V29.576ZM68.764 29.832L69.996 30.104C69.292 32.584 68.172 34.952 66.892 36.488C66.652 36.28 66.108 35.928 65.804 35.768C67.116 34.344 68.156 32.12 68.764 29.832ZM85.084 29.512L86.284 29.816C85.404 32.184 83.98 34.408 82.492 35.848C82.252 35.64 81.756 35.24 81.452 35.08C82.972 33.752 84.3 31.672 85.084 29.512ZM84.828 31.496H95.148V32.664H84.252L84.828 31.496ZM84.044 35.128H94.796V36.248H85.244V40.04H84.044V35.128ZM81.404 39.432H95.9V40.6H81.404V39.432ZM88.844 32.104H90.076V44.296H88.844V32.104ZM100.396 30.408H108.748V31.576H100.396V30.408ZM100.396 34.264H108.812V35.416H100.396V34.264ZM100.268 38.136H108.732V39.288H100.268V38.136ZM99.66 30.408H100.876V35.352C100.876 38.12 100.476 41.896 97.724 44.296C97.548 44.04 97.068 43.608 96.812 43.432C99.388 41.176 99.66 37.928 99.66 35.352V30.408ZM108.22 30.408H109.468V42.52C109.468 43.368 109.244 43.784 108.636 43.992C108.012 44.2 106.956 44.216 105.228 44.216C105.148 43.864 104.924 43.288 104.716 42.952C106.044 43 107.356 42.984 107.724 42.984C108.092 42.968 108.22 42.856 108.22 42.504V30.408ZM114.86 30.648H125.34V44.04H124.076V31.864H116.092V44.104H114.86V30.648ZM115.676 36.2H124.604V37.384H115.676V36.2ZM115.66 41.864H124.636V43.064H115.66V41.864Z" fill="white"/>
<rect x="138" y="25" width="1" height="24" fill="#B3B3B3"/>
<path d="M156.628 30.456H163.524V31.56H156.628V30.456ZM164.66 35.016H171.092V36.168H164.66V35.016ZM168.132 35.768H169.316V44.296H168.132V35.768ZM164.196 31.144L165.7 31.544C165.684 31.656 165.604 31.72 165.38 31.752V35.416C165.38 38.008 165.044 41.672 162.644 44.248C162.468 43.992 162.036 43.592 161.748 43.448C163.972 41.08 164.196 37.864 164.196 35.416V31.144ZM157.22 33.224H158.356V37.544C158.356 39.592 158.164 42.424 156.932 44.312C156.74 44.088 156.244 43.72 155.988 43.576C157.108 41.848 157.22 39.384 157.22 37.544V33.224ZM169.716 29.752L170.772 30.664C169.188 31.432 166.868 32.088 164.868 32.552C164.804 32.28 164.612 31.848 164.452 31.576C166.356 31.128 168.516 30.44 169.716 29.752ZM157.876 33.224H163.124V38.216H157.876V37.128H161.956V34.328H157.876V33.224ZM173.572 30.264H174.756V34.952C174.756 37.656 174.532 41.576 172.9 44.184C172.692 44.008 172.164 43.688 171.86 43.592C173.444 41.064 173.572 37.512 173.572 34.952V30.264ZM174.292 30.264H185.508V33.608H174.292V32.648H184.324V31.224H174.292V30.264ZM179.924 34.664H181.028V42.312H179.924V34.664ZM177.092 36.92V38.056H183.94V36.92H177.092ZM176.004 36.152H185.06V38.824H176.004V36.152ZM175.364 39.752H185.3V40.616H176.468V44.296H175.364V39.752ZM184.66 39.752H185.764V43.208C185.764 43.72 185.668 43.976 185.284 44.12C184.884 44.264 184.244 44.264 183.236 44.264C183.172 44.008 183.028 43.672 182.916 43.416C183.62 43.448 184.212 43.448 184.42 43.432C184.612 43.416 184.66 43.368 184.66 43.208V39.752ZM177.108 41.96C178.644 41.928 180.932 41.848 183.22 41.752L183.204 42.584C181.012 42.696 178.788 42.808 177.188 42.888L177.108 41.96ZM184.1 33.992L184.836 34.728C182.564 35.176 178.916 35.384 175.924 35.416C175.908 35.176 175.78 34.824 175.684 34.616C178.596 34.568 182.18 34.36 184.1 33.992ZM182.02 41.08L182.74 40.856C183.268 41.56 183.892 42.504 184.18 43.064L183.428 43.352C183.14 42.76 182.548 41.8 182.02 41.08Z" fill="white"/>
<rect width="204" height="24" transform="translate(0 49)" fill="white"/>
<path d="M18.448 53.896H19.712V66.28H18.448V53.896ZM12.832 57.384H14.048V68.088H12.832V57.384ZM24.288 57.368H25.52V68.024H24.288V57.368ZM13.424 65.56H24.832V66.792H13.424V65.56ZM29.024 65.96H40.72V67.176H29.024V65.96ZM29.056 60.248H40.72V61.448H29.056V60.248ZM28.384 54.664H41.344V68.152H40.112V55.832H29.568V68.152H28.384V54.664ZM34.144 55.224H35.36V66.568H34.144V55.224Z" fill="#424242"/>
<rect x="54" y="49" width="1" height="24" fill="#B3B3B3"/>
<path d="M68.6528 55.2045C69.1301 55.2083 69.6073 55.2992 70.0846 55.4773C70.5619 55.6553 70.9975 55.9508 71.3914 56.3636C71.7854 56.7727 72.1016 57.3314 72.3403 58.0398C72.5789 58.7481 72.6982 59.6364 72.6982 60.7045C72.6982 61.7386 72.5997 62.6572 72.4028 63.4602C72.2096 64.2595 71.9293 64.9337 71.5619 65.483C71.1982 66.0322 70.7551 66.4489 70.2323 66.733C69.7134 67.017 69.1263 67.1591 68.471 67.1591C67.8194 67.1591 67.238 67.0303 66.7266 66.7727C66.2191 66.5114 65.8024 66.1496 65.4766 65.6875C65.1547 65.2216 64.9482 64.6818 64.8573 64.0682H66.2437C66.3687 64.6023 66.6168 65.0436 66.988 65.392C67.363 65.7367 67.8573 65.9091 68.471 65.9091C69.3687 65.9091 70.077 65.517 70.596 64.733C71.1187 63.9489 71.3801 62.8409 71.3801 61.4091H71.2891C71.077 61.7273 70.8251 62.0019 70.5335 62.233C70.2418 62.464 69.9179 62.642 69.5619 62.767C69.2058 62.892 68.827 62.9545 68.4255 62.9545C67.7588 62.9545 67.1471 62.7898 66.5903 62.4602C66.0372 62.1269 65.5941 61.6705 65.2607 61.0909C64.9312 60.5076 64.7664 59.8409 64.7664 59.0909C64.7664 58.3788 64.9255 57.7273 65.2437 57.1364C65.5657 56.5417 66.0164 56.0682 66.596 55.7159C67.1793 55.3636 67.8649 55.1932 68.6528 55.2045ZM68.6528 56.4545C68.1755 56.4545 67.7456 56.5739 67.363 56.8125C66.9842 57.0473 66.6831 57.3655 66.4596 57.767C66.2399 58.1648 66.1301 58.6061 66.1301 59.0909C66.1301 59.5758 66.2361 60.017 66.4482 60.4148C66.6641 60.8087 66.9577 61.1231 67.3289 61.358C67.7039 61.589 68.1301 61.7045 68.6073 61.7045C68.9672 61.7045 69.3024 61.6345 69.613 61.4943C69.9236 61.3504 70.1944 61.1553 70.4255 60.9091C70.6604 60.6591 70.8441 60.3769 70.9766 60.0625C71.1092 59.7443 71.1755 59.4129 71.1755 59.0682C71.1755 58.6136 71.0657 58.1875 70.846 57.7898C70.6301 57.392 70.3308 57.0701 69.9482 56.8239C69.5694 56.5777 69.1376 56.4545 68.6528 56.4545ZM74.6797 67L79.8843 56.7045V56.6136H73.8843V55.3636H81.3388V56.6818L76.157 67H74.6797ZM87.2891 54.8182L83.5391 68.75H82.3118L86.0618 54.8182H87.2891ZM92.3473 67.1591C91.4913 67.1591 90.7621 66.9261 90.1598 66.4602C89.5575 65.9905 89.0973 65.3106 88.7791 64.4205C88.4609 63.5265 88.3019 62.447 88.3019 61.1818C88.3019 59.9242 88.4609 58.8504 88.7791 57.9602C89.1011 57.0663 89.5632 56.3845 90.1655 55.9148C90.7716 55.4413 91.4988 55.2045 92.3473 55.2045C93.1958 55.2045 93.9212 55.4413 94.5234 55.9148C95.1295 56.3845 95.5916 57.0663 95.9098 57.9602C96.2318 58.8504 96.3928 59.9242 96.3928 61.1818C96.3928 62.447 96.2337 63.5265 95.9155 64.4205C95.5973 65.3106 95.1371 65.9905 94.5348 66.4602C93.9325 66.9261 93.2034 67.1591 92.3473 67.1591ZM92.3473 65.9091C93.1958 65.9091 93.8549 65.5 94.3246 64.6818C94.7943 63.8636 95.0291 62.697 95.0291 61.1818C95.0291 60.1742 94.9212 59.3163 94.7053 58.608C94.4931 57.8996 94.1863 57.3598 93.7848 56.9886C93.3871 56.6174 92.9079 56.4318 92.3473 56.4318C91.5064 56.4318 90.8492 56.8466 90.3757 57.6761C89.9022 58.5019 89.6655 59.6705 89.6655 61.1818C89.6655 62.1894 89.7716 63.0455 89.9837 63.75C90.1958 64.4545 90.5007 64.9905 90.8984 65.358C91.3 65.7254 91.7829 65.9091 92.3473 65.9091ZM102.111 67.1591C101.634 67.1515 101.157 67.0606 100.68 66.8864C100.202 66.7121 99.7668 66.4186 99.3729 66.0057C98.9789 65.589 98.6626 65.0265 98.424 64.3182C98.1854 63.6061 98.066 62.7121 98.066 61.6364C98.066 60.6061 98.1626 59.6932 98.3558 58.8977C98.549 58.0985 98.8293 57.4261 99.1967 56.8807C99.5641 56.3314 100.007 55.9148 100.526 55.6307C101.049 55.3466 101.638 55.2045 102.293 55.2045C102.945 55.2045 103.524 55.3352 104.032 55.5966C104.543 55.8542 104.96 56.214 105.282 56.6761C105.604 57.1383 105.812 57.6705 105.907 58.2727H104.521C104.392 57.75 104.142 57.3163 103.771 56.9716C103.399 56.6269 102.907 56.4545 102.293 56.4545C101.392 56.4545 100.682 56.8466 100.163 57.6307C99.6475 58.4148 99.388 59.5152 99.3842 60.9318H99.4751C99.6873 60.6098 99.9391 60.3352 100.231 60.108C100.526 59.8769 100.852 59.6989 101.208 59.5739C101.564 59.4489 101.941 59.3864 102.339 59.3864C103.005 59.3864 103.615 59.553 104.168 59.8864C104.721 60.2159 105.165 60.6723 105.498 61.2557C105.831 61.8352 105.998 62.5 105.998 63.25C105.998 63.9697 105.837 64.6288 105.515 65.2273C105.193 65.822 104.74 66.2955 104.157 66.6477C103.577 66.9962 102.896 67.1667 102.111 67.1591ZM102.111 65.9091C102.589 65.9091 103.017 65.7898 103.396 65.5511C103.778 65.3125 104.079 64.9924 104.299 64.5909C104.522 64.1894 104.634 63.7424 104.634 63.25C104.634 62.7689 104.526 62.3314 104.31 61.9375C104.098 61.5398 103.805 61.2235 103.43 60.9886C103.058 60.7538 102.634 60.6364 102.157 60.6364C101.797 60.6364 101.462 60.7083 101.151 60.8523C100.841 60.9924 100.568 61.1856 100.333 61.4318C100.102 61.678 99.9202 61.9602 99.7876 62.2784C99.6551 62.5928 99.5888 62.9242 99.5888 63.2727C99.5888 63.7348 99.6967 64.1667 99.9126 64.5682C100.132 64.9697 100.432 65.2936 100.81 65.5398C101.193 65.786 101.627 65.9091 102.111 65.9091ZM112.065 54.8182L108.315 68.75H107.087L110.837 54.8182H112.065ZM117.123 67.1591C116.267 67.1591 115.538 66.9261 114.935 66.4602C114.333 65.9905 113.873 65.3106 113.555 64.4205C113.236 63.5265 113.077 62.447 113.077 61.1818C113.077 59.9242 113.236 58.8504 113.555 57.9602C113.877 57.0663 114.339 56.3845 114.941 55.9148C115.547 55.4413 116.274 55.2045 117.123 55.2045C117.971 55.2045 118.697 55.4413 119.299 55.9148C119.905 56.3845 120.367 57.0663 120.685 57.9602C121.007 58.8504 121.168 59.9242 121.168 61.1818C121.168 62.447 121.009 63.5265 120.691 64.4205C120.373 65.3106 119.913 65.9905 119.31 66.4602C118.708 66.9261 117.979 67.1591 117.123 67.1591ZM117.123 65.9091C117.971 65.9091 118.63 65.5 119.1 64.6818C119.57 63.8636 119.805 62.697 119.805 61.1818C119.805 60.1742 119.697 59.3163 119.481 58.608C119.269 57.8996 118.962 57.3598 118.56 56.9886C118.163 56.6174 117.683 56.4318 117.123 56.4318C116.282 56.4318 115.625 56.8466 115.151 57.6761C114.678 58.5019 114.441 59.6705 114.441 61.1818C114.441 62.1894 114.547 63.0455 114.759 63.75C114.971 64.4545 115.276 64.9905 115.674 65.358C116.075 65.7254 116.558 65.9091 117.123 65.9091ZM127.114 55.3636V67H125.705V56.8409H125.637L122.796 58.7273V57.2955L125.705 55.3636H127.114Z" fill="#424242"/>
<rect x="138" y="49" width="1" height="24" fill="#B3B3B3"/>
<path d="M157.196 58.968H163.148V60.088H157.196V58.968ZM148.78 55.24H155.836V56.264H148.78V55.24ZM148.604 61.592H155.916V62.632H148.604V61.592ZM148.556 58.904H156.028V59.928H148.556V58.904ZM160.172 59.416H161.34V68.2H160.172V59.416ZM151.74 53.624H152.908V55.768H151.74V53.624ZM151.74 59.736H152.908V68.264H151.74V59.736ZM156.62 54.872L158.092 55.32C158.076 55.448 157.98 55.512 157.756 55.544V60.488C157.756 62.888 157.468 66.136 155.212 68.36C155.068 68.088 154.636 67.688 154.348 67.528C156.396 65.512 156.62 62.744 156.62 60.472V54.872ZM161.98 53.752L162.94 54.632C161.436 55.304 159.196 55.848 157.276 56.184C157.212 55.928 157.052 55.512 156.908 55.272C158.7 54.888 160.812 54.328 161.98 53.752ZM152.796 62.936C153.308 63.288 155.052 64.712 155.452 65.08L154.748 65.976C154.236 65.384 152.732 63.976 152.14 63.48L152.796 62.936ZM149.74 56.552L150.684 56.344C151.02 57.048 151.292 57.992 151.372 58.6L150.364 58.872C150.316 58.248 150.06 57.288 149.74 56.552ZM153.836 56.312L154.924 56.552C154.62 57.352 154.284 58.248 153.996 58.84L153.036 58.616C153.324 57.976 153.66 56.984 153.836 56.312ZM151.756 62.12L152.62 62.456C151.804 64.232 150.332 66.12 149.052 67.112C148.86 66.84 148.508 66.456 148.236 66.264C149.532 65.416 150.988 63.688 151.756 62.12ZM170.86 53.576H172.092V55.608H170.86V53.576ZM164.828 54.952H178.22V57.576H177.004V56.04H166.012V57.784H164.828V54.952ZM169.004 57.912H178.3V59H169.004V57.912ZM170.316 63.576H177.068V64.584H170.316V63.576ZM170.316 66.648H177.068V67.704H170.316V66.648ZM169.772 60.68H177.644V68.28H176.46V61.736H170.924V68.312H169.772V60.68ZM172.988 58.408L174.3 58.712C173.996 59.688 173.66 60.776 173.372 61.512L172.332 61.208C172.556 60.456 172.86 59.256 172.988 58.408ZM167.772 56.888L168.892 57.24C167.852 59.48 166.236 61.624 164.588 63.016C164.444 62.76 164.06 62.216 163.836 61.96C165.404 60.744 166.876 58.856 167.772 56.888ZM166.412 59.8L167.468 58.744L167.564 58.792V68.296H166.412V59.8ZM188.172 59.048H194.204V60.12H188.172V59.048ZM184.412 66.6H192.476V67.672H184.412V66.6ZM187.596 57.144H188.812V63H187.596V57.144ZM183.772 62.424H193.132V68.28H191.9V63.512H184.94V68.312H183.772V62.424ZM187.036 53.576H188.268V56.296H187.036V53.576ZM181.708 55.64H194.428V56.792H181.708V55.64ZM181.116 55.64H182.316V59.784C182.316 62.248 182.092 65.864 180.716 68.296C180.508 68.088 179.98 67.752 179.692 67.624C181.004 65.32 181.116 62.088 181.116 59.784V55.64Z" fill="#424242"/>
<rect width="204" height="24" transform="translate(0 73)" fill="#DFE2F4"/>
<path d="M13.328 89.96H25.024V91.176H13.328V89.96ZM13.36 84.248H25.024V85.448H13.36V84.248ZM12.688 78.664H25.648V92.152H24.416V79.832H13.872V92.152H12.688V78.664ZM18.448 79.224H19.664V90.568H18.448V79.224ZM28.384 80.424H41.28V87.96H40.032V81.608H29.584V88.04H28.384V80.424ZM29.024 85.864H40.752V87.032H29.024V85.864ZM34.176 77.56H35.424V92.264H34.176V77.56Z" fill="#424242"/>
<rect x="54" y="73" width="1" height="24" fill="#B3B3B3"/>
<path d="M69.4205 91.1591C68.7539 91.1591 68.1535 91.0265 67.6194 90.7614C67.0853 90.4962 66.6573 90.1326 66.3353 89.6705C66.0133 89.2083 65.8372 88.6818 65.8069 88.0909H67.1705C67.2236 88.6174 67.4622 89.053 67.8864 89.3977C68.3145 89.7386 68.8258 89.9091 69.4205 89.9091C69.8978 89.9091 70.322 89.7973 70.6933 89.5739C71.0683 89.3504 71.3618 89.0436 71.5739 88.6534C71.7899 88.2595 71.8978 87.8144 71.8978 87.3182C71.8978 86.8106 71.7861 86.358 71.5626 85.9602C71.3429 85.5587 71.0399 85.2424 70.6535 85.0114C70.2671 84.7803 69.8258 84.6629 69.3296 84.6591C68.9736 84.6553 68.608 84.7102 68.233 84.8239C67.858 84.9337 67.5493 85.0758 67.3069 85.25L65.9887 85.0909L66.6933 79.3636H72.7387V80.6136H67.8751L67.466 84.0455H67.5342C67.7728 83.8561 68.072 83.6989 68.4319 83.5739C68.7917 83.4489 69.1667 83.3864 69.5569 83.3864C70.269 83.3864 70.9035 83.5568 71.4603 83.8977C72.0209 84.2348 72.4603 84.697 72.7785 85.2841C73.1005 85.8712 73.2614 86.5417 73.2614 87.2955C73.2614 88.0379 73.0948 88.7008 72.7614 89.2841C72.4319 89.8636 71.9774 90.322 71.3978 90.6591C70.8183 90.9924 70.1592 91.1591 69.4205 91.1591ZM74.9418 88.6136V87.4545L80.0555 79.3636H80.8964V81.1591H80.3282L76.4645 87.2727V87.3636H83.3509V88.6136H74.9418ZM80.4191 91V88.2614V87.7216V79.3636H81.76V91H80.4191ZM89.3125 78.8182L85.5625 92.75H84.3353L88.0853 78.8182H89.3125ZM94.6662 79.3636V91H93.2571V80.8409H93.1889L90.348 82.7273V81.2955L93.2571 79.3636H94.6662ZM101.504 91.1591C100.648 91.1591 99.919 90.9261 99.3167 90.4602C98.7145 89.9905 98.2542 89.3106 97.9361 88.4205C97.6179 87.5265 97.4588 86.447 97.4588 85.1818C97.4588 83.9242 97.6179 82.8504 97.9361 81.9602C98.258 81.0663 98.7202 80.3845 99.3224 79.9148C99.9285 79.4413 100.656 79.2045 101.504 79.2045C102.353 79.2045 103.078 79.4413 103.68 79.9148C104.286 80.3845 104.749 81.0663 105.067 81.9602C105.389 82.8504 105.55 83.9242 105.55 85.1818C105.55 86.447 105.391 87.5265 105.072 88.4205C104.754 89.3106 104.294 89.9905 103.692 90.4602C103.089 90.9261 102.36 91.1591 101.504 91.1591ZM101.504 89.9091C102.353 89.9091 103.012 89.5 103.482 88.6818C103.951 87.8636 104.186 86.697 104.186 85.1818C104.186 84.1742 104.078 83.3163 103.862 82.608C103.65 81.8996 103.343 81.3598 102.942 80.9886C102.544 80.6174 102.065 80.4318 101.504 80.4318C100.663 80.4318 100.006 80.8466 99.5327 81.6761C99.0592 82.5019 98.8224 83.6705 98.8224 85.1818C98.8224 86.1894 98.9285 87.0455 99.1406 87.75C99.3527 88.4545 99.6577 88.9905 100.055 89.358C100.457 89.7254 100.94 89.9091 101.504 89.9091ZM111.541 78.8182L107.791 92.75H106.564L110.314 78.8182H111.541ZM116.895 79.3636V91H115.486V80.8409H115.418L112.577 82.7273V81.2955L115.486 79.3636H116.895ZM119.937 91V89.9773L123.778 85.7727C124.229 85.2803 124.6 84.8523 124.892 84.4886C125.184 84.1212 125.4 83.7765 125.54 83.4545C125.684 83.1288 125.756 82.7879 125.756 82.4318C125.756 82.0227 125.657 81.6686 125.46 81.3693C125.267 81.0701 125.002 80.839 124.665 80.6761C124.328 80.5133 123.949 80.4318 123.528 80.4318C123.081 80.4318 122.691 80.5246 122.358 80.7102C122.028 80.892 121.773 81.1477 121.591 81.4773C121.413 81.8068 121.324 82.1932 121.324 82.6364H119.983C119.983 81.9545 120.14 81.3561 120.454 80.8409C120.769 80.3258 121.197 79.9242 121.739 79.6364C122.284 79.3485 122.896 79.2045 123.574 79.2045C124.256 79.2045 124.86 79.3485 125.386 79.6364C125.913 79.9242 126.326 80.3125 126.625 80.8011C126.924 81.2898 127.074 81.8333 127.074 82.4318C127.074 82.8598 126.996 83.2784 126.841 83.6875C126.689 84.0928 126.424 84.5455 126.045 85.0455C125.67 85.5417 125.15 86.1477 124.483 86.8636L121.869 89.6591V89.75H127.278V91H119.937Z" fill="#424242"/>
<rect x="138" y="73" width="1" height="24" fill="#B3B3B3"/>
<path d="M158.396 89.304L159.212 88.52C160.572 89.32 162.316 90.536 163.164 91.384L162.316 92.296C161.5 91.432 159.804 90.168 158.396 89.304ZM152.444 83H163.164V84.152H152.444V83ZM158.268 79.784H162.556V80.904H158.268V79.784ZM157.596 77.56H158.78V83.736H157.596V77.56ZM154.364 78.92H155.516V83.64H154.364V78.92ZM153.452 85.272L154.332 84.616C155.244 85.336 156.348 86.392 156.844 87.128L155.916 87.848C155.436 87.112 154.38 86.024 153.452 85.272ZM161.388 84.424L162.476 85.128C161.564 86.072 160.412 87.16 159.5 87.848L158.62 87.24C159.5 86.52 160.7 85.32 161.388 84.424ZM152.412 91.16C153.484 90.568 155.148 89.56 156.732 88.568L157.116 89.608C155.756 90.536 154.268 91.48 153.1 92.2L152.412 91.16ZM149.244 78.568L149.916 77.704C150.924 78.136 152.188 78.856 152.796 79.416L152.108 80.392C151.5 79.816 150.268 79.048 149.244 78.568ZM148.396 82.92L149.052 82.024C150.076 82.408 151.372 83.096 152.012 83.624L151.324 84.616C150.7 84.072 149.436 83.352 148.396 82.92ZM148.876 91.288C149.692 90.056 150.86 87.928 151.724 86.104L152.636 86.84C151.852 88.536 150.796 90.568 149.916 92.056L148.876 91.288ZM167.484 90.584H175.548V91.64H167.484V90.584ZM167.02 85.864H176.06V92.28H174.796V86.936H168.252V92.296H167.02V85.864ZM171.452 81.768C170.14 83.8 167.564 86.152 164.892 87.64C164.732 87.368 164.412 86.952 164.14 86.696C166.908 85.256 169.548 82.776 170.78 80.6H171.98C173.644 83.064 176.428 85.352 178.94 86.52C178.652 86.808 178.38 87.224 178.172 87.56C175.692 86.232 172.924 83.912 171.452 81.768ZM172.972 78.52L173.9 77.864C175.436 78.952 177.34 80.536 178.252 81.64L177.244 82.392C176.396 81.288 174.54 79.656 172.972 78.52ZM168.764 77.912L169.948 78.328C168.828 79.944 167.148 81.528 165.66 82.536C165.436 82.312 164.956 81.88 164.668 81.688C166.204 80.776 167.788 79.352 168.764 77.912ZM188.172 83.048H194.204V84.12H188.172V83.048ZM184.412 90.6H192.476V91.672H184.412V90.6ZM187.596 81.144H188.812V87H187.596V81.144ZM183.772 86.424H193.132V92.28H191.9V87.512H184.94V92.312H183.772V86.424ZM187.036 77.576H188.268V80.296H187.036V77.576ZM181.708 79.64H194.428V80.792H181.708V79.64ZM181.116 79.64H182.316V83.784C182.316 86.248 182.092 89.864 180.716 92.296C180.508 92.088 179.98 91.752 179.692 91.624C181.004 89.32 181.116 86.088 181.116 83.784V79.64Z" fill="#424242"/>
<rect width="204" height="24" transform="translate(0 97)" fill="white"/>
<path d="M18.448 101.896H19.712V114.28H18.448V101.896ZM12.832 105.384H14.048V116.088H12.832V105.384ZM24.288 105.368H25.52V116.024H24.288V105.368ZM13.424 113.56H24.832V114.792H13.424V113.56ZM27.872 104.936H41.84V106.152H27.872V104.936ZM31.072 112.072H38.528V113.288H31.072V112.072ZM34.192 101.576H35.456V116.28H34.192V101.576ZM33.824 105.336L34.896 105.704C33.472 109.096 30.96 112.152 28.192 113.768C28 113.464 27.6 113.016 27.328 112.776C30 111.384 32.544 108.408 33.824 105.336ZM35.856 105.384C37.12 108.424 39.632 111.336 42.4 112.664C42.096 112.92 41.68 113.4 41.488 113.736C38.656 112.168 36.192 109.112 34.784 105.752L35.856 105.384Z" fill="#424242"/>
<rect x="54" y="97" width="1" height="24" fill="#B3B3B3"/>
<path d="M66.5462 115L71.7508 104.705V104.614H65.7508V103.364H73.2053V104.682L68.0235 115H66.5462ZM78.5647 115.159C77.7086 115.159 76.9795 114.926 76.3772 114.46C75.7749 113.991 75.3147 113.311 74.9965 112.42C74.6783 111.527 74.5192 110.447 74.5192 109.182C74.5192 107.924 74.6783 106.85 74.9965 105.96C75.3185 105.066 75.7806 104.384 76.3829 103.915C76.9889 103.441 77.7162 103.205 78.5647 103.205C79.4132 103.205 80.1386 103.441 80.7408 103.915C81.3469 104.384 81.809 105.066 82.1272 105.96C82.4492 106.85 82.6101 107.924 82.6101 109.182C82.6101 110.447 82.4511 111.527 82.1329 112.42C81.8147 113.311 81.3545 113.991 80.7522 114.46C80.1499 114.926 79.4207 115.159 78.5647 115.159ZM78.5647 113.909C79.4132 113.909 80.0723 113.5 80.542 112.682C81.0117 111.864 81.2465 110.697 81.2465 109.182C81.2465 108.174 81.1386 107.316 80.9226 106.608C80.7105 105.9 80.4037 105.36 80.0022 104.989C79.6045 104.617 79.1253 104.432 78.5647 104.432C77.7238 104.432 77.0666 104.847 76.5931 105.676C76.1196 106.502 75.8829 107.67 75.8829 109.182C75.8829 110.189 75.9889 111.045 76.2011 111.75C76.4132 112.455 76.7181 112.991 77.1158 113.358C77.5173 113.725 78.0003 113.909 78.5647 113.909ZM88.6016 102.818L84.8516 116.75H83.6243L87.3743 102.818H88.6016ZM93.9553 103.364V115H92.5462V104.841H92.478L89.6371 106.727V105.295L92.5462 103.364H93.9553ZM100.793 115.159C99.9373 115.159 99.2081 114.926 98.6058 114.46C98.0035 113.991 97.5433 113.311 97.2251 112.42C96.9069 111.527 96.7479 110.447 96.7479 109.182C96.7479 107.924 96.9069 106.85 97.2251 105.96C97.5471 105.066 98.0092 104.384 98.6115 103.915C99.2176 103.441 99.9448 103.205 100.793 103.205C101.642 103.205 102.367 103.441 102.969 103.915C103.576 104.384 104.038 105.066 104.356 105.96C104.678 106.85 104.839 107.924 104.839 109.182C104.839 110.447 104.68 111.527 104.361 112.42C104.043 113.311 103.583 113.991 102.981 114.46C102.379 114.926 101.649 115.159 100.793 115.159ZM100.793 113.909C101.642 113.909 102.301 113.5 102.771 112.682C103.24 111.864 103.475 110.697 103.475 109.182C103.475 108.174 103.367 107.316 103.151 106.608C102.939 105.9 102.632 105.36 102.231 104.989C101.833 104.617 101.354 104.432 100.793 104.432C99.9524 104.432 99.2952 104.847 98.8217 105.676C98.3482 106.502 98.1115 107.67 98.1115 109.182C98.1115 110.189 98.2176 111.045 98.4297 111.75C98.6418 112.455 98.9467 112.991 99.3444 113.358C99.746 113.725 100.229 113.909 100.793 113.909ZM110.83 102.818L107.08 116.75H105.853L109.603 102.818H110.83ZM115.888 115.159C115.032 115.159 114.303 114.926 113.701 114.46C113.099 113.991 112.638 113.311 112.32 112.42C112.002 111.527 111.843 110.447 111.843 109.182C111.843 107.924 112.002 106.85 112.32 105.96C112.642 105.066 113.104 104.384 113.707 103.915C114.313 103.441 115.04 103.205 115.888 103.205C116.737 103.205 117.462 103.441 118.065 103.915C118.671 104.384 119.133 105.066 119.451 105.96C119.773 106.85 119.934 107.924 119.934 109.182C119.934 110.447 119.775 111.527 119.457 112.42C119.138 113.311 118.678 113.991 118.076 114.46C117.474 114.926 116.744 115.159 115.888 115.159ZM115.888 113.909C116.737 113.909 117.396 113.5 117.866 112.682C118.335 111.864 118.57 110.697 118.57 109.182C118.57 108.174 118.462 107.316 118.246 106.608C118.034 105.9 117.727 105.36 117.326 104.989C116.928 104.617 116.449 104.432 115.888 104.432C115.048 104.432 114.39 104.847 113.917 105.676C113.443 106.502 113.207 107.67 113.207 109.182C113.207 110.189 113.313 111.045 113.525 111.75C113.737 112.455 114.042 112.991 114.44 113.358C114.841 113.725 115.324 113.909 115.888 113.909ZM125.88 103.364V115H124.471V104.841H124.403L121.562 106.727V105.295L124.471 103.364H125.88Z" fill="#424242"/>
<rect x="138" y="97" width="1" height="24" fill="#B3B3B3"/>
<path d="M149.34 104.424H162.236V111.96H160.988V105.608H150.54V112.04H149.34V104.424ZM149.98 109.864H161.708V111.032H149.98V109.864ZM155.132 101.56H156.38V116.264H155.132V101.56ZM165.66 106.056V107.816H170.524V106.056H165.66ZM165.66 103.368V105.112H170.524V103.368H165.66ZM164.652 102.376H171.564V108.824H164.652V102.376ZM164.62 110.616H171.58V111.72H164.62V110.616ZM164.108 114.504C166.028 114.264 169.052 113.864 171.964 113.464L171.996 114.536C169.228 114.952 166.284 115.384 164.268 115.672L164.108 114.504ZM172.092 102.392H177.932V103.48H172.092V102.392ZM171.916 107.544H178.172V108.68H171.916V107.544ZM177.42 102.392H177.708L177.964 102.328L178.748 102.856C177.916 104.136 176.62 105.528 175.42 106.392C175.26 106.184 174.924 105.864 174.732 105.704C175.74 104.936 176.876 103.608 177.42 102.616V102.392ZM172.732 105.192L173.484 104.456C174.908 105.176 176.54 106.36 177.356 107.192L176.588 108.024C175.756 107.144 174.14 105.944 172.732 105.192ZM177.804 107.544H177.996L178.188 107.496L179.004 107.704C178.604 109.032 178.124 110.568 177.644 111.512L176.668 111.24C177.068 110.376 177.516 108.92 177.804 107.752V107.544ZM174.492 108.104H175.676V114.824C175.676 115.496 175.548 115.864 175.036 116.072C174.54 116.264 173.724 116.264 172.524 116.264C172.476 115.928 172.3 115.432 172.124 115.08C173.084 115.112 173.9 115.112 174.172 115.096C174.428 115.096 174.492 115.016 174.492 114.792V108.104ZM167.58 102.744H168.62V108.376H168.684V114.296H167.532V108.376H167.58V102.744ZM188.172 107.048H194.204V108.12H188.172V107.048ZM184.412 114.6H192.476V115.672H184.412V114.6ZM187.596 105.144H188.812V111H187.596V105.144ZM183.772 110.424H193.132V116.28H191.9V111.512H184.94V116.312H183.772V110.424ZM187.036 101.576H188.268V104.296H187.036V101.576ZM181.708 103.64H194.428V104.792H181.708V103.64ZM181.116 103.64H182.316V107.784C182.316 110.248 182.092 113.864 180.716 116.296C180.508 116.088 179.98 115.752 179.692 115.624C181.004 113.32 181.116 110.088 181.116 107.784V103.64Z" fill="#424242"/>
</g>
<rect x="0.5" y="25.5" width="203" height="95" stroke="#B3B3B3"/>
<path d="M270.724 9.856H276.772V11.552H270.724V9.856ZM267.3 17.168H274.82V18.864H267.3V17.168ZM269.812 8.352H271.764V14.288H269.812V8.352ZM266.292 13.296H275.844V19.424H273.876V14.992H268.164V19.44H266.292V13.296ZM269.156 4.416H271.156V7.328H269.156V4.416ZM264.356 6.288H276.996V8.112H264.356V6.288ZM263.412 6.288H265.332V10.336C265.332 12.928 265.092 16.896 263.636 19.408C263.284 19.088 262.436 18.528 261.972 18.336C263.316 16.032 263.412 12.656 263.412 10.336V6.288ZM284.596 6.528H292.708V8.176H284.596V6.528ZM285.604 11.872H291.748V13.408H285.604V11.872ZM285.604 14.448H291.748V16H285.604V14.448ZM287.78 4.4H289.492V19.296H287.78V4.4ZM290.804 9.232H292.468V17.616C292.468 18.336 292.372 18.8 291.94 19.072C291.492 19.36 290.948 19.392 290.18 19.392C290.132 18.928 289.924 18.208 289.7 17.76C290.084 17.776 290.484 17.776 290.612 17.776C290.74 17.776 290.804 17.728 290.804 17.568V9.232ZM284.884 9.232H291.732V10.848H286.532V19.392H284.884V9.232ZM289.7 5.264L290.804 4.416C291.428 4.8 292.212 5.392 292.596 5.824L291.428 6.784C291.076 6.336 290.308 5.696 289.7 5.264ZM278.612 14.048H284.212V19.104H282.484V15.6H280.276V19.424H278.612V14.048ZM280.532 7.856H282.276V12.352H280.532V7.856ZM278.724 9.2H284.116V10.672H278.724V9.2ZM278.196 11.76H284.468V13.312H278.196V11.76ZM279.236 17.024H283.428V18.576H279.236V17.024ZM280.308 4.416H281.364V4.768H281.924V5.296C281.284 6.464 280.308 8.064 278.772 9.472C278.5 9.072 277.924 8.448 277.556 8.192C278.868 7.088 279.796 5.616 280.308 4.416ZM280.66 4.416H281.956C282.916 5.248 284.116 6.448 284.692 7.312L283.508 8.768C282.996 7.92 281.876 6.496 280.964 5.728H280.66V4.416Z" fill="black"/>
<g clip-path="url(#clip1_35_1050)">
<rect width="131" height="24" transform="translate(212 24)" fill="#4F60C6"/>
<path d="M237.628 34.048H243.66V35.12H237.628V34.048ZM233.868 41.6H241.932V42.672H233.868V41.6ZM237.052 32.144H238.268V38H237.052V32.144ZM233.228 37.424H242.588V43.28H241.356V38.512H234.396V43.312H233.228V37.424ZM236.492 28.576H237.724V31.296H236.492V28.576ZM231.164 30.64H243.884V31.792H231.164V30.64ZM230.572 30.64H231.772V34.784C231.772 37.248 231.548 40.864 230.172 43.296C229.964 43.088 229.436 42.752 229.148 42.624C230.46 40.32 230.572 37.088 230.572 34.784V30.64ZM250.172 41.536H257.9V42.64H250.172V41.536ZM249.628 30.176H255.5V31.248H249.628V30.176ZM250.348 28.512L251.692 28.784C250.492 30.864 248.572 33.04 245.788 34.688C245.612 34.384 245.212 33.968 244.94 33.76C247.58 32.32 249.42 30.256 250.348 28.512ZM255.1 30.176H255.324L255.548 30.112L256.348 30.544C254.428 35.376 249.916 38.592 245.564 40C245.42 39.68 245.116 39.184 244.86 38.928C249.004 37.728 253.436 34.592 255.1 30.384V30.176ZM247.628 33.024L248.524 32.256C249.788 33.12 251.324 34.4 252.06 35.312L251.084 36.176C250.412 35.264 248.892 33.92 247.628 33.024ZM257.308 36.48H258.54V43.312H257.308V36.48ZM250.716 36.48H257.916V37.584H250.716V43.28H249.516V37.424L250.476 36.48H250.716Z" fill="white"/>
<rect x="277" y="24" width="1" height="24" fill="#B3B3B3"/>
<path d="M297.092 30.304H298.228V39.12H297.092V30.304ZM300.356 28.848H301.54V41.632C301.54 42.448 301.348 42.8 300.836 43.008C300.34 43.2 299.428 43.248 298.18 43.248C298.132 42.896 297.956 42.336 297.78 41.968C298.756 42.016 299.7 42 300.02 42C300.276 41.984 300.356 41.904 300.356 41.632V28.848ZM289.22 41.472H294.596V42.432H289.22V41.472ZM287.684 36.448H295.956V37.408H287.684V36.448ZM288.564 32.512H295.204V33.424H288.564V32.512ZM288.644 34.464H295.012V35.344H288.644V34.464ZM291.268 28.608H292.436V30.592H291.268V28.608ZM291.3 31.472H292.42V36.976H291.3V31.472ZM288.644 38.288H295.22V43.072H294.084V39.232H289.748V43.248H288.644V38.288ZM287.684 30.048H296.132V32.576H295.012V31.008H288.756V32.576H287.684V30.048ZM309.828 28.56H311.124V34.88H309.828V28.56ZM304.42 29.712L305.508 29.264C306.404 30.384 307.268 31.904 307.636 32.912L306.5 33.424C306.148 32.384 305.268 30.832 304.42 29.712ZM315.316 29.136L316.596 29.568C315.924 30.928 315.012 32.496 314.292 33.536L313.252 33.12C313.956 32.064 314.836 30.352 315.316 29.136ZM304.644 34.224H316.388V43.296H315.124V35.424H304.644V34.224ZM305.188 37.744H315.604V38.912H305.188V37.744ZM304.34 41.408H315.764V42.592H304.34V41.408ZM327.652 36.288H328.852V41.328C328.852 41.808 328.964 41.888 329.572 41.888C329.844 41.888 331.22 41.888 331.604 41.888C332.196 41.888 332.276 41.568 332.34 39.488C332.612 39.696 333.124 39.888 333.46 39.968C333.332 42.4 332.98 43.04 331.684 43.04C331.38 43.04 329.732 43.04 329.428 43.04C328.004 43.04 327.652 42.64 327.652 41.312V36.288ZM319.172 35.456H333.236V36.608H319.172V35.456ZM321.796 31.056H332.084V32.224H321.796V31.056ZM323.38 36.336H324.628C324.308 39.6 323.476 42.08 319.716 43.376C319.572 43.056 319.22 42.592 318.948 42.352C322.452 41.264 323.108 39.12 323.38 36.336ZM322.116 28.944L323.332 29.184C322.836 31.008 321.988 33.248 320.868 34.672C320.596 34.48 320.116 34.224 319.828 34.096C320.916 32.752 321.732 30.608 322.116 28.944ZM325.588 28.576H326.804V35.824H325.588V28.576Z" fill="white"/>
<rect width="131" height="24" transform="translate(212 48)" fill="white"/>
<path d="M230.196 57.968H236.148V59.088H230.196V57.968ZM221.78 54.24H228.836V55.264H221.78V54.24ZM221.604 60.592H228.916V61.632H221.604V60.592ZM221.556 57.904H229.028V58.928H221.556V57.904ZM233.172 58.416H234.34V67.2H233.172V58.416ZM224.74 52.624H225.908V54.768H224.74V52.624ZM224.74 58.736H225.908V67.264H224.74V58.736ZM229.62 53.872L231.092 54.32C231.076 54.448 230.98 54.512 230.756 54.544V59.488C230.756 61.888 230.468 65.136 228.212 67.36C228.068 67.088 227.636 66.688 227.348 66.528C229.396 64.512 229.62 61.744 229.62 59.472V53.872ZM234.98 52.752L235.94 53.632C234.436 54.304 232.196 54.848 230.276 55.184C230.212 54.928 230.052 54.512 229.908 54.272C231.7 53.888 233.812 53.328 234.98 52.752ZM225.796 61.936C226.308 62.288 228.052 63.712 228.452 64.08L227.748 64.976C227.236 64.384 225.732 62.976 225.14 62.48L225.796 61.936ZM222.74 55.552L223.684 55.344C224.02 56.048 224.292 56.992 224.372 57.6L223.364 57.872C223.316 57.248 223.06 56.288 222.74 55.552ZM226.836 55.312L227.924 55.552C227.62 56.352 227.284 57.248 226.996 57.84L226.036 57.616C226.324 56.976 226.66 55.984 226.836 55.312ZM224.756 61.12L225.62 61.456C224.804 63.232 223.332 65.12 222.052 66.112C221.86 65.84 221.508 65.456 221.236 65.264C222.532 64.416 223.988 62.688 224.756 61.12ZM243.86 52.576H245.092V54.608H243.86V52.576ZM237.828 53.952H251.22V56.576H250.004V55.04H239.012V56.784H237.828V53.952ZM242.004 56.912H251.3V58H242.004V56.912ZM243.316 62.576H250.068V63.584H243.316V62.576ZM243.316 65.648H250.068V66.704H243.316V65.648ZM242.772 59.68H250.644V67.28H249.46V60.736H243.924V67.312H242.772V59.68ZM245.988 57.408L247.3 57.712C246.996 58.688 246.66 59.776 246.372 60.512L245.332 60.208C245.556 59.456 245.86 58.256 245.988 57.408ZM240.772 55.888L241.892 56.24C240.852 58.48 239.236 60.624 237.588 62.016C237.444 61.76 237.06 61.216 236.836 60.96C238.404 59.744 239.876 57.856 240.772 55.888ZM239.412 58.8L240.468 57.744L240.564 57.792V67.296H239.412V58.8ZM261.172 58.048H267.204V59.12H261.172V58.048ZM257.412 65.6H265.476V66.672H257.412V65.6ZM260.596 56.144H261.812V62H260.596V56.144ZM256.772 61.424H266.132V67.28H264.9V62.512H257.94V67.312H256.772V61.424ZM260.036 52.576H261.268V55.296H260.036V52.576ZM254.708 54.64H267.428V55.792H254.708V54.64ZM254.116 54.64H255.316V58.784C255.316 61.248 255.092 64.864 253.716 67.296C253.508 67.088 252.98 66.752 252.692 66.624C254.004 64.32 254.116 61.088 254.116 58.784V54.64Z" fill="#424242"/>
<rect x="277" y="48" width="1" height="24" fill="#B3B3B3"/>
<path d="M295.692 54.096H309.676V55.216H295.692V54.096ZM301.98 52.576H303.228V67.28H301.98V52.576ZM301.612 61.744L302.62 62.192C301.116 64.208 298.476 66.08 296.14 67.04C295.948 66.736 295.58 66.272 295.292 66.032C297.628 65.216 300.252 63.504 301.612 61.744ZM303.628 61.76C305.004 63.52 307.676 65.232 310.044 66.032C309.756 66.272 309.388 66.736 309.196 67.072C306.828 66.128 304.156 64.208 302.652 62.208L303.628 61.76ZM298.268 59.952V61.488H307.164V59.952H298.268ZM298.268 57.52V59.04H307.164V57.52H298.268ZM297.1 56.576H308.38V62.448H297.1V56.576ZM311.372 54.416H325.34V55.568H311.372V54.416ZM317.676 52.56H318.94V55.024H317.676V52.56ZM314.524 58.096V60.72H322.236V58.096H314.524ZM313.34 57.04H323.5V61.792H313.34V57.04ZM321.324 63.264L322.412 62.736C323.484 63.776 324.812 65.248 325.468 66.192L324.3 66.8C323.708 65.872 322.412 64.336 321.324 63.264ZM317.692 61.344H318.94V65.888C318.94 66.592 318.78 66.928 318.22 67.104C317.676 67.28 316.764 67.296 315.34 67.28C315.276 66.96 315.1 66.48 314.94 66.16C316.028 66.192 317.036 66.176 317.324 66.16C317.612 66.16 317.692 66.096 317.692 65.872V61.344ZM314.012 62.72L315.228 63.104C314.46 64.368 313.228 65.792 312.028 66.688C311.788 66.464 311.356 66.144 311.084 65.984C312.236 65.152 313.42 63.824 314.012 62.72Z" fill="#424242"/>
<rect width="131" height="24" transform="translate(212 72)" fill="#DFE2F4"/>
<path d="M231.396 88.304L232.212 87.52C233.572 88.32 235.316 89.536 236.164 90.384L235.316 91.296C234.5 90.432 232.804 89.168 231.396 88.304ZM225.444 82H236.164V83.152H225.444V82ZM231.268 78.784H235.556V79.904H231.268V78.784ZM230.596 76.56H231.78V82.736H230.596V76.56ZM227.364 77.92H228.516V82.64H227.364V77.92ZM226.452 84.272L227.332 83.616C228.244 84.336 229.348 85.392 229.844 86.128L228.916 86.848C228.436 86.112 227.38 85.024 226.452 84.272ZM234.388 83.424L235.476 84.128C234.564 85.072 233.412 86.16 232.5 86.848L231.62 86.24C232.5 85.52 233.7 84.32 234.388 83.424ZM225.412 90.16C226.484 89.568 228.148 88.56 229.732 87.568L230.116 88.608C228.756 89.536 227.268 90.48 226.1 91.2L225.412 90.16ZM222.244 77.568L222.916 76.704C223.924 77.136 225.188 77.856 225.796 78.416L225.108 79.392C224.5 78.816 223.268 78.048 222.244 77.568ZM221.396 81.92L222.052 81.024C223.076 81.408 224.372 82.096 225.012 82.624L224.324 83.616C223.7 83.072 222.436 82.352 221.396 81.92ZM221.876 90.288C222.692 89.056 223.86 86.928 224.724 85.104L225.636 85.84C224.852 87.536 223.796 89.568 222.916 91.056L221.876 90.288ZM240.484 89.584H248.548V90.64H240.484V89.584ZM240.02 84.864H249.06V91.28H247.796V85.936H241.252V91.296H240.02V84.864ZM244.452 80.768C243.14 82.8 240.564 85.152 237.892 86.64C237.732 86.368 237.412 85.952 237.14 85.696C239.908 84.256 242.548 81.776 243.78 79.6H244.98C246.644 82.064 249.428 84.352 251.94 85.52C251.652 85.808 251.38 86.224 251.172 86.56C248.692 85.232 245.924 82.912 244.452 80.768ZM245.972 77.52L246.9 76.864C248.436 77.952 250.34 79.536 251.252 80.64L250.244 81.392C249.396 80.288 247.54 78.656 245.972 77.52ZM241.764 76.912L242.948 77.328C241.828 78.944 240.148 80.528 238.66 81.536C238.436 81.312 237.956 80.88 237.668 80.688C239.204 79.776 240.788 78.352 241.764 76.912ZM261.172 82.048H267.204V83.12H261.172V82.048ZM257.412 89.6H265.476V90.672H257.412V89.6ZM260.596 80.144H261.812V86H260.596V80.144ZM256.772 85.424H266.132V91.28H264.9V86.512H257.94V91.312H256.772V85.424ZM260.036 76.576H261.268V79.296H260.036V76.576ZM254.708 78.64H267.428V79.792H254.708V78.64ZM254.116 78.64H255.316V82.784C255.316 85.248 255.092 88.864 253.716 91.296C253.508 91.088 252.98 90.752 252.692 90.624C254.004 88.32 254.116 85.088 254.116 82.784V78.64Z" fill="#424242"/>
<rect x="277" y="72" width="1" height="24" fill="#B3B3B3"/>
<path d="M295.692 78.096H309.676V79.216H295.692V78.096ZM301.98 76.576H303.228V91.28H301.98V76.576ZM301.612 85.744L302.62 86.192C301.116 88.208 298.476 90.08 296.14 91.04C295.948 90.736 295.58 90.272 295.292 90.032C297.628 89.216 300.252 87.504 301.612 85.744ZM303.628 85.76C305.004 87.52 307.676 89.232 310.044 90.032C309.756 90.272 309.388 90.736 309.196 91.072C306.828 90.128 304.156 88.208 302.652 86.208L303.628 85.76ZM298.268 83.952V85.488H307.164V83.952H298.268ZM298.268 81.52V83.04H307.164V81.52H298.268ZM297.1 80.576H308.38V86.448H297.1V80.576ZM311.372 78.416H325.34V79.568H311.372V78.416ZM317.676 76.56H318.94V79.024H317.676V76.56ZM314.524 82.096V84.72H322.236V82.096H314.524ZM313.34 81.04H323.5V85.792H313.34V81.04ZM321.324 87.264L322.412 86.736C323.484 87.776 324.812 89.248 325.468 90.192L324.3 90.8C323.708 89.872 322.412 88.336 321.324 87.264ZM317.692 85.344H318.94V89.888C318.94 90.592 318.78 90.928 318.22 91.104C317.676 91.28 316.764 91.296 315.34 91.28C315.276 90.96 315.1 90.48 314.94 90.16C316.028 90.192 317.036 90.176 317.324 90.16C317.612 90.16 317.692 90.096 317.692 89.872V85.344ZM314.012 86.72L315.228 87.104C314.46 88.368 313.228 89.792 312.028 90.688C311.788 90.464 311.356 90.144 311.084 89.984C312.236 89.152 313.42 87.824 314.012 86.72Z" fill="#424242"/>
<rect width="131" height="24" transform="translate(212 96)" fill="white"/>
<path d="M222.34 103.424H235.236V110.96H233.988V104.608H223.54V111.04H222.34V103.424ZM222.98 108.864H234.708V110.032H222.98V108.864ZM228.132 100.56H229.38V115.264H228.132V100.56ZM238.66 105.056V106.816H243.524V105.056H238.66ZM238.66 102.368V104.112H243.524V102.368H238.66ZM237.652 101.376H244.564V107.824H237.652V101.376ZM237.62 109.616H244.58V110.72H237.62V109.616ZM237.108 113.504C239.028 113.264 242.052 112.864 244.964 112.464L244.996 113.536C242.228 113.952 239.284 114.384 237.268 114.672L237.108 113.504ZM245.092 101.392H250.932V102.48H245.092V101.392ZM244.916 106.544H251.172V107.68H244.916V106.544ZM250.42 101.392H250.708L250.964 101.328L251.748 101.856C250.916 103.136 249.62 104.528 248.42 105.392C248.26 105.184 247.924 104.864 247.732 104.704C248.74 103.936 249.876 102.608 250.42 101.616V101.392ZM245.732 104.192L246.484 103.456C247.908 104.176 249.54 105.36 250.356 106.192L249.588 107.024C248.756 106.144 247.14 104.944 245.732 104.192ZM250.804 106.544H250.996L251.188 106.496L252.004 106.704C251.604 108.032 251.124 109.568 250.644 110.512L249.668 110.24C250.068 109.376 250.516 107.92 250.804 106.752V106.544ZM247.492 107.104H248.676V113.824C248.676 114.496 248.548 114.864 248.036 115.072C247.54 115.264 246.724 115.264 245.524 115.264C245.476 114.928 245.3 114.432 245.124 114.08C246.084 114.112 246.9 114.112 247.172 114.096C247.428 114.096 247.492 114.016 247.492 113.792V107.104ZM240.58 101.744H241.62V107.376H241.684V113.296H240.532V107.376H240.58V101.744ZM261.172 106.048H267.204V107.12H261.172V106.048ZM257.412 113.6H265.476V114.672H257.412V113.6ZM260.596 104.144H261.812V110H260.596V104.144ZM256.772 109.424H266.132V115.28H264.9V110.512H257.94V115.312H256.772V109.424ZM260.036 100.576H261.268V103.296H260.036V100.576ZM254.708 102.64H267.428V103.792H254.708V102.64ZM254.116 102.64H255.316V106.784C255.316 109.248 255.092 112.864 253.716 115.296C253.508 115.088 252.98 114.752 252.692 114.624C254.004 112.32 254.116 109.088 254.116 106.784V102.64Z" fill="#424242"/>
<rect x="277" y="96" width="1" height="24" fill="#B3B3B3"/>
<path d="M295.692 102.096H309.676V103.216H295.692V102.096ZM301.98 100.576H303.228V115.28H301.98V100.576ZM301.612 109.744L302.62 110.192C301.116 112.208 298.476 114.08 296.14 115.04C295.948 114.736 295.58 114.272 295.292 114.032C297.628 113.216 300.252 111.504 301.612 109.744ZM303.628 109.76C305.004 111.52 307.676 113.232 310.044 114.032C309.756 114.272 309.388 114.736 309.196 115.072C306.828 114.128 304.156 112.208 302.652 110.208L303.628 109.76ZM298.268 107.952V109.488H307.164V107.952H298.268ZM298.268 105.52V107.04H307.164V105.52H298.268ZM297.1 104.576H308.38V110.448H297.1V104.576ZM311.372 102.416H325.34V103.568H311.372V102.416ZM317.676 100.56H318.94V103.024H317.676V100.56ZM314.524 106.096V108.72H322.236V106.096H314.524ZM313.34 105.04H323.5V109.792H313.34V105.04ZM321.324 111.264L322.412 110.736C323.484 111.776 324.812 113.248 325.468 114.192L324.3 114.8C323.708 113.872 322.412 112.336 321.324 111.264ZM317.692 109.344H318.94V113.888C318.94 114.592 318.78 114.928 318.22 115.104C317.676 115.28 316.764 115.296 315.34 115.28C315.276 114.96 315.1 114.48 314.94 114.16C316.028 114.192 317.036 114.176 317.324 114.16C317.612 114.16 317.692 114.096 317.692 113.872V109.344ZM314.012 110.72L315.228 111.104C314.46 112.368 313.228 113.792 312.028 114.688C311.788 114.464 311.356 114.144 311.084 113.984C312.236 113.152 313.42 111.824 314.012 110.72Z" fill="#424242"/>
</g>
<rect x="212.5" y="24.5" width="130" height="95" stroke="#B3B3B3"/>
<path d="M409.964 5.328H414.62V7.136H411.836V19.44H409.964V5.328ZM401.532 5.952H409.276V7.616H401.532V5.952ZM401.196 10.432H409.468V12.16H401.196V10.432ZM404.476 4.528H406.332V6.992H404.476V4.528ZM402.46 8.064L404.044 7.728C404.364 8.448 404.604 9.424 404.7 10.064L403.02 10.464C402.972 9.808 402.732 8.816 402.46 8.064ZM406.748 7.664L408.54 8.048C408.188 8.944 407.868 9.856 407.58 10.464L406.076 10.096C406.332 9.424 406.62 8.4 406.748 7.664ZM402.764 16.992H407.708V18.656H402.764V16.992ZM402.108 13.216H408.748V19.392H406.892V14.88H403.884V19.456H402.108V13.216ZM414.124 5.328H414.492L414.796 5.264L416.204 6.144C415.628 7.696 414.924 9.536 414.3 10.912C415.628 12.336 415.884 13.6 415.9 14.672C415.9 15.856 415.628 16.64 415.02 17.056C414.7 17.28 414.332 17.408 413.916 17.472C413.548 17.52 413.1 17.52 412.636 17.504C412.62 16.976 412.46 16.16 412.156 15.632C412.508 15.648 412.828 15.664 413.068 15.648C413.292 15.648 413.5 15.6 413.66 15.504C413.932 15.328 414.044 14.976 414.044 14.416C414.028 13.552 413.692 12.384 412.396 11.136C413.036 9.6 413.772 7.12 414.124 6V5.328ZM418.556 7.44H422.572V8.8H418.556V7.44ZM425.948 7.44H429.98V8.8H425.948V7.44ZM429.228 5.056H431.164V17.104C431.164 18.224 430.94 18.768 430.236 19.072C429.532 19.392 428.476 19.44 426.924 19.44C426.828 18.896 426.508 17.984 426.236 17.456C427.244 17.536 428.444 17.52 428.78 17.504C429.116 17.504 429.228 17.408 429.228 17.088V5.056ZM418.716 5.056H423.756V11.264H418.716V9.728H421.948V6.608H418.716V5.056ZM430.268 5.056V6.608H426.684V9.76H430.268V11.296H424.86V5.056H430.268ZM417.612 5.056H419.516V19.44H417.612V5.056Z" fill="black"/>
<g clip-path="url(#clip2_35_1050)">
<rect width="131" height="24" transform="translate(351 24)" fill="#4F60C6"/>
<path d="M369.404 29.52H374.204V30.656H370.572V43.296H369.404V29.52ZM360.876 30.336H368.524V31.408H360.876V30.336ZM360.46 34.768H368.732V35.872H360.46V34.768ZM364.092 28.624H365.26V30.992H364.092V28.624ZM361.868 31.968L362.876 31.744C363.228 32.544 363.532 33.616 363.628 34.32L362.556 34.576C362.476 33.872 362.204 32.784 361.868 31.968ZM366.46 31.632L367.612 31.904C367.26 32.848 366.876 33.92 366.524 34.624L365.564 34.368C365.884 33.632 366.268 32.448 366.46 31.632ZM361.964 41.296H367.228V42.368H361.964V41.296ZM361.532 37.264H367.836V43.216H366.684V38.336H362.652V43.296H361.532V37.264ZM373.884 29.52H374.124L374.316 29.472L375.196 30.032C374.54 31.536 373.708 33.392 372.972 34.864C374.588 36.352 374.972 37.616 374.988 38.768C374.988 39.744 374.764 40.496 374.204 40.88C373.916 41.056 373.564 41.168 373.148 41.232C372.748 41.28 372.22 41.264 371.756 41.248C371.74 40.912 371.628 40.4 371.42 40.064C371.884 40.096 372.348 40.112 372.668 40.096C372.94 40.08 373.164 40.016 373.356 39.904C373.708 39.696 373.82 39.232 373.82 38.64C373.804 37.632 373.34 36.432 371.724 35.024C372.54 33.376 373.404 31.168 373.884 29.904V29.52ZM377.532 31.744H381.98V32.656H377.532V31.744ZM384.892 31.744H389.42V32.656H384.892V31.744ZM388.908 29.328H390.108V41.648C390.108 42.464 389.916 42.848 389.372 43.04C388.812 43.248 387.868 43.264 386.412 43.264C386.348 42.928 386.14 42.368 385.964 42.016C387.068 42.08 388.172 42.064 388.492 42.048C388.812 42.032 388.908 41.952 388.908 41.648V29.328ZM377.628 29.328H382.684V35.2H377.628V34.192H381.548V30.336H377.628V29.328ZM389.532 29.328V30.336H385.34V34.208H389.532V35.216H384.188V29.328H389.532ZM376.956 29.328H378.14V43.28H376.956V29.328ZM397.02 41.536H404.748V42.64H397.02V41.536ZM396.476 30.176H402.348V31.248H396.476V30.176ZM397.196 28.512L398.54 28.784C397.34 30.864 395.42 33.04 392.636 34.688C392.46 34.384 392.06 33.968 391.788 33.76C394.428 32.32 396.268 30.256 397.196 28.512ZM401.948 30.176H402.172L402.396 30.112L403.196 30.544C401.276 35.376 396.764 38.592 392.412 40C392.268 39.68 391.964 39.184 391.708 38.928C395.852 37.728 400.284 34.592 401.948 30.384V30.176ZM394.476 33.024L395.372 32.256C396.636 33.12 398.172 34.4 398.908 35.312L397.932 36.176C397.26 35.264 395.74 33.92 394.476 33.024ZM404.156 36.48H405.388V43.312H404.156V36.48ZM397.564 36.48H404.764V37.584H397.564V43.28H396.364V37.424L397.324 36.48H397.564Z" fill="white"/>
<rect x="416" y="24" width="1" height="24" fill="#B3B3B3"/>
<path d="M426.764 30.24H433.468V31.28H426.764V30.24ZM426.444 33.984H433.644V35.008H426.444V33.984ZM429.58 28.608H430.732V30.912H429.58V28.608ZM429.612 34.944H430.764V43.28H429.612V34.944ZM429.596 37.056L430.444 37.552C429.724 39.264 428.316 41.136 426.988 42.192C426.828 41.904 426.54 41.488 426.284 41.264C427.564 40.4 428.94 38.672 429.596 37.056ZM430.62 37.952C431.18 38.336 433.084 39.936 433.516 40.336L432.764 41.248C432.22 40.592 430.62 39.04 429.98 38.48L430.62 37.952ZM427.74 31.552L428.684 31.344C429.02 32.08 429.308 33.072 429.372 33.728L428.364 33.968C428.316 33.328 428.06 32.304 427.74 31.552ZM431.596 31.312L432.684 31.568C432.396 32.4 432.092 33.344 431.82 33.968L430.892 33.728C431.132 33.072 431.452 32.016 431.596 31.312ZM435.276 32.96V34.624H439.292V32.96H435.276ZM435.276 35.6V37.28H439.292V35.6H435.276ZM435.276 30.336V31.984H439.292V30.336H435.276ZM434.188 29.264H440.428V38.352H434.188V29.264ZM437.628 38H438.716V41.616C438.716 41.968 438.764 42.016 439.068 42.016C439.18 42.016 439.756 42.016 439.916 42.016C440.236 42.016 440.284 41.808 440.316 39.888C440.556 40.096 441.02 40.272 441.324 40.352C441.244 42.56 440.94 43.088 440.06 43.088C439.836 43.088 439.1 43.088 438.892 43.088C437.852 43.088 437.628 42.736 437.628 41.632V38ZM435.26 38.064H436.364C436.156 40.656 435.548 42.368 433.052 43.328C432.94 43.072 432.62 42.656 432.38 42.448C434.604 41.664 435.084 40.256 435.26 38.064ZM426.604 36.64H433.5V37.68H426.604V36.64ZM451.1 29.52H455.9V30.656H452.268V43.296H451.1V29.52ZM442.572 30.336H450.22V31.408H442.572V30.336ZM442.156 34.768H450.428V35.872H442.156V34.768ZM445.788 28.624H446.956V30.992H445.788V28.624ZM443.564 31.968L444.572 31.744C444.924 32.544 445.228 33.616 445.324 34.32L444.252 34.576C444.172 33.872 443.9 32.784 443.564 31.968ZM448.156 31.632L449.308 31.904C448.956 32.848 448.572 33.92 448.22 34.624L447.26 34.368C447.58 33.632 447.964 32.448 448.156 31.632ZM443.66 41.296H448.924V42.368H443.66V41.296ZM443.228 37.264H449.532V43.216H448.38V38.336H444.348V43.296H443.228V37.264ZM455.58 29.52H455.82L456.012 29.472L456.892 30.032C456.236 31.536 455.404 33.392 454.668 34.864C456.284 36.352 456.668 37.616 456.684 38.768C456.684 39.744 456.46 40.496 455.9 40.88C455.612 41.056 455.26 41.168 454.844 41.232C454.444 41.28 453.916 41.264 453.452 41.248C453.436 40.912 453.324 40.4 453.116 40.064C453.58 40.096 454.044 40.112 454.364 40.096C454.636 40.08 454.86 40.016 455.052 39.904C455.404 39.696 455.516 39.232 455.516 38.64C455.5 37.632 455.036 36.432 453.42 35.024C454.236 33.376 455.1 31.168 455.58 29.904V29.52ZM459.228 31.744H463.676V32.656H459.228V31.744ZM466.588 31.744H471.116V32.656H466.588V31.744ZM470.604 29.328H471.804V41.648C471.804 42.464 471.612 42.848 471.068 43.04C470.508 43.248 469.564 43.264 468.108 43.264C468.044 42.928 467.836 42.368 467.66 42.016C468.764 42.08 469.868 42.064 470.188 42.048C470.508 42.032 470.604 41.952 470.604 41.648V29.328ZM459.324 29.328H464.38V35.2H459.324V34.192H463.244V30.336H459.324V29.328ZM471.228 29.328V30.336H467.036V34.208H471.228V35.216H465.884V29.328H471.228ZM458.652 29.328H459.836V43.28H458.652V29.328Z" fill="white"/>
<rect width="131" height="24" transform="translate(351 48)" fill="white"/>
<path d="M368.692 54.096H382.676V55.216H368.692V54.096ZM374.98 52.576H376.228V67.28H374.98V52.576ZM374.612 61.744L375.62 62.192C374.116 64.208 371.476 66.08 369.14 67.04C368.948 66.736 368.58 66.272 368.292 66.032C370.628 65.216 373.252 63.504 374.612 61.744ZM376.628 61.76C378.004 63.52 380.676 65.232 383.044 66.032C382.756 66.272 382.388 66.736 382.196 67.072C379.828 66.128 377.156 64.208 375.652 62.208L376.628 61.76ZM371.268 59.952V61.488H380.164V59.952H371.268ZM371.268 57.52V59.04H380.164V57.52H371.268ZM370.1 56.576H381.38V62.448H370.1V56.576ZM384.372 54.416H398.34V55.568H384.372V54.416ZM390.676 52.56H391.94V55.024H390.676V52.56ZM387.524 58.096V60.72H395.236V58.096H387.524ZM386.34 57.04H396.5V61.792H386.34V57.04ZM394.324 63.264L395.412 62.736C396.484 63.776 397.812 65.248 398.468 66.192L397.3 66.8C396.708 65.872 395.412 64.336 394.324 63.264ZM390.692 61.344H391.94V65.888C391.94 66.592 391.78 66.928 391.22 67.104C390.676 67.28 389.764 67.296 388.34 67.28C388.276 66.96 388.1 66.48 387.94 66.16C389.028 66.192 390.036 66.176 390.324 66.16C390.612 66.16 390.692 66.096 390.692 65.872V61.344ZM387.012 62.72L388.228 63.104C387.46 64.368 386.228 65.792 385.028 66.688C384.788 66.464 384.356 66.144 384.084 65.984C385.236 65.152 386.42 63.824 387.012 62.72Z" fill="#424242"/>
<rect x="416" y="48" width="1" height="24" fill="#B3B3B3"/>
<path d="M437.716 60.272H445.556V61.168H437.716V60.272ZM437.46 62.432H445.812V63.36H437.46V62.432ZM440.948 60.704H442.052V62.288C442.052 63.696 441.588 65.424 438.02 66.544C437.86 66.304 437.54 65.936 437.316 65.744C440.612 64.832 440.948 63.312 440.948 62.272V60.704ZM442.036 62.816C442.612 64.24 443.924 65.232 445.812 65.616C445.572 65.824 445.284 66.224 445.14 66.496C443.14 65.968 441.764 64.768 441.108 63.024L442.036 62.816ZM438.724 58.96L439.668 58.656C440.052 59.152 440.42 59.824 440.548 60.272L439.556 60.608C439.428 60.128 439.092 59.456 438.724 58.96ZM443.396 58.624L444.484 58.976C444.1 59.6 443.7 60.24 443.364 60.688L442.564 60.368C442.852 59.872 443.22 59.12 443.396 58.624ZM435.684 55.408H440.18V56.224H435.684V55.408ZM443.028 55.408H447.572V56.224H443.028V55.408ZM447.124 53.248H448.308V65.856C448.308 66.512 448.164 66.864 447.732 67.072C447.332 67.264 446.644 67.28 445.62 67.28C445.588 66.976 445.428 66.448 445.268 66.128C445.972 66.16 446.644 66.16 446.852 66.144C447.044 66.144 447.124 66.064 447.124 65.84V53.248ZM435.78 53.248H440.916V58.448H435.78V57.552H439.78V54.144H435.78V53.248ZM447.7 53.248V54.144H443.476V57.568H447.7V58.464H442.324V53.248H447.7ZM435.06 53.248H436.244V67.296H435.06V53.248ZM450.388 54.096H464.372V55.216H450.388V54.096ZM456.676 52.576H457.924V67.28H456.676V52.576ZM456.308 61.744L457.316 62.192C455.812 64.208 453.172 66.08 450.836 67.04C450.644 66.736 450.276 66.272 449.988 66.032C452.324 65.216 454.948 63.504 456.308 61.744ZM458.324 61.76C459.7 63.52 462.372 65.232 464.74 66.032C464.452 66.272 464.084 66.736 463.892 67.072C461.524 66.128 458.852 64.208 457.348 62.208L458.324 61.76ZM452.964 59.952V61.488H461.86V59.952H452.964ZM452.964 57.52V59.04H461.86V57.52H452.964ZM451.796 56.576H463.076V62.448H451.796V56.576Z" fill="#424242"/>
<rect width="131" height="24" transform="translate(351 72)" fill="#DFE2F4"/>
<path d="M367.26 82.496H374.268V83.552H367.26V82.496ZM367.228 85.664H374.444V86.752H367.228V85.664ZM370.092 76.56H371.244V91.28H370.092V76.56ZM366.652 79.344H374.828V87.36H373.692V80.432H367.772V87.44H366.652V79.344ZM360.684 79.568H365.516V80.672H360.684V79.568ZM362.876 76.576H364.044V80.112H362.876V76.576ZM364.172 83.2C364.604 83.52 366.076 84.88 366.428 85.232L365.724 86.208C365.26 85.616 363.996 84.304 363.484 83.808L364.172 83.2ZM365.084 79.568H365.34L365.548 79.52L366.22 79.952C365.116 82.864 362.844 85.552 360.716 87.04C360.604 86.736 360.3 86.176 360.092 85.968C362.092 84.672 364.188 82.24 365.084 79.824V79.568ZM362.876 84.384L364.044 82.944V91.264H362.876V84.384ZM376.54 78.656H390.444V79.744H376.54V78.656ZM377.74 85.184H389.26V86.24H377.74V85.184ZM380.156 82.272H386.86V83.328H380.156V82.272ZM385.58 79.12C386.668 80.96 388.86 82.688 391.004 83.488C390.732 83.712 390.364 84.16 390.172 84.464C388.012 83.52 385.82 81.6 384.588 79.488L385.58 79.12ZM382.892 85.76H384.092V90.016C384.092 90.656 383.948 90.96 383.452 91.12C382.956 91.28 382.172 91.296 380.988 91.296C380.908 90.976 380.716 90.544 380.54 90.24C381.468 90.272 382.332 90.272 382.572 90.256C382.812 90.256 382.892 90.192 382.892 90V85.76ZM379.58 87.136L380.732 87.472C379.932 88.752 378.668 90 377.532 90.832C377.308 90.624 376.844 90.224 376.572 90.064C377.708 89.328 378.876 88.24 379.58 87.136ZM385.932 87.696L386.892 87.12C388.012 88.048 389.404 89.344 390.076 90.208L389.052 90.848C388.412 90 387.052 88.64 385.932 87.696ZM382.364 76.56L383.676 76.736C382.716 79.696 380.572 82.736 376.716 84.608C376.54 84.304 376.156 83.888 375.884 83.696C379.628 82.016 381.66 79.152 382.364 76.56ZM393.74 77.44H394.956V82.896C394.956 85.952 394.732 89.024 392.636 91.408C392.412 91.152 391.932 90.768 391.628 90.576C393.516 88.416 393.74 85.648 393.74 82.88V77.44ZM398.828 78.096H400.028V89.872H398.828V78.096ZM404.204 77.392H405.452V91.264H404.204V77.392Z" fill="#424242"/>
<rect x="416" y="72" width="1" height="24" fill="#B3B3B3"/>
<path d="M437.716 84.272H445.556V85.168H437.716V84.272ZM437.46 86.432H445.812V87.36H437.46V86.432ZM440.948 84.704H442.052V86.288C442.052 87.696 441.588 89.424 438.02 90.544C437.86 90.304 437.54 89.936 437.316 89.744C440.612 88.832 440.948 87.312 440.948 86.272V84.704ZM442.036 86.816C442.612 88.24 443.924 89.232 445.812 89.616C445.572 89.824 445.284 90.224 445.14 90.496C443.14 89.968 441.764 88.768 441.108 87.024L442.036 86.816ZM438.724 82.96L439.668 82.656C440.052 83.152 440.42 83.824 440.548 84.272L439.556 84.608C439.428 84.128 439.092 83.456 438.724 82.96ZM443.396 82.624L444.484 82.976C444.1 83.6 443.7 84.24 443.364 84.688L442.564 84.368C442.852 83.872 443.22 83.12 443.396 82.624ZM435.684 79.408H440.18V80.224H435.684V79.408ZM443.028 79.408H447.572V80.224H443.028V79.408ZM447.124 77.248H448.308V89.856C448.308 90.512 448.164 90.864 447.732 91.072C447.332 91.264 446.644 91.28 445.62 91.28C445.588 90.976 445.428 90.448 445.268 90.128C445.972 90.16 446.644 90.16 446.852 90.144C447.044 90.144 447.124 90.064 447.124 89.84V77.248ZM435.78 77.248H440.916V82.448H435.78V81.552H439.78V78.144H435.78V77.248ZM447.7 77.248V78.144H443.476V81.568H447.7V82.464H442.324V77.248H447.7ZM435.06 77.248H436.244V91.296H435.06V77.248ZM450.388 78.096H464.372V79.216H450.388V78.096ZM456.676 76.576H457.924V91.28H456.676V76.576ZM456.308 85.744L457.316 86.192C455.812 88.208 453.172 90.08 450.836 91.04C450.644 90.736 450.276 90.272 449.988 90.032C452.324 89.216 454.948 87.504 456.308 85.744ZM458.324 85.76C459.7 87.52 462.372 89.232 464.74 90.032C464.452 90.272 464.084 90.736 463.892 91.072C461.524 90.128 458.852 88.208 457.348 86.208L458.324 85.76ZM452.964 83.952V85.488H461.86V83.952H452.964ZM452.964 81.52V83.04H461.86V81.52H452.964ZM451.796 80.576H463.076V86.448H451.796V80.576Z" fill="#424242"/>
<rect width="131" height="24" transform="translate(351 96)" fill="white"/>
<path d="M371.716 108.272H379.556V109.168H371.716V108.272ZM371.46 110.432H379.812V111.36H371.46V110.432ZM374.948 108.704H376.052V110.288C376.052 111.696 375.588 113.424 372.02 114.544C371.86 114.304 371.54 113.936 371.316 113.744C374.612 112.832 374.948 111.312 374.948 110.272V108.704ZM376.036 110.816C376.612 112.24 377.924 113.232 379.812 113.616C379.572 113.824 379.284 114.224 379.14 114.496C377.14 113.968 375.764 112.768 375.108 111.024L376.036 110.816ZM372.724 106.96L373.668 106.656C374.052 107.152 374.42 107.824 374.548 108.272L373.556 108.608C373.428 108.128 373.092 107.456 372.724 106.96ZM377.396 106.624L378.484 106.976C378.1 107.6 377.7 108.24 377.364 108.688L376.564 108.368C376.852 107.872 377.22 107.12 377.396 106.624ZM369.684 103.408H374.18V104.224H369.684V103.408ZM377.028 103.408H381.572V104.224H377.028V103.408ZM381.124 101.248H382.308V113.856C382.308 114.512 382.164 114.864 381.732 115.072C381.332 115.264 380.644 115.28 379.62 115.28C379.588 114.976 379.428 114.448 379.268 114.128C379.972 114.16 380.644 114.16 380.852 114.144C381.044 114.144 381.124 114.064 381.124 113.84V101.248ZM369.78 101.248H374.916V106.448H369.78V105.552H373.78V102.144H369.78V101.248ZM381.7 101.248V102.144H377.476V105.568H381.7V106.464H376.324V101.248H381.7ZM369.06 101.248H370.244V115.296H369.06V101.248ZM384.388 102.096H398.372V103.216H384.388V102.096ZM390.676 100.576H391.924V115.28H390.676V100.576ZM390.308 109.744L391.316 110.192C389.812 112.208 387.172 114.08 384.836 115.04C384.644 114.736 384.276 114.272 383.988 114.032C386.324 113.216 388.948 111.504 390.308 109.744ZM392.324 109.76C393.7 111.52 396.372 113.232 398.74 114.032C398.452 114.272 398.084 114.736 397.892 115.072C395.524 114.128 392.852 112.208 391.348 110.208L392.324 109.76ZM386.964 107.952V109.488H395.86V107.952H386.964ZM386.964 105.52V107.04H395.86V105.52H386.964ZM385.796 104.576H397.076V110.448H385.796V104.576Z" fill="#424242"/>
<rect x="416" y="96" width="1" height="24" fill="#B3B3B3"/>
<path d="M426.844 102.096H440.828V103.216H426.844V102.096ZM433.132 100.576H434.38V115.28H433.132V100.576ZM432.764 109.744L433.772 110.192C432.268 112.208 429.628 114.08 427.292 115.04C427.1 114.736 426.732 114.272 426.444 114.032C428.78 113.216 431.404 111.504 432.764 109.744ZM434.78 109.76C436.156 111.52 438.828 113.232 441.196 114.032C440.908 114.272 440.54 114.736 440.348 115.072C437.98 114.128 435.308 112.208 433.804 110.208L434.78 109.76ZM429.42 107.952V109.488H438.316V107.952H429.42ZM429.42 105.52V107.04H438.316V105.52H429.42ZM428.252 104.576H439.532V110.448H428.252V104.576ZM444.316 101.648H454.796V115.04H453.532V102.864H445.548V115.104H444.316V101.648ZM445.132 107.2H454.06V108.384H445.132V107.2ZM445.116 112.864H454.092V114.064H445.116V112.864ZM458.22 103.936H472.188V105.152H458.22V103.936ZM461.42 111.072H468.876V112.288H461.42V111.072ZM464.54 100.576H465.804V115.28H464.54V100.576ZM464.172 104.336L465.244 104.704C463.82 108.096 461.308 111.152 458.54 112.768C458.348 112.464 457.948 112.016 457.676 111.776C460.348 110.384 462.892 107.408 464.172 104.336ZM466.204 104.384C467.468 107.424 469.98 110.336 472.748 111.664C472.444 111.92 472.028 112.4 471.836 112.736C469.004 111.168 466.54 108.112 465.132 104.752L466.204 104.384Z" fill="#424242"/>
</g>
<rect x="351.5" y="24.5" width="130" height="95" stroke="#B3B3B3"/>
<defs>
<clipPath id="clip0_35_1050">
<rect y="25" width="204" height="96" fill="white"/>
</clipPath>
<clipPath id="clip1_35_1050">
<rect x="212" y="24" width="131" height="96" fill="white"/>
</clipPath>
<clipPath id="clip2_35_1050">
<rect x="351" y="24" width="131" height="96" fill="white"/>
</clipPath>
</defs>
</svg>
