<svg width="980" height="551" xmlns="http://www.w3.org/2000/svg" xmlns:xlink="http://www.w3.org/1999/xlink">
<path d="M373.214 249.381C371.452 248.746 371.452 246.254 373.214 245.619L383.321 241.971C384.625 241.501 386 242.467 386 243.853L386 251.147C386 252.533 384.625 253.499 383.321 253.029L373.214 249.381Z" fill="#F2E059"/>
<rect x="384" y="233" width="80" height="27" rx="4" fill="#F2E059"/>
<path d="M393.024 239.488H406.976V241.456H393.024V239.488ZM400.752 244.848L402.24 243.6C403.952 244.848 406.416 246.688 407.584 247.968L405.952 249.44C404.896 248.176 402.528 246.208 400.752 244.848ZM400.112 240.208L402.256 240.96C400.432 244.336 397.52 247.6 393.84 249.52C393.536 249.008 392.928 248.208 392.528 247.776C395.952 246.16 398.784 243.056 400.112 240.208ZM398.944 244.08L401.056 241.984V253.408H398.944V244.08ZM409.248 239.456H422.864V241.328H409.248V239.456ZM416.4 244.848H422.048V246.736H416.4V244.848ZM408.704 250.96H423.328V252.832H408.704V250.96ZM415.456 240.208H417.504V251.872H415.456V240.208ZM410.672 243.808H412.672V251.968H410.672V243.808ZM425.312 241.52C426 241.6 426.864 241.632 427.44 241.632C429.424 241.632 431.584 241.296 433.136 240.8L433.184 242.656C431.808 243.04 429.504 243.456 427.456 243.44C426.816 243.44 426.144 243.424 425.456 243.392L425.312 241.52ZM431.536 239.12C431.328 239.968 430.944 241.536 430.512 242.896C429.776 245.2 428.336 248.176 426.976 250.064L425.04 249.072C426.48 247.312 427.92 244.512 428.544 242.784C428.928 241.632 429.28 240.144 429.328 238.912L431.536 239.12ZM435.296 244.112C435.248 244.784 435.264 245.456 435.28 246.16C435.312 247.104 435.456 249.488 435.456 250.384C435.456 251.872 434.656 253.04 432.368 253.04C430.384 253.04 428.816 252.144 428.816 250.384C428.816 248.832 430.128 247.616 432.352 247.616C435.152 247.616 437.36 249.024 438.688 250.224L437.632 251.952C436.48 250.88 434.656 249.232 432.24 249.232C431.312 249.232 430.704 249.632 430.704 250.192C430.704 250.784 431.216 251.2 432.096 251.2C433.184 251.2 433.536 250.592 433.536 249.696C433.536 248.736 433.36 245.792 433.28 244.112H435.296ZM438.048 244.96C437.12 244.208 435.296 243.168 434.192 242.672L435.232 241.104C436.384 241.6 438.352 242.672 439.184 243.264L438.048 244.96ZM445.808 239.872H455.328V241.52H445.808V239.872ZM446.304 251.04H455.408V252.704H446.304V251.04ZM450.016 238.432L451.936 238.528C451.808 240.08 451.584 241.968 451.376 243.184H449.616C449.792 241.936 449.952 239.968 450.016 238.432ZM449.952 245.888V246.72H452.8V245.888H449.952ZM449.952 248.016V248.848H452.8V248.016H449.952ZM449.952 243.792V244.608H452.8V243.792H449.952ZM448.16 242.416H454.656V250.224H448.16V242.416ZM445.424 243.344H447.2V253.44H445.424V243.344ZM443.792 238.48L445.6 239.04C444.56 241.776 442.896 244.656 441.152 246.48C440.976 246.016 440.464 244.96 440.128 244.496C441.584 243.04 442.976 240.768 443.792 238.48ZM442.24 242.896L444.064 241.072L444.08 241.088V253.424H442.24V242.896Z" fill="black" fill-opacity="0.8"/>
<path d="M401.214 277.381C399.452 276.746 399.452 274.254 401.214 273.619L411.321 269.971C412.625 269.501 414 270.467 414 271.853L414 279.147C414 280.533 412.625 281.499 411.321 281.029L401.214 277.381Z" fill="#F2E059"/>
<rect x="412" y="261" width="80" height="27" rx="4" fill="#F2E059"/>
<path d="M421.024 267.488H434.976V269.456H421.024V267.488ZM428.752 272.848L430.24 271.6C431.952 272.848 434.416 274.688 435.584 275.968L433.952 277.44C432.896 276.176 430.528 274.208 428.752 272.848ZM428.112 268.208L430.256 268.96C428.432 272.336 425.52 275.6 421.84 277.52C421.536 277.008 420.928 276.208 420.528 275.776C423.952 274.16 426.784 271.056 428.112 268.208ZM426.944 272.08L429.056 269.984V281.408H426.944V272.08ZM437.248 267.456H450.864V269.328H437.248V267.456ZM444.4 272.848H450.048V274.736H444.4V272.848ZM436.704 278.96H451.328V280.832H436.704V278.96ZM443.456 268.208H445.504V279.872H443.456V268.208ZM438.672 271.808H440.672V279.968H438.672V271.808ZM453.312 269.52C454 269.6 454.864 269.632 455.44 269.632C457.424 269.632 459.584 269.296 461.136 268.8L461.184 270.656C459.808 271.04 457.504 271.456 455.456 271.44C454.816 271.44 454.144 271.424 453.456 271.392L453.312 269.52ZM459.536 267.12C459.328 267.968 458.944 269.536 458.512 270.896C457.776 273.2 456.336 276.176 454.976 278.064L453.04 277.072C454.48 275.312 455.92 272.512 456.544 270.784C456.928 269.632 457.28 268.144 457.328 266.912L459.536 267.12ZM463.296 272.112C463.248 272.784 463.264 273.456 463.28 274.16C463.312 275.104 463.456 277.488 463.456 278.384C463.456 279.872 462.656 281.04 460.368 281.04C458.384 281.04 456.816 280.144 456.816 278.384C456.816 276.832 458.128 275.616 460.352 275.616C463.152 275.616 465.36 277.024 466.688 278.224L465.632 279.952C464.48 278.88 462.656 277.232 460.24 277.232C459.312 277.232 458.704 277.632 458.704 278.192C458.704 278.784 459.216 279.2 460.096 279.2C461.184 279.2 461.536 278.592 461.536 277.696C461.536 276.736 461.36 273.792 461.28 272.112H463.296ZM466.048 272.96C465.12 272.208 463.296 271.168 462.192 270.672L463.232 269.104C464.384 269.6 466.352 270.672 467.184 271.264L466.048 272.96ZM473.808 267.872H483.328V269.52H473.808V267.872ZM474.304 279.04H483.408V280.704H474.304V279.04ZM478.016 266.432L479.936 266.528C479.808 268.08 479.584 269.968 479.376 271.184H477.616C477.792 269.936 477.952 267.968 478.016 266.432ZM477.952 273.888V274.72H480.8V273.888H477.952ZM477.952 276.016V276.848H480.8V276.016H477.952ZM477.952 271.792V272.608H480.8V271.792H477.952ZM476.16 270.416H482.656V278.224H476.16V270.416ZM473.424 271.344H475.2V281.44H473.424V271.344ZM471.792 266.48L473.6 267.04C472.56 269.776 470.896 272.656 469.152 274.48C468.976 274.016 468.464 272.96 468.128 272.496C469.584 271.04 470.976 268.768 471.792 266.48ZM470.24 270.896L472.064 269.072L472.08 269.088V281.424H470.24V270.896Z" fill="black"/>
<path d="M330.5 283.964C330.5 282.424 332.167 281.462 333.5 282.232L350 291.758C351.333 292.528 351.333 294.453 350 295.222L333.5 304.749C332.167 305.519 330.5 304.556 330.5 303.017L330.5 283.964Z" fill="#FCE4E4"/>
<rect x="302" y="291" width="432" height="27" rx="4" fill="#FCE4E4"/>
<path d="M311.024 297.488H324.976V299.456H311.024V297.488ZM318.752 302.848L320.24 301.6C321.952 302.848 324.416 304.688 325.584 305.968L323.952 307.44C322.896 306.176 320.528 304.208 318.752 302.848ZM318.112 298.208L320.256 298.96C318.432 302.336 315.52 305.6 311.84 307.52C311.536 307.008 310.928 306.208 310.528 305.776C313.952 304.16 316.784 301.056 318.112 298.208ZM316.944 302.08L319.056 299.984V311.408H316.944V302.08ZM327.248 297.456H340.864V299.328H327.248V297.456ZM334.4 302.848H340.048V304.736H334.4V302.848ZM326.704 308.96H341.328V310.832H326.704V308.96ZM333.456 298.208H335.504V309.872H333.456V298.208ZM328.672 301.808H330.672V309.968H328.672V301.808ZM343.312 299.52C344 299.6 344.864 299.632 345.44 299.632C347.424 299.632 349.584 299.296 351.136 298.8L351.184 300.656C349.808 301.04 347.504 301.456 345.456 301.44C344.816 301.44 344.144 301.424 343.456 301.392L343.312 299.52ZM349.536 297.12C349.328 297.968 348.944 299.536 348.512 300.896C347.776 303.2 346.336 306.176 344.976 308.064L343.04 307.072C344.48 305.312 345.92 302.512 346.544 300.784C346.928 299.632 347.28 298.144 347.328 296.912L349.536 297.12ZM353.296 302.112C353.248 302.784 353.264 303.456 353.28 304.16C353.312 305.104 353.456 307.488 353.456 308.384C353.456 309.872 352.656 311.04 350.368 311.04C348.384 311.04 346.816 310.144 346.816 308.384C346.816 306.832 348.128 305.616 350.352 305.616C353.152 305.616 355.36 307.024 356.688 308.224L355.632 309.952C354.48 308.88 352.656 307.232 350.24 307.232C349.312 307.232 348.704 307.632 348.704 308.192C348.704 308.784 349.216 309.2 350.096 309.2C351.184 309.2 351.536 308.592 351.536 307.696C351.536 306.736 351.36 303.792 351.28 302.112H353.296ZM356.048 302.96C355.12 302.208 353.296 301.168 352.192 300.672L353.232 299.104C354.384 299.6 356.352 300.672 357.184 301.264L356.048 302.96ZM363.808 297.872H373.328V299.52H363.808V297.872ZM364.304 309.04H373.408V310.704H364.304V309.04ZM368.016 296.432L369.936 296.528C369.808 298.08 369.584 299.968 369.376 301.184H367.616C367.792 299.936 367.952 297.968 368.016 296.432ZM367.952 303.888V304.72H370.8V303.888H367.952ZM367.952 306.016V306.848H370.8V306.016H367.952ZM367.952 301.792V302.608H370.8V301.792H367.952ZM366.16 300.416H372.656V308.224H366.16V300.416ZM363.424 301.344H365.2V311.44H363.424V301.344ZM361.792 296.48L363.6 297.04C362.56 299.776 360.896 302.656 359.152 304.48C358.976 304.016 358.464 302.96 358.128 302.496C359.584 301.04 360.976 298.768 361.792 296.48ZM360.24 300.896L362.064 299.072L362.08 299.088V311.424H360.24V300.896ZM381.264 297.488C381.168 297.904 381.072 298.416 380.992 298.816C380.832 299.536 380.64 300.528 380.464 301.344C379.936 303.6 378.656 308.16 376.976 310.864L374.88 310.032C376.784 307.472 377.984 303.248 378.432 301.232C378.736 299.792 378.912 298.432 378.896 297.232L381.264 297.488ZM386.784 299.088C387.76 300.48 389.104 303.456 389.6 304.976L387.568 305.92C387.152 304.144 386.016 301.328 384.864 299.904L386.784 299.088ZM374.784 300.768C375.36 300.8 375.904 300.784 376.496 300.768C377.776 300.736 380.816 300.384 382 300.384C383.696 300.384 384.896 301.136 384.896 303.456C384.896 305.344 384.656 307.936 383.984 309.312C383.456 310.432 382.56 310.784 381.36 310.784C380.736 310.784 379.984 310.688 379.44 310.56L379.088 308.448C379.712 308.624 380.624 308.784 381.04 308.784C381.584 308.784 382 308.624 382.24 308.096C382.688 307.2 382.896 305.248 382.896 303.68C382.896 302.4 382.352 302.208 381.344 302.208C380.4 302.208 377.632 302.56 376.752 302.672C376.288 302.736 375.456 302.848 374.976 302.928L374.784 300.768ZM386.496 296.88C386.896 297.456 387.456 298.48 387.76 299.072L386.48 299.616C386.144 298.96 385.648 298.016 385.216 297.392L386.496 296.88ZM388.384 296.144C388.8 296.752 389.392 297.776 389.68 298.336L388.4 298.88C388.08 298.208 387.552 297.28 387.12 296.672L388.384 296.144ZM390.704 299.712H395.92V301.504H390.704V299.712ZM392.688 296.416H394.448V311.44H392.688V296.416ZM392.688 300.944L393.76 301.312C393.312 303.856 392.368 306.96 391.232 308.592C391.04 308.08 390.64 307.344 390.352 306.88C391.376 305.488 392.288 302.976 392.688 300.944ZM394.368 302.16C394.72 302.576 396 304.512 396.272 304.944L395.28 306.432C394.928 305.504 394.032 303.712 393.616 302.96L394.368 302.16ZM397.712 300.096H403.552V301.68H397.712V300.096ZM400.576 298.08C399.696 299.376 398.048 300.8 396.384 301.648C396.192 301.152 395.792 300.448 395.488 300.032C397.2 299.296 398.816 297.776 399.648 296.432H401.376C402.496 297.968 404.144 299.312 405.824 299.952C405.456 300.416 405.088 301.104 404.832 301.632C403.264 300.864 401.504 299.408 400.576 298.08ZM398.128 304.16V305.664H403.12V304.16H398.128ZM396.464 302.704H404.848V307.152H396.464V302.704ZM399.712 301.104H401.44V305.184C401.44 307.552 400.688 310.16 396.432 311.536C396.272 311.136 395.728 310.4 395.408 310.096C399.296 308.896 399.712 307.024 399.712 305.136V301.104ZM401.552 306.192C402.56 308.592 403.888 309.36 405.712 309.92C405.28 310.32 404.8 310.944 404.608 311.504C402.528 310.704 401.024 309.584 399.936 306.528L401.552 306.192ZM412.944 297.232H421.248V299.056H412.944V297.232ZM412.496 309.088H421.552V310.896H412.496V309.088ZM417.6 302.848H421.152V304.672H417.6V302.848ZM416.496 297.984H418.384V310.144H416.496V297.984ZM413.488 301.472H415.28V309.904H413.488V301.472ZM407.248 301.44H411.872V302.88H407.248V301.44ZM407.344 296.912H411.888V298.368H407.344V296.912ZM407.248 303.68H411.872V305.12H407.248V303.68ZM406.464 299.136H412.448V300.64H406.464V299.136ZM408.128 305.936H411.984V310.8H408.128V309.296H410.336V307.456H408.128V305.936ZM407.2 305.936H408.816V311.44H407.2V305.936ZM430.096 298.656C429.984 298.288 429.792 297.712 429.6 297.184L431.76 296.928C432 298.16 432.384 299.424 432.768 300.448C433.264 301.792 434.016 303.168 434.544 303.904C434.816 304.304 435.104 304.64 435.392 304.976L434.416 306.4C433.52 306.224 431.488 306.016 430.144 305.904L430.304 304.208C431.088 304.288 432.144 304.368 432.64 304.416C432.064 303.472 431.36 302.128 430.864 300.8C430.512 299.92 430.288 299.184 430.096 298.656ZM424.272 299.408C427.264 299.76 429.696 299.744 431.616 299.536C433.04 299.36 434.448 299.088 435.712 298.704L435.952 300.704C434.896 301.008 433.52 301.248 432.24 301.392C430.112 301.648 427.584 301.712 424.304 301.44L424.272 299.408ZM427.488 304.848C426.96 305.616 426.704 306.32 426.704 307.008C426.704 308.368 427.904 308.928 430.096 308.944C431.84 308.944 433.248 308.768 434.368 308.544L434.256 310.576C433.344 310.736 431.904 310.944 429.968 310.944C426.688 310.944 424.64 309.68 424.64 307.36C424.64 306.384 424.944 305.472 425.488 304.384L427.488 304.848ZM453.6 309.168C452.848 309.856 451.888 310.368 450.576 310.368C449.376 310.368 448.576 309.504 448.576 307.952C448.576 306.208 449.152 303.872 449.152 302.4C449.152 301.616 448.752 301.232 448.064 301.232C446.576 301.232 444.192 303.584 442.912 305.216L442.896 302.752C443.872 301.728 446.544 299.328 448.656 299.328C450.384 299.328 451.168 300.352 451.168 301.696C451.168 303.344 450.64 305.696 450.64 307.36C450.64 307.776 450.864 308.064 451.264 308.064C451.856 308.064 452.608 307.648 453.328 306.928L453.6 309.168ZM442.544 301.552C441.824 301.632 440.304 301.824 439.248 301.984L439.04 299.92C439.488 299.936 439.856 299.936 440.432 299.904C441.44 299.856 443.488 299.552 444.208 299.312L444.848 300.144C444.576 300.512 444.08 301.296 443.808 301.712L442.88 304.72C442.176 305.744 440.752 307.888 439.904 309.056L438.656 307.296C439.664 306.048 441.584 303.52 442.384 302.256L442.416 301.84L442.544 301.552ZM442.352 298.464C442.352 298.016 442.368 297.536 442.272 297.04L444.608 297.104C444.336 298.384 443.808 302.576 443.808 305.44C443.808 306.736 443.808 308.096 443.904 309.584C443.92 309.872 443.984 310.464 444.016 310.816H441.824C441.856 310.448 441.872 309.888 441.872 309.632C441.888 308.08 441.904 307.008 441.952 305.008C442 303.584 442.352 299.104 442.352 298.464ZM463.968 297.344C463.936 297.6 463.872 298.464 463.856 298.72C463.824 299.76 463.856 303.024 463.872 304.32L461.888 303.632C461.888 302.64 461.872 299.584 461.824 298.72C461.76 298.08 461.712 297.536 461.664 297.344H463.968ZM454.928 299.328C457.328 299.328 461.536 299.2 463.536 299.2C465.184 299.2 467.6 299.184 468.496 299.2L468.464 301.104C467.456 301.056 465.84 301.008 463.488 301.008C460.576 301.008 457.392 301.136 454.992 301.264L454.928 299.328ZM463.6 304.064C463.6 306.672 462.64 307.968 460.8 307.968C459.552 307.968 458.032 306.992 458.032 305.04C458.032 303.232 459.488 302.048 461.232 302.048C463.344 302.048 464.448 303.6 464.448 305.6C464.448 307.696 463.216 310.336 459.312 311.424L457.616 309.728C460.336 309.152 462.464 308.064 462.464 305.264C462.464 304.24 461.904 303.728 461.184 303.728C460.576 303.728 459.952 304.16 459.952 305.008C459.952 305.728 460.56 306.208 461.184 306.208C461.952 306.208 462.608 305.552 462.112 303.664L463.6 304.064ZM466.048 296.864C466.432 297.44 466.88 298.176 467.168 298.752L465.808 299.312C465.488 298.672 465.136 298 464.72 297.408L466.048 296.864ZM468.192 296.4C468.576 296.992 469.024 297.696 469.312 298.272L467.984 298.848C467.648 298.192 467.28 297.52 466.848 296.96L468.192 296.4ZM482.896 299.616C482.816 299.84 482.736 300.224 482.72 300.352C482.512 301.968 481.808 306.304 481.584 307.76H479.232C479.488 306.32 480.176 302.208 480.224 301.056C478.976 301.056 475.712 301.056 474.704 301.056C474.048 301.056 473.456 301.088 472.88 301.136V298.88C473.408 298.944 474.144 298.992 474.688 298.992C475.696 298.992 478.768 298.992 479.728 298.992C480.144 298.992 480.944 298.912 481.216 298.784L482.896 299.616ZM471.136 307.104C471.648 307.2 472.224 307.232 472.72 307.232H483.376C483.952 307.232 484.464 307.168 484.88 307.104V309.44C484.432 309.376 483.76 309.344 483.376 309.344H472.72C472.224 309.344 471.664 309.376 471.136 309.44V307.104ZM487.456 302.592C488.048 302.64 489.2 302.704 490.032 302.704C491.92 302.704 497.2 302.704 498.624 302.704C499.376 302.704 500.08 302.624 500.512 302.592V305.12C500.128 305.104 499.312 305.024 498.64 305.024C497.184 305.024 491.92 305.024 490.032 305.024C489.136 305.024 488.064 305.072 487.456 305.12V302.592ZM514.76 297.568C515.064 298.192 515.416 299.12 515.592 299.744L514.488 300.112C514.264 299.424 513.992 298.56 513.672 297.904L514.76 297.568ZM516.408 297.056C516.712 297.68 517.08 298.624 517.272 299.232L516.184 299.584C515.944 298.88 515.64 298.032 515.32 297.392L516.408 297.056ZM513.384 303.184C513.384 307.136 512.424 309.568 508.568 311.264L506.84 309.648C509.944 308.576 511.288 307.184 511.288 303.264V299.008C511.288 298.352 511.256 297.824 511.208 297.52H513.48C513.448 297.84 513.384 298.352 513.384 299.008V303.184ZM507.592 297.664C507.56 297.952 507.496 298.464 507.496 299.104V304.832C507.496 305.536 507.544 306.192 507.576 306.496H505.336C505.368 306.192 505.416 305.552 505.416 304.832V299.104C505.416 298.64 505.384 298.144 505.32 297.664H507.592ZM502.328 300.544C502.616 300.592 503.272 300.688 504.072 300.688H514.552C515.4 300.688 515.88 300.656 516.328 300.576V302.704C515.976 302.656 515.4 302.656 514.568 302.656H504.072C503.256 302.656 502.696 302.688 502.328 302.72V300.544ZM519.144 302.592C519.736 302.64 520.888 302.704 521.72 302.704C523.608 302.704 528.888 302.704 530.312 302.704C531.064 302.704 531.768 302.624 532.2 302.592V305.12C531.816 305.104 531 305.024 530.328 305.024C528.872 305.024 523.608 305.024 521.72 305.024C520.824 305.024 519.752 305.072 519.144 305.12V302.592ZM534.28 305.248C534.76 304.864 535.144 304.496 535.624 304C536.376 303.232 537.592 301.584 538.6 300.432C539.72 299.152 540.744 299.04 541.911 300.176C543.016 301.232 544.28 302.88 545.224 303.92C546.248 305.04 547.624 306.464 549.144 307.824L547.48 309.744C546.344 308.656 544.984 307.12 543.96 305.92C542.968 304.752 541.767 303.216 541.032 302.368C540.456 301.76 540.152 301.84 539.688 302.416C539.048 303.232 537.928 304.816 537.24 305.728C536.872 306.24 536.504 306.816 536.216 307.232L534.28 305.248ZM563.912 299.36C563.752 299.664 563.64 300.128 563.56 300.464C563.192 302.032 562.488 304.512 561.144 306.304C559.704 308.208 557.576 309.808 554.712 310.72L552.968 308.8C556.152 308.064 557.944 306.672 559.24 305.056C560.312 303.712 560.904 301.904 561.128 300.528C560.152 300.528 554.872 300.528 553.672 300.528C552.936 300.528 552.184 300.576 551.768 300.592V298.336C552.248 298.4 553.144 298.464 553.672 298.464C554.872 298.464 560.184 298.464 561.08 298.464C561.384 298.464 561.896 298.448 562.328 298.352L563.912 299.36ZM567.071 305.456C569.167 304.992 571.535 303.92 572.799 303.152C574.367 302.208 575.967 300.784 576.799 299.744L578.383 301.296C577.423 302.336 575.487 303.84 573.743 304.864C572.303 305.712 569.839 306.784 568.015 307.328L567.071 305.456ZM572.623 304.416L574.799 304V309.68C574.799 310.256 574.815 311.104 574.911 311.424H572.527C572.575 311.104 572.623 310.256 572.623 309.68V304.416ZM582.831 302.592C583.423 302.64 584.575 302.704 585.407 302.704C587.295 302.704 592.575 302.704 593.999 302.704C594.751 302.704 595.455 302.624 595.887 302.592V305.12C595.503 305.104 594.687 305.024 594.015 305.024C592.559 305.024 587.295 305.024 585.407 305.024C584.511 305.024 583.439 305.072 582.831 305.12V302.592ZM608.271 298.096C608.719 298.768 609.375 299.792 609.727 300.528L608.351 301.136C607.871 300.128 607.519 299.488 606.927 298.672L608.271 298.096ZM610.367 297.232C610.847 297.872 611.519 298.864 611.871 299.584L610.527 300.256C610.015 299.232 609.631 298.64 609.039 297.856L610.367 297.232ZM601.903 308.704C601.903 307.488 601.903 300.864 601.903 299.504C601.903 298.928 601.839 298.144 601.727 297.584H604.239C604.175 298.144 604.095 298.848 604.095 299.504C604.095 301.28 604.095 307.52 604.095 308.704C604.095 309.168 604.175 310.288 604.239 310.928H601.743C601.839 310.304 601.903 309.344 601.903 308.704ZM603.615 301.712C605.759 302.304 609.199 303.568 610.783 304.352L609.871 306.56C608.063 305.616 605.359 304.592 603.615 304.016V301.712ZM625.839 297.248C626.239 297.824 626.815 298.848 627.119 299.44L625.823 299.984C625.503 299.328 625.007 298.384 624.575 297.76L625.839 297.248ZM627.743 296.528C628.159 297.12 628.751 298.144 629.023 298.704L627.759 299.248C627.423 298.576 626.911 297.648 626.463 297.04L627.743 296.528ZM616.447 305.024C617.151 303.248 617.759 300.992 617.967 298.944L620.287 299.44C620.159 299.888 619.967 300.672 619.903 301.04C619.679 302.16 619.103 304.352 618.543 305.84C617.967 307.392 617.023 309.216 616.191 310.416L613.951 309.472C614.943 308.16 615.887 306.448 616.447 305.024ZM624.335 304.704C623.727 303.024 622.703 300.656 622.015 299.44L624.143 298.752C624.815 299.984 625.903 302.448 626.511 303.984C627.087 305.44 627.935 307.984 628.367 309.568L625.999 310.336C625.567 308.448 624.975 306.432 624.335 304.704ZM637.439 300.512C637.743 301.184 638.527 303.28 638.751 304.016L636.847 304.672C636.639 303.904 635.935 301.968 635.551 301.136L637.439 300.512ZM643.343 301.664C643.167 302.192 643.071 302.528 642.975 302.848C642.559 304.464 641.871 306.128 640.783 307.52C639.295 309.456 637.311 310.784 635.439 311.504L633.759 309.792C635.503 309.312 637.743 308.096 639.055 306.432C640.143 305.088 640.927 302.96 641.103 300.944L643.343 301.664ZM633.727 301.344C634.127 302.16 634.911 304.112 635.215 305.008L633.263 305.728C633.007 304.88 632.191 302.736 631.807 302.048L633.727 301.344ZM659.759 300.064C659.583 300.368 659.359 300.8 659.231 301.2C658.799 302.64 657.887 304.768 656.431 306.544C654.911 308.4 652.991 309.872 649.983 311.056L648.095 309.376C651.359 308.384 653.135 306.992 654.543 305.408C655.631 304.16 656.559 302.24 656.815 301.056H651.423L652.159 299.232C652.863 299.232 656.223 299.232 656.719 299.232C657.215 299.232 657.759 299.168 658.111 299.04L659.759 300.064ZM654.543 297.52C654.159 298.08 653.743 298.816 653.567 299.152C652.479 301.088 650.575 303.344 648.271 304.912L646.479 303.584C649.279 301.872 650.687 299.808 651.471 298.432C651.711 298.048 652.047 297.312 652.191 296.752L654.543 297.52ZM669.471 298.656C669.359 298.288 669.167 297.712 668.975 297.184L671.135 296.928C671.375 298.16 671.759 299.424 672.143 300.448C672.639 301.792 673.391 303.168 673.919 303.904C674.191 304.304 674.479 304.64 674.767 304.976L673.791 306.4C672.895 306.224 670.863 306.016 669.519 305.904L669.679 304.208C670.463 304.288 671.519 304.368 672.015 304.416C671.439 303.472 670.735 302.128 670.239 300.8C669.887 299.92 669.663 299.184 669.471 298.656ZM663.647 299.408C666.639 299.76 669.071 299.744 670.991 299.536C672.415 299.36 673.823 299.088 675.087 298.704L675.327 300.704C674.271 301.008 672.895 301.248 671.615 301.392C669.487 301.648 666.959 301.712 663.679 301.44L663.647 299.408ZM666.863 304.848C666.335 305.616 666.079 306.32 666.079 307.008C666.079 308.368 667.279 308.928 669.471 308.944C671.215 308.944 672.623 308.768 673.743 308.544L673.631 310.576C672.719 310.736 671.279 310.944 669.343 310.944C666.063 310.944 664.015 309.68 664.015 307.36C664.015 306.384 664.319 305.472 664.863 304.384L666.863 304.848ZM692.975 309.168C692.223 309.856 691.263 310.368 689.951 310.368C688.751 310.368 687.951 309.504 687.951 307.952C687.951 306.208 688.527 303.872 688.527 302.4C688.527 301.616 688.127 301.232 687.439 301.232C685.951 301.232 683.567 303.584 682.287 305.216L682.271 302.752C683.247 301.728 685.919 299.328 688.031 299.328C689.759 299.328 690.543 300.352 690.543 301.696C690.543 303.344 690.015 305.696 690.015 307.36C690.015 307.776 690.239 308.064 690.639 308.064C691.231 308.064 691.983 307.648 692.703 306.928L692.975 309.168ZM681.919 301.552C681.199 301.632 679.679 301.824 678.623 301.984L678.415 299.92C678.863 299.936 679.231 299.936 679.807 299.904C680.815 299.856 682.863 299.552 683.583 299.312L684.223 300.144C683.951 300.512 683.455 301.296 683.183 301.712L682.255 304.72C681.551 305.744 680.127 307.888 679.279 309.056L678.031 307.296C679.039 306.048 680.959 303.52 681.759 302.256L681.791 301.84L681.919 301.552ZM681.727 298.464C681.727 298.016 681.743 297.536 681.647 297.04L683.983 297.104C683.711 298.384 683.183 302.576 683.183 305.44C683.183 306.736 683.183 308.096 683.279 309.584C683.295 309.872 683.359 310.464 683.391 310.816H681.199C681.231 310.448 681.247 309.888 681.247 309.632C681.263 308.08 681.279 307.008 681.327 305.008C681.375 303.584 681.727 299.104 681.727 298.464ZM694.687 299.52C695.375 299.6 696.239 299.632 696.815 299.632C698.799 299.632 700.959 299.296 702.511 298.8L702.559 300.656C701.183 301.04 698.879 301.456 696.831 301.44C696.191 301.44 695.519 301.424 694.831 301.392L694.687 299.52ZM700.911 297.12C700.703 297.968 700.319 299.536 699.887 300.896C699.151 303.2 697.711 306.176 696.351 308.064L694.415 307.072C695.855 305.312 697.295 302.512 697.919 300.784C698.303 299.632 698.655 298.144 698.703 296.912L700.911 297.12ZM704.671 302.112C704.623 302.784 704.639 303.456 704.655 304.16C704.687 305.104 704.831 307.488 704.831 308.384C704.831 309.872 704.031 311.04 701.743 311.04C699.759 311.04 698.191 310.144 698.191 308.384C698.191 306.832 699.503 305.616 701.727 305.616C704.527 305.616 706.735 307.024 708.063 308.224L707.007 309.952C705.855 308.88 704.031 307.232 701.615 307.232C700.687 307.232 700.079 307.632 700.079 308.192C700.079 308.784 700.591 309.2 701.471 309.2C702.559 309.2 702.911 308.592 702.911 307.696C702.911 306.736 702.735 303.792 702.655 302.112H704.671ZM707.423 302.96C706.495 302.208 704.671 301.168 703.567 300.672L704.607 299.104C705.759 299.6 707.727 300.672 708.559 301.264L707.423 302.96ZM713.519 298.576C713.407 299.136 713.327 300.08 713.327 300.528C713.327 301.568 713.327 302.752 713.423 303.92C713.647 306.224 714.127 307.808 715.135 307.808C715.903 307.808 716.527 305.92 716.831 304.656L718.447 306.592C717.375 309.392 716.383 310.352 715.103 310.352C713.327 310.352 711.807 308.784 711.359 304.496C711.199 303.024 711.183 301.136 711.183 300.16C711.183 299.728 711.167 299.04 711.055 298.544L713.519 298.576ZM721.519 298.928C723.039 300.768 724.271 304.768 724.447 307.216L722.335 308.048C722.095 305.456 721.231 301.584 719.487 299.6L721.519 298.928Z" fill="#C41C1C"/>
<path d="M333.214 226.381C331.452 225.746 331.452 223.254 333.214 222.619L343.321 218.971C344.625 218.501 346 219.467 346 220.853L346 228.147C346 229.533 344.625 230.499 343.321 230.029L333.214 226.381Z" fill="#C41C1C"/>
<rect x="344" y="210" width="96" height="27" rx="4" fill="#C41C1C"/>
<path d="M356.976 216.12H362.672V217.8H356.976V216.12ZM358.592 219.528H361.312V221.192H358.064L358.592 219.528ZM357.6 223.928L358.416 222.488C359.056 222.92 359.856 223.56 360.224 223.992L359.376 225.608C359.024 225.128 358.24 224.424 357.6 223.928ZM362.56 217.272H364.256V226.648H362.56V217.272ZM365.248 215.72H367.024V228.264C367.024 229.288 366.832 229.784 366.256 230.088C365.664 230.392 364.768 230.456 363.504 230.456C363.424 229.944 363.168 229.112 362.912 228.584C363.792 228.616 364.608 228.616 364.896 228.616C365.152 228.6 365.248 228.52 365.248 228.264V215.72ZM358.16 216.712L359.984 216.968C359.52 219.896 358.688 223.384 356.912 225.464C356.656 225.08 356.128 224.44 355.776 224.12C357.264 222.328 357.904 219.16 358.16 216.712ZM360.592 219.528H360.928L361.232 219.464L362.336 219.8C361.76 225.016 360.08 228.648 357.616 230.44C357.36 230.008 356.784 229.256 356.416 228.968C358.72 227.4 360.144 224.296 360.592 219.896V219.528ZM355.344 215.432L357.12 215.96C356.208 218.76 354.736 221.784 353.104 223.688C352.944 223.224 352.48 222.12 352.176 221.624C353.472 220.104 354.656 217.768 355.344 215.432ZM354.08 219.832L355.792 218.12L355.84 218.152V230.424H354.08V219.832ZM371.808 217.752H375.728V219.56H371.808V217.752ZM378.512 215.448H380.512V230.408H378.512V215.448ZM370.048 222.488L371.008 221.048C372.208 221.704 373.76 222.744 374.48 223.496L373.456 225.128C372.768 224.328 371.248 223.208 370.048 222.488ZM372.016 215.4L373.92 215.8C373.072 219.016 371.632 221.976 369.84 223.832C369.504 223.496 368.688 222.872 368.24 222.584C370 220.984 371.312 218.296 372.016 215.4ZM377.52 219.304C378.768 221.656 381.248 223.96 383.856 225.112C383.392 225.512 382.784 226.28 382.464 226.792C379.776 225.368 377.376 222.76 375.888 219.896L377.52 219.304ZM375.2 217.752H375.552L375.888 217.688L377.152 218.104C376.208 224.296 373.68 228.344 370.224 230.312C369.904 229.88 369.168 229.16 368.704 228.872C372.112 227.08 374.448 223.592 375.2 218.184V217.752ZM391.264 216.488C391.168 216.904 391.072 217.416 390.992 217.816C390.832 218.536 390.64 219.528 390.464 220.344C389.936 222.6 388.656 227.16 386.976 229.864L384.88 229.032C386.784 226.472 387.984 222.248 388.432 220.232C388.736 218.792 388.912 217.432 388.896 216.232L391.264 216.488ZM396.784 218.088C397.76 219.48 399.104 222.456 399.6 223.976L397.568 224.92C397.152 223.144 396.016 220.328 394.864 218.904L396.784 218.088ZM384.784 219.768C385.36 219.8 385.904 219.784 386.496 219.768C387.776 219.736 390.816 219.384 392 219.384C393.696 219.384 394.896 220.136 394.896 222.456C394.896 224.344 394.656 226.936 393.984 228.312C393.456 229.432 392.56 229.784 391.36 229.784C390.736 229.784 389.984 229.688 389.44 229.56L389.088 227.448C389.712 227.624 390.624 227.784 391.04 227.784C391.584 227.784 392 227.624 392.24 227.096C392.688 226.2 392.896 224.248 392.896 222.68C392.896 221.4 392.352 221.208 391.344 221.208C390.4 221.208 387.632 221.56 386.752 221.672C386.288 221.736 385.456 221.848 384.976 221.928L384.784 219.768ZM396.496 215.88C396.896 216.456 397.456 217.48 397.76 218.072L396.48 218.616C396.144 217.96 395.648 217.016 395.216 216.392L396.496 215.88ZM398.384 215.144C398.8 215.752 399.392 216.776 399.68 217.336L398.4 217.88C398.08 217.208 397.552 216.28 397.12 215.672L398.384 215.144ZM403.664 220.84H412.368V222.648H403.664V220.84ZM401.936 216.024H406.464V217.688H401.936V216.024ZM401.584 224.472H414.336V226.232H401.584V224.472ZM405.792 216.024H406.128L406.464 215.96L407.744 216.552C406.656 219.816 404.256 222.104 401.52 223.4C401.264 222.968 400.736 222.312 400.352 221.96C402.736 220.968 404.96 218.792 405.792 216.36V216.024ZM405.024 221.752H406.928V224.52C406.928 226.792 406.352 229.176 402.4 230.504C402.16 230.072 401.568 229.32 401.168 228.984C404.576 227.912 405.024 226.136 405.024 224.488V221.752ZM409.744 215.432C410.768 218.184 412.864 220.568 415.68 221.688C415.232 222.072 414.64 222.84 414.336 223.352C411.36 221.944 409.28 219.256 408.032 215.928L409.744 215.432ZM401.44 218.936L402.656 217.928C403.264 218.36 404.096 218.984 404.512 219.416L403.248 220.52C402.864 220.104 402.064 219.416 401.44 218.936ZM411.984 215.672L413.424 216.68C412.592 217.448 411.616 218.248 410.864 218.744L409.712 217.864C410.432 217.304 411.424 216.36 411.984 215.672ZM413.888 217.496L415.296 218.488C414.432 219.272 413.376 220.104 412.56 220.648L411.408 219.768C412.192 219.192 413.264 218.216 413.888 217.496ZM408.912 221.832H410.912V227.96C410.912 228.552 410.976 228.632 411.424 228.632C411.616 228.632 412.416 228.632 412.64 228.632C413.072 228.632 413.152 228.328 413.216 226.824C413.616 227.128 414.4 227.448 414.928 227.56C414.752 229.688 414.24 230.344 412.832 230.344C412.48 230.344 411.424 230.344 411.072 230.344C409.328 230.344 408.912 229.768 408.912 227.96V221.832ZM419.312 218.312H430.448V220.184H419.312V218.312ZM418.656 223.032H429.84V224.872H418.656V223.032ZM416.8 228.104H431.264V229.976H416.8V228.104ZM423.024 215.416H425.024V229.032H423.024V215.416ZM419.328 215.608L421.312 216.056C420.608 218.536 419.44 221 418.192 222.536C417.808 222.2 416.96 221.64 416.464 221.368C417.728 220.024 418.752 217.816 419.328 215.608Z" fill="#FCE4E4"/>
</svg>
</svg>