<svg width="389" height="444" viewBox="0 0 389 444" fill="none" xmlns="http://www.w3.org/2000/svg">
<path d="M29.228 78.3447H35.444V79.8807H29.228V78.3447ZM29.228 80.8407H35.444V82.3767H29.228V80.8407ZM29.204 83.3367H35.828V85.1847H29.204V83.3367ZM31.532 76.6407H33.356V84.4647H31.532V76.6407ZM30.092 75.6087H35.54V77.3847H30.092V86.1687H28.1V77.3127L29.54 75.6087H30.092ZM32.3 73.6167L34.436 74.2167C33.884 75.2487 33.38 76.3287 32.948 77.0487L31.34 76.5207C31.676 75.7047 32.108 74.4567 32.3 73.6167ZM28.94 73.5447L30.932 74.0247C30.308 76.1127 29.228 78.2247 28.052 79.5687C27.74 79.2087 26.972 78.4647 26.54 78.1527C27.572 76.9767 28.436 75.2727 28.94 73.5447ZM24.476 64.8807H35.348V67.2327H24.476V64.8807ZM26.204 68.4327H35.324V73.7847H26.204V71.8407H32.78V70.4247H26.204V68.4327ZM25.052 68.4327H27.476V74.6967C27.476 78.0087 27.212 82.9527 25.7 86.1687C25.268 85.7367 24.188 84.9447 23.66 84.6807C24.956 81.7767 25.052 77.6487 25.052 74.6967V68.4327ZM36.188 64.8567H46.172V67.2807H36.188V64.8567ZM39.044 74.4567V75.9447H43.34V74.4567H39.044ZM39.044 77.9367V79.4487H43.34V77.9367H39.044ZM39.044 70.9767V72.4167H43.34V70.9767H39.044ZM36.716 68.8167H45.788V81.5847H36.716V68.8167ZM39.836 66.2007L42.836 66.5127C42.428 67.9767 41.996 69.4647 41.66 70.4727L39.38 70.0647C39.596 68.9367 39.788 67.3287 39.836 66.2007ZM38.756 81.8007L41.012 83.1687C39.98 84.3687 38.276 85.7367 36.884 86.4807C36.452 86.0007 35.636 85.2567 35.06 84.8007C36.428 84.1047 37.988 82.8087 38.756 81.8007ZM41.66 83.1927L43.7 81.8967C44.732 82.7847 46.1 84.1047 46.796 85.0167L44.612 86.4567C44.012 85.5687 42.692 84.1767 41.66 83.1927ZM55.7 68.4087L58.772 69.0087C56.948 71.6007 54.5 73.7607 50.804 75.4647C50.42 74.7927 49.532 73.7847 48.908 73.3287C52.292 72.0327 54.5 70.2087 55.7 68.4087ZM56.372 70.0167H63.548V72.1767H54.404L56.372 70.0167ZM62.684 70.0167H63.236L63.716 69.8967L65.66 71.0487C62.492 76.3527 55.7 79.2327 48.788 80.5767C48.524 79.8327 47.924 78.6567 47.42 78.0327C53.852 77.0487 60.284 74.4567 62.684 70.4247V70.0167ZM55.22 71.6487C58.004 74.7687 63.596 76.6887 70.076 77.3127C69.428 77.9847 68.636 79.2807 68.228 80.0967C61.628 79.1847 56.156 76.8327 52.724 72.7527L55.22 71.6487ZM51.98 78.9207H65.78V86.3847H62.828V81.2727H54.788V86.4327H51.98V78.9207ZM53.396 83.3367H64.268V85.6887H53.396V83.3367ZM57.212 63.9207H60.188V67.3287H57.212V63.9207ZM48.428 65.8647H69.116V71.1687H66.164V68.4567H51.236V71.1687H48.428V65.8647Z" fill="#4A4A4A"/>
<path d="M301.939 65.016C303.523 65.88 306.163 67.56 307.411 68.448L305.635 71.088C304.291 70.152 301.795 68.544 300.211 67.656L301.939 65.016ZM297.499 82.056C300.187 81.6 303.043 80.784 305.659 79.344C309.739 77.064 313.099 73.776 314.995 70.344L316.843 73.608C314.635 76.944 311.227 79.968 307.315 82.248C304.867 83.616 301.411 84.816 299.299 85.2L297.499 82.056ZM298.243 70.488C299.851 71.352 302.491 72.984 303.739 73.872L301.963 76.56C300.619 75.6 298.123 73.992 296.515 73.128L298.243 70.488ZM338.083 67.752C337.891 68.016 337.459 68.736 337.243 69.24C336.259 71.52 334.483 74.784 332.419 77.184C329.731 80.28 326.107 83.256 322.387 85.008L319.891 82.416C323.779 80.976 327.475 78.048 329.731 75.552C331.315 73.752 332.779 71.376 333.331 69.672C332.323 69.672 326.203 69.672 325.171 69.672C324.187 69.672 322.867 69.792 322.339 69.84V66.408C322.987 66.504 324.475 66.576 325.171 66.576C326.443 66.576 332.587 66.576 333.643 66.576C334.699 66.576 335.635 66.456 336.139 66.288L338.083 67.752ZM332.731 75.192C335.203 77.208 338.611 80.784 340.171 82.704L337.435 85.08C335.659 82.608 333.043 79.752 330.475 77.424L332.731 75.192ZM346.459 65.616C347.227 65.712 348.211 65.784 349.027 65.784C350.539 65.784 357.259 65.784 358.675 65.784C359.467 65.784 360.427 65.712 361.243 65.616V68.712C360.427 68.664 359.491 68.616 358.675 68.616C357.259 68.616 350.539 68.616 349.027 68.616C348.211 68.616 347.179 68.664 346.459 68.712V65.616ZM343.651 71.736C344.371 71.832 345.211 71.88 345.955 71.88C347.467 71.88 360.259 71.88 361.675 71.88C362.179 71.88 363.235 71.856 363.883 71.736V74.856C363.259 74.832 362.347 74.808 361.675 74.808C360.259 74.808 347.467 74.808 345.955 74.808C345.259 74.808 344.323 74.832 343.651 74.88V71.736ZM355.939 73.416C355.939 76.56 355.387 78.96 354.355 80.952C353.539 82.632 351.667 84.48 349.555 85.584L346.723 83.544C348.427 82.872 350.131 81.504 351.067 80.088C352.267 78.264 352.603 76.008 352.603 73.44L355.939 73.416ZM377.749 65.904C377.437 66.624 377.101 67.512 376.741 68.592C375.853 71.28 373.357 79.008 372.325 81.504L368.797 81.624C370.093 78.552 372.589 70.68 373.381 67.896C373.717 66.696 373.837 65.928 373.933 65.136L377.749 65.904ZM382.045 73.656C383.773 76.248 386.221 80.976 387.325 83.64L384.085 85.08C383.005 82.176 380.773 77.208 379.069 74.904L382.045 73.656ZM368.557 80.544C371.893 80.424 379.741 79.536 383.101 79.08L383.797 82.152C380.245 82.608 371.989 83.472 368.749 83.808C368.149 83.88 367.237 84 366.493 84.096L365.917 80.568C366.733 80.592 367.789 80.568 368.557 80.544Z" fill="#4A4A4A"/>
<path d="M48.53 97.2707C48.5289 96.4422 47.8564 95.7716 47.028 95.7727C46.1996 95.7738 45.5289 96.4463 45.53 97.2747L48.53 97.2707ZM40.8195 428.282C39.9911 428.283 39.4067 429.298 39.8219 430.015L46.4978 441.542C46.913 442.259 48.0845 442.257 48.4978 441.539L55.1424 429.994C55.5556 429.276 54.9684 428.263 54.14 428.264L40.8195 428.282ZM45.53 97.2747L45.9818 429.775L48.9818 429.771L48.53 97.2707L45.53 97.2747Z" fill="#4A4A4A"/>
<path d="M343 97C343 96.1716 342.328 95.5 341.5 95.5C340.672 95.5 340 96.1716 340 97H343ZM334.84 428C334.011 428 333.426 429.015 333.84 429.732L340.5 441.268C340.914 441.985 342.086 441.985 342.5 441.268L349.16 429.732C349.574 429.015 348.989 428 348.16 428H334.84ZM340 97V429.5H343V97H340Z" fill="#4A4A4A"/>
<path d="M64.5 122.5C63.6716 122.5 63 123.172 63 124C63 124.828 63.6716 125.5 64.5 125.5V122.5ZM305.5 130.66C305.5 131.489 306.515 132.074 307.232 131.66L318.768 125C319.485 124.586 319.485 123.414 318.768 123L307.232 116.34C306.515 115.926 305.5 116.511 305.5 117.34V130.66ZM64.5 125.5H307V122.5H64.5V125.5Z" fill="#B3B3B3"/>
<path d="M319.5 173.5C320.328 173.5 321 172.828 321 172C321 171.172 320.328 170.5 319.5 170.5V173.5ZM78.5 165.34C78.5 164.511 77.4854 163.926 76.7679 164.34L65.2321 171C64.5146 171.414 64.5146 172.586 65.2321 173L76.7679 179.66C77.4854 180.074 78.5 179.489 78.5 178.66V165.34ZM319.5 170.5H77V173.5H319.5V170.5Z" fill="#B3B3B3"/>
<path d="M65.5 236.5C64.6716 236.5 64 237.172 64 238C64 238.828 64.6716 239.5 65.5 239.5V236.5ZM306.5 244.66C306.5 245.489 307.515 246.074 308.232 245.66L319.768 239C320.485 238.586 320.485 237.414 319.768 237L308.232 230.34C307.515 229.926 306.5 230.511 306.5 231.34V244.66ZM65.5 239.5H308V236.5H65.5V239.5Z" fill="#B3B3B3"/>
<path d="M320.5 287.5C321.328 287.5 322 286.828 322 286C322 285.172 321.328 284.5 320.5 284.5V287.5ZM79.5 279.34C79.5 278.511 78.4854 277.926 77.7679 278.34L66.2321 285C65.5146 285.414 65.5146 286.586 66.2321 287L77.7679 293.66C78.4854 294.074 79.5 293.489 79.5 292.66V279.34ZM320.5 284.5H78V287.5H320.5V284.5Z" fill="#B3B3B3"/>
<path d="M64.5 349.5C63.6716 349.5 63 350.172 63 351C63 351.828 63.6716 352.5 64.5 352.5V349.5ZM305.5 357.66C305.5 358.489 306.515 359.074 307.232 358.66L318.768 352C319.485 351.586 319.485 350.414 318.768 350L307.232 343.34C306.515 342.926 305.5 343.511 305.5 344.34V357.66ZM64.5 352.5H307V349.5H64.5V352.5Z" fill="#B3B3B3"/>
<path d="M319.5 400.5C320.328 400.5 321 399.828 321 399C321 398.172 320.328 397.5 319.5 397.5V400.5ZM78.5 392.34C78.5 391.511 77.4854 390.926 76.7679 391.34L65.2321 398C64.5146 398.414 64.5146 399.586 65.2321 400L76.7679 406.66C77.4854 407.074 78.5 406.489 78.5 405.66V392.34ZM319.5 397.5H77V400.5H319.5V397.5Z" fill="#B3B3B3"/>
<path d="M29.3333 53.3334V50.6667C29.3333 45.716 31.2999 40.968 34.8006 37.4674C38.3013 33.9667 43.0492 32 47.9999 32M47.9999 32C52.9506 32 57.6986 33.9667 61.1992 37.4674C64.6999 40.968 66.6666 45.716 66.6666 50.6667V53.3334M47.9999 32C50.8289 32 53.542 30.8762 55.5424 28.8758C57.5428 26.8754 58.6666 24.1623 58.6666 21.3334C58.6666 18.5044 57.5428 15.7913 55.5424 13.7909C53.542 11.7905 50.8289 10.6667 47.9999 10.6667C45.1709 10.6667 42.4578 11.7905 40.4574 13.7909C38.4571 15.7913 37.3333 18.5044 37.3333 21.3334C37.3333 24.1623 38.4571 26.8754 40.4574 28.8758C42.4578 30.8762 45.1709 32 47.9999 32Z" stroke="#404040" stroke-width="4" stroke-linecap="round" stroke-linejoin="round"/>
<path d="M326 48.0266L326.027 47.9973M326 16.0266L326.027 15.9973M315.333 25.0666V6.93331C315.333 6.50897 315.502 6.102 315.802 5.80194C316.102 5.50188 316.509 5.33331 316.933 5.33331H367.067C367.491 5.33331 367.898 5.50188 368.198 5.80194C368.498 6.102 368.667 6.50897 368.667 6.93331V25.0666C368.667 25.491 368.498 25.898 368.198 26.198C367.898 26.4981 367.491 26.6666 367.067 26.6666H316.933C316.509 26.6666 316.102 26.4981 315.802 26.198C315.502 25.898 315.333 25.491 315.333 25.0666ZM315.333 57.0666V38.9333C315.333 38.509 315.502 38.102 315.802 37.8019C316.102 37.5019 316.509 37.3333 316.933 37.3333H367.067C367.491 37.3333 367.898 37.5019 368.198 37.8019C368.498 38.102 368.667 38.509 368.667 38.9333V57.0666C368.667 57.2768 368.625 57.4848 368.545 57.6789C368.464 57.8731 368.347 58.0494 368.198 58.198C368.049 58.3466 367.873 58.4644 367.679 58.5449C367.485 58.6253 367.277 58.6666 367.067 58.6666H316.933C316.723 58.6666 316.515 58.6253 316.321 58.5449C316.127 58.4644 315.95 58.3466 315.802 58.198C315.653 58.0494 315.535 57.8731 315.455 57.6789C315.375 57.4848 315.333 57.2768 315.333 57.0666Z" stroke="#404040" stroke-width="4" stroke-linecap="round"/>
<rect x="141" y="101" width="108" height="46" rx="8" fill="#DBF3E6"/>
<path fill-rule="evenodd" clip-rule="evenodd" d="M170.586 115.304H162.988V113.513L150.5 115.441V132.336L162.988 134.487V131.834H170.586C170.816 131.845 171.041 131.765 171.213 131.611C171.384 131.457 171.487 131.242 171.5 131.012V116.125C171.487 115.895 171.384 115.68 171.212 115.526C171.041 115.372 170.816 115.292 170.586 115.304ZM170.706 131.148H162.963L162.95 129.731H164.815V128.081H162.936L162.927 127.106H164.815V125.456H162.912L162.903 124.481H164.815V122.831H162.898V121.856H164.815V120.206H162.898V119.231H164.815V117.581H162.898V116.081H170.706V131.148Z" fill="#20744A"/>
<path d="M165.865 117.579H169.107V119.229H165.865V117.579ZM165.865 120.205H169.107V121.855H165.865V120.205ZM165.865 122.831H169.107V124.481H165.865V122.831ZM165.865 125.456H169.107V127.106H165.865V125.456ZM165.865 128.082H169.107V129.732H165.865V128.082Z" fill="#20744A"/>
<path fill-rule="evenodd" clip-rule="evenodd" d="M153.76 120.005L155.37 119.913L156.382 122.694L157.577 119.798L159.187 119.706L157.232 123.655L159.187 127.614L157.485 127.5L156.336 124.482L155.186 127.385L153.622 127.247L155.439 123.75L153.76 120.005Z" fill="white"/>
<path d="M189.26 115.56H198.4V117.82H189.26V115.56ZM197.54 115.56H200C200 115.56 200 116.46 199.98 116.78C199.78 126.82 199.58 130.34 198.82 131.42C198.3 132.22 197.78 132.48 197.04 132.64C196.3 132.78 195.2 132.76 194.12 132.72C194.08 132.04 193.78 130.96 193.36 130.24C194.42 130.34 195.34 130.34 195.82 130.34C196.16 130.34 196.36 130.24 196.58 129.94C197.18 129.24 197.38 125.6 197.54 116.14V115.56ZM192.18 116.6H194.64C194.5 122.8 194.22 129.18 189.42 132.82C189 132.18 188.26 131.38 187.62 130.94C192.08 127.8 192.08 122.12 192.18 116.6ZM184.5 124.34L186.86 121.52V132.8H184.5V124.34ZM181.9 117.58H187.88V119.72H181.9V117.58ZM184.5 114.04H186.86V118.74H184.5V114.04ZM186.62 122.82C187.28 123.34 189.46 125.42 189.98 125.94L188.56 127.78C187.84 126.72 186.2 124.78 185.36 123.92L186.62 122.82ZM187.22 117.58H187.68L188.1 117.46L189.44 118.36C188 122.22 185.2 125.98 182.58 128.04C182.36 127.44 181.72 126.26 181.34 125.84C183.76 124.16 186.2 120.94 187.22 118.04V117.58ZM188.96 121.38L190.5 122.66C189.64 123.46 188.92 124.38 188.3 124.96L187.2 124C187.76 123.32 188.56 122.16 188.96 121.38ZM205.36 115.14H211.02V117.58H205.36V115.14ZM209.84 115.14H212.32C212.32 118.94 212.86 126.3 220.28 130.64C219.72 131.08 218.76 132.14 218.34 132.74C210.72 128.16 209.84 119.22 209.84 115.14ZM208.98 119.52L211.74 120.02C210.34 125.96 207.68 130.26 203.5 132.78C203.06 132.26 201.94 131.26 201.32 130.82C205.5 128.7 207.9 124.82 208.98 119.52ZM232.88 114.02H235.2V116.88H232.88V114.02ZM228.42 115.94H239.54V117.8H228.42V115.94ZM231.98 120.16V121.36H236.16V120.16H231.98ZM229.96 118.54H238.3V122.98H229.96V118.54ZM228.56 123.7H238.2V125.56H230.7V132.82H228.56V123.7ZM237.38 123.7H239.56V130.74C239.56 131.64 239.4 132.16 238.84 132.48C238.26 132.78 237.5 132.8 236.46 132.8C236.4 132.24 236.14 131.46 235.9 130.94C236.42 130.96 236.96 130.96 237.14 130.96C237.32 130.94 237.38 130.9 237.38 130.7V123.7ZM231.54 126.36H233.18V131.58H231.54V126.36ZM232.78 126.36H236.5V130.64H232.78V129.2H234.84V127.82H232.78V126.36ZM223.92 115.86H226.22V132.8H223.92V115.86ZM221.28 119.68H228.4V121.88H221.28V119.68ZM224.08 120.56L225.48 121.16C224.8 123.98 223.52 127.6 222.08 129.58C221.88 128.9 221.34 127.88 220.98 127.28C222.24 125.66 223.52 122.74 224.08 120.56ZM227 114.3L228.68 116.1C226.7 116.84 224.08 117.32 221.84 117.58C221.74 117.08 221.44 116.26 221.18 115.76C223.26 115.44 225.58 114.92 227 114.3ZM226.14 122.08C226.64 122.52 228.3 124.42 228.66 124.92L227.28 126.78C226.84 125.76 225.68 123.88 225.1 123L226.14 122.08Z" fill="#1E1E1E"/>
<rect x="141" y="152" width="108" height="40" rx="8" fill="#FCE4E4"/>
<path fill-rule="evenodd" clip-rule="evenodd" d="M150.25 172C150.25 166.063 155.063 161.25 161 161.25C166.937 161.25 171.75 166.063 171.75 172C171.75 177.937 166.937 182.75 161 182.75C159.144 182.75 157.395 182.279 155.87 181.45L151.637 182.237C151.517 182.259 151.394 182.252 151.278 182.216C151.162 182.18 151.056 182.116 150.97 182.03C150.884 181.944 150.82 181.838 150.784 181.722C150.748 181.606 150.741 181.483 150.763 181.363L151.551 177.13C150.695 175.556 150.247 173.792 150.25 172ZM161 167.25C161.199 167.25 161.39 167.329 161.53 167.47C161.671 167.61 161.75 167.801 161.75 168V172C161.75 172.199 161.671 172.39 161.53 172.53C161.39 172.671 161.199 172.75 161 172.75C160.801 172.75 160.61 172.671 160.47 172.53C160.329 172.39 160.25 172.199 160.25 172V168C160.25 167.801 160.329 167.61 160.47 167.47C160.61 167.329 160.801 167.25 161 167.25ZM161.567 176.501C161.635 176.428 161.689 176.343 161.723 176.249C161.758 176.156 161.774 176.056 161.77 175.956C161.766 175.857 161.742 175.759 161.699 175.668C161.657 175.578 161.597 175.497 161.523 175.43C161.449 175.363 161.362 175.312 161.268 175.279C161.173 175.246 161.073 175.233 160.974 175.239C160.874 175.245 160.777 175.271 160.687 175.315C160.598 175.36 160.518 175.421 160.453 175.497L160.443 175.508C160.375 175.581 160.321 175.666 160.287 175.76C160.252 175.853 160.236 175.953 160.24 176.053C160.244 176.152 160.268 176.25 160.311 176.341C160.353 176.431 160.413 176.512 160.487 176.579C160.562 176.646 160.648 176.697 160.743 176.73C160.837 176.763 160.937 176.776 161.036 176.77C161.136 176.764 161.233 176.738 161.323 176.694C161.412 176.649 161.492 176.588 161.557 176.512L161.567 176.501Z" fill="#C41C1C"/>
<path d="M183.76 165.04C184.28 165.12 185.12 165.18 185.66 165.18H196.56C197.16 165.18 197.86 165.12 198.42 165.04V167.8C197.84 167.74 197.14 167.7 196.56 167.7H185.66C185.12 167.7 184.28 167.74 183.76 167.8V165.04ZM189.54 177.36V166.58H192.32V177.36H189.54ZM182.48 175.72C183.12 175.82 183.84 175.88 184.44 175.88H197.64C198.34 175.88 198.98 175.78 199.5 175.72V178.6C198.94 178.54 198.1 178.52 197.64 178.52H184.44C183.86 178.52 183.14 178.54 182.48 178.6V175.72ZM205.46 163.66C206 163.74 206.86 163.78 207.54 163.78C208.8 163.78 214.06 163.78 215.22 163.78C215.86 163.78 216.84 163.74 217.38 163.66V166.26C216.86 166.22 215.92 166.18 215.18 166.18C214.08 166.18 208.72 166.18 207.54 166.18C206.88 166.18 206.04 166.2 205.46 166.26V163.66ZM219.08 169.48C218.94 169.74 218.76 170.1 218.7 170.3C218.08 172.24 217.22 174.2 215.74 175.84C213.72 178.1 211.16 179.44 208.6 180.18L206.6 177.92C209.62 177.28 212 175.98 213.54 174.4C214.6 173.32 215.24 172.06 215.58 170.96C214.58 170.96 207.72 170.96 205.94 170.96C205.44 170.96 204.44 170.98 203.6 171.04V168.44C204.46 168.52 205.3 168.58 205.94 168.58C207.3 168.58 214.46 168.58 215.82 168.58C216.48 168.58 217.02 168.5 217.3 168.36L219.08 169.48ZM222.82 169.74C223.56 169.8 225 169.88 226.04 169.88C228.4 169.88 235 169.88 236.78 169.88C237.72 169.88 238.6 169.78 239.14 169.74V172.9C238.66 172.88 237.64 172.78 236.8 172.78C234.98 172.78 228.4 172.78 226.04 172.78C224.92 172.78 223.58 172.84 222.82 172.9V169.74Z" fill="#C41C1C"/>
<rect x="141" y="215" width="108" height="46" rx="8" fill="#DBF3E6"/>
<path fill-rule="evenodd" clip-rule="evenodd" d="M170.586 229.304H162.988V227.513L150.5 229.441V246.336L162.988 248.487V245.834H170.586C170.816 245.845 171.041 245.765 171.213 245.611C171.384 245.457 171.487 245.242 171.5 245.012V230.125C171.487 229.895 171.384 229.68 171.212 229.526C171.041 229.372 170.816 229.292 170.586 229.304ZM170.706 245.148H162.963L162.95 243.731H164.815V242.081H162.936L162.927 241.106H164.815V239.456H162.912L162.903 238.481H164.815V236.831H162.898V235.856H164.815V234.206H162.898V233.231H164.815V231.581H162.898V230.081H170.706V245.148Z" fill="#20744A"/>
<path d="M165.865 231.579H169.107V233.229H165.865V231.579ZM165.865 234.205H169.107V235.855H165.865V234.205ZM165.865 236.831H169.107V238.481H165.865V236.831ZM165.865 239.456H169.107V241.106H165.865V239.456ZM165.865 242.082H169.107V243.732H165.865V242.082Z" fill="#20744A"/>
<path fill-rule="evenodd" clip-rule="evenodd" d="M153.76 234.005L155.37 233.913L156.382 236.694L157.577 233.798L159.187 233.706L157.232 237.655L159.187 241.614L157.485 241.5L156.336 238.482L155.186 241.385L153.622 241.247L155.439 237.75L153.76 234.005Z" fill="white"/>
<path d="M181.6 240H200.4V242.2H181.6V240ZM182.42 229.1H199.6V231.3H182.42V229.1ZM185.56 236.34H196.6V238.38H185.56V236.34ZM195.72 232.62H198.1V244.2C198.1 245.42 197.84 246.06 197 246.44C196.18 246.8 195 246.84 193.3 246.84C193.18 246.2 192.8 245.16 192.46 244.58C193.56 244.64 194.88 244.62 195.22 244.6C195.58 244.6 195.72 244.5 195.72 244.18V232.62ZM183.88 232.62H196.66V234.78H186.26V246.82H183.88V232.62ZM189.7 229.76H192.12V240.76H189.7V229.76ZM205.36 229.14H211.02V231.58H205.36V229.14ZM209.84 229.14H212.32C212.32 232.94 212.86 240.3 220.28 244.64C219.72 245.08 218.76 246.14 218.34 246.74C210.72 242.16 209.84 233.22 209.84 229.14ZM208.98 233.52L211.74 234.02C210.34 239.96 207.68 244.26 203.5 246.78C203.06 246.26 201.94 245.26 201.32 244.82C205.5 242.7 207.9 238.82 208.98 233.52ZM232.88 228.02H235.2V230.88H232.88V228.02ZM228.42 229.94H239.54V231.8H228.42V229.94ZM231.98 234.16V235.36H236.16V234.16H231.98ZM229.96 232.54H238.3V236.98H229.96V232.54ZM228.56 237.7H238.2V239.56H230.7V246.82H228.56V237.7ZM237.38 237.7H239.56V244.74C239.56 245.64 239.4 246.16 238.84 246.48C238.26 246.78 237.5 246.8 236.46 246.8C236.4 246.24 236.14 245.46 235.9 244.94C236.42 244.96 236.96 244.96 237.14 244.96C237.32 244.94 237.38 244.9 237.38 244.7V237.7ZM231.54 240.36H233.18V245.58H231.54V240.36ZM232.78 240.36H236.5V244.64H232.78V243.2H234.84V241.82H232.78V240.36ZM223.92 229.86H226.22V246.8H223.92V229.86ZM221.28 233.68H228.4V235.88H221.28V233.68ZM224.08 234.56L225.48 235.16C224.8 237.98 223.52 241.6 222.08 243.58C221.88 242.9 221.34 241.88 220.98 241.28C222.24 239.66 223.52 236.74 224.08 234.56ZM227 228.3L228.68 230.1C226.7 230.84 224.08 231.32 221.84 231.58C221.74 231.08 221.44 230.26 221.18 229.76C223.26 229.44 225.58 228.92 227 228.3ZM226.14 236.08C226.64 236.52 228.3 238.42 228.66 238.92L227.28 240.78C226.84 239.76 225.68 237.88 225.1 237L226.14 236.08Z" fill="#1E1E1E"/>
<rect x="130" y="328" width="128" height="46" rx="8" fill="#DBF3E6"/>
<path fill-rule="evenodd" clip-rule="evenodd" d="M159.586 342.304H151.988V340.513L139.5 342.441V359.336L151.988 361.487V358.834H159.586C159.816 358.845 160.041 358.765 160.213 358.611C160.384 358.457 160.487 358.242 160.5 358.012V343.125C160.487 342.895 160.384 342.68 160.212 342.526C160.041 342.372 159.816 342.292 159.586 342.304ZM159.706 358.148H151.963L151.95 356.731H153.815V355.081H151.936L151.927 354.106H153.815V352.456H151.912L151.903 351.481H153.815V349.831H151.898V348.856H153.815V347.206H151.898V346.231H153.815V344.581H151.898V343.081H159.706V358.148Z" fill="#20744A"/>
<path d="M154.865 344.579H158.107V346.229H154.865V344.579ZM154.865 347.205H158.107V348.855H154.865V347.205ZM154.865 349.831H158.107V351.481H154.865V349.831ZM154.865 352.456H158.107V354.106H154.865V352.456ZM154.865 355.082H158.107V356.732H154.865V355.082Z" fill="#20744A"/>
<path fill-rule="evenodd" clip-rule="evenodd" d="M142.76 347.005L144.37 346.913L145.382 349.694L146.577 346.798L148.187 346.706L146.232 350.655L148.187 354.614L146.485 354.5L145.336 351.482L144.186 354.385L142.622 354.247L144.439 350.75L142.76 347.005Z" fill="white"/>
<path d="M170.6 353H189.4V355.2H170.6V353ZM171.42 342.1H188.6V344.3H171.42V342.1ZM174.56 349.34H185.6V351.38H174.56V349.34ZM184.72 345.62H187.1V357.2C187.1 358.42 186.84 359.06 186 359.44C185.18 359.8 184 359.84 182.3 359.84C182.18 359.2 181.8 358.16 181.46 357.58C182.56 357.64 183.88 357.62 184.22 357.6C184.58 357.6 184.72 357.5 184.72 357.18V345.62ZM172.88 345.62H185.66V347.78H175.26V359.82H172.88V345.62ZM178.7 342.76H181.12V353.76H178.7V342.76ZM197.06 345.86H205.32V348.26H197.06V345.86ZM196.3 353.6L197.78 351.62C200.46 352.74 203.88 354.66 205.52 356.28L203.86 358.56C202.36 356.94 199.04 354.86 196.3 353.6ZM197.6 342.04L200.26 342.64C198.88 346.7 196.66 351.34 193.72 354.2C193.16 353.78 192.1 353.16 191.42 352.86C194.42 350.18 196.58 345.64 197.6 342.04ZM204.32 345.86H204.88L205.34 345.76L207.16 346.74C206.18 349.58 204.24 353.04 202.34 355.48C201.8 355.02 200.84 354.38 200.18 354.06C201.96 351.88 203.66 348.6 204.32 346.46V345.86ZM214.14 342.14H219.8V344.58H214.14V342.14ZM218.62 342.14H221.1C221.1 345.94 221.64 353.3 229.06 357.64C228.5 358.08 227.54 359.14 227.12 359.74C219.5 355.16 218.62 346.22 218.62 342.14ZM217.76 346.52L220.52 347.02C219.12 352.96 216.46 357.26 212.28 359.78C211.84 359.26 210.72 358.26 210.1 357.82C214.28 355.7 216.68 351.82 217.76 346.52ZM241.66 341.02H243.98V343.88H241.66V341.02ZM237.2 342.94H248.32V344.8H237.2V342.94ZM240.76 347.16V348.36H244.94V347.16H240.76ZM238.74 345.54H247.08V349.98H238.74V345.54ZM237.34 350.7H246.98V352.56H239.48V359.82H237.34V350.7ZM246.16 350.7H248.34V357.74C248.34 358.64 248.18 359.16 247.62 359.48C247.04 359.78 246.28 359.8 245.24 359.8C245.18 359.24 244.92 358.46 244.68 357.94C245.2 357.96 245.74 357.96 245.92 357.96C246.1 357.94 246.16 357.9 246.16 357.7V350.7ZM240.32 353.36H241.96V358.58H240.32V353.36ZM241.56 353.36H245.28V357.64H241.56V356.2H243.62V354.82H241.56V353.36ZM232.7 342.86H235V359.8H232.7V342.86ZM230.06 346.68H237.18V348.88H230.06V346.68ZM232.86 347.56L234.26 348.16C233.58 350.98 232.3 354.6 230.86 356.58C230.66 355.9 230.12 354.88 229.76 354.28C231.02 352.66 232.3 349.74 232.86 347.56ZM235.78 341.3L237.46 343.1C235.48 343.84 232.86 344.32 230.62 344.58C230.52 344.08 230.22 343.26 229.96 342.76C232.04 342.44 234.36 341.92 235.78 341.3ZM234.92 349.08C235.42 349.52 237.08 351.42 237.44 351.92L236.06 353.78C235.62 352.76 234.46 350.88 233.88 350L234.92 349.08Z" fill="#1E1E1E"/>
<rect x="111" y="266" width="168" height="40" rx="8" fill="#FCE4E4"/>
<path fill-rule="evenodd" clip-rule="evenodd" d="M120.25 286C120.25 280.063 125.063 275.25 131 275.25C136.937 275.25 141.75 280.063 141.75 286C141.75 291.937 136.937 296.75 131 296.75C129.144 296.75 127.395 296.279 125.87 295.45L121.637 296.237C121.517 296.259 121.394 296.252 121.278 296.216C121.162 296.18 121.056 296.116 120.97 296.03C120.884 295.944 120.82 295.838 120.784 295.722C120.748 295.606 120.741 295.483 120.763 295.363L121.551 291.13C120.695 289.556 120.247 287.792 120.25 286ZM131 281.25C131.199 281.25 131.39 281.329 131.53 281.47C131.671 281.61 131.75 281.801 131.75 282V286C131.75 286.199 131.671 286.39 131.53 286.53C131.39 286.671 131.199 286.75 131 286.75C130.801 286.75 130.61 286.671 130.47 286.53C130.329 286.39 130.25 286.199 130.25 286V282C130.25 281.801 130.329 281.61 130.47 281.47C130.61 281.329 130.801 281.25 131 281.25ZM131.567 290.501C131.635 290.428 131.689 290.343 131.723 290.249C131.758 290.156 131.774 290.056 131.77 289.956C131.766 289.857 131.742 289.759 131.699 289.668C131.657 289.578 131.597 289.497 131.523 289.43C131.449 289.363 131.362 289.312 131.268 289.279C131.173 289.246 131.073 289.233 130.974 289.239C130.874 289.245 130.777 289.271 130.687 289.315C130.598 289.36 130.518 289.421 130.453 289.497L130.443 289.508C130.375 289.581 130.321 289.666 130.287 289.76C130.252 289.853 130.236 289.953 130.24 290.053C130.244 290.152 130.268 290.25 130.311 290.341C130.353 290.431 130.413 290.512 130.487 290.579C130.562 290.646 130.648 290.697 130.743 290.73C130.837 290.763 130.937 290.776 131.036 290.77C131.136 290.764 131.233 290.738 131.323 290.694C131.412 290.649 131.492 290.588 131.557 290.512L131.567 290.501Z" fill="#C41C1C"/>
<path d="M162.9 282.64H170.36V284.86H162.9V282.64ZM152.06 278H161.06V279.96H152.06V278ZM151.86 285.96H161.04V287.98H151.86V285.96ZM151.8 282.46H161.22V284.44H151.8V282.46ZM166.14 283.6H168.46V294.7H166.14V283.6ZM155.4 276.18H157.74V278.88H155.4V276.18ZM155.4 284.32H157.74V294.78H155.4V284.32ZM161.82 277.6L164.62 278.38C164.6 278.58 164.46 278.68 164.1 278.74V284.62C164.1 287.6 163.72 292.02 161 294.84C160.7 294.32 159.82 293.5 159.28 293.2C161.6 290.74 161.82 287.32 161.82 284.58V277.6ZM168.36 276.22L170.28 277.96C168.24 278.88 165.52 279.56 163.18 280C163.06 279.48 162.72 278.64 162.44 278.18C164.58 277.7 166.94 276.98 168.36 276.22ZM157.56 288.06C158.18 288.44 160.1 289.94 160.58 290.34L159.2 292.06C158.54 291.26 157.02 289.76 156.28 289.1L157.56 288.06ZM153.06 280.26L154.9 279.82C155.26 280.54 155.54 281.52 155.64 282.18L153.68 282.7C153.64 282.04 153.38 281.02 153.06 280.26ZM158.04 279.78L160.16 280.18C159.78 281.1 159.44 281.96 159.14 282.58L157.24 282.18C157.52 281.5 157.86 280.48 158.04 279.78ZM155.42 287.14L157.12 287.76C156.14 289.96 154.48 292.26 152.88 293.56C152.5 293.04 151.8 292.24 151.3 291.86C152.88 290.84 154.54 288.9 155.42 287.14ZM180.46 277.04C180.32 277.6 180.14 278.5 180.04 278.94C179.76 280.3 179.26 282.74 178.72 284.78C178 287.58 176.66 291.66 175.56 294.04L172.78 293.1C173.96 291.08 175.48 286.9 176.24 284.1C176.74 282.22 177.2 280.02 177.34 278.84C177.44 278.1 177.46 277.28 177.4 276.8L180.46 277.04ZM175.36 280.04C177.8 280.04 180.62 279.66 183.22 279.04V281.54C180.74 282.12 177.6 282.46 175.34 282.46C174.36 282.46 173.62 282.42 172.92 282.38L172.84 279.88C173.88 280 174.54 280.04 175.36 280.04ZM181.64 283.1C182.76 282.98 184.2 282.9 185.5 282.9C186.64 282.9 187.84 282.96 189 283.08L188.96 285.48C187.94 285.36 186.72 285.22 185.52 285.22C184.14 285.22 182.9 285.28 181.64 285.44V283.1ZM182.72 288.12C182.58 288.7 182.46 289.34 182.46 289.78C182.46 290.66 183.04 291.32 185.2 291.32C186.54 291.32 187.92 291.18 189.34 290.92L189.24 293.46C188.12 293.62 186.78 293.74 185.18 293.74C181.8 293.74 180 292.6 180 290.58C180 289.64 180.18 288.68 180.34 287.9L182.72 288.12ZM192.64 279.9C193.5 280 194.58 280.04 195.3 280.04C197.78 280.04 200.48 279.62 202.42 279L202.48 281.32C200.76 281.8 197.88 282.32 195.32 282.3C194.52 282.3 193.68 282.28 192.82 282.24L192.64 279.9ZM200.42 276.9C200.16 277.96 199.68 279.92 199.14 281.62C198.22 284.5 196.42 288.22 194.72 290.58L192.3 289.34C194.1 287.14 195.9 283.64 196.68 281.48C197.16 280.04 197.6 278.18 197.66 276.64L200.42 276.9ZM205.12 283.14C205.06 283.98 205.08 284.82 205.1 285.7C205.14 286.88 205.32 289.86 205.32 290.98C205.32 292.84 204.32 294.3 201.46 294.3C198.98 294.3 197.02 293.18 197.02 290.98C197.02 289.04 198.66 287.52 201.44 287.52C204.94 287.52 207.7 289.28 209.36 290.78L208.04 292.94C206.6 291.6 204.32 289.54 201.3 289.54C200.14 289.54 199.38 290.04 199.38 290.74C199.38 291.48 200.02 292 201.12 292C202.48 292 202.92 291.24 202.92 290.12C202.92 288.92 202.7 285.24 202.6 283.14H205.12ZM208.56 284.2C207.4 283.26 205.12 281.96 203.74 281.34L205.04 279.38C206.48 280 208.94 281.34 209.98 282.08L208.56 284.2ZM213.76 279.04C214.28 279.12 215.12 279.18 215.66 279.18H226.56C227.16 279.18 227.86 279.12 228.42 279.04V281.8C227.84 281.74 227.14 281.7 226.56 281.7H215.66C215.12 281.7 214.28 281.74 213.76 281.8V279.04ZM219.54 291.36V280.58H222.32V291.36H219.54ZM212.48 289.72C213.12 289.82 213.84 289.88 214.44 289.88H227.64C228.34 289.88 228.98 289.78 229.5 289.72V292.6C228.94 292.54 228.1 292.52 227.64 292.52H214.44C213.86 292.52 213.14 292.54 212.48 292.6V289.72ZM235.46 277.66C236 277.74 236.86 277.78 237.54 277.78C238.8 277.78 244.06 277.78 245.22 277.78C245.86 277.78 246.84 277.74 247.38 277.66V280.26C246.86 280.22 245.92 280.18 245.18 280.18C244.08 280.18 238.72 280.18 237.54 280.18C236.88 280.18 236.04 280.2 235.46 280.26V277.66ZM249.08 283.48C248.94 283.74 248.76 284.1 248.7 284.3C248.08 286.24 247.22 288.2 245.74 289.84C243.72 292.1 241.16 293.44 238.6 294.18L236.6 291.92C239.62 291.28 242 289.98 243.54 288.4C244.6 287.32 245.24 286.06 245.58 284.96C244.58 284.96 237.72 284.96 235.94 284.96C235.44 284.96 234.44 284.98 233.6 285.04V282.44C234.46 282.52 235.3 282.58 235.94 282.58C237.3 282.58 244.46 282.58 245.82 282.58C246.48 282.58 247.02 282.5 247.3 282.36L249.08 283.48ZM252.82 283.74C253.56 283.8 255 283.88 256.04 283.88C258.4 283.88 265 283.88 266.78 283.88C267.72 283.88 268.6 283.78 269.14 283.74V286.9C268.66 286.88 267.64 286.78 266.8 286.78C264.98 286.78 258.4 286.78 256.04 286.78C254.92 286.78 253.58 286.84 252.82 286.9V283.74Z" fill="#C41C1C"/>
<rect x="90" y="379" width="212" height="40" rx="8" fill="#FCE4E4"/>
<path fill-rule="evenodd" clip-rule="evenodd" d="M99.25 399C99.25 393.063 104.063 388.25 110 388.25C115.937 388.25 120.75 393.063 120.75 399C120.75 404.937 115.937 409.75 110 409.75C108.144 409.75 106.395 409.279 104.87 408.45L100.637 409.237C100.517 409.259 100.394 409.252 100.278 409.216C100.162 409.18 100.056 409.116 99.9702 409.03C99.8841 408.944 99.8203 408.838 99.7842 408.722C99.7482 408.606 99.7409 408.483 99.763 408.363L100.551 404.13C99.6946 402.556 99.2473 400.792 99.25 399ZM110 394.25C110.199 394.25 110.39 394.329 110.53 394.47C110.671 394.61 110.75 394.801 110.75 395V399C110.75 399.199 110.671 399.39 110.53 399.53C110.39 399.671 110.199 399.75 110 399.75C109.801 399.75 109.61 399.671 109.47 399.53C109.329 399.39 109.25 399.199 109.25 399V395C109.25 394.801 109.329 394.61 109.47 394.47C109.61 394.329 109.801 394.25 110 394.25ZM110.567 403.501C110.635 403.428 110.689 403.343 110.723 403.249C110.758 403.156 110.774 403.056 110.77 402.956C110.766 402.857 110.742 402.759 110.699 402.668C110.657 402.578 110.597 402.497 110.523 402.43C110.449 402.363 110.362 402.312 110.268 402.279C110.173 402.246 110.073 402.233 109.974 402.239C109.874 402.245 109.777 402.271 109.687 402.315C109.598 402.36 109.518 402.421 109.453 402.497L109.443 402.508C109.375 402.581 109.321 402.666 109.287 402.76C109.252 402.853 109.236 402.953 109.24 403.053C109.244 403.152 109.268 403.25 109.311 403.341C109.353 403.431 109.413 403.512 109.487 403.579C109.562 403.646 109.648 403.697 109.743 403.73C109.837 403.763 109.937 403.776 110.036 403.77C110.136 403.764 110.233 403.738 110.323 403.694C110.412 403.649 110.492 403.588 110.557 403.512L110.567 403.501Z" fill="#C41C1C"/>
<g clip-path="url(#clip0_22_350)">
<path d="M141.94 389.84C141.88 390.24 141.82 390.74 141.8 391.26C141.76 392.28 141.74 395.12 141.74 396.8C141.74 399 142.06 402.62 142.06 404.2C142.06 405.92 140.76 407.24 138.14 407.24C134.94 407.24 133.26 406.02 133.26 403.9C133.26 401.88 135.12 400.46 138.18 400.46C142.58 400.46 145.86 402.62 147.52 404.02L146.08 406.26C144.18 404.46 141.28 402.52 137.86 402.52C136.46 402.52 135.68 403.06 135.68 403.76C135.68 404.52 136.38 404.98 137.76 404.98C138.82 404.98 139.54 404.68 139.54 403.52C139.54 402.32 139.32 398.74 139.32 396.8C139.32 394.88 139.34 392.34 139.34 391.2C139.34 390.84 139.3 390.22 139.22 389.84H141.94ZM133.64 391.7C135.06 391.94 137.36 392.14 138.58 392.14C141.3 392.14 143.92 392 146.84 391.54L146.82 393.82C144.78 394.1 141.6 394.34 138.6 394.34C137.32 394.34 135 394.16 133.68 394L133.64 391.7ZM133.52 396.02C134.84 396.26 137.28 396.4 138.34 396.4C142.04 396.4 144.62 396.16 147.08 395.84L147.06 398.2C144.3 398.52 142.12 398.64 138.32 398.64C137.14 398.64 134.88 398.54 133.56 398.38L133.52 396.02ZM159.46 390.04C159.32 390.6 159.14 391.5 159.04 391.94C158.76 393.3 158.26 395.74 157.72 397.78C157 400.58 155.66 404.66 154.56 407.04L151.78 406.1C152.96 404.08 154.48 399.9 155.24 397.1C155.74 395.22 156.2 393.02 156.34 391.84C156.44 391.1 156.46 390.28 156.4 389.8L159.46 390.04ZM154.36 393.04C156.8 393.04 159.62 392.66 162.22 392.04V394.54C159.74 395.12 156.6 395.46 154.34 395.46C153.36 395.46 152.62 395.42 151.92 395.38L151.84 392.88C152.88 393 153.54 393.04 154.36 393.04ZM160.64 396.1C161.76 395.98 163.2 395.9 164.5 395.9C165.64 395.9 166.84 395.96 168 396.08L167.96 398.48C166.94 398.36 165.72 398.22 164.52 398.22C163.14 398.22 161.9 398.28 160.64 398.44V396.1ZM161.72 401.12C161.58 401.7 161.46 402.34 161.46 402.78C161.46 403.66 162.04 404.32 164.2 404.32C165.54 404.32 166.92 404.18 168.34 403.92L168.24 406.46C167.12 406.62 165.78 406.74 164.18 406.74C160.8 406.74 159 405.6 159 403.58C159 402.64 159.18 401.68 159.34 400.9L161.72 401.12ZM182.14 389.1H184.38V403.04H182.14V389.1ZM175.38 396.94L187.26 392.32L188.16 394.4L176.3 399.06L175.38 396.94ZM177.82 391.26H180.2V403.96C180.2 405.16 180.4 405.34 181.72 405.34C182.32 405.34 185.06 405.34 185.76 405.34C186.92 405.34 187.14 404.86 187.32 402.58C187.86 402.96 188.82 403.36 189.5 403.52C189.18 406.52 188.46 407.5 185.94 407.5C185.26 407.5 182.14 407.5 181.52 407.5C178.62 407.5 177.82 406.74 177.82 403.96V391.26ZM186.44 392.72H186.3L186.72 392.42L187.14 392.1L188.78 392.74L188.68 393.1C188.66 396.6 188.64 399.02 188.52 399.88C188.42 400.9 188.06 401.42 187.38 401.72C186.78 401.98 185.84 402.02 185.12 402C185.08 401.32 184.86 400.32 184.6 399.8C185.02 399.82 185.6 399.82 185.82 399.82C186.1 399.82 186.24 399.76 186.34 399.36C186.42 398.92 186.44 396.92 186.44 392.72ZM174.82 389.1L177.04 389.8C175.76 393.18 173.68 396.78 171.52 399.06C171.3 398.5 170.66 397.2 170.26 396.62C172.08 394.8 173.8 391.96 174.82 389.1ZM172.8 394.62L175.16 392.28V392.3V407.78H172.8V394.62ZM201.82 392.3C201.54 394.34 201.14 396.68 200.44 399.04C199.24 403.08 197.52 405.56 195.34 405.56C193.1 405.56 191.26 403.1 191.26 399.72C191.26 395.12 195.28 391.16 200.46 391.16C205.4 391.16 208.54 394.6 208.54 398.98C208.54 403.18 205.96 406.16 200.92 406.94L199.4 404.58C200.18 404.48 200.74 404.38 201.28 404.26C203.82 403.64 205.82 401.82 205.82 398.88C205.82 395.74 203.86 393.5 200.4 393.5C196.16 393.5 193.84 396.96 193.84 399.48C193.84 401.5 194.64 402.48 195.4 402.48C196.26 402.48 197.02 401.2 197.86 398.5C198.44 396.62 198.88 394.32 199.08 392.22L201.82 392.3ZM212.76 392.04C213.28 392.12 214.12 392.18 214.66 392.18H225.56C226.16 392.18 226.86 392.12 227.42 392.04V394.8C226.84 394.74 226.14 394.7 225.56 394.7H214.66C214.12 394.7 213.28 394.74 212.76 394.8V392.04ZM218.54 404.36V393.58H221.32V404.36H218.54ZM211.48 402.72C212.12 402.82 212.84 402.88 213.44 402.88H226.64C227.34 402.88 227.98 402.78 228.5 402.72V405.6C227.94 405.54 227.1 405.52 226.64 405.52H213.44C212.86 405.52 212.14 405.54 211.48 405.6V402.72ZM234.46 390.66C235 390.74 235.86 390.78 236.54 390.78C237.8 390.78 243.06 390.78 244.22 390.78C244.86 390.78 245.84 390.74 246.38 390.66V393.26C245.86 393.22 244.92 393.18 244.18 393.18C243.08 393.18 237.72 393.18 236.54 393.18C235.88 393.18 235.04 393.2 234.46 393.26V390.66ZM248.08 396.48C247.94 396.74 247.76 397.1 247.7 397.3C247.08 399.24 246.22 401.2 244.74 402.84C242.72 405.1 240.16 406.44 237.6 407.18L235.6 404.92C238.62 404.28 241 402.98 242.54 401.4C243.6 400.32 244.24 399.06 244.58 397.96C243.58 397.96 236.72 397.96 234.94 397.96C234.44 397.96 233.44 397.98 232.6 398.04V395.44C233.46 395.52 234.3 395.58 234.94 395.58C236.3 395.58 243.46 395.58 244.82 395.58C245.48 395.58 246.02 395.5 246.3 395.36L248.08 396.48ZM251.82 396.74C252.56 396.8 254 396.88 255.04 396.88C257.4 396.88 264 396.88 265.78 396.88C266.72 396.88 267.6 396.78 268.14 396.74V399.9C267.66 399.88 266.64 399.78 265.8 399.78C263.98 399.78 257.4 399.78 255.04 399.78C253.92 399.78 252.58 399.84 251.82 399.9V396.74Z" fill="#C41C1C"/>
<g clip-path="url(#clip1_22_350)">
<mask id="mask0_22_350" style="mask-type:luminance" maskUnits="userSpaceOnUse" x="270" y="387" width="24" height="24">
<path d="M270 387H294V411H270V387Z" fill="white"/>
</mask>
<g mask="url(#mask0_22_350)">
<path d="M281.999 409.498C289 409.498 292.498 404.798 292.498 398.998C292.498 393.201 289 388.5 281.998 388.5C274.999 388.5 271.5 393.201 271.5 398.999C271.5 404.798 274.998 409.498 281.999 409.498Z" fill="url(#paint0_radial_22_350)"/>
<path d="M281.999 409.498C289 409.498 292.498 404.798 292.498 398.998C292.498 393.201 289 388.5 281.998 388.5C274.999 388.5 271.5 393.201 271.5 398.999C271.5 404.798 274.998 409.498 281.999 409.498Z" fill="url(#paint1_radial_22_350)"/>
<path d="M281.999 409.498C289 409.498 292.498 404.798 292.498 398.998C292.498 393.201 289 388.5 281.998 388.5C274.999 388.5 271.5 393.201 271.5 398.999C271.5 404.798 274.998 409.498 281.999 409.498Z" fill="url(#paint2_radial_22_350)"/>
<path d="M281.999 409.498C289 409.498 292.498 404.798 292.498 398.998C292.498 393.201 289 388.5 281.998 388.5C274.999 388.5 271.5 393.201 271.5 398.999C271.5 404.798 274.998 409.498 281.999 409.498Z" fill="url(#paint3_radial_22_350)" fill-opacity="0.6"/>
<path d="M281.999 409.498C289 409.498 292.498 404.798 292.498 398.998C292.498 393.201 289 388.5 281.998 388.5C274.999 388.5 271.5 393.201 271.5 398.999C271.5 404.798 274.998 409.498 281.999 409.498Z" fill="url(#paint4_radial_22_350)"/>
<path d="M281.999 409.498C289 409.498 292.498 404.798 292.498 398.998C292.498 393.201 289 388.5 281.998 388.5C274.999 388.5 271.5 393.201 271.5 398.999C271.5 404.798 274.998 409.498 281.999 409.498Z" fill="url(#paint5_radial_22_350)"/>
<path d="M281.999 409.498C289 409.498 292.498 404.798 292.498 398.998C292.498 393.201 289 388.5 281.998 388.5C274.999 388.5 271.5 393.201 271.5 398.999C271.5 404.798 274.998 409.498 281.999 409.498Z" fill="url(#paint6_radial_22_350)"/>
<path d="M281.999 409.498C289 409.498 292.498 404.798 292.498 398.998C292.498 393.201 289 388.5 281.998 388.5C274.999 388.5 271.5 393.201 271.5 398.999C271.5 404.798 274.998 409.498 281.999 409.498Z" fill="url(#paint7_radial_22_350)"/>
<path fill-rule="evenodd" clip-rule="evenodd" d="M278.25 408.973V393H275.625C275.327 393 275.04 393.119 274.83 393.33C274.619 393.54 274.5 393.827 274.5 394.125V406.808C275.5 407.768 276.75 408.512 278.25 408.973ZM289.5 406.805C288.5 407.767 287.25 408.512 285.75 408.973V393H288.375C288.673 393 288.96 393.119 289.17 393.33C289.381 393.54 289.5 393.827 289.5 394.125V406.805Z" fill="url(#paint8_linear_22_350)"/>
<path d="M274.5 393.75C274.5 393.75 274.875 392.625 276.375 392.625C277.875 392.625 278.25 393.75 278.25 393.75" stroke="url(#paint9_radial_22_350)" stroke-width="2" stroke-linecap="round" stroke-linejoin="round"/>
<path d="M285.75 393.75C285.75 393.75 286.125 392.625 287.625 392.625C289.125 392.625 289.5 393.75 289.5 393.75" stroke="url(#paint10_radial_22_350)" stroke-width="2" stroke-linecap="round" stroke-linejoin="round"/>
<path d="M285 398.25C285 396.593 283.657 395.25 282 395.25C280.343 395.25 279 396.593 279 398.25V399.75C279 401.407 280.343 402.75 282 402.75C283.657 402.75 285 401.407 285 399.75V398.25Z" fill="url(#paint11_radial_22_350)"/>
</g>
</g>
</g>
<defs>
<radialGradient id="paint0_radial_22_350" cx="0" cy="0" r="1" gradientUnits="userSpaceOnUse" gradientTransform="translate(289.125 393.75) rotate(132.839) scale(28.1275)">
<stop stop-color="#FFF478"/>
<stop offset="0.475" stop-color="#FFB02E"/>
<stop offset="1" stop-color="#F70A8D"/>
</radialGradient>
<radialGradient id="paint1_radial_22_350" cx="0" cy="0" r="1" gradientUnits="userSpaceOnUse" gradientTransform="translate(289.124 393.75) rotate(131.878) scale(29.2115)">
<stop stop-color="#FFF478"/>
<stop offset="0.475" stop-color="#FFB02E"/>
<stop offset="1" stop-color="#F70A8D"/>
</radialGradient>
<radialGradient id="paint2_radial_22_350" cx="0" cy="0" r="1" gradientUnits="userSpaceOnUse" gradientTransform="translate(281.999 396.375) rotate(101.31) scale(13.3849 17.1436)">
<stop offset="0.788" stop-color="#F59639" stop-opacity="0"/>
<stop offset="0.973" stop-color="#FF7DCE"/>
</radialGradient>
<radialGradient id="paint3_radial_22_350" cx="0" cy="0" r="1" gradientUnits="userSpaceOnUse" gradientTransform="translate(283.5 397.5) rotate(135) scale(30.7591)">
<stop offset="0.315" stop-opacity="0"/>
<stop offset="1"/>
</radialGradient>
<radialGradient id="paint4_radial_22_350" cx="0" cy="0" r="1" gradientUnits="userSpaceOnUse" gradientTransform="translate(282 399.751) rotate(77.692) scale(21.1102)">
<stop offset="0.508" stop-color="#7D6133" stop-opacity="0"/>
<stop offset="1" stop-color="#715B32"/>
</radialGradient>
<radialGradient id="paint5_radial_22_350" cx="0" cy="0" r="1" gradientUnits="userSpaceOnUse" gradientTransform="translate(282.375 399.375) rotate(55.713) scale(9.98512 7.23774)">
<stop stop-color="#FFB849"/>
<stop offset="1" stop-color="#FFB847" stop-opacity="0"/>
</radialGradient>
<radialGradient id="paint6_radial_22_350" cx="0" cy="0" r="1" gradientUnits="userSpaceOnUse" gradientTransform="translate(285.375 400.5) rotate(9.86582) scale(8.75445)">
<stop stop-color="#FFA64B"/>
<stop offset="0.9" stop-color="#FFAE46" stop-opacity="0"/>
</radialGradient>
<radialGradient id="paint7_radial_22_350" cx="0" cy="0" r="1" gradientUnits="userSpaceOnUse" gradientTransform="translate(283.125 398.25) rotate(43.971) scale(44.2897)">
<stop offset="0.185" stop-opacity="0"/>
<stop offset="1" stop-opacity="0.4"/>
</radialGradient>
<linearGradient id="paint8_linear_22_350" x1="287.625" y1="393" x2="287.625" y2="409.5" gradientUnits="userSpaceOnUse">
<stop stop-color="#6D9DFF"/>
<stop offset="1" stop-color="#4864FF"/>
</linearGradient>
<radialGradient id="paint9_radial_22_350" cx="0" cy="0" r="1" gradientUnits="userSpaceOnUse" gradientTransform="translate(276.375 394.5) rotate(-90) scale(2.625)">
<stop offset="0.405" stop-color="#432552"/>
<stop offset="0.703" stop-color="#503F44"/>
<stop offset="0.806" stop-color="#503F44"/>
<stop offset="1" stop-color="#4C342C"/>
</radialGradient>
<radialGradient id="paint10_radial_22_350" cx="0" cy="0" r="1" gradientUnits="userSpaceOnUse" gradientTransform="translate(287.625 394.5) rotate(-90) scale(2.625)">
<stop offset="0.405" stop-color="#432552"/>
<stop offset="0.703" stop-color="#503F44"/>
<stop offset="0.806" stop-color="#503F44"/>
<stop offset="1" stop-color="#4C342C"/>
</radialGradient>
<radialGradient id="paint11_radial_22_350" cx="0" cy="0" r="1" gradientUnits="userSpaceOnUse" gradientTransform="translate(282 404.417) rotate(-90) scale(9.16665 7.33333)">
<stop stop-color="#F70A8D"/>
<stop offset="1" stop-color="#89029C"/>
</radialGradient>
<clipPath id="clip0_22_350">
<rect width="164" height="24" fill="white" transform="translate(130 387)"/>
</clipPath>
<clipPath id="clip1_22_350">
<rect width="24" height="24" fill="white" transform="translate(270 387)"/>
</clipPath>
</defs>
</svg>
