<svg width="504" height="372" viewBox="0 0 504 372" fill="none" xmlns="http://www.w3.org/2000/svg">
<path d="M43.5083 8.616C43.4283 8.84 43.3483 9.224 43.3322 9.352C43.1243 10.968 42.4202 15.304 42.1962 16.76H39.8442C40.1003 15.32 40.7882 11.208 40.8363 10.056C39.5883 10.056 36.3242 10.056 35.3162 10.056C34.6602 10.056 34.0682 10.088 33.4922 10.136V7.88C34.0202 7.944 34.7562 7.992 35.3002 7.992C36.3082 7.992 39.3802 7.992 40.3403 7.992C40.7562 7.992 41.5562 7.912 41.8282 7.784L43.5083 8.616ZM31.7482 16.104C32.2602 16.2 32.8362 16.232 33.3322 16.232H43.9882C44.5642 16.232 45.0763 16.168 45.4923 16.104V18.44C45.0443 18.376 44.3722 18.344 43.9882 18.344H33.3322C32.8362 18.344 32.2762 18.376 31.7482 18.44V16.104ZM47.7643 11.592C48.3563 11.64 49.5083 11.704 50.3403 11.704C52.2283 11.704 57.5083 11.704 58.9323 11.704C59.6843 11.704 60.3883 11.624 60.8203 11.592V14.12C60.4363 14.104 59.6203 14.024 58.9483 14.024C57.4923 14.024 52.2283 14.024 50.3403 14.024C49.4443 14.024 48.3723 14.072 47.7643 14.12V11.592ZM74.7638 6.568C75.0677 7.192 75.4198 8.12 75.5957 8.744L74.4917 9.112C74.2677 8.424 73.9958 7.56 73.6757 6.904L74.7638 6.568ZM76.4117 6.056C76.7158 6.68 77.0838 7.624 77.2758 8.232L76.1877 8.584C75.9478 7.88 75.6438 7.032 75.3238 6.392L76.4117 6.056ZM73.3877 12.184C73.3877 16.136 72.4277 18.568 68.5717 20.264L66.8438 18.648C69.9478 17.576 71.2917 16.184 71.2917 12.264V8.008C71.2917 7.352 71.2598 6.824 71.2118 6.52H73.4838C73.4517 6.84 73.3877 7.352 73.3877 8.008V12.184ZM67.5957 6.664C67.5637 6.952 67.4997 7.464 67.4997 8.104V13.832C67.4997 14.536 67.5477 15.192 67.5798 15.496H65.3397C65.3717 15.192 65.4197 14.552 65.4197 13.832V8.104C65.4197 7.64 65.3877 7.144 65.3237 6.664H67.5957ZM62.3317 9.544C62.6197 9.592 63.2757 9.688 64.0757 9.688H74.5557C75.4038 9.688 75.8837 9.656 76.3317 9.576V11.704C75.9798 11.656 75.4038 11.656 74.5718 11.656H64.0757C63.2597 11.656 62.6997 11.688 62.3317 11.72V9.544ZM78.8437 11.592C79.4357 11.64 80.5877 11.704 81.4197 11.704C83.3077 11.704 88.5877 11.704 90.0117 11.704C90.7637 11.704 91.4677 11.624 91.8997 11.592V14.12C91.5157 14.104 90.6997 14.024 90.0277 14.024C88.5717 14.024 83.3077 14.024 81.4197 14.024C80.5237 14.024 79.4517 14.072 78.8437 14.12V11.592Z" fill="black"/>
<path d="M229.724 10.856H235.772V12.552H229.724V10.856ZM226.3 18.168H233.82V19.864H226.3V18.168ZM228.812 9.352H230.764V15.288H228.812V9.352ZM225.292 14.296H234.844V20.424H232.876V15.992H227.164V20.44H225.292V14.296ZM228.156 5.416H230.156V8.328H228.156V5.416ZM223.356 7.288H235.996V9.112H223.356V7.288ZM222.412 7.288H224.332V11.336C224.332 13.928 224.092 17.896 222.636 20.408C222.284 20.088 221.436 19.528 220.972 19.336C222.316 17.032 222.412 13.656 222.412 11.336V7.288ZM243.596 7.528H251.708V9.176H243.596V7.528ZM244.604 12.872H250.748V14.408H244.604V12.872ZM244.604 15.448H250.748V17H244.604V15.448ZM246.78 5.4H248.492V20.296H246.78V5.4ZM249.804 10.232H251.468V18.616C251.468 19.336 251.372 19.8 250.94 20.072C250.492 20.36 249.948 20.392 249.18 20.392C249.132 19.928 248.924 19.208 248.7 18.76C249.084 18.776 249.484 18.776 249.612 18.776C249.74 18.776 249.804 18.728 249.804 18.568V10.232ZM243.884 10.232H250.732V11.848H245.532V20.392H243.884V10.232ZM248.7 6.264L249.804 5.416C250.428 5.8 251.212 6.392 251.596 6.824L250.428 7.784C250.076 7.336 249.308 6.696 248.7 6.264ZM237.612 15.048H243.212V20.104H241.484V16.6H239.276V20.424H237.612V15.048ZM239.532 8.856H241.276V13.352H239.532V8.856ZM237.724 10.2H243.116V11.672H237.724V10.2ZM237.196 12.76H243.468V14.312H237.196V12.76ZM238.236 18.024H242.428V19.576H238.236V18.024ZM239.308 5.416H240.364V5.768H240.924V6.296C240.284 7.464 239.308 9.064 237.772 10.472C237.5 10.072 236.924 9.448 236.556 9.192C237.868 8.088 238.796 6.616 239.308 5.416ZM239.66 5.416H240.956C241.916 6.248 243.116 7.448 243.692 8.312L242.508 9.768C241.996 8.92 240.876 7.496 239.964 6.728H239.66V5.416Z" fill="black"/>
<path d="M406.964 6.328H411.62V8.136H408.836V20.44H406.964V6.328ZM398.532 6.952H406.276V8.616H398.532V6.952ZM398.196 11.432H406.468V13.16H398.196V11.432ZM401.476 5.528H403.332V7.992H401.476V5.528ZM399.46 9.064L401.044 8.728C401.364 9.448 401.604 10.424 401.7 11.064L400.02 11.464C399.972 10.808 399.732 9.816 399.46 9.064ZM403.748 8.664L405.54 9.048C405.188 9.944 404.868 10.856 404.58 11.464L403.076 11.096C403.332 10.424 403.62 9.4 403.748 8.664ZM399.764 17.992H404.708V19.656H399.764V17.992ZM399.108 14.216H405.748V20.392H403.892V15.88H400.884V20.456H399.108V14.216ZM411.124 6.328H411.492L411.796 6.264L413.204 7.144C412.628 8.696 411.924 10.536 411.3 11.912C412.628 13.336 412.884 14.6 412.9 15.672C412.9 16.856 412.628 17.64 412.02 18.056C411.7 18.28 411.332 18.408 410.916 18.472C410.548 18.52 410.1 18.52 409.636 18.504C409.62 17.976 409.46 17.16 409.156 16.632C409.508 16.648 409.828 16.664 410.068 16.648C410.292 16.648 410.5 16.6 410.66 16.504C410.932 16.328 411.044 15.976 411.044 15.416C411.028 14.552 410.692 13.384 409.396 12.136C410.036 10.6 410.772 8.12 411.124 7V6.328ZM415.556 8.44H419.572V9.8H415.556V8.44ZM422.948 8.44H426.98V9.8H422.948V8.44ZM426.228 6.056H428.164V18.104C428.164 19.224 427.94 19.768 427.236 20.072C426.532 20.392 425.476 20.44 423.924 20.44C423.828 19.896 423.508 18.984 423.236 18.456C424.244 18.536 425.444 18.52 425.78 18.504C426.116 18.504 426.228 18.408 426.228 18.088V6.056ZM415.716 6.056H420.756V12.264H415.716V10.728H418.948V7.608H415.716V6.056ZM427.268 6.056V7.608H423.684V10.76H427.268V12.296H421.86V6.056H427.268ZM414.612 6.056H416.516V20.44H414.612V6.056Z" fill="black"/>
<rect width="127.815" height="26" transform="translate(0 262)" fill="#4F60C6"/>
<path d="M18.0817 280.506H26.313V281.682H18.0817V280.506ZM17.5023 268.406H23.7567V269.548H17.5023V268.406ZM18.2692 266.634L19.7007 266.923C18.4225 269.139 16.3775 271.456 13.4122 273.212C13.2247 272.888 12.7987 272.445 12.509 272.223C15.3209 270.69 17.2807 268.491 18.2692 266.634ZM23.3307 268.406H23.5692L23.8078 268.338L24.6599 268.798C22.6149 273.945 17.809 277.37 13.1736 278.87C13.0202 278.529 12.6964 278.001 12.4237 277.728C16.8376 276.45 21.5583 273.11 23.3307 268.627V268.406ZM15.372 271.439L16.3264 270.621C17.6727 271.542 19.3087 272.905 20.0927 273.876L19.0531 274.797C18.3373 273.825 16.7183 272.394 15.372 271.439ZM25.6825 275.12H26.9947V282.397H25.6825V275.12ZM18.6611 275.12H26.3301V276.296H18.6611V282.363H17.383V276.126L18.4055 275.12H18.6611ZM29.4999 269.377H44.7355V270.57H29.4999V269.377ZM31.2552 274.865H36.027V275.87H31.2552V274.865ZM31.2552 277.592H36.027V278.597H31.2552V277.592ZM38.873 272.24H40.083V279.245H38.873V272.24ZM35.5668 272.087H36.8109V280.898C36.8109 281.545 36.6575 281.886 36.1804 282.091C35.7202 282.295 34.9704 282.295 33.8115 282.295C33.7433 281.971 33.5559 281.494 33.3855 281.17C34.2376 281.205 35.0215 281.205 35.2601 281.187C35.4987 281.17 35.5668 281.102 35.5668 280.881V272.087ZM42.3325 271.729H43.5936V280.778C43.5936 281.528 43.4232 281.886 42.8949 282.091C42.3666 282.278 41.5145 282.312 40.1852 282.312C40.1171 281.971 39.9126 281.426 39.7251 281.085C40.7647 281.119 41.6849 281.119 41.9746 281.102C42.2473 281.085 42.3325 281.017 42.3325 280.778V271.729ZM32.1414 267.111L33.3173 266.668C33.9819 267.4 34.6977 268.406 35.0215 269.071L33.7604 269.531C33.4877 268.883 32.789 267.844 32.1414 267.111ZM40.901 266.617L42.2644 267.06C41.6168 268.116 40.8499 269.292 40.2193 270.093L39.0945 269.667C39.7081 268.849 40.4749 267.537 40.901 266.617ZM30.5735 272.087H35.9758V273.195H31.7835V282.278H30.5735V272.087Z" fill="white"/>
<rect x="57.5168" y="262" width="1.06513" height="25.5631" fill="#B3B3B3"/>
<path d="M77.3582 267.639H84.7033V268.815H77.3582V267.639ZM85.9133 272.496H92.7642V273.723H85.9133V272.496ZM89.6114 273.297H90.8725V282.38H89.6114V273.297ZM85.419 268.372L87.021 268.798C87.0039 268.917 86.9187 268.985 86.6802 269.019V272.922C86.6802 275.683 86.3223 279.586 83.766 282.329C83.5785 282.057 83.1184 281.631 82.8116 281.477C85.1805 278.955 85.419 275.53 85.419 272.922V268.372ZM77.9887 270.587H79.1987V275.189C79.1987 277.37 78.9942 280.386 77.682 282.397C77.4774 282.159 76.9491 281.767 76.6765 281.614C77.8694 279.773 77.9887 277.148 77.9887 275.189V270.587ZM91.2985 266.889L92.4233 267.861C90.7362 268.679 88.2651 269.377 86.1348 269.872C86.0666 269.582 85.8621 269.122 85.6917 268.832C87.7197 268.355 90.0204 267.622 91.2985 266.889ZM78.6874 270.587H84.2772V275.904H78.6874V274.746H83.0332V271.763H78.6874V270.587ZM95.4057 267.435H96.6668V272.428C96.6668 275.308 96.4282 279.483 94.6899 282.261C94.4684 282.074 93.906 281.733 93.5822 281.631C95.2693 278.938 95.4057 275.155 95.4057 272.428V267.435ZM96.1726 267.435H108.119V270.996H96.1726V269.974H106.858V268.457H96.1726V267.435ZM102.171 272.121H103.347V280.267H102.171V272.121ZM99.1549 274.524V275.734H106.449V274.524H99.1549ZM97.9961 273.706H107.642V276.552H97.9961V273.706ZM97.3144 277.54H107.897V278.461H98.4903V282.38H97.3144V277.54ZM107.216 277.54H108.392V281.222C108.392 281.767 108.289 282.04 107.88 282.193C107.454 282.346 106.773 282.346 105.699 282.346C105.631 282.074 105.478 281.716 105.358 281.443C106.108 281.477 106.739 281.477 106.96 281.46C107.165 281.443 107.216 281.392 107.216 281.222V277.54ZM99.172 279.892C100.808 279.858 103.245 279.773 105.682 279.671L105.665 280.557C103.33 280.676 100.961 280.795 99.2572 280.881L99.172 279.892ZM106.619 271.405L107.403 272.189C104.983 272.666 101.098 272.888 97.9109 272.922C97.8938 272.666 97.7575 272.292 97.6552 272.07C100.757 272.019 104.574 271.797 106.619 271.405ZM104.404 278.955L105.171 278.716C105.733 279.466 106.398 280.472 106.705 281.068L105.904 281.375C105.597 280.744 104.966 279.722 104.404 278.955Z" fill="white"/>
<g clip-path="url(#clip0_50_831)">
<rect width="127.815" height="26" transform="translate(0 287.6)" fill="white"/>
<path d="M20.9107 297.619H26.9947V298.795H20.9107V297.619ZM22.5638 298.352C23.5181 302.186 25.478 305.424 28.4774 306.89C28.1876 307.111 27.7957 307.588 27.6082 307.912C24.5236 306.208 22.5467 302.817 21.5242 298.59L22.5638 298.352ZM16.0026 295.182H17.1103V297.21H16.0026V295.182ZM13.7189 296.784H14.8778V306.395H13.7189V296.784ZM14.4006 299.067H18.5418V299.988H14.4006V299.067ZM12.543 306.14C14.0087 305.748 16.2241 305.1 18.3544 304.47L18.5078 305.509C16.582 306.157 14.571 306.822 12.9861 307.333L12.543 306.14ZM16.8206 303.277L17.8602 302.885C18.5248 303.941 19.2576 305.339 19.5303 306.225L18.4396 306.719C18.1669 305.816 17.4682 304.367 16.8206 303.277ZM14.4006 296.784H19.1554V302.339H14.4006V301.385H18.0135V297.738H14.4006V296.784ZM21.1322 293.137H27.932V294.33H21.1322V293.137ZM20.4846 293.137H21.6946V299.119C21.6946 301.828 21.4219 305.56 19.4792 307.98C19.2747 307.742 18.7463 307.384 18.4737 307.248C20.3142 304.947 20.4846 301.658 20.4846 299.119V293.137ZM26.722 297.619H26.9606L27.1992 297.568L27.949 297.857C27.0458 303.004 24.677 306.242 21.6776 307.912C21.4901 307.622 21.0981 307.128 20.8255 306.924C23.7397 305.424 25.9551 302.459 26.722 297.874V297.619ZM15.6958 292.302H16.3775V292.574H16.7695V292.915C16.0367 294.21 14.8096 295.966 12.9691 297.38C12.7816 297.125 12.4067 296.767 12.134 296.596C13.8553 295.335 15.0482 293.648 15.6958 292.302ZM16.0367 292.302H16.9399C17.9965 293.171 19.2747 294.432 19.8882 295.284L19.0531 296.187C18.4737 295.352 17.2807 293.989 16.2753 293.154H16.0367V292.302ZM29.3635 296.375H34.1864V297.568H29.3635V296.375ZM35.3964 295.983H43.4062V297.091H35.3964V295.983ZM31.2722 292.523H32.4652V303.175H31.2722V292.523ZM29.0397 303.958C30.3008 303.43 32.2096 302.527 34.0501 301.658L34.3228 302.783C32.6697 303.635 30.8803 304.521 29.4658 305.203L29.0397 303.958ZM34.2716 293.069H44.565V296.051H43.3039V294.21H35.4987V296.051H34.2716V293.069ZM36.8109 298.795L37.7141 298.198C41.4975 301.027 41.6508 306.038 40.0319 307.333C39.5036 307.827 38.9923 307.946 38.2765 307.963C37.9186 307.963 37.3903 307.946 36.8961 307.929C36.8791 307.588 36.7768 307.077 36.5553 306.736C37.1347 306.787 37.6801 306.804 38.0209 306.804C38.4299 306.804 38.7707 306.77 39.0945 306.464C40.2534 305.56 40.1682 301.385 36.8109 298.795ZM39.282 296.358L40.2875 296.801C38.7878 298.232 36.5382 299.613 34.6125 300.482C34.4421 300.26 34.0671 299.8 33.8286 299.613C35.7713 298.863 37.9527 297.636 39.282 296.358ZM41.0544 296.528C41.719 300.09 43.1335 303.584 45.1956 305.134C44.8888 305.373 44.4457 305.85 44.2242 306.191C42.0939 304.367 40.7476 300.652 40.0148 296.767L41.0544 296.528ZM38.3447 299.834L39.1457 300.38C38.1572 301.368 36.2656 302.595 34.9022 303.294C34.7147 303.038 34.408 302.646 34.1353 302.459C35.5157 301.896 37.4074 300.772 38.3447 299.834ZM39.3331 301.794L40.2193 302.391C38.7367 304.095 35.9588 306.072 33.7945 307.094C33.624 306.804 33.3173 306.378 33.0446 306.123C35.226 305.254 37.9698 303.413 39.3331 301.794ZM44.0879 297.84L44.9229 298.761C43.9856 299.579 42.8097 300.533 41.9065 301.112L41.2759 300.346C42.1451 299.732 43.3891 298.624 44.0879 297.84Z" fill="#424242"/>
<rect x="57.5168" y="287.6" width="1.06513" height="25.5631" fill="#B3B3B3"/>
<path d="M74.2309 296.63H84.3198V297.738H74.2309V296.63ZM74.7081 293.87H83.9449V294.926H74.7081V293.87ZM76.7191 292.302H77.9461V297.312H76.7191V292.302ZM78.6278 297.346H79.8207V304.299H78.6278V297.346ZM80.6558 292.302H81.8658V297.363H80.6558V292.302ZM76.1056 302.305V303.788H82.4963V302.305H76.1056ZM76.1056 299.937V301.402H82.4963V299.937H76.1056ZM74.9808 298.982H83.6722V304.742H74.9808V298.982ZM77.2303 305.1L78.3381 305.799C77.3837 306.617 75.8499 307.486 74.6059 307.98C74.4184 307.742 74.0264 307.35 73.7538 307.111C74.9978 306.634 76.4975 305.799 77.2303 305.1ZM68.8286 295.949H74.4184V297.159H68.8286V295.949ZM71.2145 292.285H72.4074V307.946H71.2145V292.285ZM71.1804 296.699L71.9643 296.971C71.436 299.681 70.2942 303.038 69.0502 304.742C68.9138 304.402 68.6241 303.924 68.4026 303.635C69.5444 302.101 70.7032 299.136 71.1804 296.699ZM72.3052 298.318C72.6972 298.761 74.1628 300.874 74.4695 301.368L73.7538 302.357C73.3788 301.521 72.1859 299.528 71.7598 298.863L72.3052 298.318ZM80.2809 305.867L81.2011 305.168C82.2918 305.731 83.7574 306.6 84.5073 307.196L83.5359 307.997C82.8372 307.401 81.4056 306.481 80.2809 305.867ZM85.6832 306.958C86.5182 305.612 87.6942 303.328 88.5463 301.351L89.5688 302.135C88.7678 303.958 87.7112 306.14 86.825 307.742L85.6832 306.958ZM92.7727 303.941L94.0679 304.385C93.0624 305.731 91.5627 307.111 90.2675 307.997C90.0289 307.759 89.4836 307.333 89.1768 307.128C90.5061 306.344 91.9035 305.117 92.7727 303.941ZM96.556 304.572L97.6126 303.941C98.8908 304.896 100.459 306.293 101.208 307.248L100.05 307.98C99.3509 307.043 97.8342 305.577 96.556 304.572ZM98.8056 292.489L99.8281 293.495C97.6978 294.193 94.6132 294.773 91.9547 295.165C91.9035 294.875 91.7331 294.415 91.5627 294.125C94.136 293.733 97.1184 293.103 98.8056 292.489ZM89.5347 302.016H101.106V303.226H89.5347V302.016ZM91.9206 297.056H100.731V298.249H91.9206V297.056ZM97.0502 297.653H98.2943V302.868H97.0502V297.653ZM91.29 293.767L92.5682 294.074V302.783H91.29V293.767ZM86.1945 293.358L86.9102 292.438C88.0009 292.898 89.3643 293.682 90.0289 294.296L89.2791 295.335C88.6315 294.705 87.2851 293.87 86.1945 293.358ZM85.2742 297.977L85.9559 297.022C87.0636 297.448 88.444 298.198 89.1427 298.778L88.427 299.834C87.7453 299.238 86.399 298.454 85.2742 297.977ZM110.957 298.13H117.381V299.272H110.957V298.13ZM106.952 306.174H115.541V307.316H106.952V306.174ZM110.343 296.102H111.638V302.339H110.343V296.102ZM106.27 301.726H116.24V307.963H114.927V302.885H107.514V307.997H106.27V301.726ZM109.747 292.302H111.059V295.199H109.747V292.302ZM104.072 294.5H117.62V295.727H104.072V294.5ZM103.441 294.5H104.719V298.914C104.719 301.538 104.481 305.39 103.015 307.98C102.793 307.759 102.231 307.401 101.924 307.265C103.322 304.811 103.441 301.368 103.441 298.914V294.5Z" fill="#424242"/>
</g>
<g clip-path="url(#clip1_50_831)">
<rect width="127.815" height="26" transform="translate(0 339.4)" fill="white"/>
<path d="M13.0373 351.345H27.8127V352.316H13.0373V351.345ZM12.7646 358.383H28.0513V359.388H12.7646V358.383ZM16.2241 354.105V355.605H24.4895V354.105H16.2241ZM14.9801 353.202H25.8018V356.508H14.9801V353.202ZM16.5479 356.781L17.6386 356.44C18.0476 356.968 18.4566 357.701 18.61 358.213L17.4512 358.622C17.3148 358.093 16.9399 357.343 16.5479 356.781ZM23.1262 356.372L24.2509 356.781C23.859 357.463 23.4329 358.127 23.075 358.622L22.0695 358.23C22.4104 357.718 22.8876 356.9 23.1262 356.372ZM15.5084 348.311V349.538H25.103V348.311H15.5084ZM15.5084 346.232V347.442H25.103V346.232H15.5084ZM14.3325 345.312H26.3301V350.458H14.3325V345.312ZM17.8602 344.068H18.9679V350.135H17.8602V344.068ZM21.4731 344.068H22.6149V350.135H21.4731V344.068ZM29.6873 347.681H44.565V348.976H29.6873V347.681ZM33.0957 355.281H41.0373V356.577H33.0957V355.281ZM36.4189 344.102H37.7653V359.763H36.4189V344.102ZM36.027 348.107L37.1688 348.499C35.6521 352.112 32.9764 355.367 30.0282 357.088C29.8237 356.764 29.3976 356.287 29.1079 356.031C31.9539 354.549 34.6636 351.379 36.027 348.107ZM38.1913 348.158C39.5376 351.396 42.2132 354.497 45.1615 355.912C44.8377 356.185 44.3946 356.696 44.1901 357.054C41.1737 355.384 38.5492 352.129 37.0495 348.55L38.1913 348.158Z" fill="#424242"/>
<rect x="57.5168" y="339.4" width="1.06513" height="25.5631" fill="#B3B3B3"/>
<path d="M79.2413 356.594L80.1104 355.759C81.559 356.611 83.4166 357.906 84.3198 358.809L83.4166 359.78C82.5475 358.86 80.741 357.514 79.2413 356.594ZM72.9017 349.879H84.3198V351.106H72.9017V349.879ZM79.105 346.454H83.6722V347.646H79.105V346.454ZM78.3892 344.085H79.6503V350.663H78.3892V344.085ZM74.9467 345.533H76.1737V350.561H74.9467V345.533ZM73.9753 352.299L74.9126 351.6C75.884 352.367 77.0599 353.492 77.5882 354.276L76.5998 355.043C76.0885 354.259 74.9637 353.1 73.9753 352.299ZM82.4282 351.396L83.587 352.146C82.6156 353.151 81.3886 354.31 80.4172 355.043L79.4799 354.395C80.4172 353.628 81.6954 352.35 82.4282 351.396ZM72.8676 358.57C74.0094 357.94 75.7818 356.866 77.4689 355.81L77.8779 356.917C76.4294 357.906 74.8445 358.911 73.6004 359.678L72.8676 358.57ZM69.4933 345.158L70.209 344.238C71.2827 344.698 72.629 345.465 73.2766 346.062L72.5438 347.101C71.8962 346.488 70.5839 345.67 69.4933 345.158ZM68.59 349.794L69.2887 348.839C70.3794 349.248 71.7598 349.981 72.4415 350.544L71.7087 351.6C71.0441 351.021 69.6978 350.254 68.59 349.794ZM69.1013 358.707C69.9704 357.395 71.2145 355.128 72.1348 353.185L73.1062 353.969C72.2711 355.776 71.1463 357.94 70.209 359.525L69.1013 358.707ZM88.9212 357.957H97.5104V359.082H88.9212V357.957ZM88.427 352.93H98.0557V359.763H96.7094V354.071H89.7392V359.78H88.427V352.93ZM93.1476 348.567C91.7502 350.731 89.0064 353.236 86.1604 354.821C85.9899 354.531 85.6491 354.088 85.3594 353.816C88.3077 352.282 91.1196 349.64 92.4318 347.323H93.71C95.4824 349.947 98.4477 352.384 101.123 353.628C100.817 353.935 100.527 354.378 100.305 354.736C97.6637 353.321 94.7155 350.85 93.1476 348.567ZM94.7666 345.107L95.755 344.409C97.3911 345.567 99.4191 347.255 100.39 348.43L99.3168 349.231C98.4136 348.056 96.4367 346.317 94.7666 345.107ZM90.2845 344.46L91.5457 344.903C90.3527 346.624 88.5633 348.311 86.9784 349.385C86.7398 349.146 86.2285 348.686 85.9218 348.482C87.5578 347.51 89.245 345.993 90.2845 344.46ZM110.957 349.93H117.381V351.072H110.957V349.93ZM106.952 357.974H115.541V359.116H106.952V357.974ZM110.343 347.902H111.638V354.14H110.343V347.902ZM106.27 353.526H116.24V359.763H114.927V354.685H107.514V359.797H106.27V353.526ZM109.747 344.102H111.059V346.999H109.747V344.102ZM104.072 346.3H117.62V347.527H104.072V346.3ZM103.441 346.3H104.719V350.714C104.719 353.339 104.481 357.19 103.015 359.78C102.793 359.559 102.231 359.201 101.924 359.065C103.322 356.611 103.441 353.168 103.441 350.714V346.3Z" fill="#424242"/>
</g>
<g clip-path="url(#clip2_50_831)">
<rect width="127.815" height="26" transform="translate(0 313.2)" fill="#DFE2F4"/>
<path d="M15.8322 321.787H26.1256V322.946H15.8322V321.787ZM15.8322 325.196H25.921V326.304H15.8322V325.196ZM15.5424 328.689H25.9892V329.814H15.5424V328.689ZM15.1334 321.787H16.3775V326.065C16.3775 328.485 15.9344 331.621 13.327 333.649C13.1566 333.393 12.6964 332.933 12.4408 332.745C14.8608 330.871 15.1334 328.229 15.1334 326.048V321.787ZM25.4439 321.787H26.722V331.944C26.722 332.78 26.5005 333.189 25.8699 333.376C25.2223 333.58 24.0975 333.598 22.3763 333.598C22.3081 333.257 22.0695 332.694 21.8821 332.353C23.2454 332.405 24.5747 332.405 24.9667 332.37C25.3416 332.37 25.4439 332.268 25.4439 331.944V321.787ZM20.1608 322.265H21.3708V329.252H20.1608V322.265ZM17.4512 318.89H22.8194V319.981H17.4512V318.89ZM17.6216 317.851L19.002 318.089C17.8772 320.117 16.173 322.384 13.753 324.139C13.5485 323.832 13.1395 323.406 12.8328 323.219C15.1334 321.668 16.7524 319.555 17.6216 317.851ZM22.3933 318.89H22.666L22.8876 318.839L23.7397 319.402C23.1602 320.543 22.1888 321.873 21.4049 322.708C21.1663 322.52 20.7573 322.265 20.4846 322.111C21.2004 321.344 22.0014 320.032 22.3933 319.129V318.89ZM30.9144 331.092H43.3721V332.388H30.9144V331.092ZM30.9484 325.008H43.3721V326.286H30.9484V325.008ZM30.2327 319.061H44.0367V333.427H42.7245V320.305H31.4938V333.427H30.2327V319.061ZM36.3678 319.657H37.663V331.74H36.3678V319.657Z" fill="#424242"/>
<rect x="57.5168" y="313.2" width="1.06513" height="25.5631" fill="#B3B3B3"/>
<path d="M79.2413 330.394L80.1104 329.559C81.559 330.411 83.4166 331.706 84.3198 332.609L83.4166 333.58C82.5475 332.66 80.741 331.314 79.2413 330.394ZM72.9017 323.679H84.3198V324.906H72.9017V323.679ZM79.105 320.254H83.6722V321.447H79.105V320.254ZM78.3892 317.885H79.6503V324.463H78.3892V317.885ZM74.9467 319.333H76.1737V324.361H74.9467V319.333ZM73.9753 326.099L74.9126 325.4C75.884 326.167 77.0599 327.292 77.5882 328.076L76.5998 328.843C76.0885 328.059 74.9637 326.9 73.9753 326.099ZM82.4282 325.196L83.587 325.946C82.6156 326.951 81.3886 328.11 80.4172 328.843L79.4799 328.195C80.4172 327.428 81.6954 326.15 82.4282 325.196ZM72.8676 332.37C74.0094 331.74 75.7818 330.666 77.4689 329.61L77.8779 330.717C76.4294 331.706 74.8445 332.711 73.6004 333.478L72.8676 332.37ZM69.4933 318.958L70.209 318.038C71.2827 318.498 72.629 319.265 73.2766 319.862L72.5438 320.901C71.8962 320.288 70.5839 319.47 69.4933 318.958ZM68.59 323.594L69.2887 322.639C70.3794 323.048 71.7598 323.781 72.4415 324.344L71.7087 325.4C71.0441 324.821 69.6978 324.054 68.59 323.594ZM69.1013 332.507C69.9704 331.195 71.2145 328.928 72.1348 326.985L73.1062 327.769C72.2711 329.576 71.1463 331.74 70.209 333.325L69.1013 332.507ZM88.9212 331.757H97.5104V332.882H88.9212V331.757ZM88.427 326.73H98.0557V333.563H96.7094V327.871H89.7392V333.58H88.427V326.73ZM93.1476 322.367C91.7502 324.531 89.0064 327.036 86.1604 328.621C85.9899 328.332 85.6491 327.888 85.3594 327.616C88.3077 326.082 91.1196 323.44 92.4318 321.123H93.71C95.4824 323.747 98.4477 326.184 101.123 327.428C100.817 327.735 100.527 328.178 100.305 328.536C97.6637 327.122 94.7155 324.65 93.1476 322.367ZM94.7666 318.907L95.755 318.209C97.3911 319.367 99.4191 321.055 100.39 322.23L99.3168 323.031C98.4136 321.856 96.4367 320.117 94.7666 318.907ZM90.2845 318.26L91.5457 318.703C90.3527 320.424 88.5633 322.111 86.9784 323.185C86.7398 322.946 86.2285 322.486 85.9218 322.282C87.5578 321.31 89.245 319.793 90.2845 318.26ZM110.957 323.73H117.381V324.872H110.957V323.73ZM106.952 331.774H115.541V332.916H106.952V331.774ZM110.343 321.702H111.638V327.94H110.343V321.702ZM106.27 327.326H116.24V333.563H114.927V328.485H107.514V333.598H106.27V327.326ZM109.747 317.902H111.059V320.799H109.747V317.902ZM104.072 320.1H117.62V321.327H104.072V320.1ZM103.441 320.1H104.719V324.514C104.719 327.139 104.481 330.99 103.015 333.58C102.793 333.359 102.231 333.001 101.924 332.865C103.322 330.411 103.441 326.968 103.441 324.514V320.1Z" fill="#424242"/>
</g>
<rect width="139.532" height="26" transform="translate(166 262)" fill="#4F60C6"/>
<path d="M193.297 272.53H199.722V273.672H193.297V272.53ZM189.292 280.574H197.881V281.716H189.292V280.574ZM192.684 270.502H193.979V276.739H192.684V270.502ZM188.611 276.126H198.58V282.363H197.268V277.285H189.855V282.397H188.611V276.126ZM192.087 266.702H193.399V269.599H192.087V266.702ZM186.412 268.9H199.961V270.127H186.412V268.9ZM185.782 268.9H187.06V273.314C187.06 275.939 186.821 279.79 185.356 282.38C185.134 282.159 184.572 281.801 184.265 281.665C185.662 279.211 185.782 275.768 185.782 273.314V268.9ZM206.658 280.506H214.889V281.682H206.658V280.506ZM206.079 268.406H212.333V269.548H206.079V268.406ZM206.846 266.634L208.277 266.923C206.999 269.139 204.954 271.456 201.989 273.212C201.801 272.888 201.375 272.445 201.085 272.223C203.897 270.69 205.857 268.491 206.846 266.634ZM211.907 268.406H212.146L212.384 268.338L213.236 268.798C211.191 273.945 206.385 277.37 201.75 278.87C201.597 278.529 201.273 278.001 201 277.728C205.414 276.45 210.135 273.11 211.907 268.627V268.406ZM203.948 271.439L204.903 270.621C206.249 271.542 207.885 272.905 208.669 273.876L207.629 274.797C206.914 273.825 205.295 272.394 203.948 271.439ZM214.259 275.12H215.571V282.397H214.259V275.12ZM207.238 275.12H214.906V276.296H207.238V282.363H205.959V276.126L206.982 275.12H207.238Z" fill="white"/>
<rect x="235.233" y="262" width="1.06513" height="25.5631" fill="#B3B3B3"/>
<path d="M256.634 268.542H257.844V277.932H256.634V268.542ZM260.11 266.991H261.371V280.608C261.371 281.477 261.167 281.852 260.622 282.074C260.093 282.278 259.122 282.329 257.793 282.329C257.742 281.954 257.554 281.358 257.367 280.966C258.406 281.017 259.412 281 259.753 281C260.025 280.983 260.11 280.898 260.11 280.608V266.991ZM248.249 280.438H253.975V281.46H248.249V280.438ZM246.613 275.086H255.424V276.109H246.613V275.086ZM247.55 270.894H254.623V271.865H247.55V270.894ZM247.636 272.973H254.418V273.911H247.636V272.973ZM250.431 266.736H251.675V268.849H250.431V266.736ZM250.465 269.786H251.658V275.649H250.465V269.786ZM247.636 277.046H254.64V282.142H253.43V278.052H248.812V282.329H247.636V277.046ZM246.613 268.27H255.611V270.962H254.418V269.292H247.755V270.962H246.613V268.27ZM270.199 266.685H271.58V273.416H270.199V266.685ZM264.439 267.912L265.598 267.435C266.552 268.627 267.473 270.246 267.865 271.32L266.655 271.865C266.28 270.758 265.342 269.105 264.439 267.912ZM276.045 267.298L277.408 267.758C276.692 269.207 275.721 270.877 274.954 271.985L273.846 271.542C274.596 270.417 275.533 268.593 276.045 267.298ZM264.678 272.718H277.187V282.38H275.84V273.996H264.678V272.718ZM265.257 276.467H276.351V277.711H265.257V276.467ZM264.354 280.369H276.522V281.631H264.354V280.369ZM289.184 274.916H290.462V280.284C290.462 280.795 290.582 280.881 291.229 280.881C291.519 280.881 292.984 280.881 293.393 280.881C294.024 280.881 294.109 280.54 294.177 278.324C294.467 278.546 295.012 278.75 295.37 278.836C295.234 281.426 294.859 282.108 293.479 282.108C293.155 282.108 291.4 282.108 291.076 282.108C289.559 282.108 289.184 281.682 289.184 280.267V274.916ZM280.152 274.03H295.132V275.257H280.152V274.03ZM282.947 269.343H293.905V270.587H282.947V269.343ZM284.634 274.967H285.963C285.622 278.444 284.736 281.085 280.731 282.466C280.578 282.125 280.203 281.631 279.913 281.375C283.645 280.216 284.344 277.932 284.634 274.967ZM283.288 267.094L284.583 267.349C284.054 269.292 283.151 271.678 281.958 273.195C281.669 272.99 281.157 272.718 280.851 272.581C282.009 271.15 282.879 268.866 283.288 267.094ZM286.986 266.702H288.281V274.422H286.986V266.702Z" fill="white"/>
<g clip-path="url(#clip3_50_831)">
<rect width="139.532" height="26" transform="translate(166 287.4)" fill="white"/>
<path d="M181.649 296.43H191.738V297.538H181.649V296.43ZM182.126 293.67H191.363V294.726H182.126V293.67ZM184.137 292.102H185.364V297.112H184.137V292.102ZM186.046 297.146H187.239V304.099H186.046V297.146ZM188.074 292.102H189.284V297.163H188.074V292.102ZM183.524 302.105V303.588H189.914V302.105H183.524ZM183.524 299.737V301.202H189.914V299.737H183.524ZM182.399 298.782H191.09V304.542H182.399V298.782ZM184.648 304.9L185.756 305.599C184.802 306.417 183.268 307.286 182.024 307.78C181.836 307.542 181.444 307.15 181.172 306.911C182.416 306.434 183.916 305.599 184.648 304.9ZM176.247 295.749H181.836V296.959H176.247V295.749ZM178.632 292.085H179.825V307.746H178.632V292.085ZM178.598 296.499L179.382 296.771C178.854 299.481 177.712 302.838 176.468 304.542C176.332 304.202 176.042 303.724 175.821 303.435C176.962 301.901 178.121 298.936 178.598 296.499ZM179.723 298.118C180.115 298.561 181.581 300.674 181.887 301.168L181.172 302.157C180.797 301.321 179.604 299.328 179.178 298.663L179.723 298.118ZM187.699 305.667L188.619 304.968C189.71 305.531 191.175 306.4 191.925 306.996L190.954 307.797C190.255 307.201 188.824 306.281 187.699 305.667ZM193.101 306.758C193.936 305.412 195.112 303.128 195.964 301.151L196.987 301.935C196.186 303.759 195.129 305.94 194.243 307.542L193.101 306.758ZM200.191 303.741L201.486 304.185C200.48 305.531 198.981 306.911 197.685 307.797C197.447 307.559 196.902 307.133 196.595 306.928C197.924 306.144 199.322 304.917 200.191 303.741ZM203.974 304.372L205.031 303.741C206.309 304.696 207.877 306.093 208.626 307.048L207.468 307.78C206.769 306.843 205.252 305.378 203.974 304.372ZM206.224 292.289L207.246 293.295C205.116 293.993 202.031 294.573 199.373 294.965C199.322 294.675 199.151 294.215 198.981 293.925C201.554 293.533 204.536 292.903 206.224 292.289ZM196.953 301.816H208.524V303.026H196.953V301.816ZM199.339 296.856H208.149V298.049H199.339V296.856ZM204.468 297.453H205.712V302.668H204.468V297.453ZM198.708 293.567L199.986 293.874V302.583H198.708V293.567ZM193.612 293.158L194.328 292.238C195.419 292.698 196.782 293.482 197.447 294.096L196.697 295.135C196.049 294.505 194.703 293.67 193.612 293.158ZM192.692 297.777L193.374 296.822C194.482 297.248 195.862 297.998 196.561 298.578L195.845 299.634C195.163 299.038 193.817 298.254 192.692 297.777ZM218.375 297.93H224.799V299.072H218.375V297.93ZM214.37 305.974H222.959V307.116H214.37V305.974ZM217.761 295.902H219.056V302.14H217.761V295.902ZM213.688 301.526H223.658V307.763H222.345V302.685H214.932V307.797H213.688V301.526ZM217.165 292.102H218.477V294.999H217.165V292.102ZM211.49 294.3H225.038V295.527H211.49V294.3ZM210.859 294.3H212.137V298.714C212.137 301.339 211.899 305.19 210.433 307.78C210.211 307.559 209.649 307.201 209.342 307.065C210.74 304.611 210.859 301.168 210.859 298.714V294.3Z" fill="#424242"/>
<rect x="235.233" y="287.4" width="1.06513" height="25.5631" fill="#B3B3B3"/>
<path d="M253.617 298.407H261.082V299.532H253.617V298.407ZM253.583 301.782H261.269V302.94H253.583V301.782ZM256.634 292.085H257.861V307.763H256.634V292.085ZM252.97 295.05H261.678V303.588H260.468V296.209H254.163V303.673H252.97V295.05ZM246.613 295.289H251.76V296.465H246.613V295.289ZM248.948 292.102H250.192V295.868H248.948V292.102ZM250.328 299.157C250.788 299.498 252.356 300.947 252.731 301.321L251.981 302.361C251.487 301.731 250.141 300.333 249.595 299.805L250.328 299.157ZM251.3 295.289H251.572L251.794 295.237L252.51 295.698C251.334 298.799 248.914 301.662 246.647 303.247C246.528 302.923 246.204 302.327 245.983 302.105C248.113 300.725 250.345 298.135 251.3 295.561V295.289ZM248.948 300.418L250.192 298.884V307.746H248.948V300.418ZM263.502 294.317H278.311V295.476H263.502V294.317ZM264.78 301.27H277.05V302.395H264.78V301.27ZM267.353 298.169H274.494V299.293H267.353V298.169ZM273.131 294.811C274.289 296.771 276.624 298.612 278.908 299.464C278.618 299.703 278.226 300.18 278.022 300.503C275.721 299.498 273.386 297.453 272.074 295.203L273.131 294.811ZM270.267 301.884H271.546V306.417C271.546 307.099 271.392 307.423 270.864 307.593C270.336 307.763 269.501 307.78 268.239 307.78C268.154 307.44 267.95 306.979 267.762 306.656C268.751 306.69 269.671 306.69 269.927 306.673C270.182 306.673 270.267 306.605 270.267 306.4V301.884ZM266.74 303.349L267.967 303.707C267.115 305.071 265.768 306.4 264.558 307.286C264.32 307.065 263.826 306.639 263.536 306.468C264.746 305.684 265.99 304.525 266.74 303.349ZM273.505 303.946L274.528 303.332C275.721 304.321 277.204 305.701 277.919 306.622L276.829 307.303C276.147 306.4 274.698 304.951 273.505 303.946ZM269.705 292.085L271.103 292.272C270.08 295.425 267.796 298.663 263.689 300.657C263.502 300.333 263.093 299.89 262.803 299.685C266.791 297.896 268.955 294.846 269.705 292.085ZM281.822 293.022H283.117V298.833C283.117 302.088 282.879 305.36 280.646 307.9C280.407 307.627 279.896 307.218 279.572 307.014C281.583 304.713 281.822 301.765 281.822 298.816V293.022ZM287.241 293.721H288.519V306.264H287.241V293.721ZM292.967 292.971H294.297V307.746H292.967V292.971Z" fill="#424242"/>
</g>
<g clip-path="url(#clip4_50_831)">
<rect width="139.532" height="26" transform="translate(166 313.2)" fill="#DFE2F4"/>
<path d="M186.659 330.394L187.528 329.559C188.977 330.411 190.835 331.706 191.738 332.609L190.835 333.58C189.965 332.66 188.159 331.314 186.659 330.394ZM180.32 323.679H191.738V324.906H180.32V323.679ZM186.523 320.254H191.09V321.447H186.523V320.254ZM185.807 317.885H187.068V324.463H185.807V317.885ZM182.365 319.333H183.592V324.361H182.365V319.333ZM181.393 326.099L182.331 325.4C183.302 326.167 184.478 327.292 185.006 328.076L184.018 328.843C183.506 328.059 182.382 326.9 181.393 326.099ZM189.846 325.196L191.005 325.946C190.034 326.951 188.807 328.11 187.835 328.843L186.898 328.195C187.835 327.428 189.113 326.15 189.846 325.196ZM180.286 332.37C181.427 331.74 183.2 330.666 184.887 329.61L185.296 330.717C183.847 331.706 182.262 332.711 181.018 333.478L180.286 332.37ZM176.911 318.958L177.627 318.038C178.701 318.498 180.047 319.265 180.695 319.862L179.962 320.901C179.314 320.288 178.002 319.47 176.911 318.958ZM176.008 323.594L176.707 322.639C177.797 323.048 179.178 323.781 179.859 324.344L179.127 325.4C178.462 324.821 177.116 324.054 176.008 323.594ZM176.519 332.507C177.388 331.195 178.632 328.928 179.553 326.985L180.524 327.769C179.689 329.576 178.564 331.74 177.627 333.325L176.519 332.507ZM196.339 331.757H204.928V332.882H196.339V331.757ZM195.845 326.73H205.474V333.563H204.127V327.871H197.157V333.58H195.845V326.73ZM200.566 322.367C199.168 324.531 196.424 327.036 193.578 328.621C193.408 328.332 193.067 327.888 192.777 327.616C195.726 326.082 198.538 323.44 199.85 321.123H201.128C202.9 323.747 205.866 326.184 208.541 327.428C208.234 327.735 207.945 328.178 207.723 328.536C205.082 327.122 202.133 324.65 200.566 322.367ZM202.185 318.907L203.173 318.209C204.809 319.367 206.837 321.055 207.808 322.23L206.735 323.031C205.832 321.856 203.855 320.117 202.185 318.907ZM197.703 318.26L198.964 318.703C197.771 320.424 195.981 322.111 194.396 323.185C194.158 322.946 193.647 322.486 193.34 322.282C194.976 321.31 196.663 319.793 197.703 318.26ZM218.375 323.73H224.799V324.872H218.375V323.73ZM214.37 331.774H222.959V332.916H214.37V331.774ZM217.761 321.702H219.056V327.94H217.761V321.702ZM213.688 327.326H223.658V333.563H222.345V328.485H214.932V333.598H213.688V327.326ZM217.165 317.902H218.477V320.799H217.165V317.902ZM211.49 320.1H225.038V321.327H211.49V320.1ZM210.859 320.1H212.137V324.514C212.137 327.139 211.899 330.99 210.433 333.58C210.211 333.359 209.649 333.001 209.342 332.865C210.74 330.411 210.859 326.968 210.859 324.514V320.1Z" fill="#424242"/>
<rect x="235.233" y="313.2" width="1.06513" height="25.5631" fill="#B3B3B3"/>
<path d="M255.143 319.521H270.037V320.714H255.143V319.521ZM261.84 317.902H263.169V333.563H261.84V317.902ZM261.448 327.667L262.522 328.144C260.92 330.291 258.108 332.285 255.62 333.308C255.415 332.984 255.023 332.49 254.717 332.234C257.205 331.365 260 329.542 261.448 327.667ZM263.595 327.684C265.061 329.559 267.907 331.382 270.429 332.234C270.123 332.49 269.731 332.984 269.526 333.342C267.004 332.336 264.158 330.291 262.556 328.161L263.595 327.684ZM257.886 325.758V327.394H267.362V325.758H257.886ZM257.886 323.168V324.787H267.362V323.168H257.886ZM256.642 322.162H268.657V328.417H256.642V322.162ZM271.844 319.862H286.722V321.089H271.844V319.862ZM278.558 317.885H279.905V320.509H278.558V317.885ZM275.201 323.781V326.576H283.415V323.781H275.201ZM273.94 322.657H284.762V327.718H273.94V322.657ZM282.444 329.286L283.603 328.723C284.745 329.831 286.159 331.399 286.858 332.405L285.614 333.052C284.983 332.064 283.603 330.428 282.444 329.286ZM278.575 327.241H279.905V332.081C279.905 332.831 279.734 333.189 279.138 333.376C278.558 333.563 277.587 333.58 276.07 333.563C276.002 333.223 275.815 332.711 275.644 332.37C276.803 332.405 277.877 332.388 278.183 332.37C278.49 332.37 278.575 332.302 278.575 332.064V327.241ZM274.656 328.706L275.951 329.115C275.133 330.462 273.821 331.979 272.543 332.933C272.287 332.694 271.827 332.353 271.537 332.183C272.764 331.297 274.025 329.882 274.656 328.706Z" fill="#424242"/>
</g>
<g clip-path="url(#clip5_50_831)">
<rect width="139.532" height="26" transform="translate(166 338.8)" fill="white"/>
<path d="M177.013 346.535H190.749V354.562H189.42V347.796H178.292V354.647H177.013V346.535ZM177.695 352.33H190.187V353.574H177.695V352.33ZM183.183 343.485H184.512V359.146H183.183V343.485ZM194.396 348.274V350.148H199.577V348.274H194.396ZM194.396 345.41V347.268H199.577V345.41H194.396ZM193.323 344.354H200.685V351.222H193.323V344.354ZM193.289 353.131H200.702V354.306H193.289V353.131ZM192.743 357.272C194.788 357.016 198.009 356.59 201.111 356.164L201.145 357.306C198.197 357.749 195.061 358.209 192.914 358.516L192.743 357.272ZM201.247 344.371H207.468V345.53H201.247V344.371ZM201.06 349.858H207.723V351.068H201.06V349.858ZM206.922 344.371H207.229L207.502 344.303L208.337 344.865C207.451 346.229 206.07 347.711 204.792 348.631C204.622 348.41 204.264 348.069 204.059 347.899C205.133 347.081 206.343 345.666 206.922 344.61V344.371ZM201.929 347.353L202.73 346.569C204.247 347.336 205.985 348.597 206.854 349.484L206.036 350.37C205.15 349.432 203.429 348.154 201.929 347.353ZM207.331 349.858H207.536L207.74 349.807L208.609 350.029C208.183 351.443 207.672 353.079 207.161 354.085L206.121 353.795C206.547 352.875 207.025 351.324 207.331 350.08V349.858ZM203.804 350.455H205.065V357.613C205.065 358.328 204.928 358.72 204.383 358.942C203.855 359.146 202.986 359.146 201.707 359.146C201.656 358.788 201.469 358.26 201.281 357.885C202.304 357.919 203.173 357.919 203.463 357.902C203.735 357.902 203.804 357.817 203.804 357.579V350.455ZM196.441 344.746H197.549V350.745H197.617V357.05H196.39V350.745H196.441V344.746ZM218.375 349.33H224.799V350.472H218.375V349.33ZM214.37 357.374H222.959V358.516H214.37V357.374ZM217.761 347.302H219.056V353.54H217.761V347.302ZM213.688 352.926H223.658V359.163H222.345V354.085H214.932V359.197H213.688V352.926ZM217.165 343.502H218.477V346.399H217.165V343.502ZM211.49 345.7H225.038V346.927H211.49V345.7ZM210.859 345.7H212.137V350.114C212.137 352.739 211.899 356.59 210.433 359.18C210.211 358.959 209.649 358.601 209.342 358.465C210.74 356.011 210.859 352.568 210.859 350.114V345.7Z" fill="#424242"/>
<rect x="235.233" y="338.8" width="1.06513" height="25.5631" fill="#B3B3B3"/>
<path d="M255.143 345.121H270.037V346.314H255.143V345.121ZM261.84 343.502H263.169V359.163H261.84V343.502ZM261.448 353.267L262.522 353.744C260.92 355.891 258.108 357.885 255.62 358.908C255.415 358.584 255.023 358.09 254.717 357.834C257.205 356.965 260 355.141 261.448 353.267ZM263.595 353.284C265.061 355.159 267.907 356.982 270.429 357.834C270.123 358.09 269.731 358.584 269.526 358.942C267.004 357.936 264.158 355.891 262.556 353.761L263.595 353.284ZM257.886 351.358V352.994H267.362V351.358H257.886ZM257.886 348.768V350.387H267.362V348.768H257.886ZM256.642 347.762H268.657V354.017H256.642V347.762ZM271.844 345.462H286.722V346.689H271.844V345.462ZM278.558 343.485H279.905V346.109H278.558V343.485ZM275.201 349.381V352.176H283.415V349.381H275.201ZM273.94 348.257H284.762V353.318H273.94V348.257ZM282.444 354.886L283.603 354.323C284.745 355.431 286.159 356.999 286.858 358.005L285.614 358.652C284.983 357.664 283.603 356.028 282.444 354.886ZM278.575 352.841H279.905V357.681C279.905 358.431 279.734 358.788 279.138 358.976C278.558 359.163 277.587 359.18 276.07 359.163C276.002 358.823 275.815 358.311 275.644 357.97C276.803 358.005 277.877 357.988 278.183 357.97C278.49 357.97 278.575 357.902 278.575 357.664V352.841ZM274.656 354.306L275.951 354.715C275.133 356.062 273.821 357.579 272.543 358.533C272.287 358.294 271.827 357.953 271.537 357.783C272.764 356.897 274.025 355.482 274.656 354.306Z" fill="#424242"/>
</g>
<rect width="139.532" height="26" transform="translate(344 262)" fill="#4F60C6"/>
<path d="M363.603 267.707H368.715V268.917H364.847V282.38H363.603V267.707ZM354.519 268.576H362.665V269.718H354.519V268.576ZM354.076 273.297H362.887V274.473H354.076V273.297ZM357.945 266.753H359.189V269.275H357.945V266.753ZM355.576 270.315L356.65 270.076C357.024 270.928 357.348 272.07 357.45 272.82L356.309 273.092C356.223 272.343 355.934 271.184 355.576 270.315ZM360.467 269.957L361.694 270.246C361.319 271.252 360.91 272.394 360.535 273.144L359.513 272.871C359.853 272.087 360.262 270.826 360.467 269.957ZM355.678 280.25H361.285V281.392H355.678V280.25ZM355.218 275.956H361.933V282.295H360.706V277.097H356.411V282.38H355.218V275.956ZM368.374 267.707H368.63L368.835 267.656L369.772 268.253C369.073 269.855 368.187 271.831 367.403 273.399C369.124 274.984 369.533 276.33 369.55 277.558C369.55 278.597 369.312 279.398 368.715 279.807C368.409 279.995 368.034 280.114 367.59 280.182C367.164 280.233 366.602 280.216 366.108 280.199C366.091 279.841 365.972 279.296 365.75 278.938C366.244 278.972 366.738 278.989 367.079 278.972C367.369 278.955 367.608 278.887 367.812 278.767C368.187 278.546 368.306 278.052 368.306 277.421C368.289 276.348 367.795 275.069 366.074 273.57C366.943 271.814 367.863 269.463 368.374 268.116V267.707ZM372.26 270.076H376.998V271.047H372.26V270.076ZM380.099 270.076H384.922V271.047H380.099V270.076ZM384.377 267.503H385.655V280.625C385.655 281.494 385.451 281.903 384.871 282.108C384.275 282.329 383.269 282.346 381.718 282.346C381.65 281.988 381.429 281.392 381.241 281.017C382.417 281.085 383.593 281.068 383.934 281.051C384.275 281.034 384.377 280.949 384.377 280.625V267.503ZM372.362 267.503H377.748V273.757H372.362V272.683H376.538V268.576H372.362V267.503ZM385.042 267.503V268.576H380.577V272.701H385.042V273.774H379.35V267.503H385.042ZM371.647 267.503H372.908V282.363H371.647V267.503ZM393.017 280.506H401.249V281.682H393.017V280.506ZM392.438 268.406H398.692V269.548H392.438V268.406ZM393.205 266.634L394.636 266.923C393.358 269.139 391.313 271.456 388.348 273.212C388.16 272.888 387.734 272.445 387.444 272.223C390.256 270.69 392.216 268.491 393.205 266.634ZM398.266 268.406H398.505L398.743 268.338L399.595 268.798C397.55 273.945 392.745 277.37 388.109 278.87C387.956 278.529 387.632 278.001 387.359 277.728C391.773 276.45 396.494 273.11 398.266 268.627V268.406ZM390.308 271.439L391.262 270.621C392.608 271.542 394.244 272.905 395.028 273.876L393.989 274.797C393.273 273.825 391.654 272.394 390.308 271.439ZM400.618 275.12H401.93V282.397H400.618V275.12ZM393.597 275.12H401.266V276.296H393.597V282.363H392.318V276.126L393.341 275.12H393.597Z" fill="white"/>
<rect x="413.233" y="262" width="1.06513" height="25.5631" fill="#B3B3B3"/>
<path d="M424.698 268.474H431.839V269.582H424.698V268.474ZM424.357 272.462H432.026V273.553H424.357V272.462ZM427.698 266.736H428.925V269.19H427.698V266.736ZM427.732 273.484H428.959V282.363H427.732V273.484ZM427.715 275.734L428.618 276.262C427.851 278.086 426.351 280.08 424.937 281.205C424.766 280.898 424.46 280.455 424.187 280.216C425.55 279.296 427.016 277.455 427.715 275.734ZM428.805 276.688C429.402 277.097 431.43 278.802 431.89 279.228L431.089 280.199C430.51 279.5 428.805 277.847 428.124 277.251L428.805 276.688ZM425.738 269.872L426.743 269.65C427.101 270.434 427.408 271.491 427.476 272.189L426.403 272.445C426.351 271.763 426.079 270.673 425.738 269.872ZM429.845 269.616L431.004 269.889C430.697 270.775 430.373 271.78 430.084 272.445L429.095 272.189C429.351 271.491 429.692 270.366 429.845 269.616ZM433.765 271.371V273.144H438.042V271.371H433.765ZM433.765 274.183V275.973H438.042V274.183H433.765ZM433.765 268.576V270.332H438.042V268.576H433.765ZM432.606 267.435H439.252V277.114H432.606V267.435ZM436.27 276.739H437.429V280.591C437.429 280.966 437.48 281.017 437.804 281.017C437.923 281.017 438.536 281.017 438.707 281.017C439.048 281.017 439.099 280.795 439.133 278.75C439.389 278.972 439.883 279.159 440.207 279.245C440.121 281.596 439.798 282.159 438.86 282.159C438.622 282.159 437.838 282.159 437.616 282.159C436.508 282.159 436.27 281.784 436.27 280.608V276.739ZM433.748 276.808H434.924C434.702 279.568 434.054 281.392 431.396 282.414C431.277 282.142 430.936 281.699 430.68 281.477C433.049 280.642 433.56 279.142 433.748 276.808ZM424.528 275.291H431.873V276.399H424.528V275.291ZM450.619 267.707H455.732V268.917H451.863V282.38H450.619V267.707ZM441.536 268.576H449.682V269.718H441.536V268.576ZM441.093 273.297H449.903V274.473H441.093V273.297ZM444.961 266.753H446.205V269.275H444.961V266.753ZM442.592 270.315L443.666 270.076C444.041 270.928 444.365 272.07 444.467 272.82L443.325 273.092C443.24 272.343 442.95 271.184 442.592 270.315ZM447.484 269.957L448.711 270.246C448.336 271.252 447.927 272.394 447.552 273.144L446.529 272.871C446.87 272.087 447.279 270.826 447.484 269.957ZM442.695 280.25H448.302V281.392H442.695V280.25ZM442.235 275.956H448.949V282.295H447.722V277.097H443.428V282.38H442.235V275.956ZM455.391 267.707H455.647L455.851 267.656L456.788 268.253C456.09 269.855 455.204 271.831 454.42 273.399C456.141 274.984 456.55 276.33 456.567 277.558C456.567 278.597 456.328 279.398 455.732 279.807C455.425 279.995 455.05 280.114 454.607 280.182C454.181 280.233 453.619 280.216 453.124 280.199C453.107 279.841 452.988 279.296 452.767 278.938C453.261 278.972 453.755 278.989 454.096 278.972C454.386 278.955 454.624 278.887 454.829 278.767C455.204 278.546 455.323 278.052 455.323 277.421C455.306 276.348 454.812 275.069 453.09 273.57C453.959 271.814 454.88 269.463 455.391 268.116V267.707ZM459.277 270.076H464.014V271.047H459.277V270.076ZM467.116 270.076H471.939V271.047H467.116V270.076ZM471.393 267.503H472.672V280.625C472.672 281.494 472.467 281.903 471.888 282.108C471.291 282.329 470.286 282.346 468.735 282.346C468.667 281.988 468.445 281.392 468.258 281.017C469.434 281.085 470.61 281.068 470.95 281.051C471.291 281.034 471.393 280.949 471.393 280.625V267.503ZM459.379 267.503H464.764V273.757H459.379V272.683H463.554V268.576H459.379V267.503ZM472.058 267.503V268.576H467.593V272.701H472.058V273.774H466.366V267.503H472.058ZM458.663 267.503H459.924V282.363H458.663V267.503Z" fill="white"/>
<g clip-path="url(#clip6_50_831)">
<rect width="139.532" height="26" transform="translate(344 287.6)" fill="white"/>
<path d="M361.319 298.607H368.783V299.732H361.319V298.607ZM361.285 301.982H368.971V303.14H361.285V301.982ZM364.335 292.285H365.562V307.963H364.335V292.285ZM360.671 295.25H369.38V303.788H368.17V296.409H361.864V303.873H360.671V295.25ZM354.315 295.489H359.461V296.664H354.315V295.489ZM356.65 292.302H357.894V296.068H356.65V292.302ZM358.03 299.357C358.49 299.698 360.058 301.147 360.433 301.521L359.683 302.561C359.189 301.93 357.842 300.533 357.297 300.005L358.03 299.357ZM359.001 295.489H359.274L359.496 295.437L360.211 295.898C359.035 298.999 356.615 301.862 354.349 303.447C354.23 303.123 353.906 302.527 353.684 302.305C355.814 300.925 358.047 298.335 359.001 295.761V295.489ZM356.65 300.618L357.894 299.084V307.946H356.65V300.618ZM371.203 294.517H386.013V295.676H371.203V294.517ZM372.482 301.47H384.752V302.595H372.482V301.47ZM375.055 298.369H382.196V299.493H375.055V298.369ZM380.832 295.011C381.991 296.971 384.326 298.812 386.609 299.664C386.32 299.902 385.928 300.38 385.723 300.703C383.423 299.698 381.088 297.653 379.776 295.403L380.832 295.011ZM377.969 302.084H379.247V306.617C379.247 307.299 379.094 307.622 378.566 307.793C378.037 307.963 377.202 307.98 375.941 307.98C375.856 307.64 375.651 307.179 375.464 306.856C376.452 306.89 377.373 306.89 377.628 306.873C377.884 306.873 377.969 306.804 377.969 306.6V302.084ZM374.441 303.549L375.668 303.907C374.816 305.271 373.47 306.6 372.26 307.486C372.021 307.265 371.527 306.839 371.237 306.668C372.447 305.884 373.692 304.725 374.441 303.549ZM381.207 304.146L382.23 303.532C383.423 304.521 384.905 305.901 385.621 306.822L384.53 307.503C383.849 306.6 382.4 305.151 381.207 304.146ZM377.407 292.285L378.804 292.472C377.782 295.625 375.498 298.863 371.391 300.857C371.203 300.533 370.794 300.09 370.505 299.885C374.493 298.096 376.657 295.045 377.407 292.285ZM389.524 293.222H390.819V299.033C390.819 302.288 390.58 305.56 388.348 308.1C388.109 307.827 387.598 307.418 387.274 307.213C389.285 304.913 389.524 301.965 389.524 299.016V293.222ZM394.943 293.921H396.221V306.464H394.943V293.921ZM400.669 293.171H401.998V307.946H400.669V293.171Z" fill="#424242"/>
<rect x="413.233" y="287.6" width="1.06513" height="25.5631" fill="#B3B3B3"/>
<path d="M436.364 300.499H444.714V301.453H436.364V300.499ZM436.091 302.8H444.987V303.788H436.091V302.8ZM439.806 300.959H440.982V302.646C440.982 304.146 440.488 305.986 436.687 307.179C436.517 306.924 436.176 306.532 435.938 306.327C439.448 305.356 439.806 303.737 439.806 302.629V300.959ZM440.965 303.209C441.578 304.725 442.976 305.782 444.987 306.191C444.731 306.413 444.424 306.839 444.271 307.128C442.141 306.566 440.675 305.288 439.976 303.43L440.965 303.209ZM437.437 299.101L438.443 298.778C438.852 299.306 439.244 300.022 439.38 300.499L438.323 300.857C438.187 300.346 437.829 299.63 437.437 299.101ZM442.414 298.744L443.572 299.119C443.163 299.783 442.737 300.465 442.379 300.942L441.527 300.601C441.834 300.073 442.226 299.272 442.414 298.744ZM434.199 295.318H438.988V296.187H434.199V295.318ZM442.022 295.318H446.861V296.187H442.022V295.318ZM446.384 293.017H447.645V306.447C447.645 307.145 447.492 307.52 447.032 307.742C446.606 307.946 445.873 307.963 444.782 307.963C444.748 307.64 444.578 307.077 444.407 306.736C445.157 306.77 445.873 306.77 446.095 306.753C446.299 306.753 446.384 306.668 446.384 306.43V293.017ZM434.301 293.017H439.772V298.556H434.301V297.602H438.562V293.972H434.301V293.017ZM446.998 293.017V293.972H442.499V297.619H446.998V298.573H441.272V293.017H446.998ZM433.535 293.017H434.796V307.98H433.535V293.017ZM449.861 293.921H464.756V295.114H449.861V293.921ZM456.558 292.302H457.888V307.963H456.558V292.302ZM456.166 302.067L457.24 302.544C455.638 304.691 452.826 306.685 450.338 307.708C450.134 307.384 449.742 306.89 449.435 306.634C451.923 305.765 454.718 303.941 456.166 302.067ZM458.314 302.084C459.779 303.958 462.625 305.782 465.148 306.634C464.841 306.89 464.449 307.384 464.244 307.742C461.722 306.736 458.876 304.691 457.274 302.561L458.314 302.084ZM452.605 300.158V301.794H462.08V300.158H452.605ZM452.605 297.568V299.187H462.08V297.568H452.605ZM451.361 296.562H463.375V302.817H451.361V296.562Z" fill="#424242"/>
</g>
<g clip-path="url(#clip7_50_831)">
<rect width="139.532" height="26" transform="translate(344 313.2)" fill="#DFE2F4"/>
<path d="M362.844 319.521H377.739V320.714H362.844V319.521ZM369.542 317.902H370.871V333.563H369.542V317.902ZM369.15 327.667L370.223 328.144C368.622 330.291 365.81 332.285 363.321 333.308C363.117 332.984 362.725 332.49 362.418 332.234C364.906 331.365 367.701 329.542 369.15 327.667ZM371.297 327.684C372.763 329.559 375.609 331.382 378.131 332.234C377.824 332.49 377.432 332.984 377.228 333.342C374.706 332.336 371.86 330.291 370.258 328.161L371.297 327.684ZM365.588 325.758V327.394H375.063V325.758H365.588ZM365.588 323.168V324.787H375.063V323.168H365.588ZM364.344 322.162H376.359V328.417H364.344V322.162ZM379.545 319.862H394.423V321.089H379.545V319.862ZM386.26 317.885H387.606V320.509H386.26V317.885ZM382.903 323.781V326.576H391.117V323.781H382.903ZM381.642 322.657H392.463V327.718H381.642V322.657ZM390.146 329.286L391.304 328.723C392.446 329.831 393.861 331.399 394.56 332.405L393.315 333.052C392.685 332.064 391.304 330.428 390.146 329.286ZM386.277 327.241H387.606V332.081C387.606 332.831 387.436 333.189 386.839 333.376C386.26 333.563 385.289 333.58 383.772 333.563C383.704 333.223 383.516 332.711 383.346 332.37C384.505 332.405 385.578 332.388 385.885 332.37C386.192 332.37 386.277 332.302 386.277 332.064V327.241ZM382.357 328.706L383.653 329.115C382.835 330.462 381.522 331.979 380.244 332.933C379.989 332.694 379.528 332.353 379.239 332.183C380.466 331.297 381.727 329.882 382.357 328.706Z" fill="#424242"/>
<rect x="413.233" y="313.2" width="1.06513" height="25.5631" fill="#B3B3B3"/>
<path d="M436.364 326.099H444.714V327.053H436.364V326.099ZM436.091 328.4H444.987V329.388H436.091V328.4ZM439.806 326.559H440.982V328.246C440.982 329.746 440.488 331.587 436.687 332.78C436.517 332.524 436.176 332.132 435.938 331.927C439.448 330.956 439.806 329.337 439.806 328.229V326.559ZM440.965 328.809C441.578 330.325 442.976 331.382 444.987 331.791C444.731 332.013 444.424 332.439 444.271 332.728C442.141 332.166 440.675 330.888 439.976 329.03L440.965 328.809ZM437.437 324.702L438.443 324.378C438.852 324.906 439.244 325.622 439.38 326.099L438.323 326.457C438.187 325.946 437.829 325.23 437.437 324.702ZM442.414 324.344L443.572 324.719C443.163 325.383 442.737 326.065 442.379 326.542L441.527 326.201C441.834 325.673 442.226 324.872 442.414 324.344ZM434.199 320.918H438.988V321.787H434.199V320.918ZM442.022 320.918H446.861V321.787H442.022V320.918ZM446.384 318.618H447.645V332.047C447.645 332.745 447.492 333.12 447.032 333.342C446.606 333.546 445.873 333.563 444.782 333.563C444.748 333.24 444.578 332.677 444.407 332.336C445.157 332.37 445.873 332.37 446.095 332.353C446.299 332.353 446.384 332.268 446.384 332.03V318.618ZM434.301 318.618H439.772V324.156H434.301V323.202H438.562V319.572H434.301V318.618ZM446.998 318.618V319.572H442.499V323.219H446.998V324.173H441.272V318.618H446.998ZM433.535 318.618H434.796V333.58H433.535V318.618ZM449.861 319.521H464.756V320.714H449.861V319.521ZM456.558 317.902H457.888V333.563H456.558V317.902ZM456.166 327.667L457.24 328.144C455.638 330.291 452.826 332.285 450.338 333.308C450.134 332.984 449.742 332.49 449.435 332.234C451.923 331.365 454.718 329.542 456.166 327.667ZM458.314 327.684C459.779 329.559 462.625 331.382 465.148 332.234C464.841 332.49 464.449 332.984 464.244 333.342C461.722 332.336 458.876 330.291 457.274 328.161L458.314 327.684ZM452.605 325.758V327.394H462.08V325.758H452.605ZM452.605 323.168V324.787H462.08V323.168H452.605ZM451.361 322.162H463.375V328.417H451.361V322.162Z" fill="#424242"/>
</g>
<g clip-path="url(#clip8_50_831)">
<rect width="139.532" height="26" transform="translate(344 338.8)" fill="white"/>
<path d="M366.065 351.699H374.416V352.653H366.065V351.699ZM365.793 354H374.689V354.988H365.793V354ZM369.508 352.159H370.684V353.846C370.684 355.346 370.189 357.187 366.389 358.379C366.219 358.124 365.878 357.732 365.639 357.527C369.15 356.556 369.508 354.937 369.508 353.829V352.159ZM370.667 354.409C371.28 355.925 372.678 356.982 374.689 357.391C374.433 357.613 374.126 358.039 373.973 358.328C371.842 357.766 370.377 356.488 369.678 354.63L370.667 354.409ZM367.139 350.302L368.144 349.978C368.553 350.506 368.945 351.222 369.082 351.699L368.025 352.057C367.889 351.546 367.531 350.83 367.139 350.302ZM372.115 349.944L373.274 350.319C372.865 350.983 372.439 351.665 372.081 352.142L371.229 351.801C371.536 351.273 371.928 350.472 372.115 349.944ZM363.901 346.518H368.69V347.387H363.901V346.518ZM371.723 346.518H376.563V347.387H371.723V346.518ZM376.086 344.218H377.347V357.647C377.347 358.345 377.194 358.72 376.734 358.942C376.308 359.146 375.575 359.163 374.484 359.163C374.45 358.84 374.28 358.277 374.109 357.936C374.859 357.97 375.575 357.97 375.796 357.953C376.001 357.953 376.086 357.868 376.086 357.63V344.218ZM364.003 344.218H369.474V349.756H364.003V348.802H368.264V345.172H364.003V344.218ZM376.699 344.218V345.172H372.2V348.819H376.699V349.773H370.973V344.218H376.699ZM363.236 344.218H364.497V359.18H363.236V344.218ZM379.563 345.121H394.457V346.314H379.563V345.121ZM386.26 343.502H387.589V359.163H386.26V343.502ZM385.868 353.267L386.942 353.744C385.34 355.891 382.528 357.885 380.04 358.908C379.835 358.584 379.443 358.09 379.136 357.834C381.625 356.965 384.42 355.141 385.868 353.267ZM388.015 353.284C389.481 355.159 392.327 356.982 394.849 357.834C394.542 358.09 394.151 358.584 393.946 358.942C391.424 357.936 388.578 355.891 386.976 353.761L388.015 353.284ZM382.306 351.358V352.994H391.782V351.358H382.306ZM382.306 348.768V350.387H391.782V348.768H382.306ZM381.062 347.762H393.077V354.017H381.062V347.762Z" fill="#424242"/>
<rect x="413.233" y="338.8" width="1.06513" height="25.5631" fill="#B3B3B3"/>
<path d="M424.784 345.121H439.678V346.314H424.784V345.121ZM431.481 343.502H432.81V359.163H431.481V343.502ZM431.089 353.267L432.163 353.744C430.561 355.891 427.749 357.885 425.261 358.908C425.056 358.584 424.664 358.09 424.357 357.834C426.846 356.965 429.64 355.141 431.089 353.267ZM433.236 353.284C434.702 355.159 437.548 356.982 440.07 357.834C439.763 358.09 439.371 358.584 439.167 358.942C436.645 357.936 433.799 355.891 432.197 353.761L433.236 353.284ZM427.527 351.358V352.994H437.003V351.358H427.527ZM427.527 348.768V350.387H437.003V348.768H427.527ZM426.283 347.762H438.298V354.017H426.283V347.762ZM443.393 344.644H454.556V358.908H453.21V345.939H444.706V358.976H443.393V344.644ZM444.263 350.557H453.772V351.818H444.263V350.557ZM444.246 356.59H453.806V357.868H444.246V356.59ZM458.203 347.081H473.081V348.376H458.203V347.081ZM461.611 354.681H469.553V355.977H461.611V354.681ZM464.935 343.502H466.281V359.163H464.935V343.502ZM464.543 347.507L465.684 347.899C464.168 351.512 461.492 354.767 458.544 356.488C458.339 356.164 457.913 355.687 457.624 355.431C460.47 353.949 463.179 350.779 464.543 347.507ZM466.707 347.558C468.053 350.796 470.729 353.897 473.677 355.312C473.353 355.585 472.91 356.096 472.706 356.454C469.689 354.784 467.065 351.529 465.565 347.95L466.707 347.558Z" fill="#424242"/>
</g>
<path d="M487.532 324.7C486.703 324.7 486.032 325.372 486.032 326.2C486.032 327.029 486.703 327.7 487.532 327.7V324.7ZM351.66 352.8C352.246 352.214 352.246 351.386 351.66 350.8L345 344.14C344.414 343.554 343.586 343.554 343 344.14L335.34 351.8L343 359.46C343.586 360.046 344.414 360.046 345 359.46L351.66 352.8ZM326 361.1H327.5H326ZM326 361.1H327.5H326ZM500.5 340.668V348.3H503.5V340.668H500.5ZM479.9 368.9H335.3V371.9H479.9V368.9ZM335.3 353.3H344V350.3H335.3V353.3ZM327.5 361.1C327.5 356.792 330.992 353.3 335.3 353.3V350.3C329.335 350.3 324.5 355.135 324.5 361.1H327.5ZM335.3 368.9C330.992 368.9 327.5 365.408 327.5 361.1H324.5C324.5 367.065 329.335 371.9 335.3 371.9V368.9ZM500.5 348.3C500.5 359.677 491.277 368.9 479.9 368.9V371.9C492.934 371.9 503.5 361.334 503.5 348.3H500.5ZM487.532 327.7C494.694 327.7 500.5 333.506 500.5 340.668H503.5C503.5 331.849 496.351 324.7 487.532 324.7V327.7Z" fill="#B3B3B3"/>
<path d="M487.532 299.1C486.703 299.1 486.032 299.772 486.032 300.6C486.032 301.428 486.703 302.1 487.532 302.1V299.1ZM351.66 352.8C352.246 352.214 352.246 351.386 351.66 350.8L345 344.14C344.414 343.554 343.586 343.554 343 344.14L335.34 351.8L343 359.46C343.586 360.046 344.414 360.046 345 359.46L351.66 352.8ZM326 361.1H327.5H326ZM326 361.1H327.5H326ZM500.5 315.068V346.4H503.5V315.068H500.5ZM478 368.9H335.3V371.9H478V368.9ZM335.3 353.3H344V350.3H335.3V353.3ZM327.5 361.1C327.5 356.792 330.992 353.3 335.3 353.3V350.3C329.335 350.3 324.5 355.135 324.5 361.1H327.5ZM335.3 368.9C330.992 368.9 327.5 365.408 327.5 361.1H324.5C324.5 367.065 329.335 371.9 335.3 371.9V368.9ZM500.5 346.4C500.5 358.826 490.426 368.9 478 368.9V371.9C492.083 371.9 503.5 360.483 503.5 346.4H500.5ZM487.532 302.1C494.694 302.1 500.5 307.906 500.5 315.068H503.5C503.5 306.249 496.351 299.1 487.532 299.1V302.1Z" fill="#B3B3B3"/>
<path d="M309.532 324.7C308.703 324.7 308.032 325.372 308.032 326.2C308.032 327.029 308.703 327.7 309.532 327.7V324.7ZM351.66 327.2C352.246 326.614 352.246 325.786 351.66 325.2L345 318.54C344.414 317.954 343.586 317.954 343 318.54L335.34 326.2L343 333.86C343.586 334.446 344.414 334.446 345 333.86L351.66 327.2ZM309.532 327.7H344V324.7H309.532V327.7Z" fill="#B3B3B3"/>
<path d="M309.532 350.3C308.703 350.3 308.032 350.972 308.032 351.8C308.032 352.628 308.703 353.3 309.532 353.3V350.3ZM351.66 327.2C352.246 326.614 352.246 325.786 351.66 325.2L345 318.54C344.414 317.954 343.586 317.954 343 318.54L335.34 326.2L343 333.86C343.586 334.446 344.414 334.446 345 333.86L351.66 327.2ZM324.766 339H326.266H324.766ZM324.766 339H326.266H324.766ZM309.532 353.3H311.966V350.3H309.532V353.3ZM337.566 327.7H344V324.7H337.566V327.7ZM326.266 339C326.266 332.759 331.325 327.7 337.566 327.7V324.7C329.668 324.7 323.266 331.102 323.266 339H326.266ZM311.966 353.3C319.864 353.3 326.266 346.898 326.266 339H323.266C323.266 345.241 318.207 350.3 311.966 350.3V353.3Z" fill="#B3B3B3"/>
<path d="M309.532 299.1C308.703 299.1 308.032 299.772 308.032 300.6C308.032 301.428 308.703 302.1 309.532 302.1V299.1ZM351.66 301.6C352.246 301.014 352.246 300.186 351.66 299.6L345 292.94C344.414 292.354 343.586 292.354 343 292.94L335.34 300.6L343 308.26C343.586 308.846 344.414 308.846 345 308.26L351.66 301.6ZM309.532 302.1H344V299.1H309.532V302.1Z" fill="#B3B3B3"/>
<path d="M131.815 298.9C130.987 298.9 130.315 299.572 130.315 300.4C130.315 301.228 130.987 301.9 131.815 301.9V298.9ZM173.66 301.4C174.246 300.814 174.246 299.986 173.66 299.4L167 292.74C166.414 292.154 165.586 292.154 165 292.74L157.34 300.4L165 308.06C165.586 308.646 166.414 308.646 167 308.06L173.66 301.4ZM131.815 301.9H166V298.9H131.815V301.9Z" fill="#B3B3B3"/>
<path d="M131.815 324.7C130.987 324.7 130.315 325.372 130.315 326.2C130.315 327.029 130.987 327.7 131.815 327.7V324.7ZM173.66 327.2C174.246 326.614 174.246 325.786 173.66 325.2L167 318.54C166.414 317.954 165.586 317.954 165 318.54L157.34 326.2L165 333.86C165.586 334.446 166.414 334.446 167 333.86L173.66 327.2ZM131.815 327.7H166V324.7H131.815V327.7Z" fill="#B3B3B3"/>
<path d="M131.815 350.9C130.987 350.9 130.315 351.572 130.315 352.4C130.315 353.228 130.987 353.9 131.815 353.9V350.9ZM173.66 327.2C174.246 326.614 174.246 325.786 173.66 325.2L167 318.54C166.414 317.954 165.586 317.954 165 318.54L157.34 326.2L165 333.86C165.586 334.446 166.414 334.446 167 333.86L173.66 327.2ZM146.908 339.3H148.408H146.908ZM146.908 339.3H148.408H146.908ZM131.815 353.9H133.808V350.9H131.815V353.9ZM160.008 327.7H166V324.7H160.008V327.7ZM148.408 339.3C148.408 332.894 153.601 327.7 160.008 327.7V324.7C151.944 324.7 145.408 331.237 145.408 339.3H148.408ZM133.808 353.9C141.871 353.9 148.408 347.363 148.408 339.3H145.408C145.408 345.707 140.214 350.9 133.808 350.9V353.9Z" fill="#B3B3B3"/>
<path d="M48 67V65C48 61.287 49.475 57.726 52.1005 55.1005C54.726 52.475 58.287 51 62 51M62 51C65.713 51 69.274 52.475 71.8995 55.1005C74.525 57.726 76 61.287 76 65V67M62 51C64.1217 51 66.1566 50.1571 67.6569 48.6569C69.1571 47.1566 70 45.1217 70 43C70 40.8783 69.1571 38.8434 67.6569 37.3431C66.1566 35.8429 64.1217 35 62 35C59.8783 35 57.8434 35.8429 56.3431 37.3431C54.8429 38.8434 54 40.8783 54 43C54 45.1217 54.8429 47.1566 56.3431 48.6569C57.8434 50.1571 59.8783 51 62 51Z" stroke="#4A4A4A" stroke-width="4" stroke-linecap="round" stroke-linejoin="round"/>
<path d="M54.568 84.568H60.28V85.672H54.568V84.568ZM56.12 85.256C57.016 88.856 58.856 91.896 61.672 93.272C61.4 93.48 61.032 93.928 60.856 94.232C57.96 92.632 56.104 89.448 55.144 85.48L56.12 85.256ZM49.96 82.28H51V84.184H49.96V82.28ZM47.816 83.784H48.904V92.808H47.816V83.784ZM48.456 85.928H52.344V86.792H48.456V85.928ZM46.712 92.568C48.088 92.2 50.168 91.592 52.168 91L52.312 91.976C50.504 92.584 48.616 93.208 47.128 93.688L46.712 92.568ZM50.728 89.88L51.704 89.512C52.328 90.504 53.016 91.816 53.272 92.648L52.248 93.112C51.992 92.264 51.336 90.904 50.728 89.88ZM48.456 83.784H52.92V89H48.456V88.104H51.848V84.68H48.456V83.784ZM54.776 80.36H61.16V81.48H54.776V80.36ZM54.168 80.36H55.304V85.976C55.304 88.52 55.048 92.024 53.224 94.296C53.032 94.072 52.536 93.736 52.28 93.608C54.008 91.448 54.168 88.36 54.168 85.976V80.36ZM60.024 84.568H60.248L60.472 84.52L61.176 84.792C60.328 89.624 58.104 92.664 55.288 94.232C55.112 93.96 54.744 93.496 54.488 93.304C57.224 91.896 59.304 89.112 60.024 84.808V84.568ZM49.672 79.576H50.312V79.832H50.68V80.152C49.992 81.368 48.84 83.016 47.112 84.344C46.936 84.104 46.584 83.768 46.328 83.608C47.944 82.424 49.064 80.84 49.672 79.576ZM49.992 79.576H50.84C51.832 80.392 53.032 81.576 53.608 82.376L52.824 83.224C52.28 82.44 51.16 81.16 50.216 80.376H49.992V79.576ZM62.632 83.4H67.16V84.52H62.632V83.4ZM68.296 83.032H75.816V84.072H68.296V83.032ZM64.424 79.784H65.544V89.784H64.424V79.784ZM62.328 90.52C63.512 90.024 65.304 89.176 67.032 88.36L67.288 89.416C65.736 90.216 64.056 91.048 62.728 91.688L62.328 90.52ZM67.24 80.296H76.904V83.096H75.72V81.368H68.392V83.096H67.24V80.296ZM69.624 85.672L70.472 85.112C74.024 87.768 74.168 92.472 72.648 93.688C72.152 94.152 71.672 94.264 71 94.28C70.664 94.28 70.168 94.264 69.704 94.248C69.688 93.928 69.592 93.448 69.384 93.128C69.928 93.176 70.44 93.192 70.76 93.192C71.144 93.192 71.464 93.16 71.768 92.872C72.856 92.024 72.776 88.104 69.624 85.672ZM71.944 83.384L72.888 83.8C71.48 85.144 69.368 86.44 67.56 87.256C67.4 87.048 67.048 86.616 66.824 86.44C68.648 85.736 70.696 84.584 71.944 83.384ZM73.608 83.544C74.232 86.888 75.56 90.168 77.496 91.624C77.208 91.848 76.792 92.296 76.584 92.616C74.584 90.904 73.32 87.416 72.632 83.768L73.608 83.544ZM71.064 86.648L71.816 87.16C70.888 88.088 69.112 89.24 67.832 89.896C67.656 89.656 67.368 89.288 67.112 89.112C68.408 88.584 70.184 87.528 71.064 86.648ZM71.992 88.488L72.824 89.048C71.432 90.648 68.824 92.504 66.792 93.464C66.632 93.192 66.344 92.792 66.088 92.552C68.136 91.736 70.712 90.008 71.992 88.488ZM76.456 84.776L77.24 85.64C76.36 86.408 75.256 87.304 74.408 87.848L73.816 87.128C74.632 86.552 75.8 85.512 76.456 84.776Z" fill="#424242"/>
<path d="M48 144.273V142.273C48 138.56 49.475 134.999 52.1005 132.373C54.726 129.748 58.287 128.273 62 128.273M62 128.273C65.713 128.273 69.274 129.748 71.8995 132.373C74.525 134.999 76 138.56 76 142.273V144.273M62 128.273C64.1217 128.273 66.1566 127.43 67.6569 125.93C69.1571 124.429 70 122.394 70 120.273C70 118.151 69.1571 116.116 67.6569 114.616C66.1566 113.116 64.1217 112.273 62 112.273C59.8783 112.273 57.8434 113.116 56.3431 114.616C54.8429 116.116 54 118.151 54 120.273C54 122.394 54.8429 124.429 56.3431 125.93C57.8434 127.43 59.8783 128.273 62 128.273Z" stroke="#4A4A4A" stroke-width="4" stroke-linecap="round" stroke-linejoin="round"/>
<path d="M49.8 160.224H59.464V161.312H49.8V160.224ZM49.8 163.424H59.272V164.464H49.8V163.424ZM49.528 166.704H59.336V167.76H49.528V166.704ZM49.144 160.224H50.312V164.24C50.312 166.512 49.896 169.456 47.448 171.36C47.288 171.12 46.856 170.688 46.616 170.512C48.888 168.752 49.144 166.272 49.144 164.224V160.224ZM58.824 160.224H60.024V169.76C60.024 170.544 59.816 170.928 59.224 171.104C58.616 171.296 57.56 171.312 55.944 171.312C55.88 170.992 55.656 170.464 55.48 170.144C56.76 170.192 58.008 170.192 58.376 170.16C58.728 170.16 58.824 170.064 58.824 169.76V160.224ZM53.864 160.672H55V167.232H53.864V160.672ZM51.32 157.504H56.36V158.528H51.32V157.504ZM51.48 156.528L52.776 156.752C51.72 158.656 50.12 160.784 47.848 162.432C47.656 162.144 47.272 161.744 46.984 161.568C49.144 160.112 50.664 158.128 51.48 156.528ZM55.96 157.504H56.216L56.424 157.456L57.224 157.984C56.68 159.056 55.768 160.304 55.032 161.088C54.808 160.912 54.424 160.672 54.168 160.528C54.84 159.808 55.592 158.576 55.96 157.728V157.504ZM64.088 168.96H75.784V170.176H64.088V168.96ZM64.12 163.248H75.784V164.448H64.12V163.248ZM63.448 157.664H76.408V171.152H75.176V158.832H64.632V171.152H63.448V157.664ZM69.208 158.224H70.424V169.568H69.208V158.224Z" fill="#424242"/>
<path d="M48 221V219C48 215.287 49.475 211.726 52.1005 209.101C54.726 206.475 58.287 205 62 205M62 205C65.713 205 69.274 206.475 71.8995 209.101C74.525 211.726 76 215.287 76 219V221M62 205C64.1217 205 66.1566 204.157 67.6569 202.657C69.1571 201.157 70 199.122 70 197C70 194.878 69.1571 192.843 67.6569 191.343C66.1566 189.843 64.1217 189 62 189C59.8783 189 57.8434 189.843 56.3431 191.343C54.8429 192.843 54 194.878 54 197C54 199.122 54.8429 201.157 56.3431 202.657C57.8434 204.157 59.8783 205 62 205Z" stroke="#4A4A4A" stroke-width="4" stroke-linecap="round" stroke-linejoin="round"/>
<path d="M47.176 240.831H61.048V241.743H47.176V240.831ZM46.92 247.439H61.272V248.383H46.92V247.439ZM50.168 243.423V244.831H57.928V243.423H50.168ZM49 242.575H59.16V245.679H49V242.575ZM50.472 245.935L51.496 245.615C51.88 246.111 52.264 246.799 52.408 247.279L51.32 247.663C51.192 247.167 50.84 246.463 50.472 245.935ZM56.648 245.551L57.704 245.935C57.336 246.575 56.936 247.199 56.6 247.663L55.656 247.295C55.976 246.815 56.424 246.047 56.648 245.551ZM49.496 237.983V239.135H58.504V237.983H49.496ZM49.496 236.031V237.167H58.504V236.031H49.496ZM48.392 235.167H59.656V239.999H48.392V235.167ZM51.704 233.999H52.744V239.695H51.704V233.999ZM55.096 233.999H56.168V239.695H55.096V233.999ZM62.936 237.391H76.904V238.607H62.936V237.391ZM66.136 244.527H73.592V245.743H66.136V244.527ZM69.256 234.031H70.52V248.735H69.256V234.031ZM68.888 237.791L69.96 238.159C68.536 241.551 66.024 244.607 63.256 246.223C63.064 245.919 62.664 245.471 62.392 245.231C65.064 243.839 67.608 240.863 68.888 237.791ZM70.92 237.839C72.184 240.879 74.696 243.791 77.464 245.119C77.16 245.375 76.744 245.855 76.552 246.191C73.72 244.623 71.256 241.567 69.848 238.207L70.92 237.839Z" fill="#424242"/>
<path d="M218 47V65C218 66.0609 218.421 67.0783 219.172 67.8284C219.922 68.5786 220.939 69 222 69H250C251.061 69 252.078 68.5786 252.828 67.8284C253.579 67.0783 254 66.0609 254 65V47" stroke="#4A4A4A" stroke-width="4"/>
<path d="M241.666 69V57C241.666 55.9391 241.245 54.9217 240.494 54.1716C239.744 53.4214 238.727 53 237.666 53H233.666C232.605 53 231.588 53.4214 230.838 54.1716C230.087 54.9217 229.666 55.9391 229.666 57V69" stroke="#4A4A4A" stroke-width="4" stroke-miterlimit="16"/>
<path d="M255.636 45.728L252.248 33.87C252.176 33.6193 252.025 33.3988 251.817 33.2418C251.608 33.0848 251.355 32.9999 251.094 33H243L243.95 44.408C243.965 44.5914 244.023 44.7686 244.119 44.9251C244.216 45.0816 244.349 45.2128 244.506 45.308C245.286 45.774 246.81 46.634 248 47C250.032 47.626 253 47.4 254.692 47.192C254.856 47.1707 255.014 47.1138 255.155 47.0253C255.295 46.9367 255.414 46.8186 255.504 46.6792C255.594 46.5398 255.652 46.3825 255.675 46.2182C255.698 46.0539 255.685 45.8866 255.636 45.728Z" stroke="#4A4A4A" stroke-width="4"/>
<path d="M240 47C241.136 46.65 242.576 45.852 243.38 45.376C243.567 45.2641 243.719 45.1017 243.818 44.9075C243.917 44.7133 243.959 44.4951 243.94 44.278L243 33H229L228.06 44.278C228.04 44.4955 228.083 44.7141 228.182 44.9087C228.281 45.1033 228.433 45.2659 228.62 45.378C229.424 45.852 230.864 46.65 232 47C234.986 47.92 237.014 47.92 240 47Z" stroke="#4A4A4A" stroke-width="4"/>
<path d="M219.752 33.87L216.364 45.73C216.316 45.8884 216.303 46.0552 216.327 46.219C216.35 46.3828 216.408 46.5396 216.498 46.6785C216.588 46.8175 216.707 46.9352 216.847 47.0235C216.987 47.1118 217.144 47.1686 217.308 47.19C218.998 47.4 221.968 47.624 224 47C225.19 46.634 226.716 45.774 227.494 45.31C227.652 45.2146 227.784 45.0831 227.881 44.9262C227.978 44.7693 228.036 44.5917 228.05 44.408L229 33H220.906C220.645 32.9999 220.392 33.0848 220.183 33.2418C219.975 33.3988 219.824 33.6193 219.752 33.87Z" stroke="#4A4A4A" stroke-width="4"/>
<path d="M218.064 83.64H227.536V84.68H218.064V83.64ZM218.512 81.048H227.184V82.04H218.512V81.048ZM220.4 79.576H221.552V84.28H220.4V79.576ZM222.192 84.312H223.312V90.84H222.192V84.312ZM224.096 79.576H225.232V84.328H224.096V79.576ZM219.824 88.968V90.36H225.824V88.968H219.824ZM219.824 86.744V88.12H225.824V86.744H219.824ZM218.768 85.848H226.928V91.256H218.768V85.848ZM220.88 91.592L221.92 92.248C221.024 93.016 219.584 93.832 218.416 94.296C218.24 94.072 217.872 93.704 217.616 93.48C218.784 93.032 220.192 92.248 220.88 91.592ZM212.992 83H218.24V84.136H212.992V83ZM215.232 79.56H216.352V94.264H215.232V79.56ZM215.2 83.704L215.936 83.96C215.44 86.504 214.368 89.656 213.2 91.256C213.072 90.936 212.8 90.488 212.592 90.216C213.664 88.776 214.752 85.992 215.2 83.704ZM216.256 85.224C216.624 85.64 218 87.624 218.288 88.088L217.616 89.016C217.264 88.232 216.144 86.36 215.744 85.736L216.256 85.224ZM223.744 92.312L224.608 91.656C225.632 92.184 227.008 93 227.712 93.56L226.8 94.312C226.144 93.752 224.8 92.888 223.744 92.312ZM228.944 93.336C229.728 92.072 230.832 89.928 231.632 88.072L232.592 88.808C231.84 90.52 230.848 92.568 230.016 94.072L228.944 93.336ZM235.6 90.504L236.816 90.92C235.872 92.184 234.464 93.48 233.248 94.312C233.024 94.088 232.512 93.688 232.224 93.496C233.472 92.76 234.784 91.608 235.6 90.504ZM239.152 91.096L240.144 90.504C241.344 91.4 242.816 92.712 243.52 93.608L242.432 94.296C241.776 93.416 240.352 92.04 239.152 91.096ZM241.264 79.752L242.224 80.696C240.224 81.352 237.328 81.896 234.832 82.264C234.784 81.992 234.624 81.56 234.464 81.288C236.88 80.92 239.68 80.328 241.264 79.752ZM232.56 88.696H243.424V89.832H232.56V88.696ZM234.8 84.04H243.072V85.16H234.8V84.04ZM239.616 84.6H240.784V89.496H239.616V84.6ZM234.208 80.952L235.408 81.24V89.416H234.208V80.952ZM229.424 80.568L230.096 79.704C231.12 80.136 232.4 80.872 233.024 81.448L232.32 82.424C231.712 81.832 230.448 81.048 229.424 80.568ZM228.56 84.904L229.2 84.008C230.24 84.408 231.536 85.112 232.192 85.656L231.52 86.648C230.88 86.088 229.616 85.352 228.56 84.904ZM252.8 85.048H258.832V86.12H252.8V85.048ZM249.04 92.6H257.104V93.672H249.04V92.6ZM252.224 83.144H253.44V89H252.224V83.144ZM248.4 88.424H257.76V94.28H256.528V89.512H249.568V94.312H248.4V88.424ZM251.664 79.576H252.896V82.296H251.664V79.576ZM246.336 81.64H259.056V82.792H246.336V81.64ZM245.744 81.64H246.944V85.784C246.944 88.248 246.72 91.864 245.344 94.296C245.136 94.088 244.608 93.752 244.32 93.624C245.632 91.32 245.744 88.088 245.744 85.784V81.64Z" fill="#424242"/>
<path d="M90 49.5C89.1716 49.5 88.5 50.1716 88.5 51C88.5 51.8284 89.1716 52.5 90 52.5V49.5ZM219.66 52C220.246 51.4142 220.246 50.5858 219.66 50L213 43.3397C212.414 42.754 211.586 42.754 211 43.3397L203.34 51L211 58.6603C211.586 59.246 212.414 59.246 213 58.6603L219.66 52ZM90 52.5H212V49.5H90V52.5Z" fill="#B3B3B3"/>
<path d="M218 124V142C218 143.061 218.421 144.078 219.172 144.828C219.922 145.579 220.939 146 222 146H250C251.061 146 252.078 145.579 252.828 144.828C253.579 144.078 254 143.061 254 142V124" stroke="#4A4A4A" stroke-width="4"/>
<path d="M241.666 146V134C241.666 132.939 241.245 131.922 240.494 131.172C239.744 130.421 238.727 130 237.666 130H233.666C232.605 130 231.588 130.421 230.838 131.172C230.087 131.922 229.666 132.939 229.666 134V146" stroke="#4A4A4A" stroke-width="4" stroke-miterlimit="16"/>
<path d="M255.636 122.728L252.248 110.87C252.176 110.619 252.025 110.399 251.817 110.242C251.608 110.085 251.355 110 251.094 110H243L243.95 121.408C243.965 121.591 244.023 121.769 244.119 121.925C244.216 122.082 244.349 122.213 244.506 122.308C245.286 122.774 246.81 123.634 248 124C250.032 124.626 253 124.4 254.692 124.192C254.856 124.171 255.014 124.114 255.155 124.025C255.295 123.937 255.414 123.819 255.504 123.679C255.594 123.54 255.652 123.382 255.675 123.218C255.698 123.054 255.685 122.887 255.636 122.728Z" stroke="#4A4A4A" stroke-width="4"/>
<path d="M240 124C241.136 123.65 242.576 122.852 243.38 122.376C243.567 122.264 243.719 122.102 243.818 121.908C243.917 121.713 243.959 121.495 243.94 121.278L243 110H229L228.06 121.278C228.04 121.495 228.083 121.714 228.182 121.909C228.281 122.103 228.433 122.266 228.62 122.378C229.424 122.852 230.864 123.65 232 124C234.986 124.92 237.014 124.92 240 124Z" stroke="#4A4A4A" stroke-width="4"/>
<path d="M219.752 110.87L216.364 122.73C216.316 122.888 216.303 123.055 216.327 123.219C216.35 123.383 216.408 123.54 216.498 123.679C216.588 123.817 216.707 123.935 216.847 124.023C216.987 124.112 217.144 124.169 217.308 124.19C218.998 124.4 221.968 124.624 224 124C225.19 123.634 226.716 122.774 227.494 122.31C227.652 122.215 227.784 122.083 227.881 121.926C227.978 121.769 228.036 121.592 228.05 121.408L229 110H220.906C220.645 110 220.392 110.085 220.183 110.242C219.975 110.399 219.824 110.619 219.752 110.87Z" stroke="#4A4A4A" stroke-width="4"/>
<path d="M222.768 168.031L223.584 167.247C224.944 168.047 226.688 169.263 227.536 170.111L226.688 171.023C225.872 170.159 224.176 168.895 222.768 168.031ZM216.816 161.727H227.536V162.879H216.816V161.727ZM222.64 158.511H226.928V159.631H222.64V158.511ZM221.968 156.287H223.152V162.463H221.968V156.287ZM218.736 157.647H219.888V162.367H218.736V157.647ZM217.824 163.999L218.704 163.343C219.616 164.063 220.72 165.119 221.216 165.855L220.288 166.575C219.808 165.839 218.752 164.751 217.824 163.999ZM225.76 163.151L226.848 163.855C225.936 164.799 224.784 165.887 223.872 166.575L222.992 165.967C223.872 165.247 225.072 164.047 225.76 163.151ZM216.784 169.887C217.856 169.295 219.52 168.287 221.104 167.295L221.488 168.335C220.128 169.263 218.64 170.207 217.472 170.927L216.784 169.887ZM213.616 157.295L214.288 156.431C215.296 156.863 216.56 157.583 217.168 158.143L216.48 159.119C215.872 158.543 214.64 157.775 213.616 157.295ZM212.768 161.647L213.424 160.751C214.448 161.135 215.744 161.823 216.384 162.351L215.696 163.343C215.072 162.799 213.808 162.079 212.768 161.647ZM213.248 170.015C214.064 168.783 215.232 166.655 216.096 164.831L217.008 165.567C216.224 167.263 215.168 169.295 214.288 170.783L213.248 170.015ZM231.984 169.311H240.048V170.367H231.984V169.311ZM231.52 164.591H240.56V171.007H239.296V165.663H232.752V171.023H231.52V164.591ZM235.952 160.495C234.64 162.527 232.064 164.879 229.392 166.367C229.232 166.095 228.912 165.679 228.64 165.423C231.408 163.983 234.048 161.503 235.28 159.327H236.48C238.144 161.791 240.928 164.079 243.44 165.247C243.152 165.535 242.88 165.951 242.672 166.287C240.192 164.959 237.424 162.639 235.952 160.495ZM237.472 157.247L238.4 156.591C239.936 157.679 241.84 159.263 242.752 160.367L241.744 161.119C240.896 160.015 239.04 158.383 237.472 157.247ZM233.264 156.639L234.448 157.055C233.328 158.671 231.648 160.255 230.16 161.263C229.936 161.039 229.456 160.607 229.168 160.415C230.704 159.503 232.288 158.079 233.264 156.639ZM252.8 161.775H258.832V162.847H252.8V161.775ZM249.04 169.327H257.104V170.399H249.04V169.327ZM252.224 159.871H253.44V165.727H252.224V159.871ZM248.4 165.151H257.76V171.007H256.528V166.239H249.568V171.039H248.4V165.151ZM251.664 156.303H252.896V159.023H251.664V156.303ZM246.336 158.367H259.056V159.519H246.336V158.367ZM245.744 158.367H246.944V162.511C246.944 164.975 246.72 168.591 245.344 171.023C245.136 170.815 244.608 170.479 244.32 170.351C245.632 168.047 245.744 164.815 245.744 162.511V158.367Z" fill="#424242"/>
<path d="M90 203.5C89.1716 203.5 88.5 204.172 88.5 205C88.5 205.828 89.1716 206.5 90 206.5V203.5ZM219.66 129C220.246 128.414 220.246 127.586 219.66 127L213 120.34C212.414 119.754 211.586 119.754 211 120.34L203.34 128L211 135.66C211.586 136.246 212.414 136.246 213 135.66L219.66 129ZM90 206.5H125V203.5H90V206.5ZM150.5 181V152H147.5V181H150.5ZM173 129.5H212V126.5H173V129.5ZM150.5 152C150.5 139.574 160.574 129.5 173 129.5V126.5C158.917 126.5 147.5 137.917 147.5 152H150.5ZM125 206.5C139.083 206.5 150.5 195.083 150.5 181H147.5C147.5 193.426 137.426 203.5 125 203.5V206.5Z" fill="#B3B3B3"/>
<path d="M90 126.5C89.1716 126.5 88.5 127.172 88.5 128C88.5 128.828 89.1716 129.5 90 129.5V126.5ZM219.66 129C220.246 128.414 220.246 127.586 219.66 127L213 120.34C212.414 119.754 211.586 119.754 211 120.34L203.34 128L211 135.66C211.586 136.246 212.414 136.246 213 135.66L219.66 129ZM90 129.5H212V126.5H90V129.5Z" fill="#B3B3B3"/>
<path d="M218 201V219C218 220.061 218.421 221.078 219.172 221.828C219.922 222.579 220.939 223 222 223H250C251.061 223 252.078 222.579 252.828 221.828C253.579 221.078 254 220.061 254 219V201" stroke="#4A4A4A" stroke-width="4"/>
<path d="M241.666 223V211C241.666 209.939 241.245 208.922 240.494 208.172C239.744 207.421 238.727 207 237.666 207H233.666C232.605 207 231.588 207.421 230.838 208.172C230.087 208.922 229.666 209.939 229.666 211V223" stroke="#4A4A4A" stroke-width="4" stroke-miterlimit="16"/>
<path d="M255.636 199.728L252.248 187.87C252.176 187.619 252.025 187.399 251.817 187.242C251.608 187.085 251.355 187 251.094 187H243L243.95 198.408C243.965 198.591 244.023 198.769 244.119 198.925C244.216 199.082 244.349 199.213 244.506 199.308C245.286 199.774 246.81 200.634 248 201C250.032 201.626 253 201.4 254.692 201.192C254.856 201.171 255.014 201.114 255.155 201.025C255.295 200.937 255.414 200.819 255.504 200.679C255.594 200.54 255.652 200.382 255.675 200.218C255.698 200.054 255.685 199.887 255.636 199.728Z" stroke="#4A4A4A" stroke-width="4"/>
<path d="M240 201C241.136 200.65 242.576 199.852 243.38 199.376C243.567 199.264 243.719 199.102 243.818 198.908C243.917 198.713 243.959 198.495 243.94 198.278L243 187H229L228.06 198.278C228.04 198.495 228.083 198.714 228.182 198.909C228.281 199.103 228.433 199.266 228.62 199.378C229.424 199.852 230.864 200.65 232 201C234.986 201.92 237.014 201.92 240 201Z" stroke="#4A4A4A" stroke-width="4"/>
<path d="M219.752 187.87L216.364 199.73C216.316 199.888 216.303 200.055 216.327 200.219C216.35 200.383 216.408 200.54 216.498 200.679C216.588 200.817 216.707 200.935 216.847 201.023C216.987 201.112 217.144 201.169 217.308 201.19C218.998 201.4 221.968 201.624 224 201C225.19 200.634 226.716 199.774 227.494 199.31C227.652 199.215 227.784 199.083 227.881 198.926C227.978 198.769 228.036 198.592 228.05 198.408L229 187H220.906C220.645 187 220.392 187.085 220.183 187.242C219.975 187.399 219.824 187.619 219.752 187.87Z" stroke="#4A4A4A" stroke-width="4"/>
<path d="M213.712 236.879H226.608V244.415H225.36V238.063H214.912V244.495H213.712V236.879ZM214.352 242.319H226.08V243.487H214.352V242.319ZM219.504 234.015H220.752V248.719H219.504V234.015ZM230.16 238.511V240.271H235.024V238.511H230.16ZM230.16 235.823V237.567H235.024V235.823H230.16ZM229.152 234.831H236.064V241.279H229.152V234.831ZM229.12 243.071H236.08V244.175H229.12V243.071ZM228.608 246.959C230.528 246.719 233.552 246.319 236.464 245.919L236.496 246.991C233.728 247.407 230.784 247.839 228.768 248.127L228.608 246.959ZM236.592 234.847H242.432V235.935H236.592V234.847ZM236.416 239.999H242.672V241.135H236.416V239.999ZM241.92 234.847H242.208L242.464 234.783L243.248 235.311C242.416 236.591 241.12 237.983 239.92 238.847C239.76 238.639 239.424 238.319 239.232 238.159C240.24 237.391 241.376 236.063 241.92 235.071V234.847ZM237.232 237.647L237.984 236.911C239.408 237.631 241.04 238.815 241.856 239.647L241.088 240.479C240.256 239.599 238.64 238.399 237.232 237.647ZM242.304 239.999H242.496L242.688 239.951L243.504 240.159C243.104 241.487 242.624 243.023 242.144 243.967L241.168 243.695C241.568 242.831 242.016 241.375 242.304 240.207V239.999ZM238.992 240.559H240.176V247.279C240.176 247.951 240.048 248.319 239.536 248.527C239.04 248.719 238.224 248.719 237.024 248.719C236.976 248.383 236.8 247.887 236.624 247.535C237.584 247.567 238.4 247.567 238.672 247.551C238.928 247.551 238.992 247.471 238.992 247.247V240.559ZM232.08 235.199H233.12V240.831H233.184V246.751H232.032V240.831H232.08V235.199ZM252.8 239.503H258.832V240.575H252.8V239.503ZM249.04 247.055H257.104V248.127H249.04V247.055ZM252.224 237.599H253.44V243.455H252.224V237.599ZM248.4 242.879H257.76V248.735H256.528V243.967H249.568V248.767H248.4V242.879ZM251.664 234.031H252.896V236.751H251.664V234.031ZM246.336 236.095H259.056V237.247H246.336V236.095ZM245.744 236.095H246.944V240.239C246.944 242.703 246.72 246.319 245.344 248.751C245.136 248.543 244.608 248.207 244.32 248.079C245.632 245.775 245.744 242.543 245.744 240.239V236.095Z" fill="#424242"/>
<path d="M359 45.02L359.02 44.998M367 45.02L367.02 44.998M359 53.02L359.02 52.998M367 53.02L367.02 52.998M359 61.02L359.02 60.998M367 61.02L367.02 60.998M375 69H352.2C351.882 69 351.577 68.8736 351.351 68.6485C351.126 68.4235 351 68.1183 351 67.8V38.2C351 37.8817 351.126 37.5765 351.351 37.3515C351.577 37.1264 351.882 37 352.2 37H363V34.2C363 33.8817 363.126 33.5765 363.351 33.3515C363.577 33.1264 363.882 33 364.2 33H373.8C374.118 33 374.423 33.1264 374.649 33.3515C374.874 33.5765 375 33.8817 375 34.2V45M375 69H385.8C386.118 69 386.423 68.8736 386.649 68.6485C386.874 68.4235 387 68.1183 387 67.8V46.2C387 45.8817 386.874 45.5765 386.649 45.3515C386.423 45.1264 386.118 45 385.8 45H375M375 69V61M375 45V53M375 61V53M375 61H379M375 53H379" stroke="#4A4A4A" stroke-width="4" stroke-linecap="round" stroke-linejoin="round"/>
<path d="M352.632 85.496H359.64V86.552H352.632V85.496ZM352.6 88.664H359.816V89.752H352.6V88.664ZM355.464 79.56H356.616V94.28H355.464V79.56ZM352.024 82.344H360.2V90.36H359.064V83.432H353.144V90.44H352.024V82.344ZM346.056 82.568H350.888V83.672H346.056V82.568ZM348.248 79.576H349.416V83.112H348.248V79.576ZM349.544 86.2C349.976 86.52 351.448 87.88 351.8 88.232L351.096 89.208C350.632 88.616 349.368 87.304 348.856 86.808L349.544 86.2ZM350.456 82.568H350.712L350.92 82.52L351.592 82.952C350.488 85.864 348.216 88.552 346.088 90.04C345.976 89.736 345.672 89.176 345.464 88.968C347.464 87.672 349.56 85.24 350.456 82.824V82.568ZM348.248 87.384L349.416 85.944V94.264H348.248V87.384ZM362.04 81.656H375.944V82.744H362.04V81.656ZM363.24 88.184H374.76V89.24H363.24V88.184ZM365.656 85.272H372.36V86.328H365.656V85.272ZM371.08 82.12C372.168 83.96 374.36 85.688 376.504 86.488C376.232 86.712 375.864 87.16 375.672 87.464C373.512 86.52 371.32 84.6 370.088 82.488L371.08 82.12ZM368.392 88.76H369.592V93.016C369.592 93.656 369.448 93.96 368.952 94.12C368.456 94.28 367.672 94.296 366.488 94.296C366.408 93.976 366.216 93.544 366.04 93.24C366.968 93.272 367.832 93.272 368.072 93.256C368.312 93.256 368.392 93.192 368.392 93V88.76ZM365.08 90.136L366.232 90.472C365.432 91.752 364.168 93 363.032 93.832C362.808 93.624 362.344 93.224 362.072 93.064C363.208 92.328 364.376 91.24 365.08 90.136ZM371.432 90.696L372.392 90.12C373.512 91.048 374.904 92.344 375.576 93.208L374.552 93.848C373.912 93 372.552 91.64 371.432 90.696ZM367.864 79.56L369.176 79.736C368.216 82.696 366.072 85.736 362.216 87.608C362.04 87.304 361.656 86.888 361.384 86.696C365.128 85.016 367.16 82.152 367.864 79.56ZM379.368 80.44H380.584V85.896C380.584 88.952 380.36 92.024 378.264 94.408C378.04 94.152 377.56 93.768 377.256 93.576C379.144 91.416 379.368 88.648 379.368 85.88V80.44ZM384.456 81.096H385.656V92.872H384.456V81.096ZM389.832 80.392H391.08V94.264H389.832V80.392Z" fill="#424242"/>
<path d="M264 49.5C263.172 49.5 262.5 50.1716 262.5 51C262.5 51.8284 263.172 52.5 264 52.5V49.5ZM352.66 52C353.246 51.4142 353.246 50.5858 352.66 50L346 43.3397C345.414 42.754 344.586 42.754 344 43.3397L336.34 51L344 58.6603C344.586 59.246 345.414 59.246 346 58.6603L352.66 52ZM264 52.5H345V49.5H264V52.5Z" fill="#B3B3B3"/>
<path d="M451 45.02L451.02 44.998M459 45.02L459.02 44.998M451 53.02L451.02 52.998M459 53.02L459.02 52.998M451 61.02L451.02 60.998M459 61.02L459.02 60.998M467 69H444.2C443.882 69 443.577 68.8736 443.351 68.6485C443.126 68.4235 443 68.1183 443 67.8V38.2C443 37.8817 443.126 37.5765 443.351 37.3515C443.577 37.1264 443.882 37 444.2 37H455V34.2C455 33.8817 455.126 33.5765 455.351 33.3515C455.577 33.1264 455.882 33 456.2 33H465.8C466.118 33 466.423 33.1264 466.649 33.3515C466.874 33.5765 467 33.8817 467 34.2V45M467 69H477.8C478.118 69 478.423 68.8736 478.649 68.6485C478.874 68.4235 479 68.1183 479 67.8V46.2C479 45.8817 478.874 45.5765 478.649 45.3515C478.423 45.1264 478.118 45 477.8 45H467M467 69V61M467 45V53M467 61V53M467 61H471M467 53H471" stroke="#4A4A4A" stroke-width="4" stroke-linecap="round" stroke-linejoin="round"/>
<path d="M449.152 87.272H456.992V88.168H449.152V87.272ZM448.896 89.432H457.248V90.36H448.896V89.432ZM452.384 87.704H453.488V89.288C453.488 90.696 453.024 92.424 449.456 93.544C449.296 93.304 448.976 92.936 448.752 92.744C452.048 91.832 452.384 90.312 452.384 89.272V87.704ZM453.472 89.816C454.048 91.24 455.36 92.232 457.248 92.616C457.008 92.824 456.72 93.224 456.576 93.496C454.576 92.968 453.2 91.768 452.544 90.024L453.472 89.816ZM450.16 85.96L451.104 85.656C451.488 86.152 451.856 86.824 451.984 87.272L450.992 87.608C450.864 87.128 450.528 86.456 450.16 85.96ZM454.832 85.624L455.92 85.976C455.536 86.6 455.136 87.24 454.8 87.688L454 87.368C454.288 86.872 454.656 86.12 454.832 85.624ZM447.12 82.408H451.616V83.224H447.12V82.408ZM454.464 82.408H459.008V83.224H454.464V82.408ZM458.56 80.248H459.744V92.856C459.744 93.512 459.6 93.864 459.168 94.072C458.768 94.264 458.08 94.28 457.056 94.28C457.024 93.976 456.864 93.448 456.704 93.128C457.408 93.16 458.08 93.16 458.288 93.144C458.48 93.144 458.56 93.064 458.56 92.84V80.248ZM447.216 80.248H452.352V85.448H447.216V84.552H451.216V81.144H447.216V80.248ZM459.136 80.248V81.144H454.912V84.568H459.136V85.464H453.76V80.248H459.136ZM446.496 80.248H447.68V94.296H446.496V80.248ZM461.952 81.096H475.936V82.216H461.952V81.096ZM468.24 79.576H469.488V94.28H468.24V79.576ZM467.872 88.744L468.88 89.192C467.376 91.208 464.736 93.08 462.4 94.04C462.208 93.736 461.84 93.272 461.552 93.032C463.888 92.216 466.512 90.504 467.872 88.744ZM469.888 88.76C471.264 90.52 473.936 92.232 476.304 93.032C476.016 93.272 475.648 93.736 475.456 94.072C473.088 93.128 470.416 91.208 468.912 89.208L469.888 88.76ZM464.528 86.952V88.488H473.424V86.952H464.528ZM464.528 84.52V86.04H473.424V84.52H464.528ZM463.36 83.576H474.64V89.448H463.36V83.576Z" fill="#424242"/>
<path d="M359 122.02L359.02 121.998M367 122.02L367.02 121.998M359 130.02L359.02 129.998M367 130.02L367.02 129.998M359 138.02L359.02 137.998M367 138.02L367.02 137.998M375 146H352.2C351.882 146 351.577 145.874 351.351 145.649C351.126 145.423 351 145.118 351 144.8V115.2C351 114.882 351.126 114.577 351.351 114.351C351.577 114.126 351.882 114 352.2 114H363V111.2C363 110.882 363.126 110.577 363.351 110.351C363.577 110.126 363.882 110 364.2 110H373.8C374.118 110 374.423 110.126 374.649 110.351C374.874 110.577 375 110.882 375 111.2V122M375 146H385.8C386.118 146 386.423 145.874 386.649 145.649C386.874 145.423 387 145.118 387 144.8V123.2C387 122.882 386.874 122.577 386.649 122.351C386.423 122.126 386.118 122 385.8 122H375M375 146V138M375 122V130M375 138V130M375 138H379M375 130H379" stroke="#4A4A4A" stroke-width="4" stroke-linecap="round" stroke-linejoin="round"/>
<path d="M354.128 157.096H368.112V158.216H354.128V157.096ZM360.416 155.576H361.664V170.28H360.416V155.576ZM360.048 164.744L361.056 165.192C359.552 167.208 356.912 169.08 354.576 170.04C354.384 169.736 354.016 169.272 353.728 169.032C356.064 168.216 358.688 166.504 360.048 164.744ZM362.064 164.76C363.44 166.52 366.112 168.232 368.48 169.032C368.192 169.272 367.824 169.736 367.632 170.072C365.264 169.128 362.592 167.208 361.088 165.208L362.064 164.76ZM356.704 162.952V164.488H365.6V162.952H356.704ZM356.704 160.52V162.04H365.6V160.52H356.704ZM355.536 159.576H366.816V165.448H355.536V159.576ZM369.936 157.416H383.904V158.568H369.936V157.416ZM376.24 155.56H377.504V158.024H376.24V155.56ZM373.088 161.096V163.72H380.8V161.096H373.088ZM371.904 160.04H382.064V164.792H371.904V160.04ZM379.888 166.264L380.976 165.736C382.048 166.776 383.376 168.248 384.032 169.192L382.864 169.8C382.272 168.872 380.976 167.336 379.888 166.264ZM376.256 164.344H377.504V168.888C377.504 169.592 377.344 169.928 376.784 170.104C376.24 170.28 375.328 170.296 373.904 170.28C373.84 169.96 373.664 169.48 373.504 169.16C374.592 169.192 375.6 169.176 375.888 169.16C376.176 169.16 376.256 169.096 376.256 168.872V164.344ZM372.576 165.72L373.792 166.104C373.024 167.368 371.792 168.792 370.592 169.688C370.352 169.464 369.92 169.144 369.648 168.984C370.8 168.152 371.984 166.824 372.576 165.72Z" fill="#424242"/>
<path d="M264 203.5C263.172 203.5 262.5 204.172 262.5 205C262.5 205.828 263.172 206.5 264 206.5V203.5ZM352.66 129C353.246 128.414 353.246 127.586 352.66 127L346 120.34C345.414 119.754 344.586 119.754 344 120.34L336.34 128L344 135.66C344.586 136.246 345.414 136.246 346 135.66L352.66 129ZM264 206.5H278.5V203.5H264V206.5ZM304 181V152H301V181H304ZM326.5 129.5H345V126.5H326.5V129.5ZM304 152C304 139.574 314.074 129.5 326.5 129.5V126.5C312.417 126.5 301 137.917 301 152H304ZM278.5 206.5C292.583 206.5 304 195.083 304 181H301C301 193.426 290.926 203.5 278.5 203.5V206.5Z" fill="#B3B3B3"/>
<path d="M397 126.5C396.172 126.5 395.5 127.172 395.5 128C395.5 128.828 396.172 129.5 397 129.5V126.5ZM444.66 52C445.246 51.4142 445.246 50.5858 444.66 50L438 43.3397C437.414 42.754 436.586 42.754 436 43.3397L428.34 51L436 58.6603C436.586 59.246 437.414 59.246 438 58.6603L444.66 52ZM416.5 110V73H413.5V110H416.5ZM416.5 73C416.5 61.6782 425.678 52.5 437 52.5V49.5C424.021 49.5 413.5 60.0213 413.5 73H416.5ZM397 129.5C407.77 129.5 416.5 120.77 416.5 110H413.5C413.5 119.113 406.113 126.5 397 126.5V129.5Z" fill="#B3B3B3"/>
<path d="M264 126.5C263.172 126.5 262.5 127.172 262.5 128C262.5 128.828 263.172 129.5 264 129.5V126.5ZM352.66 129C353.246 128.414 353.246 127.586 352.66 127L346 120.34C345.414 119.754 344.586 119.754 344 120.34L336.34 128L344 135.66C344.586 136.246 345.414 136.246 346 135.66L352.66 129ZM264 129.5H345V126.5H264V129.5Z" fill="#B3B3B3"/>
<path d="M397 49.5C396.172 49.5 395.5 50.1716 395.5 51C395.5 51.8284 396.172 52.5 397 52.5V49.5ZM444.66 52C445.246 51.4142 445.246 50.5858 444.66 50L438 43.3397C437.414 42.754 436.586 42.754 436 43.3397L428.34 51L436 58.6603C436.586 59.246 437.414 59.246 438 58.6603L444.66 52ZM397 52.5H437V49.5H397V52.5Z" fill="#B3B3B3"/>
<defs>
<clipPath id="clip0_50_831">
<rect width="127.815" height="26" fill="white" transform="translate(0 287.6)"/>
</clipPath>
<clipPath id="clip1_50_831">
<rect width="127.815" height="26" fill="white" transform="translate(0 339.4)"/>
</clipPath>
<clipPath id="clip2_50_831">
<rect width="127.815" height="26" fill="white" transform="translate(0 313.2)"/>
</clipPath>
<clipPath id="clip3_50_831">
<rect width="139.532" height="26" fill="white" transform="translate(166 287.4)"/>
</clipPath>
<clipPath id="clip4_50_831">
<rect width="139.532" height="26" fill="white" transform="translate(166 313.2)"/>
</clipPath>
<clipPath id="clip5_50_831">
<rect width="139.532" height="26" fill="white" transform="translate(166 338.8)"/>
</clipPath>
<clipPath id="clip6_50_831">
<rect width="139.532" height="26" fill="white" transform="translate(344 287.6)"/>
</clipPath>
<clipPath id="clip7_50_831">
<rect width="139.532" height="26" fill="white" transform="translate(344 313.2)"/>
</clipPath>
<clipPath id="clip8_50_831">
<rect width="139.532" height="26" fill="white" transform="translate(344 338.8)"/>
</clipPath>
</defs>
</svg>
