<svg width="620" height="232" viewBox="0 0 620 232" fill="none" xmlns="http://www.w3.org/2000/svg">
<rect width="131" height="34" transform="translate(478 30)" fill="#4F60C6"/>
<path d="M496.404 40.52H501.204V41.656H497.572V54.296H496.404V40.52ZM487.876 41.336H495.524V42.408H487.876V41.336ZM487.46 45.768H495.732V46.872H487.46V45.768ZM491.092 39.624H492.26V41.992H491.092V39.624ZM488.868 42.968L489.876 42.744C490.228 43.544 490.532 44.616 490.628 45.32L489.556 45.576C489.476 44.872 489.204 43.784 488.868 42.968ZM493.46 42.632L494.612 42.904C494.26 43.848 493.876 44.92 493.524 45.624L492.564 45.368C492.884 44.632 493.268 43.448 493.46 42.632ZM488.964 52.296H494.228V53.368H488.964V52.296ZM488.532 48.264H494.836V54.216H493.684V49.336H489.652V54.296H488.532V48.264ZM500.884 40.52H501.124L501.316 40.472L502.196 41.032C501.54 42.536 500.708 44.392 499.972 45.864C501.588 47.352 501.972 48.616 501.988 49.768C501.988 50.744 501.764 51.496 501.204 51.88C500.916 52.056 500.564 52.168 500.148 52.232C499.748 52.28 499.22 52.264 498.756 52.248C498.74 51.912 498.628 51.4 498.42 51.064C498.884 51.096 499.348 51.112 499.668 51.096C499.94 51.08 500.164 51.016 500.356 50.904C500.708 50.696 500.82 50.232 500.82 49.64C500.804 48.632 500.34 47.432 498.724 46.024C499.54 44.376 500.404 42.168 500.884 40.904V40.52ZM504.532 42.744H508.98V43.656H504.532V42.744ZM511.892 42.744H516.42V43.656H511.892V42.744ZM515.908 40.328H517.108V52.648C517.108 53.464 516.916 53.848 516.372 54.04C515.812 54.248 514.868 54.264 513.412 54.264C513.348 53.928 513.14 53.368 512.964 53.016C514.068 53.08 515.172 53.064 515.492 53.048C515.812 53.032 515.908 52.952 515.908 52.648V40.328ZM504.628 40.328H509.684V46.2H504.628V45.192H508.548V41.336H504.628V40.328ZM516.532 40.328V41.336H512.34V45.208H516.532V46.216H511.188V40.328H516.532ZM503.956 40.328H505.14V54.28H503.956V40.328ZM524.02 52.536H531.748V53.64H524.02V52.536ZM523.476 41.176H529.348V42.248H523.476V41.176ZM524.196 39.512L525.54 39.784C524.34 41.864 522.42 44.04 519.636 45.688C519.46 45.384 519.06 44.968 518.788 44.76C521.428 43.32 523.268 41.256 524.196 39.512ZM528.948 41.176H529.172L529.396 41.112L530.196 41.544C528.276 46.376 523.764 49.592 519.412 51C519.268 50.68 518.964 50.184 518.708 49.928C522.852 48.728 527.284 45.592 528.948 41.384V41.176ZM521.476 44.024L522.372 43.256C523.636 44.12 525.172 45.4 525.908 46.312L524.932 47.176C524.26 46.264 522.74 44.92 521.476 44.024ZM531.156 47.48H532.388V54.312H531.156V47.48ZM524.564 47.48H531.764V48.584H524.564V54.28H523.364V48.424L524.324 47.48H524.564Z" fill="white"/>
<rect x="543" y="30" width="1" height="34" fill="#B3B3B3"/>
<path d="M553.764 41.24H560.468V42.28H553.764V41.24ZM553.444 44.984H560.644V46.008H553.444V44.984ZM556.58 39.608H557.732V41.912H556.58V39.608ZM556.612 45.944H557.764V54.28H556.612V45.944ZM556.596 48.056L557.444 48.552C556.724 50.264 555.316 52.136 553.988 53.192C553.828 52.904 553.54 52.488 553.284 52.264C554.564 51.4 555.94 49.672 556.596 48.056ZM557.62 48.952C558.18 49.336 560.084 50.936 560.516 51.336L559.764 52.248C559.22 51.592 557.62 50.04 556.98 49.48L557.62 48.952ZM554.74 42.552L555.684 42.344C556.02 43.08 556.308 44.072 556.372 44.728L555.364 44.968C555.316 44.328 555.06 43.304 554.74 42.552ZM558.596 42.312L559.684 42.568C559.396 43.4 559.092 44.344 558.82 44.968L557.892 44.728C558.132 44.072 558.452 43.016 558.596 42.312ZM562.276 43.96V45.624H566.292V43.96H562.276ZM562.276 46.6V48.28H566.292V46.6H562.276ZM562.276 41.336V42.984H566.292V41.336H562.276ZM561.188 40.264H567.428V49.352H561.188V40.264ZM564.628 49H565.716V52.616C565.716 52.968 565.764 53.016 566.068 53.016C566.18 53.016 566.756 53.016 566.916 53.016C567.236 53.016 567.284 52.808 567.316 50.888C567.556 51.096 568.02 51.272 568.324 51.352C568.244 53.56 567.94 54.088 567.06 54.088C566.836 54.088 566.1 54.088 565.892 54.088C564.852 54.088 564.628 53.736 564.628 52.632V49ZM562.26 49.064H563.364C563.156 51.656 562.548 53.368 560.052 54.328C559.94 54.072 559.62 53.656 559.38 53.448C561.604 52.664 562.084 51.256 562.26 49.064ZM553.604 47.64H560.5V48.68H553.604V47.64ZM578.1 40.52H582.9V41.656H579.268V54.296H578.1V40.52ZM569.572 41.336H577.22V42.408H569.572V41.336ZM569.156 45.768H577.428V46.872H569.156V45.768ZM572.788 39.624H573.956V41.992H572.788V39.624ZM570.564 42.968L571.572 42.744C571.924 43.544 572.228 44.616 572.324 45.32L571.252 45.576C571.172 44.872 570.9 43.784 570.564 42.968ZM575.156 42.632L576.308 42.904C575.956 43.848 575.572 44.92 575.22 45.624L574.26 45.368C574.58 44.632 574.964 43.448 575.156 42.632ZM570.66 52.296H575.924V53.368H570.66V52.296ZM570.228 48.264H576.532V54.216H575.38V49.336H571.348V54.296H570.228V48.264ZM582.58 40.52H582.82L583.012 40.472L583.892 41.032C583.236 42.536 582.404 44.392 581.668 45.864C583.284 47.352 583.668 48.616 583.684 49.768C583.684 50.744 583.46 51.496 582.9 51.88C582.612 52.056 582.26 52.168 581.844 52.232C581.444 52.28 580.916 52.264 580.452 52.248C580.436 51.912 580.324 51.4 580.116 51.064C580.58 51.096 581.044 51.112 581.364 51.096C581.636 51.08 581.86 51.016 582.052 50.904C582.404 50.696 582.516 50.232 582.516 49.64C582.5 48.632 582.036 47.432 580.42 46.024C581.236 44.376 582.1 42.168 582.58 40.904V40.52ZM586.228 42.744H590.676V43.656H586.228V42.744ZM593.588 42.744H598.116V43.656H593.588V42.744ZM597.604 40.328H598.804V52.648C598.804 53.464 598.612 53.848 598.068 54.04C597.508 54.248 596.564 54.264 595.108 54.264C595.044 53.928 594.836 53.368 594.66 53.016C595.764 53.08 596.868 53.064 597.188 53.048C597.508 53.032 597.604 52.952 597.604 52.648V40.328ZM586.324 40.328H591.38V46.2H586.324V45.192H590.244V41.336H586.324V40.328ZM598.228 40.328V41.336H594.036V45.208H598.228V46.216H592.884V40.328H598.228ZM585.652 40.328H586.836V54.28H585.652V40.328Z" fill="white"/>
<rect x="478.5" y="72.5" width="130" height="33" fill="white"/>
<rect x="478.5" y="72.5" width="130" height="33" stroke="#B3B3B3"/>
<path d="M495.692 83.096H509.676V84.216H495.692V83.096ZM501.98 81.576H503.228V96.28H501.98V81.576ZM501.612 90.744L502.62 91.192C501.116 93.208 498.476 95.08 496.14 96.04C495.948 95.736 495.58 95.272 495.292 95.032C497.628 94.216 500.252 92.504 501.612 90.744ZM503.628 90.76C505.004 92.52 507.676 94.232 510.044 95.032C509.756 95.272 509.388 95.736 509.196 96.072C506.828 95.128 504.156 93.208 502.652 91.208L503.628 90.76ZM498.268 88.952V90.488H507.164V88.952H498.268ZM498.268 86.52V88.04H507.164V86.52H498.268ZM497.1 85.576H508.38V91.448H497.1V85.576ZM511.372 83.416H525.34V84.568H511.372V83.416ZM517.676 81.56H518.94V84.024H517.676V81.56ZM514.524 87.096V89.72H522.236V87.096H514.524ZM513.34 86.04H523.5V90.792H513.34V86.04ZM521.324 92.264L522.412 91.736C523.484 92.776 524.812 94.248 525.468 95.192L524.3 95.8C523.708 94.872 522.412 93.336 521.324 92.264ZM517.692 90.344H518.94V94.888C518.94 95.592 518.78 95.928 518.22 96.104C517.676 96.28 516.764 96.296 515.34 96.28C515.276 95.96 515.1 95.48 514.94 95.16C516.028 95.192 517.036 95.176 517.324 95.16C517.612 95.16 517.692 95.096 517.692 94.872V90.344ZM514.012 91.72L515.228 92.104C514.46 93.368 513.228 94.792 512.028 95.688C511.788 95.464 511.356 95.144 511.084 94.984C512.236 94.152 513.42 92.824 514.012 91.72Z" fill="#424242"/>
<rect x="543" y="72" width="1" height="34" fill="#B3B3B3"/>
<path d="M564.716 89.272H572.556V90.168H564.716V89.272ZM564.46 91.432H572.812V92.36H564.46V91.432ZM567.948 89.704H569.052V91.288C569.052 92.696 568.588 94.424 565.02 95.544C564.86 95.304 564.54 94.936 564.316 94.744C567.612 93.832 567.948 92.312 567.948 91.272V89.704ZM569.036 91.816C569.612 93.24 570.924 94.232 572.812 94.616C572.572 94.824 572.284 95.224 572.14 95.496C570.14 94.968 568.764 93.768 568.108 92.024L569.036 91.816ZM565.724 87.96L566.668 87.656C567.052 88.152 567.42 88.824 567.548 89.272L566.556 89.608C566.428 89.128 566.092 88.456 565.724 87.96ZM570.396 87.624L571.484 87.976C571.1 88.6 570.7 89.24 570.364 89.688L569.564 89.368C569.852 88.872 570.22 88.12 570.396 87.624ZM562.684 84.408H567.18V85.224H562.684V84.408ZM570.028 84.408H574.572V85.224H570.028V84.408ZM574.124 82.248H575.308V94.856C575.308 95.512 575.164 95.864 574.732 96.072C574.332 96.264 573.644 96.28 572.62 96.28C572.588 95.976 572.428 95.448 572.268 95.128C572.972 95.16 573.644 95.16 573.852 95.144C574.044 95.144 574.124 95.064 574.124 94.84V82.248ZM562.78 82.248H567.916V87.448H562.78V86.552H566.78V83.144H562.78V82.248ZM574.7 82.248V83.144H570.476V86.568H574.7V87.464H569.324V82.248H574.7ZM562.06 82.248H563.244V96.296H562.06V82.248ZM577.388 83.096H591.372V84.216H577.388V83.096ZM583.676 81.576H584.924V96.28H583.676V81.576ZM583.308 90.744L584.316 91.192C582.812 93.208 580.172 95.08 577.836 96.04C577.644 95.736 577.276 95.272 576.988 95.032C579.324 94.216 581.948 92.504 583.308 90.744ZM585.324 90.76C586.7 92.52 589.372 94.232 591.74 95.032C591.452 95.272 591.084 95.736 590.892 96.072C588.524 95.128 585.852 93.208 584.348 91.208L585.324 90.76ZM579.964 88.952V90.488H588.86V88.952H579.964ZM579.964 86.52V88.04H588.86V86.52H579.964ZM578.796 85.576H590.076V91.448H578.796V85.576Z" fill="#424242"/>
<rect x="478.5" y="114.5" width="130" height="33" fill="#DFE2F4"/>
<rect x="478.5" y="114.5" width="130" height="33" stroke="#B3B3B3"/>
<path d="M494.26 129.496H501.268V130.552H494.26V129.496ZM494.228 132.664H501.444V133.752H494.228V132.664ZM497.092 123.56H498.244V138.28H497.092V123.56ZM493.652 126.344H501.828V134.36H500.692V127.432H494.772V134.44H493.652V126.344ZM487.684 126.568H492.516V127.672H487.684V126.568ZM489.876 123.576H491.044V127.112H489.876V123.576ZM491.172 130.2C491.604 130.52 493.076 131.88 493.428 132.232L492.724 133.208C492.26 132.616 490.996 131.304 490.484 130.808L491.172 130.2ZM492.084 126.568H492.34L492.548 126.52L493.22 126.952C492.116 129.864 489.844 132.552 487.716 134.04C487.604 133.736 487.3 133.176 487.092 132.968C489.092 131.672 491.188 129.24 492.084 126.824V126.568ZM489.876 131.384L491.044 129.944V138.264H489.876V131.384ZM503.54 125.656H517.444V126.744H503.54V125.656ZM504.74 132.184H516.26V133.24H504.74V132.184ZM507.156 129.272H513.86V130.328H507.156V129.272ZM512.58 126.12C513.668 127.96 515.86 129.688 518.004 130.488C517.732 130.712 517.364 131.16 517.172 131.464C515.012 130.52 512.82 128.6 511.588 126.488L512.58 126.12ZM509.892 132.76H511.092V137.016C511.092 137.656 510.948 137.96 510.452 138.12C509.956 138.28 509.172 138.296 507.988 138.296C507.908 137.976 507.716 137.544 507.54 137.24C508.468 137.272 509.332 137.272 509.572 137.256C509.812 137.256 509.892 137.192 509.892 137V132.76ZM506.58 134.136L507.732 134.472C506.932 135.752 505.668 137 504.532 137.832C504.308 137.624 503.844 137.224 503.572 137.064C504.708 136.328 505.876 135.24 506.58 134.136ZM512.932 134.696L513.892 134.12C515.012 135.048 516.404 136.344 517.076 137.208L516.052 137.848C515.412 137 514.052 135.64 512.932 134.696ZM509.364 123.56L510.676 123.736C509.716 126.696 507.572 129.736 503.716 131.608C503.54 131.304 503.156 130.888 502.884 130.696C506.628 129.016 508.66 126.152 509.364 123.56ZM520.74 124.44H521.956V129.896C521.956 132.952 521.732 136.024 519.636 138.408C519.412 138.152 518.932 137.768 518.628 137.576C520.516 135.416 520.74 132.648 520.74 129.88V124.44ZM525.828 125.096H527.028V136.872H525.828V125.096ZM531.204 124.392H532.452V138.264H531.204V124.392Z" fill="#424242"/>
<rect x="543" y="114" width="1" height="34" fill="#B3B3B3"/>
<path d="M564.716 131.272H572.556V132.168H564.716V131.272ZM564.46 133.432H572.812V134.36H564.46V133.432ZM567.948 131.704H569.052V133.288C569.052 134.696 568.588 136.424 565.02 137.544C564.86 137.304 564.54 136.936 564.316 136.744C567.612 135.832 567.948 134.312 567.948 133.272V131.704ZM569.036 133.816C569.612 135.24 570.924 136.232 572.812 136.616C572.572 136.824 572.284 137.224 572.14 137.496C570.14 136.968 568.764 135.768 568.108 134.024L569.036 133.816ZM565.724 129.96L566.668 129.656C567.052 130.152 567.42 130.824 567.548 131.272L566.556 131.608C566.428 131.128 566.092 130.456 565.724 129.96ZM570.396 129.624L571.484 129.976C571.1 130.6 570.7 131.24 570.364 131.688L569.564 131.368C569.852 130.872 570.22 130.12 570.396 129.624ZM562.684 126.408H567.18V127.224H562.684V126.408ZM570.028 126.408H574.572V127.224H570.028V126.408ZM574.124 124.248H575.308V136.856C575.308 137.512 575.164 137.864 574.732 138.072C574.332 138.264 573.644 138.28 572.62 138.28C572.588 137.976 572.428 137.448 572.268 137.128C572.972 137.16 573.644 137.16 573.852 137.144C574.044 137.144 574.124 137.064 574.124 136.84V124.248ZM562.78 124.248H567.916V129.448H562.78V128.552H566.78V125.144H562.78V124.248ZM574.7 124.248V125.144H570.476V128.568H574.7V129.464H569.324V124.248H574.7ZM562.06 124.248H563.244V138.296H562.06V124.248ZM577.388 125.096H591.372V126.216H577.388V125.096ZM583.676 123.576H584.924V138.28H583.676V123.576ZM583.308 132.744L584.316 133.192C582.812 135.208 580.172 137.08 577.836 138.04C577.644 137.736 577.276 137.272 576.988 137.032C579.324 136.216 581.948 134.504 583.308 132.744ZM585.324 132.76C586.7 134.52 589.372 136.232 591.74 137.032C591.452 137.272 591.084 137.736 590.892 138.072C588.524 137.128 585.852 135.208 584.348 133.208L585.324 132.76ZM579.964 130.952V132.488H588.86V130.952H579.964ZM579.964 128.52V130.04H588.86V128.52H579.964ZM578.796 127.576H590.076V133.448H578.796V127.576Z" fill="#424242"/>
<rect x="478.5" y="156.5" width="130" height="33" fill="white"/>
<rect x="478.5" y="156.5" width="130" height="33" stroke="#B3B3B3"/>
<path d="M498.716 173.272H506.556V174.168H498.716V173.272ZM498.46 175.432H506.812V176.36H498.46V175.432ZM501.948 173.704H503.052V175.288C503.052 176.696 502.588 178.424 499.02 179.544C498.86 179.304 498.54 178.936 498.316 178.744C501.612 177.832 501.948 176.312 501.948 175.272V173.704ZM503.036 175.816C503.612 177.24 504.924 178.232 506.812 178.616C506.572 178.824 506.284 179.224 506.14 179.496C504.14 178.968 502.764 177.768 502.108 176.024L503.036 175.816ZM499.724 171.96L500.668 171.656C501.052 172.152 501.42 172.824 501.548 173.272L500.556 173.608C500.428 173.128 500.092 172.456 499.724 171.96ZM504.396 171.624L505.484 171.976C505.1 172.6 504.7 173.24 504.364 173.688L503.564 173.368C503.852 172.872 504.22 172.12 504.396 171.624ZM496.684 168.408H501.18V169.224H496.684V168.408ZM504.028 168.408H508.572V169.224H504.028V168.408ZM508.124 166.248H509.308V178.856C509.308 179.512 509.164 179.864 508.732 180.072C508.332 180.264 507.644 180.28 506.62 180.28C506.588 179.976 506.428 179.448 506.268 179.128C506.972 179.16 507.644 179.16 507.852 179.144C508.044 179.144 508.124 179.064 508.124 178.84V166.248ZM496.78 166.248H501.916V171.448H496.78V170.552H500.78V167.144H496.78V166.248ZM508.7 166.248V167.144H504.476V170.568H508.7V171.464H503.324V166.248H508.7ZM496.06 166.248H497.244V180.296H496.06V166.248ZM511.388 167.096H525.372V168.216H511.388V167.096ZM517.676 165.576H518.924V180.28H517.676V165.576ZM517.308 174.744L518.316 175.192C516.812 177.208 514.172 179.08 511.836 180.04C511.644 179.736 511.276 179.272 510.988 179.032C513.324 178.216 515.948 176.504 517.308 174.744ZM519.324 174.76C520.7 176.52 523.372 178.232 525.74 179.032C525.452 179.272 525.084 179.736 524.892 180.072C522.524 179.128 519.852 177.208 518.348 175.208L519.324 174.76ZM513.964 172.952V174.488H522.86V172.952H513.964ZM513.964 170.52V172.04H522.86V170.52H513.964ZM512.796 169.576H524.076V175.448H512.796V169.576Z" fill="#424242"/>
<rect x="543" y="156" width="1" height="34" fill="#B3B3B3"/>
<path d="M553.844 167.096H567.828V168.216H553.844V167.096ZM560.132 165.576H561.38V180.28H560.132V165.576ZM559.764 174.744L560.772 175.192C559.268 177.208 556.628 179.08 554.292 180.04C554.1 179.736 553.732 179.272 553.444 179.032C555.78 178.216 558.404 176.504 559.764 174.744ZM561.78 174.76C563.156 176.52 565.828 178.232 568.196 179.032C567.908 179.272 567.54 179.736 567.348 180.072C564.98 179.128 562.308 177.208 560.804 175.208L561.78 174.76ZM556.42 172.952V174.488H565.316V172.952H556.42ZM556.42 170.52V172.04H565.316V170.52H556.42ZM555.252 169.576H566.532V175.448H555.252V169.576ZM571.316 166.648H581.796V180.04H580.532V167.864H572.548V180.104H571.316V166.648ZM572.132 172.2H581.06V173.384H572.132V172.2ZM572.116 177.864H581.092V179.064H572.116V177.864ZM585.22 168.936H599.188V170.152H585.22V168.936ZM588.42 176.072H595.876V177.288H588.42V176.072ZM591.54 165.576H592.804V180.28H591.54V165.576ZM591.172 169.336L592.244 169.704C590.82 173.096 588.308 176.152 585.54 177.768C585.348 177.464 584.948 177.016 584.676 176.776C587.348 175.384 589.892 172.408 591.172 169.336ZM593.204 169.384C594.468 172.424 596.98 175.336 599.748 176.664C599.444 176.92 599.028 177.4 598.836 177.736C596.004 176.168 593.54 173.112 592.132 169.752L593.204 169.384Z" fill="#424242"/>
<rect width="120" height="34" transform="translate(38 30)" fill="#4F60C6"/>
<path d="M54.976 52.536H62.704V53.64H54.976V52.536ZM54.432 41.176H60.304V42.248H54.432V41.176ZM55.152 39.512L56.496 39.784C55.296 41.864 53.376 44.04 50.592 45.688C50.416 45.384 50.016 44.968 49.744 44.76C52.384 43.32 54.224 41.256 55.152 39.512ZM59.904 41.176H60.128L60.352 41.112L61.152 41.544C59.232 46.376 54.72 49.592 50.368 51C50.224 50.68 49.92 50.184 49.664 49.928C53.808 48.728 58.24 45.592 59.904 41.384V41.176ZM52.432 44.024L53.328 43.256C54.592 44.12 56.128 45.4 56.864 46.312L55.888 47.176C55.216 46.264 53.696 44.92 52.432 44.024ZM62.112 47.48H63.344V54.312H62.112V47.48ZM55.52 47.48H62.72V48.584H55.52V54.28H54.32V48.424L55.28 47.48H55.52ZM65.696 42.088H80V43.208H65.696V42.088ZM67.344 47.24H71.824V48.184H67.344V47.24ZM67.344 49.8H71.824V50.744H67.344V49.8ZM74.496 44.776H75.632V51.352H74.496V44.776ZM71.392 44.632H72.56V52.904C72.56 53.512 72.416 53.832 71.968 54.024C71.536 54.216 70.832 54.216 69.744 54.216C69.68 53.912 69.504 53.464 69.344 53.16C70.144 53.192 70.88 53.192 71.104 53.176C71.328 53.16 71.392 53.096 71.392 52.888V44.632ZM77.744 44.296H78.928V52.792C78.928 53.496 78.768 53.832 78.272 54.024C77.776 54.2 76.976 54.232 75.728 54.232C75.664 53.912 75.472 53.4 75.296 53.08C76.272 53.112 77.136 53.112 77.408 53.096C77.664 53.08 77.744 53.016 77.744 52.792V44.296ZM68.176 39.96L69.28 39.544C69.904 40.232 70.576 41.176 70.88 41.8L69.696 42.232C69.44 41.624 68.784 40.648 68.176 39.96ZM76.4 39.496L77.68 39.912C77.072 40.904 76.352 42.008 75.76 42.76L74.704 42.36C75.28 41.592 76 40.36 76.4 39.496ZM66.704 44.632H71.776V45.672H67.84V54.2H66.704V44.632Z" fill="white"/>
<rect x="92" y="30" width="1" height="34" fill="#B3B3B3"/>
<path d="M111.065 45.048H117.097V46.12H111.065V45.048ZM107.305 52.6H115.369V53.672H107.305V52.6ZM110.489 43.144H111.705V49H110.489V43.144ZM106.665 48.424H116.025V54.28H114.793V49.512H107.833V54.312H106.665V48.424ZM109.929 39.576H111.161V42.296H109.929V39.576ZM104.601 41.64H117.321V42.792H104.601V41.64ZM104.009 41.64H105.209V45.784C105.209 48.248 104.985 51.864 103.609 54.296C103.401 54.088 102.873 53.752 102.585 53.624C103.897 51.32 104.009 48.088 104.009 45.784V41.64ZM125.017 41.8H133.065V42.856H125.017V41.8ZM125.993 47.016H132.281V48.024H125.993V47.016ZM125.993 49.672H132.281V50.68H125.993V49.672ZM128.505 39.56H129.593V54.168H128.505V39.56ZM131.689 44.376H132.761V53.048C132.761 53.576 132.665 53.896 132.313 54.056C131.961 54.248 131.449 54.264 130.617 54.264C130.585 53.976 130.425 53.528 130.281 53.24C130.825 53.256 131.321 53.256 131.481 53.24C131.625 53.24 131.689 53.192 131.689 53.016V44.376ZM125.465 44.376H132.249V45.416H126.537V54.248H125.465V44.376ZM130.089 40.184L130.745 39.608C131.513 39.96 132.441 40.552 132.889 40.984L132.185 41.656C131.737 41.192 130.825 40.584 130.089 40.184ZM119.209 48.968H124.569V53.864H123.465V49.976H120.281V54.168H119.209V48.968ZM121.289 42.696H122.409V47.272H121.289V42.696ZM119.289 44.264H124.505V45.224H119.289V44.264ZM118.681 46.872H124.937V47.88H118.681V46.872ZM119.641 52.312H124.073V53.32H119.641V52.312ZM121.113 39.576H121.769V39.832H122.137V40.168C121.497 41.352 120.457 43 118.937 44.392C118.761 44.136 118.377 43.768 118.137 43.608C119.529 42.408 120.553 40.808 121.113 39.576ZM121.353 39.576H122.233C123.209 40.44 124.409 41.688 124.969 42.504L124.217 43.432C123.657 42.6 122.537 41.224 121.577 40.392H121.353V39.576ZM136.299 41.3636V53H134.89V41.3636H136.299ZM142.411 53H138.82V41.3636H142.57C143.699 41.3636 144.665 41.5966 145.468 42.0625C146.271 42.5246 146.887 43.1894 147.315 44.0568C147.743 44.9205 147.957 45.9545 147.957 47.1591C147.957 48.3712 147.741 49.4148 147.309 50.2898C146.877 51.161 146.248 51.8314 145.423 52.3011C144.597 52.767 143.593 53 142.411 53ZM140.229 51.75H142.32C143.282 51.75 144.08 51.5644 144.712 51.1932C145.345 50.822 145.816 50.2936 146.127 49.608C146.438 48.9223 146.593 48.1061 146.593 47.1591C146.593 46.2197 146.44 45.411 146.133 44.733C145.826 44.0511 145.368 43.5284 144.758 43.1648C144.148 42.7973 143.388 42.6136 142.479 42.6136H140.229V51.75Z" fill="white"/>
<rect x="38.5" y="72.5" width="119" height="33" fill="white"/>
<rect x="38.5" y="72.5" width="119" height="33" stroke="#B3B3B3"/>
<path d="M59.616 83.336H60.688V94.776H59.616V83.336ZM56.448 82.84H64.016V95.96H62.896V83.96H57.536V96.088H56.448V82.84ZM57.04 88.392H63.392V89.496H57.04V88.392ZM57.04 94.104H63.344V95.208H57.04V94.104ZM52.464 89.096H53.536V96.264H52.464V89.096ZM52.304 81.56L53.376 81.992C52.768 83.176 51.984 84.6 51.36 85.496L50.512 85.112C51.136 84.184 51.888 82.632 52.304 81.56ZM54.272 83.4L55.296 83.896C54.176 85.672 52.592 87.944 51.36 89.32L50.608 88.888C51.84 87.48 53.392 85.096 54.272 83.4ZM49.744 84.984L50.352 84.184C51.216 84.904 52.208 85.928 52.64 86.616L52 87.544C51.584 86.808 50.592 85.72 49.744 84.984ZM53.824 87.064L54.736 86.664C55.44 87.704 56.144 89.08 56.416 89.976L55.456 90.44C55.2 89.544 54.512 88.12 53.824 87.064ZM49.632 88.632C51.088 88.552 53.248 88.408 55.392 88.248L55.408 89.224C53.408 89.4 51.36 89.592 49.808 89.736L49.632 88.632ZM54.112 90.936L55.04 90.648C55.504 91.624 55.952 92.904 56.144 93.752L55.136 94.088C54.992 93.24 54.56 91.928 54.112 90.936ZM50.624 90.696L51.664 90.888C51.456 92.392 51.072 93.944 50.576 94.968C50.368 94.84 49.888 94.616 49.616 94.52C50.144 93.544 50.448 92.104 50.624 90.696ZM67.392 82.44H68.608V87.896C68.608 90.952 68.384 94.024 66.288 96.408C66.064 96.152 65.584 95.768 65.28 95.576C67.168 93.416 67.392 90.648 67.392 87.88V82.44ZM72.48 83.096H73.68V94.872H72.48V83.096ZM77.856 82.392H79.104V96.264H77.856V82.392Z" fill="#424242"/>
<rect x="92" y="72" width="1" height="34" fill="#B3B3B3"/>
<path d="M117.169 95V93.9773L121.01 89.7727C121.461 89.2803 121.832 88.8523 122.124 88.4886C122.415 88.1212 122.631 87.7765 122.771 87.4545C122.915 87.1288 122.987 86.7879 122.987 86.4318C122.987 86.0227 122.889 85.6686 122.692 85.3693C122.499 85.0701 122.233 84.839 121.896 84.6761C121.559 84.5133 121.18 84.4318 120.76 84.4318C120.313 84.4318 119.923 84.5246 119.59 84.7102C119.26 84.892 119.004 85.1477 118.822 85.4773C118.644 85.8068 118.555 86.1932 118.555 86.6364H117.215C117.215 85.9545 117.372 85.3561 117.686 84.8409C118 84.3258 118.429 83.9242 118.97 83.6364C119.516 83.3485 120.127 83.2045 120.805 83.2045C121.487 83.2045 122.091 83.3485 122.618 83.6364C123.144 83.9242 123.557 84.3125 123.857 84.8011C124.156 85.2898 124.305 85.8333 124.305 86.4318C124.305 86.8598 124.228 87.2784 124.072 87.6875C123.921 88.0928 123.656 88.5455 123.277 89.0455C122.902 89.5417 122.381 90.1477 121.715 90.8636L119.101 93.6591V93.75H124.51V95H117.169ZM126.553 95V93.9773L130.393 89.7727C130.844 89.2803 131.215 88.8523 131.507 88.4886C131.799 88.1212 132.015 87.7765 132.155 87.4545C132.299 87.1288 132.371 86.7879 132.371 86.4318C132.371 86.0227 132.272 85.6686 132.075 85.3693C131.882 85.0701 131.617 84.839 131.28 84.6761C130.943 84.5133 130.564 84.4318 130.143 84.4318C129.696 84.4318 129.306 84.5246 128.973 84.7102C128.643 84.892 128.388 85.1477 128.206 85.4773C128.028 85.8068 127.939 86.1932 127.939 86.6364H126.598C126.598 85.9545 126.755 85.3561 127.07 84.8409C127.384 84.3258 127.812 83.9242 128.354 83.6364C128.899 83.3485 129.511 83.2045 130.189 83.2045C130.871 83.2045 131.475 83.3485 132.001 83.6364C132.528 83.9242 132.941 84.3125 133.24 84.8011C133.539 85.2898 133.689 85.8333 133.689 86.4318C133.689 86.8598 133.611 87.2784 133.456 87.6875C133.304 88.0928 133.039 88.5455 132.661 89.0455C132.286 89.5417 131.765 90.1477 131.098 90.8636L128.484 93.6591V93.75H133.893V95H126.553Z" fill="#424242"/>
<rect x="38.5" y="114.5" width="119" height="33" fill="#DFE2F4"/>
<rect x="38.5" y="114.5" width="119" height="33" stroke="#B3B3B3"/>
<path d="M50.192 125.096H64.096V126.136H50.192V125.096ZM56.448 123.56H57.68V125.592H56.448V123.56ZM50.896 131.352H62.784V132.376H52.064V138.296H50.896V131.352ZM62.288 131.352H63.488V136.856C63.488 137.512 63.344 137.864 62.832 138.072C62.32 138.248 61.456 138.264 60.128 138.264C60.08 137.928 59.904 137.448 59.728 137.128C60.784 137.16 61.68 137.16 61.952 137.128C62.224 137.128 62.288 137.048 62.288 136.824V131.352ZM54.096 133.416H55.168V137.608H54.096V133.416ZM54.672 133.416H60.208V136.792H54.672V135.928H59.12V134.28H54.672V133.416ZM54 127.912V129.464H60.256V127.912H54ZM52.848 127.032H61.472V130.344H52.848V127.032ZM67.728 133.096H78.672V134.024H67.728V133.096ZM68.384 131H79.984V131.944H68.384V131ZM68.384 126.952H76.768V127.784H68.384V126.952ZM78.224 133.096H79.424C79.424 133.096 79.408 133.416 79.376 133.576C79.136 136.328 78.928 137.432 78.496 137.88C78.224 138.152 77.936 138.248 77.504 138.28C77.12 138.312 76.304 138.312 75.472 138.248C75.456 137.944 75.328 137.496 75.152 137.208C75.952 137.288 76.704 137.288 76.96 137.288C77.248 137.288 77.392 137.272 77.536 137.144C77.824 136.856 78.032 135.848 78.224 133.256V133.096ZM71.952 123.512L73.328 123.688C73.008 124.36 72.608 125.048 72.288 125.512L71.264 125.272C71.504 124.76 71.808 124.008 71.952 123.512ZM68.416 124.856H77.6V129.896H68.416V129.016H76.4V125.752H68.416V124.856ZM67.728 124.856H68.928V133.432H67.728V124.856ZM74.048 134.488H75.152V137.224H66.992V136.264H74.048V134.488ZM70.208 133.88H71.328V136.648H70.208V133.88ZM66.384 134.552H67.472V138.008H66.384V134.552Z" fill="#424242"/>
<rect x="92" y="114" width="1" height="34" fill="#B3B3B3"/>
<path d="M117.169 137V135.977L121.01 131.773C121.461 131.28 121.832 130.852 122.124 130.489C122.415 130.121 122.631 129.777 122.771 129.455C122.915 129.129 122.987 128.788 122.987 128.432C122.987 128.023 122.889 127.669 122.692 127.369C122.499 127.07 122.233 126.839 121.896 126.676C121.559 126.513 121.18 126.432 120.76 126.432C120.313 126.432 119.923 126.525 119.59 126.71C119.26 126.892 119.004 127.148 118.822 127.477C118.644 127.807 118.555 128.193 118.555 128.636H117.215C117.215 127.955 117.372 127.356 117.686 126.841C118 126.326 118.429 125.924 118.97 125.636C119.516 125.348 120.127 125.205 120.805 125.205C121.487 125.205 122.091 125.348 122.618 125.636C123.144 125.924 123.557 126.312 123.857 126.801C124.156 127.29 124.305 127.833 124.305 128.432C124.305 128.86 124.228 129.278 124.072 129.688C123.921 130.093 123.656 130.545 123.277 131.045C122.902 131.542 122.381 132.148 121.715 132.864L119.101 135.659V135.75H124.51V137H117.169ZM126.553 137V135.977L130.393 131.773C130.844 131.28 131.215 130.852 131.507 130.489C131.799 130.121 132.015 129.777 132.155 129.455C132.299 129.129 132.371 128.788 132.371 128.432C132.371 128.023 132.272 127.669 132.075 127.369C131.882 127.07 131.617 126.839 131.28 126.676C130.943 126.513 130.564 126.432 130.143 126.432C129.696 126.432 129.306 126.525 128.973 126.71C128.643 126.892 128.388 127.148 128.206 127.477C128.028 127.807 127.939 128.193 127.939 128.636H126.598C126.598 127.955 126.755 127.356 127.07 126.841C127.384 126.326 127.812 125.924 128.354 125.636C128.899 125.348 129.511 125.205 130.189 125.205C130.871 125.205 131.475 125.348 132.001 125.636C132.528 125.924 132.941 126.312 133.24 126.801C133.539 127.29 133.689 127.833 133.689 128.432C133.689 128.86 133.611 129.278 133.456 129.688C133.304 130.093 133.039 130.545 132.661 131.045C132.286 131.542 131.765 132.148 131.098 132.864L128.484 135.659V135.75H133.893V137H126.553Z" fill="#424242"/>
<rect x="38.5" y="156.5" width="119" height="33" fill="white"/>
<rect x="38.5" y="156.5" width="119" height="33" stroke="#B3B3B3"/>
<path d="M59.296 173.784H60.384V179.192H59.296V173.784ZM57.68 169.432V171.208H62.256V169.432H57.68ZM56.592 168.472H63.376V172.168H56.592V168.472ZM55.76 173.208H64.112V180.232H62.96V174.216H56.88V180.28H55.76V173.208ZM56.416 175.88H63.504V176.824H56.416V175.88ZM56.432 178.536H63.504V179.528H56.432V178.536ZM55.696 166.344H64.208V167.384H55.696V166.344ZM50.032 168.568H54.864V169.672H50.032V168.568ZM52.224 165.576H53.392V169.112H52.224V165.576ZM53.52 172.2C53.952 172.52 55.424 173.88 55.776 174.232L55.072 175.208C54.608 174.616 53.344 173.304 52.832 172.808L53.52 172.2ZM54.432 168.568H54.688L54.896 168.52L55.568 168.952C54.464 171.864 52.192 174.552 50.064 176.04C49.952 175.736 49.648 175.176 49.44 174.968C51.44 173.672 53.536 171.24 54.432 168.824V168.568ZM52.224 173.384L53.392 171.944V180.264H52.224V173.384ZM69.408 165.64H70.672V171.864C70.672 175.16 70.272 178.28 67.008 180.44C66.784 180.184 66.288 179.752 65.984 179.576C69.072 177.576 69.408 174.84 69.408 171.848V165.64ZM75.104 165.624H76.368V180.28H75.104V165.624ZM65.808 173.864H79.904V175.064H65.808V173.864ZM66.32 168.872H79.536V170.072H66.32V168.872Z" fill="#424242"/>
<rect x="92" y="156" width="1" height="34" fill="#B3B3B3"/>
<path d="M116.318 176.614V175.455L121.432 167.364H122.273V169.159H121.705L117.841 175.273V175.364H124.727V176.614H116.318ZM121.795 179V176.261V175.722V167.364H123.136V179H121.795ZM126.28 176.614V175.455L131.393 167.364H132.234V169.159H131.666L127.803 175.273V175.364H134.689V176.614H126.28ZM131.757 179V176.261V175.722V167.364H133.098V179H131.757Z" fill="#424242"/>
<rect width="148" height="34" transform="translate(244 30)" fill="#4F60C6"/>
<g clip-path="url(#clip0_61_4888)">
<path d="M256.103 41.3636V53H254.694V41.3636H256.103ZM262.215 53H258.624V41.3636H262.374C263.503 41.3636 264.469 41.5966 265.272 42.0625C266.075 42.5246 266.691 43.1894 267.119 44.0568C267.547 44.9205 267.761 45.9545 267.761 47.1591C267.761 48.3712 267.545 49.4148 267.113 50.2898C266.681 51.161 266.052 51.8314 265.227 52.3011C264.401 52.767 263.397 53 262.215 53ZM260.033 51.75H262.124C263.086 51.75 263.884 51.5644 264.516 51.1932C265.149 50.822 265.62 50.2936 265.931 49.608C266.242 48.9223 266.397 48.1061 266.397 47.1591C266.397 46.2197 266.244 45.411 265.937 44.733C265.63 44.0511 265.172 43.5284 264.562 43.1648C263.952 42.7973 263.192 42.6136 262.283 42.6136H260.033V51.75Z" fill="white"/>
</g>
<rect x="278" y="30" width="1" height="34" fill="#B3B3B3"/>
<path d="M295.628 45.048H301.66V46.12H295.628V45.048ZM291.868 52.6H299.932V53.672H291.868V52.6ZM295.052 43.144H296.268V49H295.052V43.144ZM291.228 48.424H300.588V54.28H299.356V49.512H292.396V54.312H291.228V48.424ZM294.492 39.576H295.724V42.296H294.492V39.576ZM289.164 41.64H301.884V42.792H289.164V41.64ZM288.572 41.64H289.772V45.784C289.772 48.248 289.548 51.864 288.172 54.296C287.964 54.088 287.436 53.752 287.148 53.624C288.46 51.32 288.572 48.088 288.572 45.784V41.64ZM308.172 52.536H315.9V53.64H308.172V52.536ZM307.628 41.176H313.5V42.248H307.628V41.176ZM308.348 39.512L309.692 39.784C308.492 41.864 306.572 44.04 303.788 45.688C303.612 45.384 303.212 44.968 302.94 44.76C305.58 43.32 307.42 41.256 308.348 39.512ZM313.1 41.176H313.324L313.548 41.112L314.348 41.544C312.428 46.376 307.916 49.592 303.564 51C303.42 50.68 303.116 50.184 302.86 49.928C307.004 48.728 311.436 45.592 313.1 41.384V41.176ZM305.628 44.024L306.524 43.256C307.788 44.12 309.324 45.4 310.06 46.312L309.084 47.176C308.412 46.264 306.892 44.92 305.628 44.024ZM315.308 47.48H316.54V54.312H315.308V47.48ZM308.716 47.48H315.916V48.584H308.716V54.28H307.516V48.424L308.476 47.48H308.716Z" fill="white"/>
<rect x="326" y="30" width="1" height="34" fill="#B3B3B3"/>
<path d="M346.092 41.304H347.228V50.12H346.092V41.304ZM349.356 39.848H350.54V52.632C350.54 53.448 350.348 53.8 349.836 54.008C349.34 54.2 348.428 54.248 347.18 54.248C347.132 53.896 346.956 53.336 346.78 52.968C347.756 53.016 348.7 53 349.02 53C349.276 52.984 349.356 52.904 349.356 52.632V39.848ZM338.22 52.472H343.596V53.432H338.22V52.472ZM336.684 47.448H344.956V48.408H336.684V47.448ZM337.564 43.512H344.204V44.424H337.564V43.512ZM337.644 45.464H344.012V46.344H337.644V45.464ZM340.268 39.608H341.436V41.592H340.268V39.608ZM340.3 42.472H341.42V47.976H340.3V42.472ZM337.644 49.288H344.22V54.072H343.084V50.232H338.748V54.248H337.644V49.288ZM336.684 41.048H345.132V43.576H344.012V42.008H337.756V43.576H336.684V41.048ZM358.828 39.56H360.124V45.88H358.828V39.56ZM353.42 40.712L354.508 40.264C355.404 41.384 356.268 42.904 356.636 43.912L355.5 44.424C355.148 43.384 354.268 41.832 353.42 40.712ZM364.316 40.136L365.596 40.568C364.924 41.928 364.012 43.496 363.292 44.536L362.252 44.12C362.956 43.064 363.836 41.352 364.316 40.136ZM353.644 45.224H365.388V54.296H364.124V46.424H353.644V45.224ZM354.188 48.744H364.604V49.912H354.188V48.744ZM353.34 52.408H364.764V53.592H353.34V52.408ZM376.652 47.288H377.852V52.328C377.852 52.808 377.964 52.888 378.572 52.888C378.844 52.888 380.22 52.888 380.604 52.888C381.196 52.888 381.276 52.568 381.34 50.488C381.612 50.696 382.124 50.888 382.46 50.968C382.332 53.4 381.98 54.04 380.684 54.04C380.38 54.04 378.732 54.04 378.428 54.04C377.004 54.04 376.652 53.64 376.652 52.312V47.288ZM368.172 46.456H382.236V47.608H368.172V46.456ZM370.796 42.056H381.084V43.224H370.796V42.056ZM372.38 47.336H373.628C373.308 50.6 372.476 53.08 368.716 54.376C368.572 54.056 368.22 53.592 367.948 53.352C371.452 52.264 372.108 50.12 372.38 47.336ZM371.116 39.944L372.332 40.184C371.836 42.008 370.988 44.248 369.868 45.672C369.596 45.48 369.116 45.224 368.828 45.096C369.916 43.752 370.732 41.608 371.116 39.944ZM374.588 39.576H375.804V46.824H374.588V39.576Z" fill="white"/>
<rect x="244.5" y="72.5" width="147" height="33" fill="white"/>
<rect x="244.5" y="72.5" width="147" height="33" stroke="#B3B3B3"/>
<path d="M252.669 95V93.9773L256.51 89.7727C256.961 89.2803 257.332 88.8523 257.624 88.4886C257.915 88.1212 258.131 87.7765 258.271 87.4545C258.415 87.1288 258.487 86.7879 258.487 86.4318C258.487 86.0227 258.389 85.6686 258.192 85.3693C257.999 85.0701 257.733 84.839 257.396 84.6761C257.059 84.5133 256.68 84.4318 256.26 84.4318C255.813 84.4318 255.423 84.5246 255.09 84.7102C254.76 84.892 254.504 85.1477 254.322 85.4773C254.144 85.8068 254.055 86.1932 254.055 86.6364H252.715C252.715 85.9545 252.872 85.3561 253.186 84.8409C253.5 84.3258 253.929 83.9242 254.47 83.6364C255.016 83.3485 255.627 83.2045 256.305 83.2045C256.987 83.2045 257.591 83.3485 258.118 83.6364C258.644 83.9242 259.057 84.3125 259.357 84.8011C259.656 85.2898 259.805 85.8333 259.805 86.4318C259.805 86.8598 259.728 87.2784 259.572 87.6875C259.421 88.0928 259.156 88.5455 258.777 89.0455C258.402 89.5417 257.881 90.1477 257.215 90.8636L254.601 93.6591V93.75H260.01V95H252.669ZM262.053 95V93.9773L265.893 89.7727C266.344 89.2803 266.715 88.8523 267.007 88.4886C267.299 88.1212 267.515 87.7765 267.655 87.4545C267.799 87.1288 267.871 86.7879 267.871 86.4318C267.871 86.0227 267.772 85.6686 267.575 85.3693C267.382 85.0701 267.117 84.839 266.78 84.6761C266.443 84.5133 266.064 84.4318 265.643 84.4318C265.196 84.4318 264.806 84.5246 264.473 84.7102C264.143 84.892 263.888 85.1477 263.706 85.4773C263.528 85.8068 263.439 86.1932 263.439 86.6364H262.098C262.098 85.9545 262.255 85.3561 262.57 84.8409C262.884 84.3258 263.312 83.9242 263.854 83.6364C264.399 83.3485 265.011 83.2045 265.689 83.2045C266.371 83.2045 266.975 83.3485 267.501 83.6364C268.028 83.9242 268.441 84.3125 268.74 84.8011C269.039 85.2898 269.189 85.8333 269.189 86.4318C269.189 86.8598 269.111 87.2784 268.956 87.6875C268.804 88.0928 268.539 88.5455 268.161 89.0455C267.786 89.5417 267.265 90.1477 266.598 90.8636L263.984 93.6591V93.75H269.393V95H262.053Z" fill="#424242"/>
<rect x="278" y="72" width="1" height="34" fill="#B3B3B3"/>
<path d="M296.044 86.968H301.996V88.088H296.044V86.968ZM287.628 83.24H294.684V84.264H287.628V83.24ZM287.452 89.592H294.764V90.632H287.452V89.592ZM287.404 86.904H294.876V87.928H287.404V86.904ZM299.02 87.416H300.188V96.2H299.02V87.416ZM290.588 81.624H291.756V83.768H290.588V81.624ZM290.588 87.736H291.756V96.264H290.588V87.736ZM295.468 82.872L296.94 83.32C296.924 83.448 296.828 83.512 296.604 83.544V88.488C296.604 90.888 296.316 94.136 294.06 96.36C293.916 96.088 293.484 95.688 293.196 95.528C295.244 93.512 295.468 90.744 295.468 88.472V82.872ZM300.828 81.752L301.788 82.632C300.284 83.304 298.044 83.848 296.124 84.184C296.06 83.928 295.9 83.512 295.756 83.272C297.548 82.888 299.66 82.328 300.828 81.752ZM291.644 90.936C292.156 91.288 293.9 92.712 294.3 93.08L293.596 93.976C293.084 93.384 291.58 91.976 290.988 91.48L291.644 90.936ZM288.588 84.552L289.532 84.344C289.868 85.048 290.14 85.992 290.22 86.6L289.212 86.872C289.164 86.248 288.908 85.288 288.588 84.552ZM292.684 84.312L293.772 84.552C293.468 85.352 293.132 86.248 292.844 86.84L291.884 86.616C292.172 85.976 292.508 84.984 292.684 84.312ZM290.604 90.12L291.468 90.456C290.652 92.232 289.18 94.12 287.9 95.112C287.708 94.84 287.356 94.456 287.084 94.264C288.38 93.416 289.836 91.688 290.604 90.12ZM309.708 81.576H310.94V83.608H309.708V81.576ZM303.676 82.952H317.068V85.576H315.852V84.04H304.86V85.784H303.676V82.952ZM307.852 85.912H317.148V87H307.852V85.912ZM309.164 91.576H315.916V92.584H309.164V91.576ZM309.164 94.648H315.916V95.704H309.164V94.648ZM308.62 88.68H316.492V96.28H315.308V89.736H309.772V96.312H308.62V88.68ZM311.836 86.408L313.148 86.712C312.844 87.688 312.508 88.776 312.22 89.512L311.18 89.208C311.404 88.456 311.708 87.256 311.836 86.408ZM306.62 84.888L307.74 85.24C306.7 87.48 305.084 89.624 303.436 91.016C303.292 90.76 302.908 90.216 302.684 89.96C304.252 88.744 305.724 86.856 306.62 84.888ZM305.26 87.8L306.316 86.744L306.412 86.792V96.296H305.26V87.8Z" fill="#424242"/>
<rect x="326" y="72" width="1" height="34" fill="#B3B3B3"/>
<path d="M344.692 83.096H358.676V84.216H344.692V83.096ZM350.98 81.576H352.228V96.28H350.98V81.576ZM350.612 90.744L351.62 91.192C350.116 93.208 347.476 95.08 345.14 96.04C344.948 95.736 344.58 95.272 344.292 95.032C346.628 94.216 349.252 92.504 350.612 90.744ZM352.628 90.76C354.004 92.52 356.676 94.232 359.044 95.032C358.756 95.272 358.388 95.736 358.196 96.072C355.828 95.128 353.156 93.208 351.652 91.208L352.628 90.76ZM347.268 88.952V90.488H356.164V88.952H347.268ZM347.268 86.52V88.04H356.164V86.52H347.268ZM346.1 85.576H357.38V91.448H346.1V85.576ZM360.372 83.416H374.34V84.568H360.372V83.416ZM366.676 81.56H367.94V84.024H366.676V81.56ZM363.524 87.096V89.72H371.236V87.096H363.524ZM362.34 86.04H372.5V90.792H362.34V86.04ZM370.324 92.264L371.412 91.736C372.484 92.776 373.812 94.248 374.468 95.192L373.3 95.8C372.708 94.872 371.412 93.336 370.324 92.264ZM366.692 90.344H367.94V94.888C367.94 95.592 367.78 95.928 367.22 96.104C366.676 96.28 365.764 96.296 364.34 96.28C364.276 95.96 364.1 95.48 363.94 95.16C365.028 95.192 366.036 95.176 366.324 95.16C366.612 95.16 366.692 95.096 366.692 94.872V90.344ZM363.012 91.72L364.228 92.104C363.46 93.368 362.228 94.792 361.028 95.688C360.788 95.464 360.356 95.144 360.084 94.984C361.236 94.152 362.42 92.824 363.012 91.72Z" fill="#424242"/>
<rect x="244.5" y="114.5" width="147" height="33" fill="#DFE2F4"/>
<rect x="244.5" y="114.5" width="147" height="33" stroke="#B3B3B3"/>
<path d="M251.818 134.614V133.455L256.932 125.364H257.773V127.159H257.205L253.341 133.273V133.364H260.227V134.614H251.818ZM257.295 137V134.261V133.722V125.364H258.636V137H257.295ZM261.78 134.614V133.455L266.893 125.364H267.734V127.159H267.166L263.303 133.273V133.364H270.189V134.614H261.78ZM267.257 137V134.261V133.722V125.364H268.598V137H267.257Z" fill="#424242"/>
<rect x="278" y="114" width="1" height="34" fill="#B3B3B3"/>
<path d="M297.244 135.304L298.06 134.52C299.42 135.32 301.164 136.536 302.012 137.384L301.164 138.296C300.348 137.432 298.652 136.168 297.244 135.304ZM291.292 129H302.012V130.152H291.292V129ZM297.116 125.784H301.404V126.904H297.116V125.784ZM296.444 123.56H297.628V129.736H296.444V123.56ZM293.212 124.92H294.364V129.64H293.212V124.92ZM292.3 131.272L293.18 130.616C294.092 131.336 295.196 132.392 295.692 133.128L294.764 133.848C294.284 133.112 293.228 132.024 292.3 131.272ZM300.236 130.424L301.324 131.128C300.412 132.072 299.26 133.16 298.348 133.848L297.468 133.24C298.348 132.52 299.548 131.32 300.236 130.424ZM291.26 137.16C292.332 136.568 293.996 135.56 295.58 134.568L295.964 135.608C294.604 136.536 293.116 137.48 291.948 138.2L291.26 137.16ZM288.092 124.568L288.764 123.704C289.772 124.136 291.036 124.856 291.644 125.416L290.956 126.392C290.348 125.816 289.116 125.048 288.092 124.568ZM287.244 128.92L287.9 128.024C288.924 128.408 290.22 129.096 290.86 129.624L290.172 130.616C289.548 130.072 288.284 129.352 287.244 128.92ZM287.724 137.288C288.54 136.056 289.708 133.928 290.572 132.104L291.484 132.84C290.7 134.536 289.644 136.568 288.764 138.056L287.724 137.288ZM306.332 136.584H314.396V137.64H306.332V136.584ZM305.868 131.864H314.908V138.28H313.644V132.936H307.1V138.296H305.868V131.864ZM310.3 127.768C308.988 129.8 306.412 132.152 303.74 133.64C303.58 133.368 303.26 132.952 302.988 132.696C305.756 131.256 308.396 128.776 309.628 126.6H310.828C312.492 129.064 315.276 131.352 317.788 132.52C317.5 132.808 317.228 133.224 317.02 133.56C314.54 132.232 311.772 129.912 310.3 127.768ZM311.82 124.52L312.748 123.864C314.284 124.952 316.188 126.536 317.1 127.64L316.092 128.392C315.244 127.288 313.388 125.656 311.82 124.52ZM307.612 123.912L308.796 124.328C307.676 125.944 305.996 127.528 304.508 128.536C304.284 128.312 303.804 127.88 303.516 127.688C305.052 126.776 306.636 125.352 307.612 123.912Z" fill="#424242"/>
<rect x="326" y="114" width="1" height="34" fill="#B3B3B3"/>
<path d="M344.692 125.096H358.676V126.216H344.692V125.096ZM350.98 123.576H352.228V138.28H350.98V123.576ZM350.612 132.744L351.62 133.192C350.116 135.208 347.476 137.08 345.14 138.04C344.948 137.736 344.58 137.272 344.292 137.032C346.628 136.216 349.252 134.504 350.612 132.744ZM352.628 132.76C354.004 134.52 356.676 136.232 359.044 137.032C358.756 137.272 358.388 137.736 358.196 138.072C355.828 137.128 353.156 135.208 351.652 133.208L352.628 132.76ZM347.268 130.952V132.488H356.164V130.952H347.268ZM347.268 128.52V130.04H356.164V128.52H347.268ZM346.1 127.576H357.38V133.448H346.1V127.576ZM360.372 125.416H374.34V126.568H360.372V125.416ZM366.676 123.56H367.94V126.024H366.676V123.56ZM363.524 129.096V131.72H371.236V129.096H363.524ZM362.34 128.04H372.5V132.792H362.34V128.04ZM370.324 134.264L371.412 133.736C372.484 134.776 373.812 136.248 374.468 137.192L373.3 137.8C372.708 136.872 371.412 135.336 370.324 134.264ZM366.692 132.344H367.94V136.888C367.94 137.592 367.78 137.928 367.22 138.104C366.676 138.28 365.764 138.296 364.34 138.28C364.276 137.96 364.1 137.48 363.94 137.16C365.028 137.192 366.036 137.176 366.324 137.16C366.612 137.16 366.692 137.096 366.692 136.872V132.344ZM363.012 133.72L364.228 134.104C363.46 135.368 362.228 136.792 361.028 137.688C360.788 137.464 360.356 137.144 360.084 136.984C361.236 136.152 362.42 134.824 363.012 133.72Z" fill="#424242"/>
<rect x="244.5" y="156.5" width="147" height="33" fill="white"/>
<rect x="244.5" y="156.5" width="147" height="33" stroke="#B3B3B3"/>
<path d="M256.236 179.159C255.759 179.152 255.281 179.061 254.804 178.886C254.327 178.712 253.891 178.419 253.497 178.006C253.103 177.589 252.787 177.027 252.548 176.318C252.31 175.606 252.19 174.712 252.19 173.636C252.19 172.606 252.287 171.693 252.48 170.898C252.673 170.098 252.954 169.426 253.321 168.881C253.688 168.331 254.132 167.915 254.651 167.631C255.173 167.347 255.762 167.205 256.418 167.205C257.069 167.205 257.649 167.335 258.156 167.597C258.668 167.854 259.084 168.214 259.406 168.676C259.728 169.138 259.937 169.67 260.031 170.273H258.645C258.516 169.75 258.266 169.316 257.895 168.972C257.524 168.627 257.031 168.455 256.418 168.455C255.516 168.455 254.806 168.847 254.287 169.631C253.772 170.415 253.512 171.515 253.509 172.932H253.599C253.812 172.61 254.063 172.335 254.355 172.108C254.651 171.877 254.976 171.699 255.332 171.574C255.688 171.449 256.065 171.386 256.463 171.386C257.13 171.386 257.74 171.553 258.293 171.886C258.846 172.216 259.289 172.672 259.622 173.256C259.956 173.835 260.122 174.5 260.122 175.25C260.122 175.97 259.961 176.629 259.639 177.227C259.317 177.822 258.865 178.295 258.281 178.648C257.702 178.996 257.02 179.167 256.236 179.159ZM256.236 177.909C256.713 177.909 257.141 177.79 257.52 177.551C257.902 177.312 258.204 176.992 258.423 176.591C258.647 176.189 258.759 175.742 258.759 175.25C258.759 174.769 258.651 174.331 258.435 173.938C258.223 173.54 257.929 173.223 257.554 172.989C257.183 172.754 256.759 172.636 256.281 172.636C255.921 172.636 255.586 172.708 255.276 172.852C254.965 172.992 254.692 173.186 254.457 173.432C254.226 173.678 254.045 173.96 253.912 174.278C253.779 174.593 253.713 174.924 253.713 175.273C253.713 175.735 253.821 176.167 254.037 176.568C254.257 176.97 254.556 177.294 254.935 177.54C255.317 177.786 255.751 177.909 256.236 177.909ZM265.916 179.159C265.439 179.152 264.962 179.061 264.484 178.886C264.007 178.712 263.571 178.419 263.178 178.006C262.784 177.589 262.467 177.027 262.229 176.318C261.99 175.606 261.871 174.712 261.871 173.636C261.871 172.606 261.967 171.693 262.161 170.898C262.354 170.098 262.634 169.426 263.001 168.881C263.369 168.331 263.812 167.915 264.331 167.631C264.854 167.347 265.443 167.205 266.098 167.205C266.75 167.205 267.329 167.335 267.837 167.597C268.348 167.854 268.765 168.214 269.087 168.676C269.409 169.138 269.617 169.67 269.712 170.273H268.325C268.196 169.75 267.946 169.316 267.575 168.972C267.204 168.627 266.712 168.455 266.098 168.455C265.196 168.455 264.486 168.847 263.967 169.631C263.452 170.415 263.193 171.515 263.189 172.932H263.28C263.492 172.61 263.744 172.335 264.036 172.108C264.331 171.877 264.657 171.699 265.013 171.574C265.369 171.449 265.746 171.386 266.143 171.386C266.81 171.386 267.42 171.553 267.973 171.886C268.526 172.216 268.969 172.672 269.303 173.256C269.636 173.835 269.803 174.5 269.803 175.25C269.803 175.97 269.642 176.629 269.32 177.227C268.998 177.822 268.545 178.295 267.962 178.648C267.382 178.996 266.7 179.167 265.916 179.159ZM265.916 177.909C266.393 177.909 266.821 177.79 267.2 177.551C267.583 177.312 267.884 176.992 268.104 176.591C268.327 176.189 268.439 175.742 268.439 175.25C268.439 174.769 268.331 174.331 268.115 173.938C267.903 173.54 267.609 173.223 267.234 172.989C266.863 172.754 266.439 172.636 265.962 172.636C265.602 172.636 265.267 172.708 264.956 172.852C264.645 172.992 264.373 173.186 264.138 173.432C263.907 173.678 263.725 173.96 263.592 174.278C263.46 174.593 263.393 174.924 263.393 175.273C263.393 175.735 263.501 176.167 263.717 176.568C263.937 176.97 264.236 177.294 264.615 177.54C264.998 177.786 265.431 177.909 265.916 177.909Z" fill="#424242"/>
<rect x="278" y="156" width="1" height="34" fill="#B3B3B3"/>
<path d="M292.54 169.64H302.012V170.68H292.54V169.64ZM292.988 167.048H301.66V168.04H292.988V167.048ZM294.876 165.576H296.028V170.28H294.876V165.576ZM296.668 170.312H297.788V176.84H296.668V170.312ZM298.572 165.576H299.708V170.328H298.572V165.576ZM294.3 174.968V176.36H300.3V174.968H294.3ZM294.3 172.744V174.12H300.3V172.744H294.3ZM293.244 171.848H301.404V177.256H293.244V171.848ZM295.356 177.592L296.396 178.248C295.5 179.016 294.06 179.832 292.892 180.296C292.716 180.072 292.348 179.704 292.092 179.48C293.26 179.032 294.668 178.248 295.356 177.592ZM287.468 169H292.716V170.136H287.468V169ZM289.708 165.56H290.828V180.264H289.708V165.56ZM289.676 169.704L290.412 169.96C289.916 172.504 288.844 175.656 287.676 177.256C287.548 176.936 287.276 176.488 287.068 176.216C288.14 174.776 289.228 171.992 289.676 169.704ZM290.732 171.224C291.1 171.64 292.476 173.624 292.764 174.088L292.092 175.016C291.74 174.232 290.62 172.36 290.22 171.736L290.732 171.224ZM298.22 178.312L299.084 177.656C300.108 178.184 301.484 179 302.188 179.56L301.276 180.312C300.62 179.752 299.276 178.888 298.22 178.312ZM303.292 179.336C304.076 178.072 305.18 175.928 305.98 174.072L306.94 174.808C306.188 176.52 305.196 178.568 304.364 180.072L303.292 179.336ZM309.948 176.504L311.164 176.92C310.22 178.184 308.812 179.48 307.596 180.312C307.372 180.088 306.86 179.688 306.572 179.496C307.82 178.76 309.132 177.608 309.948 176.504ZM313.5 177.096L314.492 176.504C315.692 177.4 317.164 178.712 317.868 179.608L316.78 180.296C316.124 179.416 314.7 178.04 313.5 177.096ZM315.612 165.752L316.572 166.696C314.572 167.352 311.676 167.896 309.18 168.264C309.132 167.992 308.972 167.56 308.812 167.288C311.228 166.92 314.028 166.328 315.612 165.752ZM306.908 174.696H317.772V175.832H306.908V174.696ZM309.148 170.04H317.42V171.16H309.148V170.04ZM313.964 170.6H315.132V175.496H313.964V170.6ZM308.556 166.952L309.756 167.24V175.416H308.556V166.952ZM303.772 166.568L304.444 165.704C305.468 166.136 306.748 166.872 307.372 167.448L306.668 168.424C306.06 167.832 304.796 167.048 303.772 166.568ZM302.908 170.904L303.548 170.008C304.588 170.408 305.884 171.112 306.54 171.656L305.868 172.648C305.228 172.088 303.964 171.352 302.908 170.904Z" fill="#424242"/>
<rect x="326" y="156" width="1" height="34" fill="#B3B3B3"/>
<path d="M343.26 171.496H350.268V172.552H343.26V171.496ZM343.228 174.664H350.444V175.752H343.228V174.664ZM346.092 165.56H347.244V180.28H346.092V165.56ZM342.652 168.344H350.828V176.36H349.692V169.432H343.772V176.44H342.652V168.344ZM336.684 168.568H341.516V169.672H336.684V168.568ZM338.876 165.576H340.044V169.112H338.876V165.576ZM340.172 172.2C340.604 172.52 342.076 173.88 342.428 174.232L341.724 175.208C341.26 174.616 339.996 173.304 339.484 172.808L340.172 172.2ZM341.084 168.568H341.34L341.548 168.52L342.22 168.952C341.116 171.864 338.844 174.552 336.716 176.04C336.604 175.736 336.3 175.176 336.092 174.968C338.092 173.672 340.188 171.24 341.084 168.824V168.568ZM338.876 173.384L340.044 171.944V180.264H338.876V173.384ZM352.54 167.656H366.444V168.744H352.54V167.656ZM353.74 174.184H365.26V175.24H353.74V174.184ZM356.156 171.272H362.86V172.328H356.156V171.272ZM361.58 168.12C362.668 169.96 364.86 171.688 367.004 172.488C366.732 172.712 366.364 173.16 366.172 173.464C364.012 172.52 361.82 170.6 360.588 168.488L361.58 168.12ZM358.892 174.76H360.092V179.016C360.092 179.656 359.948 179.96 359.452 180.12C358.956 180.28 358.172 180.296 356.988 180.296C356.908 179.976 356.716 179.544 356.54 179.24C357.468 179.272 358.332 179.272 358.572 179.256C358.812 179.256 358.892 179.192 358.892 179V174.76ZM355.58 176.136L356.732 176.472C355.932 177.752 354.668 179 353.532 179.832C353.308 179.624 352.844 179.224 352.572 179.064C353.708 178.328 354.876 177.24 355.58 176.136ZM361.932 176.696L362.892 176.12C364.012 177.048 365.404 178.344 366.076 179.208L365.052 179.848C364.412 179 363.052 177.64 361.932 176.696ZM358.364 165.56L359.676 165.736C358.716 168.696 356.572 171.736 352.716 173.608C352.54 173.304 352.156 172.888 351.884 172.696C355.628 171.016 357.66 168.152 358.364 165.56ZM369.74 166.44H370.956V171.896C370.956 174.952 370.732 178.024 368.636 180.408C368.412 180.152 367.932 179.768 367.628 179.576C369.516 177.416 369.74 174.648 369.74 171.88V166.44ZM374.828 167.096H376.028V178.872H374.828V167.096ZM380.204 166.392H381.452V180.264H380.204V166.392Z" fill="#424242"/>
<path d="M210.25 86.1667V98.9167C210.25 99.6681 210.548 100.389 211.08 100.92C211.611 101.451 212.332 101.75 213.083 101.75H232.917C233.668 101.75 234.389 101.451 234.92 100.92C235.451 100.389 235.75 99.6681 235.75 98.9167V86.1667M227.013 101.75V93.25C227.013 92.4986 226.715 91.7779 226.184 91.2465C225.652 90.7152 224.931 90.4167 224.18 90.4167H221.347C220.595 90.4167 219.875 90.7152 219.343 91.2465C218.812 91.7779 218.513 92.4986 218.513 93.25V101.75M227.958 76.25H233.692C233.876 76.25 234.056 76.3101 234.203 76.4213C234.351 76.5325 234.458 76.6887 234.509 76.8662L236.909 85.2657C236.943 85.378 236.953 85.4965 236.936 85.6129C236.92 85.7292 236.879 85.8407 236.815 85.9394C236.752 86.0382 236.667 86.1218 236.568 86.1846C236.468 86.2473 236.357 86.2876 236.24 86.3027C235.042 86.45 232.939 86.6101 231.5 86.1667C230.657 85.9074 229.578 85.2983 229.025 84.9682C228.914 84.9007 228.82 84.8078 228.751 84.6969C228.683 84.5861 228.642 84.4605 228.631 84.3307L227.958 76.25ZM227.958 76.25L228.624 84.2386C228.638 84.3924 228.608 84.5469 228.538 84.6845C228.467 84.8221 228.36 84.9371 228.227 85.0163C227.658 85.3535 226.638 85.9188 225.833 86.1667C223.718 86.8183 222.282 86.8183 220.167 86.1667C219.362 85.9188 218.342 85.3535 217.772 85.0178C217.64 84.9384 217.532 84.8231 217.462 84.6853C217.392 84.5475 217.362 84.3926 217.376 84.2386L218.042 76.25M227.958 76.25L218.042 76.25M218.042 76.25L217.369 84.3307C217.359 84.4608 217.317 84.5866 217.249 84.6977C217.181 84.8088 217.087 84.902 216.975 84.9696C216.424 85.2983 215.343 85.9074 214.5 86.1667C213.061 86.6087 210.957 86.45 209.76 86.3013C209.644 86.2861 209.532 86.2459 209.433 86.1833C209.334 86.1207 209.25 86.0374 209.186 85.939C209.122 85.8406 209.081 85.7295 209.065 85.6135C209.048 85.4975 209.057 85.3793 209.091 85.2671L211.491 76.8662C211.542 76.6887 211.649 76.5325 211.796 76.4213C211.944 76.3101 212.124 76.25 212.308 76.25L218.042 76.25Z" stroke="#404040" stroke-width="2"/>
<path d="M210.25 128.167V140.917C210.25 141.668 210.548 142.389 211.08 142.92C211.611 143.451 212.332 143.75 213.083 143.75H232.917C233.668 143.75 234.389 143.451 234.92 142.92C235.451 142.389 235.75 141.668 235.75 140.917V128.167M227.013 143.75V135.25C227.013 134.499 226.715 133.778 226.184 133.247C225.652 132.715 224.931 132.417 224.18 132.417H221.347C220.595 132.417 219.875 132.715 219.343 133.247C218.812 133.778 218.513 134.499 218.513 135.25V143.75M227.958 118.25H233.692C233.876 118.25 234.056 118.31 234.203 118.421C234.351 118.532 234.458 118.689 234.509 118.866L236.909 127.266C236.943 127.378 236.953 127.497 236.936 127.613C236.92 127.729 236.879 127.841 236.815 127.939C236.752 128.038 236.667 128.122 236.568 128.185C236.468 128.247 236.357 128.288 236.24 128.303C235.042 128.45 232.939 128.61 231.5 128.167C230.657 127.907 229.578 127.298 229.025 126.968C228.914 126.901 228.82 126.808 228.751 126.697C228.683 126.586 228.642 126.461 228.631 126.331L227.958 118.25ZM227.958 118.25L228.624 126.239C228.638 126.392 228.608 126.547 228.538 126.685C228.467 126.822 228.36 126.937 228.227 127.016C227.658 127.353 226.638 127.919 225.833 128.167C223.718 128.818 222.282 128.818 220.167 128.167C219.362 127.919 218.342 127.354 217.772 127.018C217.64 126.938 217.532 126.823 217.462 126.685C217.392 126.547 217.362 126.393 217.376 126.239L218.042 118.25M227.958 118.25L218.042 118.25M218.042 118.25L217.369 126.331C217.359 126.461 217.317 126.587 217.249 126.698C217.181 126.809 217.087 126.902 216.975 126.97C216.424 127.298 215.343 127.907 214.5 128.167C213.061 128.609 210.957 128.45 209.76 128.301C209.644 128.286 209.532 128.246 209.433 128.183C209.334 128.121 209.25 128.037 209.186 127.939C209.122 127.841 209.081 127.73 209.065 127.613C209.048 127.497 209.057 127.379 209.091 127.267L211.491 118.866C211.542 118.689 211.649 118.532 211.796 118.421C211.944 118.31 212.124 118.25 212.308 118.25L218.042 118.25Z" stroke="#404040" stroke-width="2"/>
<path d="M210.25 170.167V182.917C210.25 183.668 210.548 184.389 211.08 184.92C211.611 185.451 212.332 185.75 213.083 185.75H232.917C233.668 185.75 234.389 185.451 234.92 184.92C235.451 184.389 235.75 183.668 235.75 182.917V170.167M227.013 185.75V177.25C227.013 176.499 226.715 175.778 226.184 175.247C225.652 174.715 224.931 174.417 224.18 174.417H221.347C220.595 174.417 219.875 174.715 219.343 175.247C218.812 175.778 218.513 176.499 218.513 177.25V185.75M227.958 160.25H233.692C233.876 160.25 234.056 160.31 234.203 160.421C234.351 160.532 234.458 160.689 234.509 160.866L236.909 169.266C236.943 169.378 236.953 169.497 236.936 169.613C236.92 169.729 236.879 169.841 236.815 169.939C236.752 170.038 236.667 170.122 236.568 170.185C236.468 170.247 236.357 170.288 236.24 170.303C235.042 170.45 232.939 170.61 231.5 170.167C230.657 169.907 229.578 169.298 229.025 168.968C228.914 168.901 228.82 168.808 228.751 168.697C228.683 168.586 228.642 168.461 228.631 168.331L227.958 160.25ZM227.958 160.25L228.624 168.239C228.638 168.392 228.608 168.547 228.538 168.685C228.467 168.822 228.36 168.937 228.227 169.016C227.658 169.353 226.638 169.919 225.833 170.167C223.718 170.818 222.282 170.818 220.167 170.167C219.362 169.919 218.342 169.354 217.772 169.018C217.64 168.938 217.532 168.823 217.462 168.685C217.392 168.547 217.362 168.393 217.376 168.239L218.042 160.25M227.958 160.25L218.042 160.25M218.042 160.25L217.369 168.331C217.359 168.461 217.317 168.587 217.249 168.698C217.181 168.809 217.087 168.902 216.975 168.97C216.424 169.298 215.343 169.907 214.5 170.167C213.061 170.609 210.957 170.45 209.76 170.301C209.644 170.286 209.532 170.246 209.433 170.183C209.334 170.121 209.25 170.037 209.186 169.939C209.122 169.841 209.081 169.73 209.065 169.613C209.048 169.497 209.057 169.379 209.091 169.267L211.491 160.866C211.542 160.689 211.649 160.532 211.796 160.421C211.944 160.31 212.124 160.25 212.308 160.25L218.042 160.25Z" stroke="#404040" stroke-width="2"/>
<path d="M449.917 84.7642L449.931 84.7486M455.583 84.7642L455.598 84.7486M449.917 90.4308L449.931 90.4152M455.583 90.4308L455.598 90.4152M449.917 96.0975L449.931 96.0819M455.583 96.0975L455.598 96.0819M461.25 101.75H445.1C444.875 101.75 444.658 101.66 444.499 101.501C444.34 101.342 444.25 101.125 444.25 100.9V79.9333C444.25 79.7079 444.34 79.4917 444.499 79.3323C444.658 79.1729 444.875 79.0833 445.1 79.0833H452.75V77.1C452.75 76.8746 452.84 76.6584 452.999 76.499C453.158 76.3396 453.375 76.25 453.6 76.25H460.4C460.625 76.25 460.842 76.3396 461.001 76.499C461.16 76.6584 461.25 76.8746 461.25 77.1V84.75M461.25 101.75H468.9C469.125 101.75 469.342 101.66 469.501 101.501C469.66 101.342 469.75 101.125 469.75 100.9V85.6C469.75 85.3746 469.66 85.1584 469.501 84.999C469.342 84.8396 469.125 84.75 468.9 84.75H461.25M461.25 101.75V96.0833M461.25 84.75V90.4167M461.25 96.0833V90.4167M461.25 96.0833H464.083M461.25 90.4167H464.083" stroke="#404040" stroke-width="2" stroke-linecap="round" stroke-linejoin="round"/>
<path d="M449.917 126.764L449.931 126.749M455.583 126.764L455.598 126.749M449.917 132.431L449.931 132.415M455.583 132.431L455.598 132.415M449.917 138.097L449.931 138.082M455.583 138.097L455.598 138.082M461.25 143.75H445.1C444.875 143.75 444.658 143.66 444.499 143.501C444.34 143.342 444.25 143.125 444.25 142.9V121.933C444.25 121.708 444.34 121.492 444.499 121.332C444.658 121.173 444.875 121.083 445.1 121.083H452.75V119.1C452.75 118.875 452.84 118.658 452.999 118.499C453.158 118.34 453.375 118.25 453.6 118.25H460.4C460.625 118.25 460.842 118.34 461.001 118.499C461.16 118.658 461.25 118.875 461.25 119.1V126.75M461.25 143.75H468.9C469.125 143.75 469.342 143.66 469.501 143.501C469.66 143.342 469.75 143.125 469.75 142.9V127.6C469.75 127.375 469.66 127.158 469.501 126.999C469.342 126.84 469.125 126.75 468.9 126.75H461.25M461.25 143.75V138.083M461.25 126.75V132.417M461.25 138.083V132.417M461.25 138.083H464.083M461.25 132.417H464.083" stroke="#404040" stroke-width="2" stroke-linecap="round" stroke-linejoin="round"/>
<path d="M449.917 168.764L449.931 168.749M455.583 168.764L455.598 168.749M449.917 174.431L449.931 174.415M455.583 174.431L455.598 174.415M449.917 180.097L449.931 180.082M455.583 180.097L455.598 180.082M461.25 185.75H445.1C444.875 185.75 444.658 185.66 444.499 185.501C444.34 185.342 444.25 185.125 444.25 184.9V163.933C444.25 163.708 444.34 163.492 444.499 163.332C444.658 163.173 444.875 163.083 445.1 163.083H452.75V161.1C452.75 160.875 452.84 160.658 452.999 160.499C453.158 160.34 453.375 160.25 453.6 160.25H460.4C460.625 160.25 460.842 160.34 461.001 160.499C461.16 160.658 461.25 160.875 461.25 161.1V168.75M461.25 185.75H468.9C469.125 185.75 469.342 185.66 469.501 185.501C469.66 185.342 469.75 185.125 469.75 184.9V169.6C469.75 169.375 469.66 169.158 469.501 168.999C469.342 168.84 469.125 168.75 468.9 168.75H461.25M461.25 185.75V180.083M461.25 168.75V174.417M461.25 180.083V174.417M461.25 180.083H464.083M461.25 174.417H464.083" stroke="#404040" stroke-width="2" stroke-linecap="round" stroke-linejoin="round"/>
<path d="M162 171.5C161.172 171.5 160.5 172.172 160.5 173C160.5 173.828 161.172 174.5 162 174.5V171.5ZM187 137.66C187 138.489 188.015 139.074 188.732 138.66L200.268 132C200.985 131.586 200.985 130.414 200.268 130L188.732 123.34C188.015 122.926 187 123.511 187 124.34V137.66ZM162 174.5H165V171.5H162V174.5ZM178.5 161V143H175.5V161H178.5ZM178.5 143C178.5 137.201 183.201 132.5 189 132.5V129.5C181.544 129.5 175.5 135.544 175.5 143H178.5ZM165 174.5C172.456 174.5 178.5 168.456 178.5 161H175.5C175.5 166.799 170.799 171.5 165 171.5V174.5Z" fill="#B3B3B3"/>
<path d="M162 87.5C161.172 87.5 160.5 88.1716 160.5 89C160.5 89.8284 161.172 90.5 162 90.5V87.5ZM187 95.6603C187 96.4887 188.015 97.0745 188.732 96.6603L200.268 90C200.985 89.5858 200.985 88.4142 200.268 88L188.732 81.3397C188.015 80.9255 187 81.5113 187 82.3397V95.6603ZM162 90.5H188.5V87.5H162V90.5Z" fill="#B3B3B3"/>
<path d="M396 87.5C395.172 87.5 394.5 88.1716 394.5 89C394.5 89.8284 395.172 90.5 396 90.5V87.5ZM421 95.6603C421 96.4887 422.015 97.0745 422.732 96.6603L434.268 90C434.985 89.5858 434.985 88.4142 434.268 88L422.732 81.3397C422.015 80.9255 421 81.5113 421 82.3397V95.6603ZM396 90.5H422.5V87.5H396V90.5Z" fill="#B3B3B3"/>
<path d="M396 129.5C395.172 129.5 394.5 130.172 394.5 131C394.5 131.828 395.172 132.5 396 132.5V129.5ZM421 95.6603C421 96.4887 422.015 97.0745 422.732 96.6603L434.268 90C434.985 89.5858 434.985 88.4142 434.268 88L422.732 81.3397C422.015 80.9255 421 81.5113 421 82.3397V95.6603ZM405.5 123V97H402.5V123H405.5ZM412 90.5H422.5V87.5H412V90.5ZM405.5 97C405.5 93.4101 408.41 90.5 412 90.5V87.5C406.753 87.5 402.5 91.7533 402.5 97H405.5ZM396 132.5C401.247 132.5 405.5 128.247 405.5 123H402.5C402.5 126.59 399.59 129.5 396 129.5V132.5Z" fill="#B3B3B3"/>
<path d="M162 129.5C161.172 129.5 160.5 130.172 160.5 131C160.5 131.828 161.172 132.5 162 132.5V129.5ZM187 95.6603C187 96.4887 188.015 97.0745 188.732 96.6603L200.268 90C200.985 89.5858 200.985 88.4142 200.268 88L188.732 81.3397C188.015 80.9255 187 81.5113 187 82.3397V95.6603ZM162 132.5H163V129.5H162V132.5ZM176.5 119V101H173.5V119H176.5ZM187 90.5H188.5V87.5H187V90.5ZM176.5 101C176.5 95.201 181.201 90.5 187 90.5V87.5C179.544 87.5 173.5 93.5442 173.5 101H176.5ZM163 132.5C170.456 132.5 176.5 126.456 176.5 119H173.5C173.5 124.799 168.799 129.5 163 129.5V132.5Z" fill="#B3B3B3"/>
<path d="M7.0835 100.333V98.9166C7.0835 96.2866 8.12828 93.7642 9.98802 91.9045C11.8478 90.0447 14.3701 89 17.0002 89M17.0002 89C19.6302 89 22.1526 90.0447 24.0123 91.9045C25.872 93.7642 26.9168 96.2866 26.9168 98.9166V100.333M17.0002 89C18.5031 89 19.9444 88.4029 21.0071 87.3402C22.0698 86.2775 22.6668 84.8362 22.6668 83.3333C22.6668 81.8304 22.0698 80.3891 21.0071 79.3264C19.9444 78.2636 18.5031 77.6666 17.0002 77.6666C15.4973 77.6666 14.0559 78.2636 12.9932 79.3264C11.9305 80.3891 11.3335 81.8304 11.3335 83.3333C11.3335 84.8362 11.9305 86.2775 12.9932 87.3402C14.0559 88.4029 15.4973 89 17.0002 89Z" stroke="#404040" stroke-width="2" stroke-linecap="round" stroke-linejoin="round"/>
<path d="M7.0835 142.333V140.917C7.0835 138.287 8.12828 135.764 9.98802 133.904C11.8478 132.045 14.3701 131 17.0002 131M17.0002 131C19.6302 131 22.1526 132.045 24.0123 133.904C25.872 135.764 26.9168 138.287 26.9168 140.917V142.333M17.0002 131C18.5031 131 19.9444 130.403 21.0071 129.34C22.0698 128.278 22.6668 126.836 22.6668 125.333C22.6668 123.83 22.0698 122.389 21.0071 121.326C19.9444 120.264 18.5031 119.667 17.0002 119.667C15.4973 119.667 14.0559 120.264 12.9932 121.326C11.9305 122.389 11.3335 123.83 11.3335 125.333C11.3335 126.836 11.9305 128.278 12.9932 129.34C14.0559 130.403 15.4973 131 17.0002 131Z" stroke="#404040" stroke-width="2" stroke-linecap="round" stroke-linejoin="round"/>
<path d="M7.0835 184.333V182.917C7.0835 180.287 8.12828 177.764 9.98802 175.904C11.8478 174.045 14.3701 173 17.0002 173M17.0002 173C19.6302 173 22.1526 174.045 24.0123 175.904C25.872 177.764 26.9168 180.287 26.9168 182.917V184.333M17.0002 173C18.5031 173 19.9444 172.403 21.0071 171.34C22.0698 170.278 22.6668 168.836 22.6668 167.333C22.6668 165.83 22.0698 164.389 21.0071 163.326C19.9444 162.264 18.5031 161.667 17.0002 161.667C15.4973 161.667 14.0559 162.264 12.9932 163.326C11.9305 164.389 11.3335 165.83 11.3335 167.333C11.3335 168.836 11.9305 170.278 12.9932 171.34C14.0559 172.403 15.4973 173 17.0002 173Z" stroke="#404040" stroke-width="2" stroke-linecap="round" stroke-linejoin="round"/>
<rect x="38.5" y="198.5" width="119" height="33" fill="#DFE2F4"/>
<rect x="38.5" y="198.5" width="119" height="33" stroke="#B3B3B3"/>
<path d="M52.048 213.384H64.304V214.504H52.048V213.384ZM51.456 213.384H52.624V215.656C52.624 217.624 52.32 220.408 50.672 222.296C50.464 222.088 49.968 221.72 49.68 221.576C51.232 219.816 51.456 217.384 51.456 215.64V213.384ZM56.784 211.272H57.984C58.128 216.712 60.304 221.128 62.704 221.112C63.232 221.112 63.424 220.552 63.52 218.904C63.792 219.16 64.208 219.384 64.528 219.48C64.32 221.688 63.856 222.264 62.64 222.264C59.296 222.264 56.992 217.16 56.784 211.272ZM60.608 211.752L61.36 211.096C62.096 211.576 63.04 212.296 63.52 212.744L62.736 213.496C62.288 213 61.344 212.264 60.608 211.752ZM61.84 214.872L62.976 215.256C61.248 218.856 57.936 220.968 53.952 222.232C53.808 221.96 53.424 221.432 53.184 221.192C57.168 220.136 60.32 218.136 61.84 214.872ZM50.128 209H64.208V210.12H50.128V209ZM53.744 207.576H54.912V211.624H53.744V207.576ZM59.248 207.576H60.432V211.592H59.248V207.576ZM65.904 211.512H79.792V212.696H65.904V211.512ZM72.192 207.576H73.456V222.28H72.192V207.576ZM71.92 212.12L72.96 212.472C71.472 215.8 68.88 218.936 66.192 220.584C65.968 220.264 65.568 219.816 65.28 219.56C67.92 218.136 70.56 215.096 71.92 212.12ZM73.696 212.136C75.088 215.032 77.792 218.072 80.368 219.496C80.064 219.736 79.648 220.216 79.44 220.536C76.832 218.888 74.208 215.704 72.688 212.504L73.696 212.136Z" fill="#424242"/>
<rect x="92" y="198" width="1" height="34" fill="#B3B3B3"/>
<path d="M120.736 221.159C120.259 221.152 119.781 221.061 119.304 220.886C118.827 220.712 118.391 220.419 117.997 220.006C117.603 219.589 117.287 219.027 117.048 218.318C116.81 217.606 116.69 216.712 116.69 215.636C116.69 214.606 116.787 213.693 116.98 212.898C117.173 212.098 117.454 211.426 117.821 210.881C118.188 210.331 118.632 209.915 119.151 209.631C119.673 209.347 120.262 209.205 120.918 209.205C121.569 209.205 122.149 209.335 122.656 209.597C123.168 209.854 123.584 210.214 123.906 210.676C124.228 211.138 124.437 211.67 124.531 212.273H123.145C123.016 211.75 122.766 211.316 122.395 210.972C122.024 210.627 121.531 210.455 120.918 210.455C120.016 210.455 119.306 210.847 118.787 211.631C118.272 212.415 118.012 213.515 118.009 214.932H118.099C118.312 214.61 118.563 214.335 118.855 214.108C119.151 213.877 119.476 213.699 119.832 213.574C120.188 213.449 120.565 213.386 120.963 213.386C121.63 213.386 122.24 213.553 122.793 213.886C123.346 214.216 123.789 214.672 124.122 215.256C124.456 215.835 124.622 216.5 124.622 217.25C124.622 217.97 124.461 218.629 124.139 219.227C123.817 219.822 123.365 220.295 122.781 220.648C122.202 220.996 121.52 221.167 120.736 221.159ZM120.736 219.909C121.213 219.909 121.641 219.79 122.02 219.551C122.402 219.312 122.704 218.992 122.923 218.591C123.147 218.189 123.259 217.742 123.259 217.25C123.259 216.769 123.151 216.331 122.935 215.938C122.723 215.54 122.429 215.223 122.054 214.989C121.683 214.754 121.259 214.636 120.781 214.636C120.421 214.636 120.086 214.708 119.776 214.852C119.465 214.992 119.192 215.186 118.957 215.432C118.726 215.678 118.545 215.96 118.412 216.278C118.279 216.593 118.213 216.924 118.213 217.273C118.213 217.735 118.321 218.167 118.537 218.568C118.757 218.97 119.056 219.294 119.435 219.54C119.817 219.786 120.251 219.909 120.736 219.909ZM130.416 221.159C129.939 221.152 129.462 221.061 128.984 220.886C128.507 220.712 128.071 220.419 127.678 220.006C127.284 219.589 126.967 219.027 126.729 218.318C126.49 217.606 126.371 216.712 126.371 215.636C126.371 214.606 126.467 213.693 126.661 212.898C126.854 212.098 127.134 211.426 127.501 210.881C127.869 210.331 128.312 209.915 128.831 209.631C129.354 209.347 129.943 209.205 130.598 209.205C131.25 209.205 131.829 209.335 132.337 209.597C132.848 209.854 133.265 210.214 133.587 210.676C133.909 211.138 134.117 211.67 134.212 212.273H132.825C132.696 211.75 132.446 211.316 132.075 210.972C131.704 210.627 131.212 210.455 130.598 210.455C129.696 210.455 128.986 210.847 128.467 211.631C127.952 212.415 127.693 213.515 127.689 214.932H127.78C127.992 214.61 128.244 214.335 128.536 214.108C128.831 213.877 129.157 213.699 129.513 213.574C129.869 213.449 130.246 213.386 130.643 213.386C131.31 213.386 131.92 213.553 132.473 213.886C133.026 214.216 133.469 214.672 133.803 215.256C134.136 215.835 134.303 216.5 134.303 217.25C134.303 217.97 134.142 218.629 133.82 219.227C133.498 219.822 133.045 220.295 132.462 220.648C131.882 220.996 131.2 221.167 130.416 221.159ZM130.416 219.909C130.893 219.909 131.321 219.79 131.7 219.551C132.083 219.312 132.384 218.992 132.604 218.591C132.827 218.189 132.939 217.742 132.939 217.25C132.939 216.769 132.831 216.331 132.615 215.938C132.403 215.54 132.109 215.223 131.734 214.989C131.363 214.754 130.939 214.636 130.462 214.636C130.102 214.636 129.767 214.708 129.456 214.852C129.145 214.992 128.873 215.186 128.638 215.432C128.407 215.678 128.225 215.96 128.092 216.278C127.96 216.593 127.893 216.924 127.893 217.273C127.893 217.735 128.001 218.167 128.217 218.568C128.437 218.97 128.736 219.294 129.115 219.54C129.498 219.786 129.931 219.909 130.416 219.909Z" fill="#424242"/>
<path d="M162 213.5C161.172 213.5 160.5 214.172 160.5 215C160.5 215.828 161.172 216.5 162 216.5V213.5ZM187 179.66C187 180.489 188.015 181.074 188.732 180.66L200.268 174C200.985 173.586 200.985 172.414 200.268 172L188.732 165.34C188.015 164.926 187 165.511 187 166.34V179.66ZM162 216.5H165V213.5H162V216.5ZM178.5 203V185H175.5V203H178.5ZM178.5 185C178.5 179.201 183.201 174.5 189 174.5V171.5C181.544 171.5 175.5 177.544 175.5 185H178.5ZM165 216.5C172.455 216.5 178.5 210.456 178.5 203H175.5C175.5 208.799 170.799 213.5 165 213.5V216.5Z" fill="#B3B3B3"/>
<path d="M7.0835 226.333V224.917C7.0835 222.287 8.12828 219.764 9.98802 217.904C11.8478 216.045 14.3701 215 17.0002 215M17.0002 215C19.6302 215 22.1526 216.045 24.0123 217.904C25.872 219.764 26.9168 222.287 26.9168 224.917V226.333M17.0002 215C18.5031 215 19.9444 214.403 21.0071 213.34C22.0698 212.278 22.6668 210.836 22.6668 209.333C22.6668 207.83 22.0698 206.389 21.0071 205.326C19.9444 204.264 18.5031 203.667 17.0002 203.667C15.4973 203.667 14.0559 204.264 12.9932 205.326C11.9305 206.389 11.3335 207.83 11.3335 209.333C11.3335 210.836 11.9305 212.278 12.9932 213.34C14.0559 214.403 15.4973 215 17.0002 215Z" stroke="#404040" stroke-width="2" stroke-linecap="round" stroke-linejoin="round"/>
<path d="M74.4253 9.16C74.3453 9.36 74.2853 9.66 74.2653 9.82C74.0453 11.84 73.1053 17.82 72.8253 19.58H71.0253C71.3653 17.84 72.3253 11.76 72.3653 10.28C70.6253 10.28 65.4453 10.28 64.5053 10.28C63.7453 10.28 63.2053 10.3 62.5853 10.36V8.58C63.1853 8.64 63.8253 8.7 64.4853 8.7C65.4253 8.7 70.4453 8.7 71.8453 8.7C72.2453 8.7 72.8653 8.62 73.0853 8.52L74.4253 9.16ZM60.3453 19.04C60.9253 19.14 61.5453 19.16 62.1053 19.16H75.5853C76.2053 19.16 76.7453 19.1 77.2653 19.04V20.88C76.7253 20.8 76.0053 20.78 75.5853 20.78H62.1053C61.5453 20.78 60.9453 20.82 60.3453 20.88V19.04ZM80.4053 13.34C81.0253 13.4 82.0653 13.46 83.2053 13.46C84.6653 13.46 92.6853 13.46 94.1653 13.46C95.1653 13.46 95.8653 13.38 96.3253 13.34V15.3C95.9053 15.28 95.0653 15.22 94.1853 15.22C92.6653 15.22 84.6853 15.22 83.2053 15.22C82.1053 15.22 81.0453 15.26 80.4053 15.3V13.34ZM113.535 6.76C113.915 7.48 114.435 8.72 114.715 9.52L113.715 9.86C113.435 9.02 112.975 7.82 112.575 7.06L113.535 6.76ZM115.535 6.14C115.915 6.88 116.435 8.1 116.735 8.9L115.735 9.24C115.415 8.34 114.975 7.2 114.555 6.44L115.535 6.14ZM111.635 13.18C111.635 18.5 110.495 21.24 105.935 23.28L104.575 22.02C108.215 20.62 110.035 18.9 110.035 13.3V8.44C110.035 7.66 109.975 7 109.935 6.8H111.735C111.715 7 111.635 7.66 111.635 8.44V13.18ZM104.435 6.94C104.415 7.12 104.335 7.68 104.335 8.38V15.72C104.335 16.44 104.395 17.32 104.415 17.52H102.655C102.675 17.32 102.735 16.48 102.735 15.72V8.38C102.735 7.96 102.715 7.38 102.655 6.94H104.435ZM98.5747 10.82C98.7547 10.84 99.7347 10.94 100.595 10.94H113.835C114.715 10.94 115.395 10.88 115.675 10.84V12.54C115.455 12.5 114.715 12.48 113.835 12.48H100.595C99.7147 12.48 98.8147 12.52 98.5747 12.54V10.82ZM119.255 13.34C119.875 13.4 120.915 13.46 122.055 13.46C123.515 13.46 131.535 13.46 133.015 13.46C134.015 13.46 134.715 13.38 135.175 13.34V15.3C134.755 15.28 133.915 15.22 133.035 15.22C131.515 15.22 123.535 15.22 122.055 15.22C120.955 15.22 119.895 15.26 119.255 15.3V13.34Z" fill="black"/>
<path d="M309.41 12.06H316.95V13.4H309.41V12.06ZM304.71 21.5H314.79V22.84H304.71V21.5ZM308.69 9.68H310.21V17H308.69V9.68ZM303.91 16.28H315.61V23.6H314.07V17.64H305.37V23.64H303.91V16.28ZM307.99 5.22H309.53V8.62H307.99V5.22ZM301.33 7.8H317.23V9.24H301.33V7.8ZM300.59 7.8H302.09V12.98C302.09 16.06 301.81 20.58 300.09 23.62C299.83 23.36 299.17 22.94 298.81 22.78C300.45 19.9 300.59 15.86 300.59 12.98V7.8ZM326.85 8H336.91V9.32H326.85V8ZM328.07 14.52H335.93V15.78H328.07V14.52ZM328.07 17.84H335.93V19.1H328.07V17.84ZM331.21 5.2H332.57V23.46H331.21V5.2ZM335.19 11.22H336.53V22.06C336.53 22.72 336.41 23.12 335.97 23.32C335.53 23.56 334.89 23.58 333.85 23.58C333.81 23.22 333.61 22.66 333.43 22.3C334.11 22.32 334.73 22.32 334.93 22.3C335.11 22.3 335.19 22.24 335.19 22.02V11.22ZM327.41 11.22H335.89V12.52H328.75V23.56H327.41V11.22ZM333.19 5.98L334.01 5.26C334.97 5.7 336.13 6.44 336.69 6.98L335.81 7.82C335.25 7.24 334.11 6.48 333.19 5.98ZM319.59 16.96H326.29V23.08H324.91V18.22H320.93V23.46H319.59V16.96ZM322.19 9.12H323.59V14.84H322.19V9.12ZM319.69 11.08H326.21V12.28H319.69V11.08ZM318.93 14.34H326.75V15.6H318.93V14.34ZM320.13 21.14H325.67V22.4H320.13V21.14ZM321.97 5.22H322.79V5.54H323.25V5.96C322.45 7.44 321.15 9.5 319.25 11.24C319.03 10.92 318.55 10.46 318.25 10.26C319.99 8.76 321.27 6.76 321.97 5.22ZM322.27 5.22H323.37C324.59 6.3 326.09 7.86 326.79 8.88L325.85 10.04C325.15 9 323.75 7.28 322.55 6.24H322.27V5.22Z" fill="black"/>
<path d="M535.69 6.4H541.69V7.82H537.15V23.62H535.69V6.4ZM525.03 7.42H534.59V8.76H525.03V7.42ZM524.51 12.96H534.85V14.34H524.51V12.96ZM529.05 5.28H530.51V8.24H529.05V5.28ZM526.27 9.46L527.53 9.18C527.97 10.18 528.35 11.52 528.47 12.4L527.13 12.72C527.03 11.84 526.69 10.48 526.27 9.46ZM532.01 9.04L533.45 9.38C533.01 10.56 532.53 11.9 532.09 12.78L530.89 12.46C531.29 11.54 531.77 10.06 532.01 9.04ZM526.39 21.12H532.97V22.46H526.39V21.12ZM525.85 16.08H533.73V23.52H532.29V17.42H527.25V23.62H525.85V16.08ZM541.29 6.4H541.59L541.83 6.34L542.93 7.04C542.11 8.92 541.07 11.24 540.15 13.08C542.17 14.94 542.65 16.52 542.67 17.96C542.67 19.18 542.39 20.12 541.69 20.6C541.33 20.82 540.89 20.96 540.37 21.04C539.87 21.1 539.21 21.08 538.63 21.06C538.61 20.64 538.47 20 538.21 19.58C538.79 19.62 539.37 19.64 539.77 19.62C540.11 19.6 540.39 19.52 540.63 19.38C541.07 19.12 541.21 18.54 541.21 17.8C541.19 16.54 540.61 15.04 538.59 13.28C539.61 11.22 540.69 8.46 541.29 6.88V6.4ZM545.85 9.18H551.41V10.32H545.85V9.18ZM555.05 9.18H560.71V10.32H555.05V9.18ZM560.07 6.16H561.57V21.56C561.57 22.58 561.33 23.06 560.65 23.3C559.95 23.56 558.77 23.58 556.95 23.58C556.87 23.16 556.61 22.46 556.39 22.02C557.77 22.1 559.15 22.08 559.55 22.06C559.95 22.04 560.07 21.94 560.07 21.56V6.16ZM545.97 6.16H552.29V13.5H545.97V12.24H550.87V7.42H545.97V6.16ZM560.85 6.16V7.42H555.61V12.26H560.85V13.52H554.17V6.16H560.85ZM545.13 6.16H546.61V23.6H545.13V6.16Z" fill="black"/>
<path d="M396 171.5C395.172 171.5 394.5 172.172 394.5 173C394.5 173.828 395.172 174.5 396 174.5V171.5ZM421 137.66C421 138.489 422.015 139.074 422.732 138.66L434.268 132C434.985 131.586 434.985 130.414 434.268 130L422.732 123.34C422.015 122.926 421 123.511 421 124.34V137.66ZM396 174.5H404V171.5H396V174.5ZM413.5 165V139H410.5V165H413.5ZM420 132.5H422.5V129.5H420V132.5ZM413.5 139C413.5 135.41 416.41 132.5 420 132.5V129.5C414.753 129.5 410.5 133.753 410.5 139H413.5ZM404 174.5C409.247 174.5 413.5 170.247 413.5 165H410.5C410.5 168.59 407.59 171.5 404 171.5V174.5Z" fill="#B3B3B3"/>
<path d="M613 129.5C612.172 129.5 611.5 130.172 611.5 131C611.5 131.828 612.172 132.5 613 132.5V129.5ZM427 181.16C427 181.989 428.015 182.574 428.732 182.16L440.268 175.5C440.985 175.086 440.985 173.914 440.268 173.5L428.732 166.84C428.015 166.426 427 167.011 427 167.84V181.16ZM616.5 136V191H619.5V136H616.5ZM610 197.5H427V200.5H610V197.5ZM420.5 191V182.5H417.5V191H420.5ZM427 176H428.5V173H427V176ZM420.5 182.5C420.5 178.91 423.41 176 427 176V173C421.753 173 417.5 177.253 417.5 182.5H420.5ZM427 197.5C423.41 197.5 420.5 194.59 420.5 191H417.5C417.5 196.247 421.753 200.5 427 200.5V197.5ZM616.5 191C616.5 194.59 613.59 197.5 610 197.5V200.5C615.247 200.5 619.5 196.247 619.5 191H616.5ZM613 132.5C614.933 132.5 616.5 134.067 616.5 136H619.5C619.5 132.41 616.59 129.5 613 129.5V132.5Z" fill="#B3B3B3"/>
<defs>
<clipPath id="clip0_61_4888">
<rect width="26" height="24" fill="white" transform="translate(248 35)"/>
</clipPath>
</defs>
</svg>
