<svg width="316" height="167" viewBox="0 0 316 167" fill="none" xmlns="http://www.w3.org/2000/svg">
<rect x="0.5" y="24.5" width="147" height="142" rx="3.5" fill="white"/>
<rect x="0.5" y="24.5" width="147" height="142" rx="3.5" stroke="#424242"/>
<rect x="8" y="45.7843" width="132" height="23.2157" rx="8" fill="#EEEEEE"/>
<path d="M18.176 61.7443H29.872V62.9603H18.176V61.7443ZM18.208 56.0323H29.872V57.2323H18.208V56.0323ZM17.536 50.4483H30.496V63.9363H29.264V51.6163H18.72V63.9363H17.536V50.4483ZM23.296 51.0083H24.512V62.3523H23.296V51.0083ZM33.536 52.2083H46.432V59.7443H45.184V53.3923H34.736V59.8243H33.536V52.2083ZM34.176 57.6483H45.904V58.8163H34.176V57.6483ZM39.328 49.3443H40.576V64.0483H39.328V49.3443Z" fill="#424242"/>
<path d="M12.368 43.652H18.164V44.48H12.368V43.652ZM11.96 35.132H16.364V35.936H11.96V35.132ZM12.5 33.884L13.508 34.088C12.608 35.648 11.168 37.28 9.08 38.516C8.948 38.288 8.648 37.976 8.444 37.82C10.424 36.74 11.804 35.192 12.5 33.884ZM16.064 35.132H16.232L16.4 35.084L17 35.408C15.56 39.032 12.176 41.444 8.912 42.5C8.804 42.26 8.576 41.888 8.384 41.696C11.492 40.796 14.816 38.444 16.064 35.288V35.132ZM10.46 37.268L11.132 36.692C12.08 37.34 13.232 38.3 13.784 38.984L13.052 39.632C12.548 38.948 11.408 37.94 10.46 37.268ZM17.72 39.86H18.644V44.984H17.72V39.86ZM12.776 39.86H18.176V40.688H12.776V44.96H11.876V40.568L12.596 39.86H12.776ZM20.636 35.816H31.364V36.656H20.636V35.816ZM21.872 39.68H25.232V40.388H21.872V39.68ZM21.872 41.6H25.232V42.308H21.872V41.6ZM27.236 37.832H28.088V42.764H27.236V37.832ZM24.908 37.724H25.784V43.928C25.784 44.384 25.676 44.624 25.34 44.768C25.016 44.912 24.488 44.912 23.672 44.912C23.624 44.684 23.492 44.348 23.372 44.12C23.972 44.144 24.524 44.144 24.692 44.132C24.86 44.12 24.908 44.072 24.908 43.916V37.724ZM29.672 37.472H30.56V43.844C30.56 44.372 30.44 44.624 30.068 44.768C29.696 44.9 29.096 44.924 28.16 44.924C28.112 44.684 27.968 44.3 27.836 44.06C28.568 44.084 29.216 44.084 29.42 44.072C29.612 44.06 29.672 44.012 29.672 43.844V37.472ZM22.496 34.22L23.324 33.908C23.792 34.424 24.296 35.132 24.524 35.6L23.636 35.924C23.444 35.468 22.952 34.736 22.496 34.22ZM28.664 33.872L29.624 34.184C29.168 34.928 28.628 35.756 28.184 36.32L27.392 36.02C27.824 35.444 28.364 34.52 28.664 33.872ZM21.392 37.724H25.196V38.504H22.244V44.9H21.392V37.724Z" fill="#888888"/>
<rect x="8" y="90.7843" width="132" height="23.2157" rx="8" fill="#EEEEEE"/>
<path d="M20.9091 95.9889C21.3864 95.9927 21.8636 96.0836 22.3409 96.2616C22.8182 96.4396 23.2538 96.7351 23.6477 97.148C24.0417 97.557 24.358 98.1158 24.5966 98.8241C24.8352 99.5324 24.9545 100.421 24.9545 101.489C24.9545 102.523 24.8561 103.442 24.6591 104.245C24.4659 105.044 24.1856 105.718 23.8182 106.267C23.4545 106.817 23.0114 107.233 22.4886 107.517C21.9697 107.801 21.3826 107.943 20.7273 107.943C20.0758 107.943 19.4943 107.815 18.983 107.557C18.4754 107.296 18.0587 106.934 17.733 106.472C17.411 106.006 17.2045 105.466 17.1136 104.852H18.5C18.625 105.387 18.8731 105.828 19.2443 106.176C19.6193 106.521 20.1136 106.693 20.7273 106.693C21.625 106.693 22.3333 106.301 22.8523 105.517C23.375 104.733 23.6364 103.625 23.6364 102.193H23.5455C23.3333 102.512 23.0814 102.786 22.7898 103.017C22.4981 103.248 22.1742 103.426 21.8182 103.551C21.4621 103.676 21.0833 103.739 20.6818 103.739C20.0152 103.739 19.4034 103.574 18.8466 103.245C18.2936 102.911 17.8504 102.455 17.517 101.875C17.1875 101.292 17.0227 100.625 17.0227 99.8752C17.0227 99.1631 17.1818 98.5116 17.5 97.9207C17.822 97.326 18.2727 96.8525 18.8523 96.5002C19.4356 96.148 20.1212 95.9775 20.9091 95.9889ZM20.9091 97.2389C20.4318 97.2389 20.0019 97.3582 19.6193 97.5968C19.2405 97.8317 18.9394 98.1498 18.7159 98.5514C18.4962 98.9491 18.3864 99.3904 18.3864 99.8752C18.3864 100.36 18.4924 100.801 18.7045 101.199C18.9205 101.593 19.214 101.907 19.5852 102.142C19.9602 102.373 20.3864 102.489 20.8636 102.489C21.2235 102.489 21.5587 102.419 21.8693 102.279C22.1799 102.135 22.4508 101.94 22.6818 101.693C22.9167 101.443 23.1004 101.161 23.233 100.847C23.3655 100.529 23.4318 100.197 23.4318 99.8525C23.4318 99.398 23.322 98.9718 23.1023 98.5741C22.8864 98.1764 22.5871 97.8544 22.2045 97.6082C21.8258 97.362 21.3939 97.2389 20.9091 97.2389ZM27.2401 107.784L32.4446 97.4889V97.398H26.4446V96.148H33.8991V97.4661L28.7173 107.784H27.2401ZM40.1534 95.6025L36.4034 109.534H35.1761L38.9261 95.6025H40.1534ZM45.5156 107.943C44.6596 107.943 43.9304 107.71 43.3281 107.245C42.7259 106.775 42.2656 106.095 41.9474 105.205C41.6293 104.311 41.4702 103.231 41.4702 101.966C41.4702 100.709 41.6293 99.6347 41.9474 98.7445C42.2694 97.8506 42.7315 97.1688 43.3338 96.6991C43.9399 96.2256 44.6671 95.9889 45.5156 95.9889C46.3641 95.9889 47.0895 96.2256 47.6918 96.6991C48.2978 97.1688 48.7599 97.8506 49.0781 98.7445C49.4001 99.6347 49.5611 100.709 49.5611 101.966C49.5611 103.231 49.402 104.311 49.0838 105.205C48.7656 106.095 48.3054 106.775 47.7031 107.245C47.1009 107.71 46.3717 107.943 45.5156 107.943ZM45.5156 106.693C46.3641 106.693 47.0232 106.284 47.4929 105.466C47.9626 104.648 48.1974 103.481 48.1974 101.966C48.1974 100.959 48.0895 100.101 47.8736 99.3923C47.6615 98.6839 47.3546 98.1442 46.9531 97.773C46.5554 97.4017 46.0762 97.2161 45.5156 97.2161C44.6747 97.2161 44.0175 97.6309 43.544 98.4605C43.0705 99.2862 42.8338 100.455 42.8338 101.966C42.8338 102.974 42.9399 103.83 43.152 104.534C43.3641 105.239 43.669 105.775 44.0668 106.142C44.4683 106.51 44.9512 106.693 45.5156 106.693ZM55.5838 107.943C55.1065 107.936 54.6293 107.845 54.152 107.671C53.6747 107.496 53.2391 107.203 52.8452 106.79C52.4512 106.373 52.1349 105.811 51.8963 105.102C51.6577 104.39 51.5384 103.496 51.5384 102.421C51.5384 101.39 51.6349 100.477 51.8281 99.682C52.0213 98.8828 52.3016 98.2105 52.669 97.665C53.0365 97.1158 53.4796 96.6991 53.9986 96.415C54.5213 96.1309 55.1103 95.9889 55.7656 95.9889C56.4171 95.9889 56.9967 96.1195 57.5043 96.3809C58.0156 96.6385 58.4323 96.9983 58.7543 97.4605C59.0762 97.9226 59.2846 98.4548 59.3793 99.057H57.9929C57.8641 98.5343 57.6141 98.1006 57.2429 97.7559C56.8717 97.4112 56.3793 97.2389 55.7656 97.2389C54.8641 97.2389 54.1539 97.6309 53.6349 98.415C53.1198 99.1991 52.8603 100.299 52.8565 101.716H52.9474C53.1596 101.394 53.4115 101.12 53.7031 100.892C53.9986 100.661 54.3243 100.483 54.6804 100.358C55.0365 100.233 55.4134 100.171 55.8111 100.171C56.4777 100.171 57.0876 100.337 57.6406 100.671C58.1937 101 58.6368 101.457 58.9702 102.04C59.3035 102.62 59.4702 103.284 59.4702 104.034C59.4702 104.754 59.3092 105.413 58.9872 106.012C58.6652 106.606 58.2126 107.08 57.6293 107.432C57.0497 107.781 56.3679 107.951 55.5838 107.943ZM55.5838 106.693C56.0611 106.693 56.4891 106.574 56.8679 106.335C57.2505 106.097 57.5516 105.777 57.7713 105.375C57.9948 104.974 58.1065 104.527 58.1065 104.034C58.1065 103.553 57.9986 103.116 57.7827 102.722C57.5705 102.324 57.277 102.008 56.902 101.773C56.5308 101.538 56.1065 101.421 55.6293 101.421C55.2694 101.421 54.9342 101.493 54.6236 101.637C54.313 101.777 54.0402 101.97 53.8054 102.216C53.5743 102.462 53.3925 102.745 53.2599 103.063C53.1274 103.377 53.0611 103.709 53.0611 104.057C53.0611 104.519 53.169 104.951 53.3849 105.352C53.6046 105.754 53.9039 106.078 54.2827 106.324C54.6652 106.57 55.099 106.693 55.5838 106.693ZM65.8409 95.6025L62.0909 109.534H60.8636L64.6136 95.6025H65.8409ZM71.2031 107.943C70.3471 107.943 69.6179 107.71 69.0156 107.245C68.4134 106.775 67.9531 106.095 67.6349 105.205C67.3168 104.311 67.1577 103.231 67.1577 101.966C67.1577 100.709 67.3168 99.6347 67.6349 98.7445C67.9569 97.8506 68.419 97.1688 69.0213 96.6991C69.6274 96.2256 70.3546 95.9889 71.2031 95.9889C72.0516 95.9889 72.777 96.2256 73.3793 96.6991C73.9853 97.1688 74.4474 97.8506 74.7656 98.7445C75.0876 99.6347 75.2486 100.709 75.2486 101.966C75.2486 103.231 75.0895 104.311 74.7713 105.205C74.4531 106.095 73.9929 106.775 73.3906 107.245C72.7884 107.71 72.0592 107.943 71.2031 107.943ZM71.2031 106.693C72.0516 106.693 72.7107 106.284 73.1804 105.466C73.6501 104.648 73.8849 103.481 73.8849 101.966C73.8849 100.959 73.777 100.101 73.5611 99.3923C73.349 98.6839 73.0421 98.1442 72.6406 97.773C72.2429 97.4017 71.7637 97.2161 71.2031 97.2161C70.3622 97.2161 69.705 97.6309 69.2315 98.4605C68.758 99.2862 68.5213 100.455 68.5213 101.966C68.5213 102.974 68.6274 103.83 68.8395 104.534C69.0516 105.239 69.3565 105.775 69.7543 106.142C70.1558 106.51 70.6387 106.693 71.2031 106.693ZM81.4986 96.148V107.784H80.0895V97.6252H80.0213L77.1804 99.5116V98.0798L80.0895 96.148H81.4986Z" fill="#424242"/>
<path d="M10.496 81.26H18.812V82.136H10.496V81.26ZM9.968 84.776H18.38V85.64H9.968V84.776ZM8.66 88.7H19.376V89.576H8.66V88.7ZM13.556 78.932H14.48V89.144H13.556V78.932ZM10.856 79.124L11.78 79.328C11.252 81.188 10.412 82.964 9.452 84.116C9.272 83.96 8.864 83.696 8.636 83.576C9.62 82.508 10.4 80.84 10.856 79.124ZM23.324 78.884L24.224 79.112C23.564 80.888 22.496 82.556 21.38 83.636C21.2 83.48 20.828 83.18 20.6 83.06C21.74 82.064 22.736 80.504 23.324 78.884ZM23.132 80.372H30.872V81.248H22.7L23.132 80.372ZM22.544 83.096H30.608V83.936H23.444V86.78H22.544V83.096ZM20.564 86.324H31.436V87.2H20.564V86.324ZM26.144 80.828H27.068V89.972H26.144V80.828ZM35.036 79.556H41.3V80.432H35.036V79.556ZM35.036 82.448H41.348V83.312H35.036V82.448ZM34.94 85.352H41.288V86.216H34.94V85.352ZM34.484 79.556H35.396V83.264C35.396 85.34 35.096 88.172 33.032 89.972C32.9 89.78 32.54 89.456 32.348 89.324C34.28 87.632 34.484 85.196 34.484 83.264V79.556ZM40.904 79.556H41.84V88.64C41.84 89.276 41.672 89.588 41.216 89.744C40.748 89.9 39.956 89.912 38.66 89.912C38.6 89.648 38.432 89.216 38.276 88.964C39.272 89 40.256 88.988 40.532 88.988C40.808 88.976 40.904 88.892 40.904 88.628V79.556ZM46.112 79.736H53.972V89.78H53.024V80.648H47.036V89.828H46.112V79.736ZM46.724 83.9H53.42V84.788H46.724V83.9ZM46.712 88.148H53.444V89.048H46.712V88.148Z" fill="#888888"/>
<rect x="8" y="135.784" width="132" height="23.2157" rx="8" fill="#EEEEEE"/>
<path d="M126.732 154.784C125.962 156.118 124.038 156.118 123.268 154.784L118.072 145.784C117.302 144.451 118.264 142.784 119.804 142.784L130.196 142.784C131.736 142.784 132.698 144.451 131.928 145.784L126.732 154.784Z" fill="#4D4D4D"/>
<path d="M25.392 144.752H31.344V145.872H25.392V144.752ZM16.976 141.024H24.032V142.048H16.976V141.024ZM16.8 147.376H24.112V148.416H16.8V147.376ZM16.752 144.688H24.224V145.712H16.752V144.688ZM28.368 145.2H29.536V153.984H28.368V145.2ZM19.936 139.408H21.104V141.552H19.936V139.408ZM19.936 145.52H21.104V154.048H19.936V145.52ZM24.816 140.656L26.288 141.104C26.272 141.232 26.176 141.296 25.952 141.328V146.272C25.952 148.672 25.664 151.92 23.408 154.144C23.264 153.872 22.832 153.472 22.544 153.312C24.592 151.296 24.816 148.528 24.816 146.256V140.656ZM30.176 139.536L31.136 140.416C29.632 141.088 27.392 141.632 25.472 141.968C25.408 141.712 25.248 141.296 25.104 141.056C26.896 140.672 29.008 140.112 30.176 139.536ZM20.992 148.72C21.504 149.072 23.248 150.496 23.648 150.864L22.944 151.76C22.432 151.168 20.928 149.76 20.336 149.264L20.992 148.72ZM17.936 142.336L18.88 142.128C19.216 142.832 19.488 143.776 19.568 144.384L18.56 144.656C18.512 144.032 18.256 143.072 17.936 142.336ZM22.032 142.096L23.12 142.336C22.816 143.136 22.48 144.032 22.192 144.624L21.232 144.4C21.52 143.76 21.856 142.768 22.032 142.096ZM19.952 147.904L20.816 148.24C20 150.016 18.528 151.904 17.248 152.896C17.056 152.624 16.704 152.24 16.432 152.048C17.728 151.2 19.184 149.472 19.952 147.904ZM39.36 139.36H40.592V141.392H39.36V139.36ZM33.328 140.736H46.72V143.36H45.504V141.824H34.512V143.568H33.328V140.736ZM37.504 143.696H46.8V144.784H37.504V143.696ZM38.816 149.36H45.568V150.368H38.816V149.36ZM38.816 152.432H45.568V153.488H38.816V152.432ZM38.272 146.464H46.144V154.064H44.96V147.52H39.424V154.096H38.272V146.464ZM41.488 144.192L42.8 144.496C42.496 145.472 42.16 146.56 41.872 147.296L40.832 146.992C41.056 146.24 41.36 145.04 41.488 144.192ZM36.272 142.672L37.392 143.024C36.352 145.264 34.736 147.408 33.088 148.8C32.944 148.544 32.56 148 32.336 147.744C33.904 146.528 35.376 144.64 36.272 142.672ZM34.912 145.584L35.968 144.528L36.064 144.576V154.08H34.912V145.584ZM56.976 144.832H63.008V145.904H56.976V144.832ZM53.216 152.384H61.28V153.456H53.216V152.384ZM56.4 142.928H57.616V148.784H56.4V142.928ZM52.576 148.208H61.936V154.064H60.704V149.296H53.744V154.096H52.576V148.208ZM55.84 139.36H57.072V142.08H55.84V139.36ZM50.512 141.424H63.232V142.576H50.512V141.424ZM49.92 141.424H51.12V145.568C51.12 148.032 50.896 151.648 49.52 154.08C49.312 153.872 48.784 153.536 48.496 153.408C49.808 151.104 49.92 147.872 49.92 145.568V141.424Z" fill="#424242"/>
<path d="M8.732 124.592H13.904V125.42H8.732V124.592ZM14.756 128.012H19.58V128.876H14.756V128.012ZM17.36 128.576H18.248V134.972H17.36V128.576ZM14.408 125.108L15.536 125.408C15.524 125.492 15.464 125.54 15.296 125.564V128.312C15.296 130.256 15.044 133.004 13.244 134.936C13.112 134.744 12.788 134.444 12.572 134.336C14.24 132.56 14.408 130.148 14.408 128.312V125.108ZM9.176 126.668H10.028V129.908C10.028 131.444 9.884 133.568 8.96 134.984C8.816 134.816 8.444 134.54 8.252 134.432C9.092 133.136 9.176 131.288 9.176 129.908V126.668ZM18.548 124.064L19.34 124.748C18.152 125.324 16.412 125.816 14.912 126.164C14.864 125.96 14.72 125.636 14.6 125.432C16.028 125.096 17.648 124.58 18.548 124.064ZM9.668 126.668H13.604V130.412H9.668V129.596H12.728V127.496H9.668V126.668ZM21.668 124.448H22.556V127.964C22.556 129.992 22.388 132.932 21.164 134.888C21.008 134.756 20.612 134.516 20.384 134.444C21.572 132.548 21.668 129.884 21.668 127.964V124.448ZM22.208 124.448H30.62V126.956H22.208V126.236H29.732V125.168H22.208V124.448ZM26.432 127.748H27.26V133.484H26.432V127.748ZM24.308 129.44V130.292H29.444V129.44H24.308ZM23.492 128.864H30.284V130.868H23.492V128.864ZM23.012 131.564H30.464V132.212H23.84V134.972H23.012V131.564ZM29.984 131.564H30.812V134.156C30.812 134.54 30.74 134.732 30.452 134.84C30.152 134.948 29.672 134.948 28.916 134.948C28.868 134.756 28.76 134.504 28.676 134.312C29.204 134.336 29.648 134.336 29.804 134.324C29.948 134.312 29.984 134.276 29.984 134.156V131.564ZM24.32 133.22C25.472 133.196 27.188 133.136 28.904 133.064L28.892 133.688C27.248 133.772 25.58 133.856 24.38 133.916L24.32 133.22ZM29.564 127.244L30.116 127.796C28.412 128.132 25.676 128.288 23.432 128.312C23.42 128.132 23.324 127.868 23.252 127.712C25.436 127.676 28.124 127.52 29.564 127.244ZM28.004 132.56L28.544 132.392C28.94 132.92 29.408 133.628 29.624 134.048L29.06 134.264C28.844 133.82 28.4 133.1 28.004 132.56Z" fill="#888888"/>
<rect x="168.5" y="24.5" width="147" height="101" rx="3.5" fill="white"/>
<rect x="168.5" y="24.5" width="147" height="101" rx="3.5" stroke="#424242"/>
<rect x="176" y="46.5294" width="132" height="24.4706" rx="8" fill="#EEEEEE"/>
<path d="M193.392 55.4974H199.344V56.6174H193.392V55.4974ZM184.976 51.7694H192.032V52.7934H184.976V51.7694ZM184.8 58.1214H192.112V59.1614H184.8V58.1214ZM184.752 55.4334H192.224V56.4574H184.752V55.4334ZM196.368 55.9454H197.536V64.7294H196.368V55.9454ZM187.936 50.1534H189.104V52.2974H187.936V50.1534ZM187.936 56.2654H189.104V64.7934H187.936V56.2654ZM192.816 51.4014L194.288 51.8494C194.272 51.9774 194.176 52.0414 193.952 52.0734V57.0174C193.952 59.4174 193.664 62.6654 191.408 64.8894C191.264 64.6174 190.832 64.2174 190.544 64.0574C192.592 62.0414 192.816 59.2734 192.816 57.0014V51.4014ZM198.176 50.2814L199.136 51.1614C197.632 51.8334 195.392 52.3774 193.472 52.7134C193.408 52.4574 193.248 52.0414 193.104 51.8014C194.896 51.4174 197.008 50.8574 198.176 50.2814ZM188.992 59.4654C189.504 59.8174 191.248 61.2414 191.648 61.6094L190.944 62.5054C190.432 61.9134 188.928 60.5054 188.336 60.0094L188.992 59.4654ZM185.936 53.0814L186.88 52.8734C187.216 53.5774 187.488 54.5214 187.568 55.1294L186.56 55.4014C186.512 54.7774 186.256 53.8174 185.936 53.0814ZM190.032 52.8414L191.12 53.0814C190.816 53.8814 190.48 54.7774 190.192 55.3694L189.232 55.1454C189.52 54.5054 189.856 53.5134 190.032 52.8414ZM187.952 58.6494L188.816 58.9854C188 60.7614 186.528 62.6494 185.248 63.6414C185.056 63.3694 184.704 62.9854 184.432 62.7934C185.728 61.9454 187.184 60.2174 187.952 58.6494ZM207.36 50.1054H208.592V52.1374H207.36V50.1054ZM201.328 51.4814H214.72V54.1054H213.504V52.5694H202.512V54.3134H201.328V51.4814ZM205.504 54.4414H214.8V55.5294H205.504V54.4414ZM206.816 60.1054H213.568V61.1134H206.816V60.1054ZM206.816 63.1774H213.568V64.2334H206.816V63.1774ZM206.272 57.2094H214.144V64.8094H212.96V58.2654H207.424V64.8414H206.272V57.2094ZM209.488 54.9374L210.8 55.2414C210.496 56.2174 210.16 57.3054 209.872 58.0414L208.832 57.7374C209.056 56.9854 209.36 55.7854 209.488 54.9374ZM204.272 53.4174L205.392 53.7694C204.352 56.0094 202.736 58.1534 201.088 59.5454C200.944 59.2894 200.56 58.7454 200.336 58.4894C201.904 57.2734 203.376 55.3854 204.272 53.4174ZM202.912 56.3294L203.968 55.2734L204.064 55.3214V64.8254H202.912V56.3294ZM224.976 55.5774H231.008V56.6494H224.976V55.5774ZM221.216 63.1294H229.28V64.2014H221.216V63.1294ZM224.4 53.6734H225.616V59.5294H224.4V53.6734ZM220.576 58.9534H229.936V64.8094H228.704V60.0414H221.744V64.8414H220.576V58.9534ZM223.84 50.1054H225.072V52.8254H223.84V50.1054ZM218.512 52.1694H231.232V53.3214H218.512V52.1694ZM217.92 52.1694H219.12V56.3134C219.12 58.7774 218.896 62.3934 217.52 64.8254C217.312 64.6174 216.784 64.2814 216.496 64.1534C217.808 61.8494 217.92 58.6174 217.92 56.3134V52.1694Z" fill="#424242"/>
<path d="M182.732 38.036H187.256V38.84H182.732V38.036ZM179.912 43.7H185.96V44.504H179.912V43.7ZM182.3 36.608H183.212V41H182.3V36.608ZM179.432 40.568H186.452V44.96H185.528V41.384H180.308V44.984H179.432V40.568ZM181.88 33.932H182.804V35.972H181.88V33.932ZM177.884 35.48H187.424V36.344H177.884V35.48ZM177.44 35.48H178.34V38.588C178.34 40.436 178.172 43.148 177.14 44.972C176.984 44.816 176.588 44.564 176.372 44.468C177.356 42.74 177.44 40.316 177.44 38.588V35.48ZM192.368 43.652H198.164V44.48H192.368V43.652ZM191.96 35.132H196.364V35.936H191.96V35.132ZM192.5 33.884L193.508 34.088C192.608 35.648 191.168 37.28 189.08 38.516C188.948 38.288 188.648 37.976 188.444 37.82C190.424 36.74 191.804 35.192 192.5 33.884ZM196.064 35.132H196.232L196.4 35.084L197 35.408C195.56 39.032 192.176 41.444 188.912 42.5C188.804 42.26 188.576 41.888 188.384 41.696C191.492 40.796 194.816 38.444 196.064 35.288V35.132ZM190.46 37.268L191.132 36.692C192.08 37.34 193.232 38.3 193.784 38.984L193.052 39.632C192.548 38.948 191.408 37.94 190.46 37.268ZM197.72 39.86H198.644V44.984H197.72V39.86ZM192.776 39.86H198.176V40.688H192.776V44.96H191.876V40.568L192.596 39.86H192.776Z" fill="#888888"/>
<rect x="176" y="93.5294" width="132" height="24.4706" rx="8" fill="#EEEEEE"/>
<path d="M294.732 112.529C293.962 113.863 292.038 113.863 291.268 112.529L286.072 103.529C285.302 102.196 286.264 100.529 287.804 100.529L298.196 100.529C299.736 100.529 300.698 102.196 299.928 103.529L294.732 112.529Z" fill="#4D4D4D"/>
<path d="M185.04 98.6254H199.024V99.7454H185.04V98.6254ZM191.328 97.1054H192.576V111.809H191.328V97.1054ZM190.96 106.273L191.968 106.721C190.464 108.737 187.824 110.609 185.488 111.569C185.296 111.265 184.928 110.801 184.64 110.561C186.976 109.745 189.6 108.033 190.96 106.273ZM192.976 106.289C194.352 108.049 197.024 109.761 199.392 110.561C199.104 110.801 198.736 111.265 198.544 111.601C196.176 110.657 193.504 108.737 192 106.737L192.976 106.289ZM187.616 104.481V106.017H196.512V104.481H187.616ZM187.616 102.049V103.569H196.512V102.049H187.616ZM186.448 101.105H197.728V106.977H186.448V101.105ZM201.024 98.9454H214.992V100.097H201.024V98.9454ZM207.328 97.0894H208.592V99.5534H207.328V97.0894ZM204.176 102.625V105.249H211.888V102.625H204.176ZM202.992 101.569H213.152V106.321H202.992V101.569ZM210.976 107.793L212.064 107.265C213.136 108.305 214.464 109.777 215.12 110.721L213.952 111.329C213.36 110.401 212.064 108.865 210.976 107.793ZM207.344 105.873H208.592V110.417C208.592 111.121 208.432 111.457 207.872 111.633C207.328 111.809 206.416 111.825 204.992 111.809C204.928 111.489 204.752 111.009 204.592 110.689C205.68 110.721 206.688 110.705 206.976 110.689C207.264 110.689 207.344 110.625 207.344 110.401V105.873ZM203.664 107.249L204.88 107.633C204.112 108.897 202.88 110.321 201.68 111.217C201.44 110.993 201.008 110.673 200.736 110.513C201.888 109.681 203.072 108.353 203.664 107.249Z" fill="#424242"/>
<path d="M183.716 82.228H184.568V88.84H183.716V82.228ZM186.164 81.136H187.052V90.724C187.052 91.336 186.908 91.6 186.524 91.756C186.152 91.9 185.468 91.936 184.532 91.936C184.496 91.672 184.364 91.252 184.232 90.976C184.964 91.012 185.672 91 185.912 91C186.104 90.988 186.164 90.928 186.164 90.724V81.136ZM177.812 90.604H181.844V91.324H177.812V90.604ZM176.66 86.836H182.864V87.556H176.66V86.836ZM177.32 83.884H182.3V84.568H177.32V83.884ZM177.38 85.348H182.156V86.008H177.38V85.348ZM179.348 80.956H180.224V82.444H179.348V80.956ZM179.372 83.104H180.212V87.232H179.372V83.104ZM177.38 88.216H182.312V91.804H181.46V88.924H178.208V91.936H177.38V88.216ZM176.66 82.036H182.996V83.932H182.156V82.756H177.464V83.932H176.66V82.036ZM193.496 80.92H194.468V85.66H193.496V80.92ZM189.44 81.784L190.256 81.448C190.928 82.288 191.576 83.428 191.852 84.184L191 84.568C190.736 83.788 190.076 82.624 189.44 81.784ZM197.612 81.352L198.572 81.676C198.068 82.696 197.384 83.872 196.844 84.652L196.064 84.34C196.592 83.548 197.252 82.264 197.612 81.352ZM189.608 85.168H198.416V91.972H197.468V86.068H189.608V85.168ZM190.016 87.808H197.828V88.684H190.016V87.808ZM189.38 90.556H197.948V91.444H189.38V90.556ZM207.092 86.716H207.992V90.496C207.992 90.856 208.076 90.916 208.532 90.916C208.736 90.916 209.768 90.916 210.056 90.916C210.5 90.916 210.56 90.676 210.608 89.116C210.812 89.272 211.196 89.416 211.448 89.476C211.352 91.3 211.088 91.78 210.116 91.78C209.888 91.78 208.652 91.78 208.424 91.78C207.356 91.78 207.092 91.48 207.092 90.484V86.716ZM200.732 86.092H211.28V86.956H200.732V86.092ZM202.7 82.792H210.416V83.668H202.7V82.792ZM203.888 86.752H204.824C204.584 89.2 203.96 91.06 201.14 92.032C201.032 91.792 200.768 91.444 200.564 91.264C203.192 90.448 203.684 88.84 203.888 86.752ZM202.94 81.208L203.852 81.388C203.48 82.756 202.844 84.436 202.004 85.504C201.8 85.36 201.44 85.168 201.224 85.072C202.04 84.064 202.652 82.456 202.94 81.208ZM205.544 80.932H206.456V86.368H205.544V80.932Z" fill="#888888"/>
<path d="M55.0083 7.616C54.9283 7.84 54.8483 8.224 54.8322 8.352C54.6243 9.968 53.9202 14.304 53.6962 15.76H51.3442C51.6003 14.32 52.2882 10.208 52.3363 9.056C51.0883 9.056 47.8242 9.056 46.8162 9.056C46.1602 9.056 45.5682 9.088 44.9922 9.136V6.88C45.5202 6.944 46.2562 6.992 46.8002 6.992C47.8082 6.992 50.8802 6.992 51.8403 6.992C52.2562 6.992 53.0562 6.912 53.3282 6.784L55.0083 7.616ZM43.2482 15.104C43.7602 15.2 44.3362 15.232 44.8322 15.232H55.4882C56.0642 15.232 56.5763 15.168 56.9923 15.104V17.44C56.5443 17.376 55.8722 17.344 55.4882 17.344H44.8322C44.3362 17.344 43.7762 17.376 43.2482 17.44V15.104ZM59.2642 10.592C59.8562 10.64 61.0082 10.704 61.8402 10.704C63.7282 10.704 69.0083 10.704 70.4323 10.704C71.1842 10.704 71.8883 10.624 72.3203 10.592V13.12C71.9362 13.104 71.1202 13.024 70.4482 13.024C68.9923 13.024 63.7282 13.024 61.8402 13.024C60.9442 13.024 59.8722 13.072 59.2642 13.12V10.592ZM86.2638 5.568C86.5677 6.192 86.9198 7.12 87.0957 7.744L85.9917 8.112C85.7677 7.424 85.4958 6.56 85.1757 5.904L86.2638 5.568ZM87.9117 5.056C88.2158 5.68 88.5838 6.624 88.7758 7.232L87.6877 7.584C87.4478 6.88 87.1438 6.032 86.8238 5.392L87.9117 5.056ZM84.8877 11.184C84.8877 15.136 83.9277 17.568 80.0717 19.264L78.3438 17.648C81.4478 16.576 82.7917 15.184 82.7917 11.264V7.008C82.7917 6.352 82.7598 5.824 82.7118 5.52H84.9838C84.9517 5.84 84.8877 6.352 84.8877 7.008V11.184ZM79.0957 5.664C79.0637 5.952 78.9997 6.464 78.9997 7.104V12.832C78.9997 13.536 79.0477 14.192 79.0798 14.496H76.8397C76.8717 14.192 76.9197 13.552 76.9197 12.832V7.104C76.9197 6.64 76.8877 6.144 76.8237 5.664H79.0957ZM73.8317 8.544C74.1197 8.592 74.7757 8.688 75.5757 8.688H86.0557C86.9038 8.688 87.3837 8.656 87.8317 8.576V10.704C87.4798 10.656 86.9038 10.656 86.0718 10.656H75.5757C74.7597 10.656 74.1997 10.688 73.8317 10.72V8.544ZM90.3437 10.592C90.9357 10.64 92.0877 10.704 92.9197 10.704C94.8077 10.704 100.088 10.704 101.512 10.704C102.264 10.704 102.968 10.624 103.4 10.592V13.12C103.016 13.104 102.2 13.024 101.528 13.024C100.072 13.024 94.8077 13.024 92.9197 13.024C92.0237 13.024 90.9517 13.072 90.3437 13.12V10.592Z" fill="#1E1E1E"/>
<path d="M234.224 9.856H240.272V11.552H234.224V9.856ZM230.8 17.168H238.32V18.864H230.8V17.168ZM233.312 8.352H235.264V14.288H233.312V8.352ZM229.792 13.296H239.344V19.424H237.376V14.992H231.664V19.44H229.792V13.296ZM232.656 4.416H234.656V7.328H232.656V4.416ZM227.856 6.288H240.496V8.112H227.856V6.288ZM226.912 6.288H228.832V10.336C228.832 12.928 228.592 16.896 227.136 19.408C226.784 19.088 225.936 18.528 225.472 18.336C226.816 16.032 226.912 12.656 226.912 10.336V6.288ZM248.096 6.528H256.208V8.176H248.096V6.528ZM249.104 11.872H255.248V13.408H249.104V11.872ZM249.104 14.448H255.248V16H249.104V14.448ZM251.28 4.4H252.992V19.296H251.28V4.4ZM254.304 9.232H255.968V17.616C255.968 18.336 255.872 18.8 255.44 19.072C254.992 19.36 254.448 19.392 253.68 19.392C253.632 18.928 253.424 18.208 253.2 17.76C253.584 17.776 253.984 17.776 254.112 17.776C254.24 17.776 254.304 17.728 254.304 17.568V9.232ZM248.384 9.232H255.232V10.848H250.032V19.392H248.384V9.232ZM253.2 5.264L254.304 4.416C254.928 4.8 255.712 5.392 256.096 5.824L254.928 6.784C254.576 6.336 253.808 5.696 253.2 5.264ZM242.112 14.048H247.712V19.104H245.984V15.6H243.776V19.424H242.112V14.048ZM244.032 7.856H245.776V12.352H244.032V7.856ZM242.224 9.2H247.616V10.672H242.224V9.2ZM241.696 11.76H247.968V13.312H241.696V11.76ZM242.736 17.024H246.928V18.576H242.736V17.024ZM243.808 4.416H244.864V4.768H245.424V5.296C244.784 6.464 243.808 8.064 242.272 9.472C242 9.072 241.424 8.448 241.056 8.192C242.368 7.088 243.296 5.616 243.808 4.416ZM244.16 4.416H245.456C246.416 5.248 247.616 6.448 248.192 7.312L247.008 8.768C246.496 7.92 245.376 6.496 244.464 5.728H244.16V4.416Z" fill="#1E1E1E"/>
</svg>
