<svg width="420" height="164" viewBox="0 0 420 164" fill="none" xmlns="http://www.w3.org/2000/svg">
<path d="M1.896 9.36H11.952V10.92H1.896V9.36ZM1.416 14.976H12.216V16.512H1.416V14.976ZM6.12 6.912H7.848V10.368H6.12V6.912ZM6.168 16.416H7.896V28.92H6.168V16.416ZM6.144 19.584L7.416 20.328C6.336 22.896 4.224 25.704 2.232 27.288C1.992 26.856 1.56 26.232 1.176 25.896C3.096 24.6 5.16 22.008 6.144 19.584ZM7.68 20.928C8.52 21.504 11.376 23.904 12.024 24.504L10.896 25.872C10.08 24.888 7.68 22.56 6.72 21.72L7.68 20.928ZM3.36 11.328L4.776 11.016C5.28 12.12 5.712 13.608 5.808 14.592L4.296 14.952C4.224 13.992 3.84 12.456 3.36 11.328ZM9.144 10.968L10.776 11.352C10.344 12.6 9.888 14.016 9.48 14.952L8.088 14.592C8.448 13.608 8.928 12.024 9.144 10.968ZM14.664 13.44V15.936H20.688V13.44H14.664ZM14.664 17.4V19.92H20.688V17.4H14.664ZM14.664 9.504V11.976H20.688V9.504H14.664ZM13.032 7.896H22.392V21.528H13.032V7.896ZM18.192 21H19.824V26.424C19.824 26.952 19.896 27.024 20.352 27.024C20.52 27.024 21.384 27.024 21.624 27.024C22.104 27.024 22.176 26.712 22.224 23.832C22.584 24.144 23.28 24.408 23.736 24.528C23.616 27.84 23.16 28.632 21.84 28.632C21.504 28.632 20.4 28.632 20.088 28.632C18.528 28.632 18.192 28.104 18.192 26.448V21ZM14.64 21.096H16.296C15.984 24.984 15.072 27.552 11.328 28.992C11.16 28.608 10.68 27.984 10.32 27.672C13.656 26.496 14.376 24.384 14.64 21.096ZM1.656 18.96H12V20.52H1.656V18.96ZM38.4 8.28H45.6V9.984H40.152V28.944H38.4V8.28ZM25.608 9.504H37.08V11.112H25.608V9.504ZM24.984 16.152H37.392V17.808H24.984V16.152ZM30.432 6.936H32.184V10.488H30.432V6.936ZM27.096 11.952L28.608 11.616C29.136 12.816 29.592 14.424 29.736 15.48L28.128 15.864C28.008 14.808 27.6 13.176 27.096 11.952ZM33.984 11.448L35.712 11.856C35.184 13.272 34.608 14.88 34.08 15.936L32.64 15.552C33.12 14.448 33.696 12.672 33.984 11.448ZM27.24 25.944H35.136V27.552H27.24V25.944ZM26.592 19.896H36.048V28.824H34.32V21.504H28.272V28.944H26.592V19.896ZM45.12 8.28H45.48L45.768 8.208L47.088 9.048C46.104 11.304 44.856 14.088 43.752 16.296C46.176 18.528 46.752 20.424 46.776 22.152C46.776 23.616 46.44 24.744 45.6 25.32C45.168 25.584 44.64 25.752 44.016 25.848C43.416 25.92 42.624 25.896 41.928 25.872C41.904 25.368 41.736 24.6 41.424 24.096C42.12 24.144 42.816 24.168 43.296 24.144C43.704 24.12 44.04 24.024 44.328 23.856C44.856 23.544 45.024 22.848 45.024 21.96C45 20.448 44.304 18.648 41.88 16.536C43.104 14.064 44.4 10.752 45.12 8.856V8.28ZM50.592 11.616H57.264V12.984H50.592V11.616ZM61.632 11.616H68.424V12.984H61.632V11.616ZM67.656 7.992H69.456V26.472C69.456 27.696 69.168 28.272 68.352 28.56C67.512 28.872 66.096 28.896 63.912 28.896C63.816 28.392 63.504 27.552 63.24 27.024C64.896 27.12 66.552 27.096 67.032 27.072C67.512 27.048 67.656 26.928 67.656 26.472V7.992ZM50.736 7.992H58.32V16.8H50.736V15.288H56.616V9.504H50.736V7.992ZM68.592 7.992V9.504H62.304V15.312H68.592V16.824H60.576V7.992H68.592ZM49.728 7.992H51.504V28.92H49.728V7.992Z" fill="#4A4A4A"/>
<path d="M113.584 17.568H135.376V19.368H113.584V17.568ZM123.568 13.704H125.44V26.616C125.44 27.816 125.104 28.368 124.192 28.656C123.304 28.944 121.744 28.992 119.44 28.992C119.296 28.464 118.96 27.648 118.648 27.12C120.592 27.192 122.368 27.192 122.896 27.168C123.4 27.144 123.568 27.024 123.568 26.592V13.704ZM116.056 8.52H131.728V10.296H116.056V8.52ZM131.104 8.52H131.584L131.992 8.424L133.36 9.432C131.176 11.64 127.768 14.016 124.96 15.456C124.696 15.048 124.144 14.472 123.784 14.16C126.4 12.912 129.592 10.632 131.104 8.928V8.52ZM150.4 8.28H157.6V9.984H152.152V28.944H150.4V8.28ZM137.608 9.504H149.08V11.112H137.608V9.504ZM136.984 16.152H149.392V17.808H136.984V16.152ZM142.432 6.936H144.184V10.488H142.432V6.936ZM139.096 11.952L140.608 11.616C141.136 12.816 141.592 14.424 141.736 15.48L140.128 15.864C140.008 14.808 139.6 13.176 139.096 11.952ZM145.984 11.448L147.712 11.856C147.184 13.272 146.608 14.88 146.08 15.936L144.64 15.552C145.12 14.448 145.696 12.672 145.984 11.448ZM139.24 25.944H147.136V27.552H139.24V25.944ZM138.592 19.896H148.048V28.824H146.32V21.504H140.272V28.944H138.592V19.896ZM157.12 8.28H157.48L157.768 8.208L159.088 9.048C158.104 11.304 156.856 14.088 155.752 16.296C158.176 18.528 158.752 20.424 158.776 22.152C158.776 23.616 158.44 24.744 157.6 25.32C157.168 25.584 156.64 25.752 156.016 25.848C155.416 25.92 154.624 25.896 153.928 25.872C153.904 25.368 153.736 24.6 153.424 24.096C154.12 24.144 154.816 24.168 155.296 24.144C155.704 24.12 156.04 24.024 156.328 23.856C156.856 23.544 157.024 22.848 157.024 21.96C157 20.448 156.304 18.648 153.88 16.536C155.104 14.064 156.4 10.752 157.12 8.856V8.28ZM162.592 11.616H169.264V12.984H162.592V11.616ZM173.632 11.616H180.424V12.984H173.632V11.616ZM179.656 7.992H181.456V26.472C181.456 27.696 181.168 28.272 180.352 28.56C179.512 28.872 178.096 28.896 175.912 28.896C175.816 28.392 175.504 27.552 175.24 27.024C176.896 27.12 178.552 27.096 179.032 27.072C179.512 27.048 179.656 26.928 179.656 26.472V7.992ZM162.736 7.992H170.32V16.8H162.736V15.288H168.616V9.504H162.736V7.992ZM180.592 7.992V9.504H174.304V15.312H180.592V16.824H172.576V7.992H180.592ZM161.728 7.992H163.504V28.92H161.728V7.992Z" fill="#4A4A4A"/>
<path d="M249.692 15.072H258.74V16.68H249.692V15.072ZM244.052 26.4H256.148V28.008H244.052V26.4ZM248.828 12.216H250.652V21H248.828V12.216ZM243.092 20.136H257.132V28.92H255.284V21.768H244.844V28.968H243.092V20.136ZM247.988 6.864H249.836V10.944H247.988V6.864ZM239.996 9.96H259.076V11.688H239.996V9.96ZM239.108 9.96H240.908V16.176C240.908 19.872 240.572 25.296 238.508 28.944C238.196 28.632 237.404 28.128 236.972 27.936C238.94 24.48 239.108 19.632 239.108 16.176V9.96ZM270.62 10.2H282.692V11.784H270.62V10.2ZM272.084 18.024H281.516V19.536H272.084V18.024ZM272.084 22.008H281.516V23.52H272.084V22.008ZM275.852 6.84H277.484V28.752H275.852V6.84ZM280.628 14.064H282.236V27.072C282.236 27.864 282.092 28.344 281.564 28.584C281.036 28.872 280.268 28.896 279.02 28.896C278.972 28.464 278.732 27.792 278.516 27.36C279.332 27.384 280.076 27.384 280.316 27.36C280.532 27.36 280.628 27.288 280.628 27.024V14.064ZM271.292 14.064H281.468V15.624H272.9V28.872H271.292V14.064ZM278.228 7.776L279.212 6.912C280.364 7.44 281.756 8.328 282.428 8.976L281.372 9.984C280.7 9.288 279.332 8.376 278.228 7.776ZM261.908 20.952H269.948V28.296H268.292V22.464H263.516V28.752H261.908V20.952ZM265.028 11.544H266.708V18.408H265.028V11.544ZM262.028 13.896H269.852V15.336H262.028V13.896ZM261.116 17.808H270.5V19.32H261.116V17.808ZM262.556 25.968H269.204V27.48H262.556V25.968ZM264.764 6.864H265.748V7.248H266.3V7.752C265.34 9.528 263.78 12 261.5 14.088C261.236 13.704 260.66 13.152 260.3 12.912C262.388 11.112 263.924 8.712 264.764 6.864ZM265.124 6.864H266.444C267.908 8.16 269.708 10.032 270.548 11.256L269.42 12.648C268.58 11.4 266.9 9.336 265.46 8.088H265.124V6.864Z" fill="#4A4A4A"/>
<path d="M344.21 11.592C344.114 11.832 344.042 12.192 344.018 12.384C343.754 14.808 342.626 21.984 342.29 24.096H340.13C340.538 22.008 341.69 14.712 341.738 12.936C339.65 12.936 333.434 12.936 332.306 12.936C331.394 12.936 330.746 12.96 330.002 13.032V10.896C330.722 10.968 331.49 11.04 332.282 11.04C333.41 11.04 339.434 11.04 341.114 11.04C341.594 11.04 342.338 10.944 342.602 10.824L344.21 11.592ZM327.314 23.448C328.01 23.568 328.754 23.592 329.426 23.592H345.602C346.346 23.592 346.994 23.52 347.618 23.448V25.656C346.97 25.56 346.106 25.536 345.602 25.536H329.426C328.754 25.536 328.034 25.584 327.314 25.656V23.448ZM351.386 16.608C352.13 16.68 353.378 16.752 354.746 16.752C356.498 16.752 366.122 16.752 367.898 16.752C369.098 16.752 369.938 16.656 370.49 16.608V18.96C369.986 18.936 368.978 18.864 367.922 18.864C366.098 18.864 356.522 18.864 354.746 18.864C353.426 18.864 352.154 18.912 351.386 18.96V16.608ZM391.142 8.712C391.598 9.576 392.222 11.064 392.558 12.024L391.358 12.432C391.022 11.424 390.47 9.984 389.99 9.072L391.142 8.712ZM393.542 7.968C393.998 8.856 394.622 10.32 394.982 11.28L393.782 11.688C393.398 10.608 392.87 9.24 392.366 8.328L393.542 7.968ZM388.862 16.416C388.862 22.8 387.494 26.088 382.022 28.536L380.39 27.024C384.758 25.344 386.942 23.28 386.942 16.56V10.728C386.942 9.792 386.87 9 386.822 8.76H388.982C388.958 9 388.862 9.792 388.862 10.728V16.416ZM380.222 8.928C380.198 9.144 380.102 9.816 380.102 10.656V19.464C380.102 20.328 380.174 21.384 380.198 21.624H378.086C378.11 21.384 378.182 20.376 378.182 19.464V10.656C378.182 10.152 378.158 9.456 378.086 8.928H380.222ZM373.19 13.584C373.406 13.608 374.582 13.728 375.614 13.728H391.502C392.558 13.728 393.374 13.656 393.71 13.608V15.648C393.446 15.6 392.558 15.576 391.502 15.576H375.614C374.558 15.576 373.478 15.624 373.19 15.648V13.584ZM398.006 16.608C398.75 16.68 399.998 16.752 401.366 16.752C403.118 16.752 412.742 16.752 414.518 16.752C415.718 16.752 416.558 16.656 417.11 16.608V18.96C416.606 18.936 415.598 18.864 414.542 18.864C412.718 18.864 403.142 18.864 401.366 18.864C400.046 18.864 398.774 18.912 398.006 18.96V16.608Z" fill="#4A4A4A"/>
<path d="M29.3333 48.0133L29.3467 47.9987M34.6667 48.0133L34.68 47.9987M29.3333 53.3467L29.3467 53.332M34.6667 53.3467L34.68 53.332M29.3333 58.68L29.3467 58.6653M34.6667 58.68L34.68 58.6653M40 64H24.8C24.5878 64 24.3843 63.9157 24.2343 63.7657C24.0843 63.6157 24 63.4122 24 63.2V43.4667C24 43.2545 24.0843 43.051 24.2343 42.901C24.3843 42.751 24.5878 42.6667 24.8 42.6667H32V40.8C32 40.5878 32.0843 40.3843 32.2343 40.2343C32.3843 40.0843 32.5878 40 32.8 40H39.2C39.4122 40 39.6157 40.0843 39.7657 40.2343C39.9157 40.3843 40 40.5878 40 40.8V48M40 64H47.2C47.4122 64 47.6157 63.9157 47.7657 63.7657C47.9157 63.6157 48 63.4122 48 63.2V48.8C48 48.5878 47.9157 48.3843 47.7657 48.2343C47.6157 48.0843 47.4122 48 47.2 48H40M40 64V58.6667M40 48V53.3333M40 58.6667V53.3333M40 58.6667H42.6667M40 53.3333H42.6667" stroke="#4A4A4A" stroke-width="2" stroke-linecap="round" stroke-linejoin="round"/>
<path d="M141.333 48.0133L141.347 47.9987M146.667 48.0133L146.68 47.9987M141.333 53.3467L141.347 53.332M146.667 53.3467L146.68 53.332M141.333 58.68L141.347 58.6653M146.667 58.68L146.68 58.6653M152 64H136.8C136.588 64 136.384 63.9157 136.234 63.7657C136.084 63.6157 136 63.4122 136 63.2V43.4667C136 43.2545 136.084 43.051 136.234 42.901C136.384 42.751 136.588 42.6667 136.8 42.6667H144V40.8C144 40.5878 144.084 40.3843 144.234 40.2343C144.384 40.0843 144.588 40 144.8 40H151.2C151.412 40 151.616 40.0843 151.766 40.2343C151.916 40.3843 152 40.5878 152 40.8V48M152 64H159.2C159.412 64 159.616 63.9157 159.766 63.7657C159.916 63.6157 160 63.4122 160 63.2V48.8C160 48.5878 159.916 48.3843 159.766 48.2343C159.616 48.0843 159.412 48 159.2 48H152M152 64V58.6667M152 48V53.3333M152 58.6667V53.3333M152 58.6667H154.667M152 53.3333H154.667" stroke="#4A4A4A" stroke-width="2" stroke-linecap="round" stroke-linejoin="round"/>
<path d="M141.333 112.013L141.347 111.999M146.667 112.013L146.68 111.999M141.333 117.347L141.347 117.332M146.667 117.347L146.68 117.332M141.333 122.68L141.347 122.665M146.667 122.68L146.68 122.665M152 128H136.8C136.588 128 136.384 127.916 136.234 127.766C136.084 127.616 136 127.412 136 127.2V107.467C136 107.254 136.084 107.051 136.234 106.901C136.384 106.751 136.588 106.667 136.8 106.667H144V104.8C144 104.588 144.084 104.384 144.234 104.234C144.384 104.084 144.588 104 144.8 104H151.2C151.412 104 151.616 104.084 151.766 104.234C151.916 104.384 152 104.588 152 104.8V112M152 128H159.2C159.412 128 159.616 127.916 159.766 127.766C159.916 127.616 160 127.412 160 127.2V112.8C160 112.588 159.916 112.384 159.766 112.234C159.616 112.084 159.412 112 159.2 112H152M152 128V122.667M152 112V117.333M152 122.667V117.333M152 122.667H154.667M152 117.333H154.667" stroke="#4A4A4A" stroke-width="2" stroke-linecap="round" stroke-linejoin="round"/>
<path d="M164 52L174 57.7735V46.2265L164 52ZM173 53L204 53V51L173 51V53ZM204 53L244 53V51L204 51V53Z" fill="#999999"/>
<path d="M164 117L174 122.774V111.226L164 117ZM173 118L204 118V116L173 116V118ZM204 118H244V116H204V118Z" fill="#999999"/>
<path d="M248 49.3333V61.3333C248 62.0406 248.281 62.7188 248.781 63.2189C249.281 63.719 249.959 64 250.667 64H269.333C270.041 64 270.719 63.719 271.219 63.2189C271.719 62.7188 272 62.0406 272 61.3333V49.3333" stroke="#4A4A4A" stroke-width="2"/>
<path d="M263.777 64V56C263.777 55.2927 263.496 54.6145 262.996 54.1144C262.496 53.6143 261.818 53.3333 261.111 53.3333H258.444C257.737 53.3333 257.058 53.6143 256.558 54.1144C256.058 54.6145 255.777 55.2927 255.777 56V64" stroke="#4A4A4A" stroke-width="2" stroke-miterlimit="16"/>
<path d="M273.091 48.4853L270.832 40.58C270.784 40.4129 270.683 40.2658 270.545 40.1612C270.406 40.0565 270.237 40 270.063 40H264.667L265.3 47.6053C265.31 47.7276 265.349 47.8457 265.413 47.95C265.477 48.0544 265.566 48.1419 265.671 48.2053C266.191 48.516 267.207 49.0893 268 49.3333C269.355 49.7507 271.333 49.6 272.461 49.4613C272.571 49.4472 272.676 49.4092 272.77 49.3502C272.863 49.2911 272.943 49.2124 273.003 49.1195C273.063 49.0265 273.102 48.9216 273.117 48.8121C273.132 48.7026 273.123 48.5911 273.091 48.4853Z" stroke="#4A4A4A" stroke-width="2"/>
<path d="M262.667 49.3333C263.424 49.1 264.384 48.568 264.92 48.2507C265.045 48.1761 265.146 48.0678 265.212 47.9384C265.278 47.8089 265.306 47.6634 265.293 47.5187L264.667 40H255.333L254.707 47.5187C254.694 47.6636 254.722 47.8094 254.788 47.9391C254.854 48.0688 254.955 48.1773 255.08 48.252C255.616 48.568 256.576 49.1 257.333 49.3333C259.324 49.9467 260.676 49.9467 262.667 49.3333Z" stroke="#4A4A4A" stroke-width="2"/>
<path d="M249.168 40.58L246.909 48.4867C246.878 48.5922 246.869 48.7035 246.884 48.8127C246.9 48.9219 246.939 49.0264 246.999 49.119C247.059 49.2116 247.138 49.2901 247.231 49.349C247.324 49.4079 247.429 49.4457 247.539 49.46C248.665 49.6 250.645 49.7493 252 49.3333C252.793 49.0893 253.811 48.516 254.329 48.2067C254.435 48.1431 254.523 48.0554 254.587 47.9508C254.652 47.8462 254.69 47.7278 254.7 47.6053L255.333 40H249.937C249.764 40 249.594 40.0565 249.456 40.1612C249.317 40.2658 249.216 40.4129 249.168 40.58Z" stroke="#4A4A4A" stroke-width="2"/>
<path d="M248 113.333V125.333C248 126.041 248.281 126.719 248.781 127.219C249.281 127.719 249.959 128 250.667 128H269.333C270.041 128 270.719 127.719 271.219 127.219C271.719 126.719 272 126.041 272 125.333V113.333" stroke="#4A4A4A" stroke-width="2"/>
<path d="M263.777 128V120C263.777 119.293 263.496 118.615 262.996 118.114C262.496 117.614 261.818 117.333 261.111 117.333H258.444C257.737 117.333 257.058 117.614 256.558 118.114C256.058 118.615 255.777 119.293 255.777 120V128" stroke="#4A4A4A" stroke-width="2" stroke-miterlimit="16"/>
<path d="M273.091 112.485L270.832 104.58C270.784 104.413 270.683 104.266 270.545 104.161C270.406 104.057 270.237 104 270.063 104H264.667L265.3 111.605C265.31 111.728 265.349 111.846 265.413 111.95C265.477 112.054 265.566 112.142 265.671 112.205C266.191 112.516 267.207 113.089 268 113.333C269.355 113.751 271.333 113.6 272.461 113.461C272.571 113.447 272.676 113.409 272.77 113.35C272.863 113.291 272.943 113.212 273.003 113.119C273.063 113.027 273.102 112.922 273.117 112.812C273.132 112.703 273.123 112.591 273.091 112.485Z" stroke="#4A4A4A" stroke-width="2"/>
<path d="M262.667 113.333C263.424 113.1 264.384 112.568 264.92 112.251C265.045 112.176 265.146 112.068 265.212 111.938C265.278 111.809 265.306 111.663 265.293 111.519L264.667 104H255.333L254.707 111.519C254.694 111.664 254.722 111.809 254.788 111.939C254.854 112.069 254.955 112.177 255.08 112.252C255.616 112.568 256.576 113.1 257.333 113.333C259.324 113.947 260.676 113.947 262.667 113.333Z" stroke="#4A4A4A" stroke-width="2"/>
<path d="M249.168 104.58L246.909 112.487C246.878 112.592 246.869 112.703 246.884 112.813C246.9 112.922 246.939 113.026 246.999 113.119C247.059 113.212 247.138 113.29 247.231 113.349C247.324 113.408 247.429 113.446 247.539 113.46C248.665 113.6 250.645 113.749 252 113.333C252.793 113.089 253.811 112.516 254.329 112.207C254.435 112.143 254.523 112.055 254.587 111.951C254.652 111.846 254.69 111.728 254.7 111.605L255.333 104H249.937C249.764 104 249.594 104.057 249.456 104.161C249.317 104.266 249.216 104.413 249.168 104.58Z" stroke="#4A4A4A" stroke-width="2"/>
<path d="M363.667 62.6666V61.3333C363.667 58.858 364.65 56.484 366.4 54.7337C368.151 52.9833 370.525 52 373 52M373 52C375.475 52 377.849 52.9833 379.6 54.7337C381.35 56.484 382.333 58.858 382.333 61.3333V62.6666M373 52C374.415 52 375.771 51.4381 376.771 50.4379C377.772 49.4377 378.333 48.0811 378.333 46.6666C378.333 45.2522 377.772 43.8956 376.771 42.8954C375.771 41.8952 374.415 41.3333 373 41.3333C371.586 41.3333 370.229 41.8952 369.229 42.8954C368.229 43.8956 367.667 45.2522 367.667 46.6666C367.667 48.0811 368.229 49.4377 369.229 50.4379C370.229 51.4381 371.586 52 373 52Z" stroke="#4A4A4A" stroke-width="2" stroke-linecap="round" stroke-linejoin="round"/>
<path d="M363.667 94.6666V93.3333C363.667 90.858 364.65 88.484 366.4 86.7337C368.151 84.9833 370.525 84 373 84M373 84C375.475 84 377.849 84.9833 379.6 86.7337C381.35 88.484 382.333 90.858 382.333 93.3333V94.6666M373 84C374.415 84 375.771 83.4381 376.771 82.4379C377.772 81.4377 378.333 80.0811 378.333 78.6666C378.333 77.2522 377.772 75.8956 376.771 74.8954C375.771 73.8952 374.415 73.3333 373 73.3333C371.586 73.3333 370.229 73.8952 369.229 74.8954C368.229 75.8956 367.667 77.2522 367.667 78.6666C367.667 80.0811 368.229 81.4377 369.229 82.4379C370.229 83.4381 371.586 84 373 84Z" stroke="#4A4A4A" stroke-width="2" stroke-linecap="round" stroke-linejoin="round"/>
<path d="M363.667 126.667V125.333C363.667 122.858 364.65 120.484 366.4 118.734C368.151 116.983 370.525 116 373 116M373 116C375.475 116 377.849 116.983 379.6 118.734C381.35 120.484 382.333 122.858 382.333 125.333V126.667M373 116C374.415 116 375.771 115.438 376.771 114.438C377.772 113.438 378.333 112.081 378.333 110.667C378.333 109.252 377.772 107.896 376.771 106.895C375.771 105.895 374.415 105.333 373 105.333C371.586 105.333 370.229 105.895 369.229 106.895C368.229 107.896 367.667 109.252 367.667 110.667C367.667 112.081 368.229 113.438 369.229 114.438C370.229 115.438 371.586 116 373 116Z" stroke="#4A4A4A" stroke-width="2" stroke-linecap="round" stroke-linejoin="round"/>
<path d="M363.667 158.667V157.333C363.667 154.858 364.65 152.484 366.4 150.734C368.151 148.983 370.525 148 373 148M373 148C375.475 148 377.849 148.983 379.6 150.734C381.35 152.484 382.333 154.858 382.333 157.333V158.667M373 148C374.415 148 375.771 147.438 376.771 146.438C377.772 145.438 378.333 144.081 378.333 142.667C378.333 141.252 377.772 139.896 376.771 138.895C375.771 137.895 374.415 137.333 373 137.333C371.586 137.333 370.229 137.895 369.229 138.895C368.229 139.896 367.667 141.252 367.667 142.667C367.667 144.081 368.229 145.438 369.229 146.438C370.229 147.438 371.586 148 373 148Z" stroke="#4A4A4A" stroke-width="2" stroke-linecap="round" stroke-linejoin="round"/>
<path d="M276 52L286 57.7735V46.2265L276 52ZM285 53H316.5V51H285V53ZM316.5 53H357V51H316.5V53Z" fill="#999999"/>
<path d="M276 116L286 121.774V110.226L276 116ZM285 117H316.5V115H285V117ZM316.5 117H357V115H316.5V117Z" fill="#999999"/>
<path d="M52 52L62 57.7735V46.2265L52 52ZM61 53L92 53V51L61 51V53ZM92 53L132 53V51L92 51V53Z" fill="#999999"/>
<path d="M251.273 148C251.273 147.226 251.896 146.602 252.67 146.602C253.466 146.602 254.089 147.226 254.089 148C254.089 148.795 253.466 149.419 252.67 149.419C251.896 149.419 251.273 148.795 251.273 148ZM258.432 148C258.432 147.226 259.056 146.602 259.83 146.602C260.625 146.602 261.249 147.226 261.249 148C261.249 148.795 260.625 149.419 259.83 149.419C259.056 149.419 258.432 148.795 258.432 148ZM265.592 148C265.592 147.226 266.215 146.602 266.989 146.602C267.785 146.602 268.408 147.226 268.408 148C268.408 148.795 267.785 149.419 266.989 149.419C266.215 149.419 265.592 148.795 265.592 148Z" fill="#4A4A4A"/>
<path d="M276 52.2786L286 58.0521L286 46.5051L276 52.2786ZM305 52.2786L305 51.2786L305 51.2786L305 52.2786ZM337 84.2787L337 83.2787L337 83.2787L337 84.2787ZM285 53.2786L305 53.2786L305 51.2786L285 51.2786L285 53.2786ZM337 85.2787L357 85.2787L357 83.2787L337 83.2787L337 85.2787ZM320 68.2787C320 77.6675 327.611 85.2787 337 85.2787L337 83.2787C328.716 83.2787 322 76.5629 322 68.2787L320 68.2787ZM305 53.2786C313.285 53.2786 320 59.9944 320 68.2787L322 68.2787C322 58.8898 314.389 51.2786 305 51.2786L305 53.2786Z" fill="#999999"/>
<path d="M52.0003 52.2786L62.0003 58.0521L62.0003 46.5051L52.0003 52.2786ZM81.0004 52.2786L81.0004 51.2786L81.0004 51.2786L81.0004 52.2786ZM97.0004 68.2786L96.0004 68.2786L96.0004 68.2786L97.0004 68.2786ZM97.0004 100L98.0004 100L98.0004 100L97.0004 100ZM113 116L113 117L113 117L113 116ZM61.0003 53.2786L81.0004 53.2786L81.0004 51.2786L61.0003 51.2786L61.0003 53.2786ZM96.0004 68.2786L96.0004 100L98.0004 100L98.0004 68.2786L96.0004 68.2786ZM113 117L131 117L131 115L113 115L113 117ZM96.0004 100C96.0004 109.389 103.612 117 113 117L113 115C104.716 115 98.0004 108.284 98.0004 100L96.0004 100ZM81.0004 53.2786C89.2847 53.2786 96.0005 59.9944 96.0004 68.2786L98.0004 68.2786C98.0005 58.8898 90.3893 51.2786 81.0004 51.2786L81.0004 53.2786Z" fill="#999999"/>
<path d="M276 115.979L286 121.752L286 110.205L276 115.979ZM305 115.979L305 114.979L305 114.979L305 115.979ZM337 147.979L337 146.979H337L337 147.979ZM285 116.979L305 116.979L305 114.979L285 114.979L285 116.979ZM337 148.979L357 148.979L357 146.979L337 146.979L337 148.979ZM320 131.979C320 141.368 327.611 148.979 337 148.979L337 146.979C328.716 146.979 322 140.263 322 131.979L320 131.979ZM305 116.979C313.285 116.979 320 123.694 320 131.979L322 131.979C322 122.59 314.389 114.979 305 114.979L305 116.979Z" fill="#999999"/>
<path d="M164 116.979L174 122.752L174 111.205L164 116.979ZM193 116.979L193 115.979L193 115.979L193 116.979ZM225 148.979L225 147.979H225L225 148.979ZM173 117.979L193 117.979L193 115.979L173 115.979L173 117.979ZM225 149.979L245 149.979L245 147.979L225 147.979L225 149.979ZM208 132.979C208 142.368 215.611 149.979 225 149.979L225 147.979C216.716 147.979 210 141.263 210 132.979L208 132.979ZM193 117.979C201.285 117.979 208 124.694 208 132.979L210 132.979C210 123.59 202.389 115.979 193 115.979L193 117.979Z" fill="#999999"/>
</svg>
