<svg width="184" height="112" viewBox="0 0 184 112" fill="none" xmlns="http://www.w3.org/2000/svg">
<path d="M127.667 62.6666V61.3333C127.667 58.858 128.65 56.484 130.4 54.7337C132.151 52.9833 134.525 52 137 52M137 52C139.475 52 141.849 52.9833 143.6 54.7337C145.35 56.484 146.333 58.858 146.333 61.3333V62.6666M137 52C138.414 52 139.771 51.4381 140.771 50.4379C141.771 49.4377 142.333 48.0811 142.333 46.6666C142.333 45.2522 141.771 43.8956 140.771 42.8954C139.771 41.8952 138.414 41.3333 137 41.3333C135.585 41.3333 134.229 41.8952 133.229 42.8954C132.229 43.8956 131.667 45.2522 131.667 46.6666C131.667 48.0811 132.229 49.4377 133.229 50.4379C134.229 51.4381 135.585 52 137 52Z" stroke="#4A4A4A" stroke-width="2" stroke-linecap="round" stroke-linejoin="round"/>
<path d="M127.667 94.6666V93.3333C127.667 90.858 128.65 88.484 130.4 86.7337C132.151 84.9833 134.525 84 137 84M137 84C139.475 84 141.849 84.9833 143.6 86.7337C145.35 88.484 146.333 90.858 146.333 93.3333V94.6666M137 84C138.414 84 139.771 83.4381 140.771 82.4379C141.771 81.4377 142.333 80.0811 142.333 78.6666C142.333 77.2522 141.771 75.8956 140.771 74.8954C139.771 73.8952 138.414 73.3333 137 73.3333C135.585 73.3333 134.229 73.8952 133.229 74.8954C132.229 75.8956 131.667 77.2522 131.667 78.6666C131.667 80.0811 132.229 81.4377 133.229 82.4379C134.229 83.4381 135.585 84 137 84Z" stroke="#4A4A4A" stroke-width="2" stroke-linecap="round" stroke-linejoin="round"/>
<path d="M12 49.3333V61.3333C12 62.0406 12.281 62.7188 12.781 63.2189C13.2811 63.719 13.9594 64 14.6667 64H33.3333C34.0406 64 34.7189 63.719 35.219 63.2189C35.719 62.7188 36 62.0406 36 61.3333V49.3333" stroke="#4A4A4A" stroke-width="2"/>
<path d="M27.7772 64V56C27.7772 55.2927 27.4963 54.6145 26.9962 54.1144C26.4961 53.6143 25.8178 53.3333 25.1106 53.3333H22.4439C21.7366 53.3333 21.0584 53.6143 20.5583 54.1144C20.0582 54.6145 19.7772 55.2927 19.7772 56V64" stroke="#4A4A4A" stroke-width="2" stroke-miterlimit="16"/>
<path d="M37.0906 48.4853L34.832 40.58C34.7842 40.4129 34.6832 40.2658 34.5444 40.1612C34.4056 40.0565 34.2365 40 34.0626 40H28.6666L29.3 47.6053C29.3097 47.7276 29.3485 47.8457 29.4129 47.95C29.4774 48.0544 29.5657 48.1419 29.6706 48.2053C30.1906 48.516 31.2066 49.0893 32 49.3333C33.3546 49.7507 35.3333 49.6 36.4613 49.4613C36.571 49.4472 36.6762 49.4092 36.7697 49.3502C36.8632 49.2911 36.9427 49.2124 37.0026 49.1195C37.0625 49.0265 37.1014 48.9216 37.1166 48.8121C37.1318 48.7026 37.123 48.5911 37.0906 48.4853Z" stroke="#4A4A4A" stroke-width="2"/>
<path d="M26.6666 49.3333C27.424 49.1 28.384 48.568 28.92 48.2507C29.0447 48.1761 29.1459 48.0678 29.2119 47.9384C29.2779 47.8089 29.3061 47.6634 29.2933 47.5187L28.6666 40H19.3333L18.7066 47.5187C18.6935 47.6636 18.7216 47.8094 18.7877 47.9391C18.8537 48.0688 18.955 48.1773 19.08 48.252C19.616 48.568 20.576 49.1 21.3333 49.3333C23.324 49.9467 24.676 49.9467 26.6666 49.3333Z" stroke="#4A4A4A" stroke-width="2"/>
<path d="M13.1679 40.58L10.9093 48.4867C10.8774 48.5922 10.8689 48.7035 10.8843 48.8127C10.8997 48.9219 10.9387 49.0264 10.9986 49.119C11.0585 49.2116 11.1378 49.2901 11.2311 49.349C11.3243 49.4079 11.4293 49.4457 11.5386 49.46C12.6653 49.6 14.6453 49.7493 15.9999 49.3333C16.7933 49.0893 17.8106 48.516 18.3293 48.2067C18.4344 48.1431 18.5228 48.0554 18.5873 47.9508C18.6517 47.8462 18.6904 47.7278 18.6999 47.6053L19.3333 40H13.9373C13.7634 40 13.5943 40.0565 13.4555 40.1612C13.3167 40.2658 13.2158 40.4129 13.1679 40.58Z" stroke="#4A4A4A" stroke-width="2"/>
<path d="M40 52L50 57.7735V46.2265L40 52ZM49 53H80.5V51H49V53ZM80.5 53H121V51H80.5V53Z" fill="#999999"/>
<path d="M40 52L50 57.7735L50 46.2265L40 52ZM69.0001 52L69.0001 51L69.0001 51L69.0001 52ZM101 84L101 83L101 83L101 84ZM49 53L69.0001 53L69.0001 51L49 51L49 53ZM101 85L121 85L121 83L101 83L101 85ZM84.0001 68C84.0001 77.3888 91.6113 85 101 85L101 83C92.7159 83 86.0001 76.2843 86.0001 68L84.0001 68ZM69.0001 53C77.2844 53 84.0001 59.7157 84.0001 68L86.0001 68C86.0001 58.6111 78.389 51 69.0001 51L69.0001 53Z" fill="#999999"/>
<path d="M13.692 15.072H22.74V16.68H13.692V15.072ZM8.052 26.4H20.148V28.008H8.052V26.4ZM12.828 12.216H14.652V21H12.828V12.216ZM7.092 20.136H21.132V28.92H19.284V21.768H8.844V28.968H7.092V20.136ZM11.988 6.864H13.836V10.944H11.988V6.864ZM3.996 9.96H23.076V11.688H3.996V9.96ZM3.108 9.96H4.908V16.176C4.908 19.872 4.572 25.296 2.508 28.944C2.196 28.632 1.404 28.128 0.972001 27.936C2.94 24.48 3.108 19.632 3.108 16.176V9.96ZM34.62 10.2H46.692V11.784H34.62V10.2ZM36.084 18.024H45.516V19.536H36.084V18.024ZM36.084 22.008H45.516V23.52H36.084V22.008ZM39.852 6.84H41.484V28.752H39.852V6.84ZM44.628 14.064H46.236V27.072C46.236 27.864 46.092 28.344 45.564 28.584C45.036 28.872 44.268 28.896 43.02 28.896C42.972 28.464 42.732 27.792 42.516 27.36C43.332 27.384 44.076 27.384 44.316 27.36C44.532 27.36 44.628 27.288 44.628 27.024V14.064ZM35.292 14.064H45.468V15.624H36.9V28.872H35.292V14.064ZM42.228 7.776L43.212 6.912C44.364 7.44 45.756 8.328 46.428 8.976L45.372 9.984C44.7 9.288 43.332 8.376 42.228 7.776ZM25.908 20.952H33.948V28.296H32.292V22.464H27.516V28.752H25.908V20.952ZM29.028 11.544H30.708V18.408H29.028V11.544ZM26.028 13.896H33.852V15.336H26.028V13.896ZM25.116 17.808H34.5V19.32H25.116V17.808ZM26.556 25.968H33.204V27.48H26.556V25.968ZM28.764 6.864H29.748V7.248H30.3V7.752C29.34 9.528 27.78 12 25.5 14.088C25.236 13.704 24.66 13.152 24.3 12.912C26.388 11.112 27.924 8.712 28.764 6.864ZM29.124 6.864H30.444C31.908 8.16 33.708 10.032 34.548 11.256L33.42 12.648C32.58 11.4 30.9 9.336 29.46 8.088H29.124V6.864Z" fill="#4A4A4A"/>
<path d="M108.21 11.592C108.114 11.832 108.042 12.192 108.018 12.384C107.754 14.808 106.626 21.984 106.29 24.096H104.13C104.538 22.008 105.69 14.712 105.738 12.936C103.65 12.936 97.4344 12.936 96.3064 12.936C95.3944 12.936 94.7464 12.96 94.0024 13.032V10.896C94.7224 10.968 95.4904 11.04 96.2824 11.04C97.4104 11.04 103.434 11.04 105.114 11.04C105.594 11.04 106.338 10.944 106.602 10.824L108.21 11.592ZM91.3144 23.448C92.0104 23.568 92.7544 23.592 93.4264 23.592H109.602C110.346 23.592 110.994 23.52 111.618 23.448V25.656C110.97 25.56 110.106 25.536 109.602 25.536H93.4264C92.7544 25.536 92.0344 25.584 91.3144 25.656V23.448ZM115.386 16.608C116.13 16.68 117.378 16.752 118.746 16.752C120.498 16.752 130.122 16.752 131.898 16.752C133.098 16.752 133.938 16.656 134.49 16.608V18.96C133.986 18.936 132.978 18.864 131.922 18.864C130.098 18.864 120.522 18.864 118.746 18.864C117.426 18.864 116.154 18.912 115.386 18.96V16.608ZM155.142 8.712C155.598 9.576 156.222 11.064 156.558 12.024L155.358 12.432C155.022 11.424 154.47 9.984 153.99 9.072L155.142 8.712ZM157.542 7.968C157.998 8.856 158.622 10.32 158.982 11.28L157.782 11.688C157.398 10.608 156.87 9.24 156.366 8.328L157.542 7.968ZM152.862 16.416C152.862 22.8 151.494 26.088 146.022 28.536L144.39 27.024C148.758 25.344 150.942 23.28 150.942 16.56V10.728C150.942 9.792 150.87 9 150.822 8.76H152.982C152.958 9 152.862 9.792 152.862 10.728V16.416ZM144.222 8.928C144.198 9.144 144.102 9.816 144.102 10.656V19.464C144.102 20.328 144.174 21.384 144.198 21.624H142.086C142.11 21.384 142.182 20.376 142.182 19.464V10.656C142.182 10.152 142.158 9.456 142.086 8.928H144.222ZM137.19 13.584C137.406 13.608 138.582 13.728 139.614 13.728H155.502C156.558 13.728 157.374 13.656 157.71 13.608V15.648C157.446 15.6 156.558 15.576 155.502 15.576H139.614C138.558 15.576 137.478 15.624 137.19 15.648V13.584ZM162.006 16.608C162.75 16.68 163.998 16.752 165.366 16.752C167.118 16.752 176.742 16.752 178.518 16.752C179.718 16.752 180.558 16.656 181.11 16.608V18.96C180.606 18.936 179.598 18.864 178.542 18.864C176.718 18.864 167.142 18.864 165.366 18.864C164.046 18.864 162.774 18.912 162.006 18.96V16.608Z" fill="#4A4A4A"/>
</svg>
