<svg width="382" height="214" viewBox="0 0 382 214" fill="none" xmlns="http://www.w3.org/2000/svg">
<rect x="121" y="18.2727" width="60" height="12" fill="#F2E059"/>
<path d="M123.28 10.4H141.08V12.88H123.28V10.4ZM133.54 11.4C134.74 15.98 137.28 19.78 141.52 21.46C140.92 22 140.12 23.04 139.72 23.74C135.14 21.6 132.64 17.46 131.12 11.96L133.54 11.4ZM130.78 5.02H133.42C133.32 11.12 133.28 19.6 124.7 23.74C124.32 23.08 123.58 22.22 122.88 21.7C131.08 18.04 130.72 10.44 130.78 5.02ZM147.7 8.68V9.36H156.02V8.68H147.7ZM147.7 6.86V7.52H156.02V6.86H147.7ZM145.38 5.64H158.44V10.58H145.38V5.64ZM147.28 16.66V17.38H156.56V16.66H147.28ZM147.28 14.78V15.48H156.56V14.78H147.28ZM145.02 13.5H158.92V18.64H145.02V13.5ZM150.74 13.92H153.08V22.5H150.74V13.92ZM142.84 11.2H161.06V12.9H142.84V11.2ZM144.62 19.3H159.3V20.84H144.62V19.3ZM142.8 21.56H161.1V23.32H142.8V21.56ZM173.54 8.3C173.26 10.34 172.86 12.68 172.16 15.04C170.96 19.08 169.24 21.56 167.06 21.56C164.82 21.56 162.98 19.1 162.98 15.72C162.98 11.12 167 7.16 172.18 7.16C177.12 7.16 180.26 10.6 180.26 14.98C180.26 19.18 177.68 22.16 172.64 22.94L171.12 20.58C171.9 20.48 172.46 20.38 173 20.26C175.54 19.64 177.54 17.82 177.54 14.88C177.54 11.74 175.58 9.5 172.12 9.5C167.88 9.5 165.56 12.96 165.56 15.48C165.56 17.5 166.36 18.48 167.12 18.48C167.98 18.48 168.74 17.2 169.58 14.5C170.16 12.62 170.6 10.32 170.8 8.22L173.54 8.3ZM185.56 7.4C186.12 7.46 186.72 7.5 187.36 7.5C188.52 7.5 193.18 7.5 194.3 7.5C194.86 7.5 195.58 7.46 196.16 7.4V9.06C195.56 9.02 194.86 8.98 194.3 8.98C193.18 8.98 188.52 8.98 187.4 8.98C186.72 8.98 186.08 9.02 185.56 9.06V7.4ZM183.18 12.42C183.72 12.48 184.3 12.52 184.92 12.52C186.08 12.52 196.94 12.52 198 12.52C198.42 12.52 199.08 12.48 199.58 12.42V14.08C199.14 14.04 198.5 14.02 198 14.02C196.94 14.02 186.08 14.02 184.92 14.02C184.32 14.02 183.72 14.04 183.18 14.08V12.42ZM192.6 13.22C192.6 15.74 192.28 17.82 191.4 19.5C190.66 20.84 189.16 22.28 187.46 23.14L185.98 22.06C187.52 21.4 188.96 20.26 189.76 18.98C190.76 17.4 190.9 15.44 190.92 13.24L192.6 13.22ZM197.2 5.76C197.7 6.48 198.42 7.7 198.82 8.5L197.74 8.98C197.36 8.18 196.68 6.98 196.14 6.22L197.2 5.76ZM199.38 4.96C199.92 5.7 200.68 6.94 201.06 7.68L200 8.16C199.56 7.3 198.9 6.16 198.34 5.42L199.38 4.96ZM203.3 13.34C203.92 13.4 204.96 13.46 206.1 13.46C207.56 13.46 215.58 13.46 217.06 13.46C218.06 13.46 218.76 13.38 219.22 13.34V15.3C218.8 15.28 217.96 15.22 217.08 15.22C215.56 15.22 207.58 15.22 206.1 15.22C205 15.22 203.94 15.26 203.3 15.3V13.34ZM229.36 12.84C231.92 14.34 235.2 16.64 237.18 18.24L236 19.64C234.16 17.96 230.74 15.5 228.26 13.96L229.36 12.84ZM238.5 9.2C238.34 9.48 238.14 9.94 238.04 10.26C237.44 12.3 236.18 14.96 234.42 17.12C232.6 19.36 230 21.5 226.2 22.9L224.78 21.64C228.5 20.52 231.22 18.4 233.02 16.26C234.56 14.42 235.82 11.88 236.28 10.02H228.88L229.52 8.58H235.88C236.42 8.58 236.86 8.52 237.18 8.4L238.5 9.2ZM231.76 6.3C231.42 6.82 231.06 7.5 230.86 7.88C229.68 10.08 227.42 13.1 224.22 15.3L222.9 14.28C226.32 12.14 228.38 9.14 229.3 7.3C229.5 6.96 229.82 6.24 229.94 5.72L231.76 6.3ZM249.32 6.48C249.24 6.84 249.16 7.28 249.08 7.66C248.94 8.38 248.68 10.02 248.4 11.26C247.72 14.08 246.3 19.06 244.04 22.7L242.4 22.06C244.68 19 246.28 13.66 246.82 11.22C247.2 9.62 247.46 7.82 247.46 6.28L249.32 6.48ZM256.2 8.78C257.44 10.4 259.18 14.04 259.86 15.88L258.3 16.62C257.72 14.58 256.14 11.1 254.74 9.44L256.2 8.78ZM242.12 10.86C242.74 10.9 243.26 10.88 243.9 10.86C245.4 10.82 249.46 10.38 250.82 10.38C252.6 10.38 254.06 11.06 254.06 13.76C254.06 16.14 253.74 19.32 252.9 20.98C252.28 22.32 251.28 22.66 249.98 22.66C249.22 22.66 248.26 22.52 247.64 22.36L247.36 20.7C248.2 20.96 249.26 21.1 249.82 21.1C250.56 21.1 251.16 20.94 251.56 20.08C252.2 18.72 252.52 16.12 252.52 13.96C252.52 12.12 251.68 11.78 250.4 11.78C249.06 11.78 245.3 12.24 244.08 12.36C243.62 12.42 242.8 12.52 242.28 12.6L242.12 10.86ZM256.42 5.88C256.92 6.6 257.64 7.82 258.06 8.64L256.98 9.12C256.58 8.3 255.9 7.1 255.34 6.34L256.42 5.88ZM258.62 5.08C259.16 5.82 259.92 7.08 260.32 7.82L259.22 8.3C258.8 7.42 258.14 6.28 257.56 5.54L258.62 5.08ZM146.48 36.42H152.14V37.94H146.48V36.42ZM151.38 36.42H152.92C152.92 40 153.36 47.6 161.26 52.28C160.92 52.54 160.32 53.18 160.04 53.54C152.04 48.7 151.38 40.18 151.38 36.42ZM150.82 40.34L152.52 40.66C151.08 46.76 148.44 50.98 144.02 53.58C143.74 53.26 143.06 52.64 142.66 52.36C147.1 50.04 149.6 46 150.82 40.34ZM174.36 35.22H175.82V37.88H174.36V35.22ZM169.58 37.26H180.56V38.48H169.58V37.26ZM172.5 40.7V42.62H177.78V40.7H172.5ZM171.2 39.58H179.14V43.74H171.2V39.58ZM169.74 44.84H179.68V46.06H171.1V53.58H169.74V44.84ZM179.14 44.84H180.52V52.14C180.52 52.8 180.38 53.16 179.92 53.38C179.46 53.58 178.72 53.6 177.58 53.6C177.52 53.24 177.34 52.74 177.16 52.4C177.96 52.42 178.64 52.42 178.86 52.4C179.06 52.38 179.14 52.34 179.14 52.12V44.84ZM172.54 47.26H173.66V52.3H172.54V47.26ZM173.32 47.26H177.68V51.34H173.32V50.32H176.56V48.28H173.32V47.26ZM165.56 36.8H167V53.62H165.56V36.8ZM162.62 40.76H169.54V42.16H162.62V40.76ZM165.64 41.3L166.58 41.68C165.88 44.46 164.48 48.02 163.08 49.86C162.94 49.46 162.58 48.84 162.32 48.48C163.6 46.86 165.02 43.74 165.64 41.3ZM168.4 35.54L169.52 36.66C167.78 37.34 165.2 37.84 163.04 38.12C162.96 37.8 162.76 37.3 162.58 36.96C164.66 36.64 167.08 36.14 168.4 35.54ZM166.92 42.8C167.4 43.24 169.08 45.24 169.44 45.74L168.52 46.9C168.12 46.04 166.76 44.1 166.24 43.38L166.92 42.8ZM191.96 37.84C191.84 37.4 191.66 36.8 191.46 36.26L193.18 36.06C193.36 37.22 193.88 38.94 194.34 40.24C194.96 41.96 195.98 43.82 196.84 44.98C197.1 45.38 197.4 45.72 197.7 46.04L196.9 47.18C195.94 46.94 193.5 46.72 192.06 46.62L192.18 45.3C193.3 45.4 194.78 45.52 195.5 45.6C194.66 44.32 193.56 42.34 192.9 40.52C192.46 39.38 192.18 38.46 191.96 37.84ZM184.64 39.4C187.98 39.78 191.14 39.8 193.42 39.56C195 39.38 196.98 39.02 198.54 38.48L198.72 40.06C197.3 40.46 195.4 40.78 193.94 40.96C191.4 41.26 188.22 41.28 184.68 40.98L184.64 39.4ZM187.74 45.76C187.14 46.74 186.78 47.6 186.78 48.54C186.78 50.46 188.52 51.28 191.5 51.32C193.52 51.32 195.26 51.12 196.64 50.82L196.58 52.42C195.32 52.64 193.64 52.86 191.4 52.84C187.6 52.82 185.2 51.46 185.2 48.74C185.2 47.62 185.6 46.58 186.18 45.4L187.74 45.76ZM220.76 50.48C219.68 51.56 218.44 52.16 217.08 52.16C215.74 52.16 214.86 51.28 214.86 49.64C214.86 47.4 215.6 44.12 215.6 42.18C215.6 41.02 215.02 40.52 214 40.52C212.12 40.52 209.22 43 207.34 45.28L207.36 43.3C208.6 41.94 211.92 39.06 214.38 39.06C216.26 39.06 217.18 40.12 217.18 41.74C217.18 43.74 216.42 47.18 216.42 49.2C216.42 49.88 216.76 50.42 217.48 50.42C218.42 50.42 219.48 49.84 220.5 48.78L220.76 50.48ZM207.32 40.92C206.66 41.02 204.5 41.28 203.02 41.52L202.84 39.86C203.28 39.88 203.66 39.88 204.16 39.84C205.22 39.78 207.72 39.48 208.64 39.18L209.22 39.86C208.88 40.38 208.34 41.24 208 41.8L207.4 44.54C206.48 45.96 204.62 48.66 203.36 50.4L202.36 49.04C203.6 47.48 206.3 43.82 207.08 42.5L207.16 41.46L207.32 40.92ZM207.12 37.62C207.12 37.16 207.14 36.64 207.04 36.14L208.92 36.2C208.64 37.5 208.04 43.22 208.04 46.74C208.04 48.56 208.04 49.78 208.12 51.56C208.14 51.9 208.2 52.4 208.22 52.78H206.5C206.54 52.4 206.56 51.92 206.56 51.6C206.56 49.66 206.58 48.66 206.6 46.46C206.64 44.7 207.12 38.36 207.12 37.62ZM225.82 37.28C226.26 37.32 226.82 37.34 227.22 37.34C228.28 37.34 233.02 37.2 234.08 37.1C234.68 37.04 234.96 37 235.18 36.92L236.1 38.1C235.74 38.34 235.34 38.6 234.96 38.9C233.98 39.66 231.26 42 229.7 43.28C230.62 42.98 231.58 42.88 232.48 42.88C235.8 42.88 238.18 44.86 238.18 47.56C238.18 50.78 235.52 52.88 231.28 52.88C228.56 52.88 226.9 51.7 226.9 50.02C226.9 48.66 228.14 47.42 229.98 47.42C232.64 47.42 233.98 49.3 234.12 51.32L232.68 51.56C232.56 49.86 231.58 48.64 229.98 48.64C229.06 48.64 228.36 49.2 228.36 49.9C228.36 50.88 229.46 51.46 231.04 51.46C234.44 51.46 236.58 50.06 236.58 47.56C236.58 45.58 234.7 44.12 232.08 44.12C228.76 44.12 226.96 45.52 224.44 48.1L223.28 46.94C224.94 45.58 227.52 43.42 228.66 42.44C229.78 41.52 232.3 39.42 233.3 38.52C232.24 38.58 228.24 38.74 227.2 38.8C226.74 38.84 226.3 38.86 225.86 38.92L225.82 37.28Z" fill="#1E1E1E"/>
<rect x="150" y="200" width="60" height="12" fill="#F2E059"/>
<rect x="118.5" y="170.273" width="44" height="12" fill="#F2E059"/>
<rect x="198.5" y="170.273" width="44" height="12" fill="#F2E059"/>
<path d="M122.22 160.32H139.24V162.66H122.22V160.32ZM131.16 167.06H138.22V169.42H131.16V167.06ZM121.54 174.7H139.82V177.04H121.54V174.7ZM129.98 161.26H132.54V175.84H129.98V161.26ZM124 165.76H126.5V175.96H124V165.76ZM151.4 168.74H158.9V170.48H151.4V168.74ZM151.4 171.9H158.9V173.66H151.4V171.9ZM151.36 175.06H159.82V177.04H151.36V175.06ZM148.42 160.88H159.72V164.54H157.6V162.9H150.46V164.54H148.42V160.88ZM154.12 167.06H156.32V176H154.12V167.06ZM152.14 165.4H159.34V167.4H152.14V177.82H149.9V167.48L151.92 165.4H152.14ZM153.2 159L155.48 159.42C154.4 163.76 152.4 167.22 149.46 169.38C149.14 168.92 148.32 167.98 147.84 167.58C150.58 165.78 152.36 162.74 153.2 159ZM155.34 163.38L157.56 163.84C157.04 164.94 156.5 166.02 156.06 166.76L154.26 166.3C154.66 165.48 155.12 164.26 155.34 163.38ZM141.38 160.2H148.6V162.38H141.38V160.2ZM143.64 166.08H148.28V175.4H143.64V173.34H146.26V168.16H143.64V166.08ZM143.44 161.36L145.7 161.72C145.1 166.04 144.02 170.28 141.98 173C141.76 172.44 141.12 171.22 140.7 170.68C142.26 168.48 143.04 165.02 143.44 161.36ZM142.7 166.08H144.64V176.94H142.7V166.08ZM168.96 160.4C168.88 160.78 168.8 161.2 168.72 161.6C168.6 162.32 168.32 163.96 168.06 165.2C167.38 168 165.94 172.98 163.68 176.64L162.06 175.98C164.34 172.94 165.94 167.6 166.48 165.14C166.84 163.56 167.12 161.76 167.12 160.22L168.96 160.4ZM175.86 162.54C177.1 164.16 178.84 167.84 179.5 169.7L177.96 170.44C177.36 168.38 175.8 164.84 174.4 163.2L175.86 162.54ZM161.76 164.8C162.4 164.82 162.92 164.82 163.56 164.8C165.04 164.76 169.1 164.3 170.46 164.3C172.24 164.3 173.7 164.98 173.7 167.7C173.7 170.08 173.38 173.26 172.56 174.92C171.92 176.26 170.92 176.58 169.64 176.58C168.86 176.58 167.92 176.44 167.28 176.3L167.02 174.62C167.86 174.88 168.9 175.04 169.46 175.04C170.2 175.04 170.8 174.88 171.22 174C171.86 172.66 172.16 170.04 172.16 167.88C172.16 166.06 171.32 165.72 170.04 165.72C168.7 165.72 164.96 166.16 163.74 166.28C163.28 166.34 162.44 166.44 161.94 166.52L161.76 164.8ZM181.44 165.56C182.18 165.44 182.9 165.22 183.66 165C185.34 164.46 189.28 163.02 192.2 163.02C195.5 163.02 198.14 164.94 198.14 168.28C198.14 173.08 193.38 175.38 187.22 175.74L186.5 174.08C191.72 173.94 196.4 172.34 196.4 168.26C196.4 166.16 194.86 164.5 192.16 164.5C188.86 164.5 183.78 166.7 182.18 167.34L181.44 165.56ZM202.42 160.12H208.16V172.4H202.42V170.2H205.94V162.28H202.42V160.12ZM202.44 165.12H206.82V167.26H202.44V165.12ZM210.98 159.82H217.12V162.04H210.98V159.82ZM210.98 164.6H217.12V166.76H210.98V164.6ZM210.94 169.34H217.1V171.48H210.94V169.34ZM201.14 160.12H203.36V174.14H201.14V160.12ZM216.22 159.82H218.6V175.06C218.6 176.3 218.34 176.96 217.56 177.34C216.76 177.72 215.62 177.78 213.92 177.78C213.82 177.12 213.44 176.08 213.1 175.46C214.18 175.52 215.4 175.5 215.74 175.5C216.1 175.5 216.22 175.38 216.22 175.02V159.82ZM209.54 159.82H211.9V167.08C211.9 170.54 211.36 175.24 207.66 177.96C207.3 177.48 206.38 176.66 205.86 176.34C209.24 173.88 209.54 170.12 209.54 167.06V159.82ZM222.6 159.02H224.98V177.8H222.6V159.02ZM220.86 162.98L222.58 163.22C222.5 164.94 222.14 167.32 221.66 168.86L219.88 168.22C220.36 166.88 220.72 164.64 220.86 162.98ZM224.44 163.02L226.08 162.32C226.68 163.54 227.36 165.14 227.62 166.14L225.86 166.96C225.66 165.94 225.02 164.28 224.44 163.02ZM227.3 162.04H237.54V169.2H235.18V164.28H227.3V162.04ZM226.38 167.94H238.8V170.24H226.38V167.94ZM233.46 168.42C234.32 171.72 236.12 174.44 239.22 175.6C238.66 176.12 237.88 177.16 237.52 177.86C234.08 176.26 232.36 173.04 231.3 168.84L233.46 168.42ZM230.76 159.02H233.18V166.12C233.18 170.18 232.36 174.96 227.18 177.9C226.86 177.4 226.04 176.5 225.48 176.04C230.48 173.62 230.76 169.48 230.76 166.1V159.02ZM241.26 163.4C242 163.48 242.86 163.52 243.72 163.52C245.88 163.52 248.4 163.26 250.7 162.5L250.74 163.98C248.78 164.52 246.16 164.96 243.72 164.94C242.98 164.94 242.12 164.92 241.38 164.9L241.26 163.4ZM248.36 160.14C248.1 161.12 247.68 163 247.2 164.42C246.24 167.3 244.4 170.94 242.74 173.18L241.2 172.38C242.98 170.3 244.84 166.74 245.66 164.38C246.1 163.12 246.54 161.36 246.6 159.96L248.36 160.14ZM253.08 166.32C253.02 167.14 253.02 167.74 253.04 168.46C253.08 169.76 253.26 172.8 253.26 174.12C253.26 175.72 252.24 177.02 249.76 177.02C247.56 177.02 245.78 176.14 245.78 174.14C245.78 172.3 247.52 171.14 249.76 171.14C253.12 171.14 255.7 172.82 257.34 174.24L256.5 175.6C254.96 174.2 252.66 172.42 249.72 172.42C248.24 172.42 247.24 173.1 247.24 174.02C247.24 174.94 248.02 175.58 249.58 175.58C251.24 175.58 251.8 174.7 251.8 173.62C251.8 172.1 251.58 168.52 251.5 166.32H253.08ZM257.08 166.84C256 165.92 253.82 164.7 252.5 164.08L253.3 162.88C254.76 163.5 257.02 164.8 257.98 165.52L257.08 166.84ZM74.11 192.64C74.63 192.7 75.37 192.74 75.79 192.74H86.77C87.39 192.74 88.01 192.7 88.49 192.64V194.38C87.99 194.34 87.35 194.3 86.77 194.3H75.79C75.39 194.3 74.61 194.34 74.11 194.38V192.64ZM80.29 204.38V193.64H81.99V204.38H80.29ZM72.89 203.4C73.47 203.48 74.09 203.52 74.65 203.52H87.87C88.47 203.52 89.01 203.44 89.51 203.4V205.2C88.99 205.14 88.25 205.14 87.87 205.14H74.65C74.11 205.14 73.49 205.16 72.89 205.2V203.4ZM95.61 191.12C96.13 191.18 96.75 191.22 97.39 191.22C98.47 191.22 104.09 191.22 105.27 191.22C105.89 191.22 106.59 191.18 107.07 191.12V192.78C106.61 192.74 105.91 192.72 105.23 192.72C104.11 192.72 98.49 192.72 97.39 192.72C96.79 192.72 96.15 192.74 95.61 192.78V191.12ZM108.55 196.38C108.45 196.58 108.31 196.82 108.27 196.98C107.75 198.94 106.85 201.02 105.35 202.66C103.27 204.96 100.75 206.12 98.21 206.84L96.97 205.42C99.79 204.84 102.29 203.54 104.01 201.74C105.21 200.48 106.01 198.78 106.37 197.32C105.39 197.32 96.97 197.32 95.77 197.32C95.29 197.32 94.53 197.34 93.81 197.4V195.72C94.53 195.78 95.21 195.84 95.77 195.84C96.75 195.84 105.27 195.84 106.29 195.84C106.75 195.84 107.19 195.78 107.41 195.68L108.55 196.38ZM112.79 197.34C113.41 197.4 114.45 197.46 115.59 197.46C117.05 197.46 125.07 197.46 126.55 197.46C127.55 197.46 128.25 197.38 128.71 197.34V199.3C128.29 199.28 127.45 199.22 126.57 199.22C125.05 199.22 117.07 199.22 115.59 199.22C114.49 199.22 113.43 199.26 112.79 199.3V197.34ZM139.75 190.2C139.57 190.98 139.35 192.08 138.83 193.42C138.33 194.64 137.59 195.98 136.79 197.02C137.57 196.56 138.71 196.28 139.59 196.28C141.13 196.28 142.33 197.2 142.33 198.82C142.33 199.86 142.37 202.16 142.39 203.4H140.85C140.93 202.34 140.95 200.28 140.93 199.24C140.91 198.08 140.11 197.54 139.07 197.54C137.79 197.54 136.53 198.18 135.61 199C135.03 199.56 134.47 200.28 133.81 201.1L132.43 200.08C135.31 197.32 136.65 195 137.33 193.3C137.77 192.2 138.05 191 138.11 190.06L139.75 190.2ZM132.89 192.36C133.97 192.5 135.35 192.56 136.27 192.56C138.97 192.56 142.43 192.4 145.25 191.9V193.38C142.45 193.8 138.73 193.98 136.19 193.98C135.33 193.98 134.01 193.94 132.89 193.86V192.36ZM148.17 197.18C147.67 197.34 146.95 197.62 146.41 197.82C144.99 198.38 143.09 199.14 141.15 200.14C139.17 201.18 137.77 202.26 137.77 203.64C137.77 205.2 139.31 205.44 141.37 205.44C142.93 205.44 145.09 205.26 146.85 204.94L146.79 206.56C145.27 206.74 143.05 206.9 141.31 206.9C138.47 206.9 136.17 206.28 136.17 203.86C136.17 201.42 138.65 199.92 141.03 198.7C142.93 197.72 144.55 197.1 145.87 196.48C146.47 196.2 146.97 195.98 147.53 195.7L148.17 197.18ZM151.09 196.9H169.61V199.52H151.09V196.9ZM187.21 189.1L188.73 191.04C185.89 191.84 182.01 192.34 178.71 192.58C178.63 192.02 178.33 191.14 178.09 190.6C181.31 190.32 184.93 189.78 187.21 189.1ZM177.77 195H189.53V197.26H177.77V195ZM178.39 200.08H188.65V207.72H186.23V202.26H180.71V207.8H178.39V200.08ZM179.85 204.92H187.19V207.08H179.85V204.92ZM182.33 191.1H184.65V201.2H182.33V191.1ZM170.63 199.18C172.35 198.8 174.93 198.16 177.35 197.5L177.61 199.72C175.43 200.34 173.07 200.98 171.21 201.48L170.63 199.18ZM170.87 192.82H177.41V195.06H170.87V192.82ZM173.11 189.02H175.39V205.2C175.39 206.38 175.17 206.98 174.53 207.34C173.87 207.72 172.95 207.78 171.59 207.78C171.53 207.16 171.21 206.18 170.93 205.56C171.69 205.58 172.51 205.58 172.75 205.58C173.01 205.56 173.11 205.48 173.11 205.18V189.02ZM191.27 192.3C192.05 192.28 192.85 192.24 193.23 192.2C194.89 192.04 198.19 191.76 201.85 191.44C203.93 191.28 206.11 191.14 207.53 191.08L207.55 193.66C206.47 193.66 204.75 193.68 203.67 193.92C201.27 194.56 199.45 197.16 199.45 199.54C199.45 202.82 202.53 204.02 205.91 204.18L204.97 206.92C200.79 206.66 196.83 204.4 196.83 200.06C196.83 197.2 198.45 194.92 199.79 193.9C197.93 194.1 193.83 194.54 191.53 195.04L191.27 192.3ZM204.69 195.62C205.17 196.32 205.89 197.54 206.27 198.34L204.77 199C204.25 197.92 203.83 197.12 203.21 196.24L204.69 195.62ZM206.91 194.7C207.43 195.4 208.19 196.58 208.61 197.36L207.11 198.08C206.57 197 206.11 196.24 205.47 195.36L206.91 194.7ZM214.65 197.1V204.18H213.17V198.5H210.63V197.1H214.65ZM214.65 203.52C215.61 205.02 217.43 205.68 219.83 205.78C222.03 205.86 226.55 205.8 228.93 205.64C228.75 206 228.51 206.72 228.43 207.18C226.23 207.26 222.05 207.3 219.83 207.22C217.15 207.12 215.29 206.42 213.99 204.84C213.09 205.7 212.15 206.56 211.13 207.44L210.33 205.92C211.23 205.26 212.33 204.38 213.29 203.52H214.65ZM210.81 190.56L211.91 189.68C213.17 190.58 214.59 191.94 215.23 192.92L214.03 193.88C213.45 192.9 212.05 191.5 210.81 190.56ZM218.05 190.22H228.13V191.62H218.05V190.22ZM218.19 194.4H226.37V195.76H218.19V194.4ZM217.33 190.22H218.79V194.84C218.79 197.64 218.47 201.58 216.41 204.26C216.17 203.98 215.53 203.56 215.19 203.4C217.13 200.9 217.33 197.42 217.33 194.84V190.22ZM225.97 194.4H226.25L226.53 194.34L227.47 194.68C226.19 200.02 222.79 203.2 218.83 204.74C218.65 204.38 218.25 203.78 217.95 203.48C221.59 202.26 224.85 199.18 225.97 194.66V194.4ZM220.51 195.3C221.81 199.4 224.59 202.42 228.85 203.62C228.51 203.92 228.09 204.5 227.87 204.92C223.47 203.46 220.65 200.24 219.19 195.64L220.51 195.3ZM246.31 190.42H247.79V202.18C247.79 203 247.63 203.5 247.05 203.78C246.49 204.04 245.57 204.06 244.21 204.06C244.15 203.62 243.93 202.94 243.71 202.5C244.75 202.54 245.67 202.54 245.97 202.52C246.23 202.52 246.31 202.42 246.31 202.16V190.42ZM240.81 190.42H247.03V191.82H242.25V207.6H240.81V190.42ZM231.01 192.4H239.39V193.78H231.01V192.4ZM230.23 197.08H240.07V198.48H230.23V197.08ZM234.53 189.2H235.99V197.8H234.53V189.2ZM230.21 204.22C232.33 204.08 235.59 203.78 238.73 203.5L238.77 204.86C235.77 205.18 232.67 205.5 230.43 205.72L230.21 204.22ZM236.35 201L237.57 200.5C238.67 202.18 239.85 204.44 240.29 205.88L238.95 206.44C238.53 205.02 237.41 202.72 236.35 201ZM233.73 197.94L235.31 198.42C234.59 200.58 233.61 203.24 232.79 204.9L231.55 204.44C232.33 202.72 233.27 199.94 233.73 197.94ZM256.03 190.42C255.93 191.08 255.87 191.78 255.83 192.44C255.75 194.7 255.59 199.44 255.59 202.42C255.59 204.62 256.97 205.38 258.87 205.38C262.53 205.38 264.61 203.34 266.05 201.26L267.17 202.62C265.81 204.52 263.21 207.02 258.83 207.02C255.95 207.02 253.97 205.84 253.97 202.56C253.97 199.6 254.17 194.54 254.17 192.44C254.17 191.7 254.11 191 253.99 190.42H256.03ZM277.85 190.28C277.73 190.72 277.59 191.48 277.51 191.86C277.21 193.3 276.79 195.56 276.23 197.56C275.51 200.4 274.17 204.54 273.11 206.72L271.37 206.14C272.57 204.06 273.97 200 274.73 197.18C275.21 195.34 275.73 192.82 275.87 191.78C275.95 191.22 275.99 190.54 275.95 190.12L277.85 190.28ZM273.43 193.62C275.63 193.62 278.57 193.26 281.05 192.64V194.2C278.57 194.76 275.55 195.1 273.39 195.1C272.51 195.1 271.81 195.08 271.07 195.02L271.03 193.46C271.97 193.58 272.69 193.62 273.43 193.62ZM279.75 196.36C280.79 196.26 282.13 196.2 283.41 196.2C284.57 196.2 285.79 196.24 286.87 196.36L286.83 197.88C285.79 197.76 284.63 197.64 283.45 197.64C282.21 197.64 280.97 197.72 279.75 197.86V196.36ZM280.15 201.22C279.99 201.88 279.87 202.5 279.87 203.02C279.87 203.96 280.41 204.88 283.25 204.88C284.57 204.88 285.93 204.74 287.17 204.5L287.11 206.1C286.03 206.26 284.69 206.38 283.23 206.38C280.09 206.38 278.37 205.42 278.37 203.44C278.37 202.68 278.49 201.92 278.67 201.08L280.15 201.22ZM293.25 192.06C293.15 192.52 293.09 193.48 293.07 194C293.05 195.24 293.07 197.08 293.21 198.72C293.55 202.06 294.51 204.28 295.95 204.28C296.97 204.28 297.91 202.22 298.43 200.22L299.69 201.64C298.47 205.02 297.27 206.18 295.91 206.18C294.01 206.18 292.21 204.3 291.65 199.12C291.47 197.4 291.43 194.96 291.43 193.8C291.43 193.34 291.43 192.48 291.31 192.02L293.25 192.06ZM303.65 192.6C305.45 194.92 306.89 199.18 307.19 202.56L305.57 203.2C305.23 199.6 304.01 195.48 302.11 193.14L303.65 192.6Z" fill="#1E1E1E"/>
<path d="M320 114.027L320.027 113.997M320 82.0266L320.027 81.9973" stroke="#4A4A4A" stroke-width="4" stroke-linecap="round" stroke-linejoin="round"/>
<path d="M309.333 91.0666V72.9333C309.333 72.509 309.502 72.102 309.802 71.8019C310.102 71.5019 310.509 71.3333 310.933 71.3333H361.067C361.491 71.3333 361.898 71.5019 362.198 71.8019C362.498 72.102 362.667 72.509 362.667 72.9333V91.0666C362.667 91.491 362.498 91.898 362.198 92.198C361.898 92.4981 361.491 92.6666 361.067 92.6666H310.933C310.509 92.6666 310.102 92.4981 309.802 92.198C309.502 91.898 309.333 91.491 309.333 91.0666ZM309.333 123.067V104.933C309.333 104.509 309.502 104.102 309.802 103.802C310.102 103.502 310.509 103.333 310.933 103.333H361.067C361.491 103.333 361.898 103.502 362.198 103.802C362.498 104.102 362.667 104.509 362.667 104.933V123.067C362.667 123.277 362.625 123.485 362.545 123.679C362.464 123.873 362.347 124.049 362.198 124.198C362.049 124.347 361.873 124.464 361.679 124.545C361.485 124.625 361.277 124.667 361.067 124.667H310.933C310.723 124.667 310.515 124.625 310.321 124.545C310.127 124.464 309.95 124.347 309.802 124.198C309.653 124.049 309.535 123.873 309.455 123.679C309.375 123.485 309.333 123.277 309.333 123.067Z" stroke="#4A4A4A" stroke-width="4"/>
<path d="M29.3333 119.333V116.667C29.3333 111.716 31.2999 106.968 34.8006 103.467C38.3013 99.9667 43.0492 98 47.9999 98M47.9999 98C52.9506 98 57.6986 99.9667 61.1992 103.467C64.6999 106.968 66.6666 111.716 66.6666 116.667V119.333M47.9999 98C50.8289 98 53.542 96.8762 55.5424 94.8758C57.5428 92.8754 58.6666 90.1623 58.6666 87.3334C58.6666 84.5044 57.5428 81.7913 55.5424 79.7909C53.542 77.7905 50.8289 76.6667 47.9999 76.6667C45.1709 76.6667 42.4578 77.7905 40.4574 79.7909C38.4571 81.7913 37.3333 84.5044 37.3333 87.3334C37.3333 90.1623 38.4571 92.8754 40.4574 94.8758C42.4578 96.8762 45.1709 98 47.9999 98Z" stroke="#4A4A4A" stroke-width="4" stroke-linecap="round" stroke-linejoin="round"/>
<path d="M19.7624 141.424C19.6424 141.76 19.5224 142.336 19.4984 142.528C19.1864 144.952 18.1304 151.456 17.7944 153.64H14.2664C14.6504 151.48 15.6824 145.312 15.7544 143.584C13.8824 143.584 8.98637 143.584 7.47437 143.584C6.49037 143.584 5.60237 143.632 4.73837 143.704V140.32C5.53037 140.416 6.63437 140.488 7.45037 140.488C8.96237 140.488 13.5704 140.488 15.0104 140.488C15.6344 140.488 16.8344 140.368 17.2424 140.176L19.7624 141.424ZM2.12237 152.656C2.89037 152.8 3.75437 152.848 4.49837 152.848H20.4824C21.3464 152.848 22.1144 152.752 22.7384 152.656V156.16C22.0664 156.064 21.0584 156.016 20.4824 156.016H4.49837C3.75437 156.016 2.91437 156.064 2.12237 156.16V152.656ZM26.1464 145.888C27.0344 145.96 28.7624 146.056 30.0104 146.056C32.8424 146.056 40.7624 146.056 42.8984 146.056C44.0264 146.056 45.0824 145.936 45.7304 145.888V149.68C45.1544 149.656 43.9304 149.536 42.9224 149.536C40.7384 149.536 32.8424 149.536 30.0104 149.536C28.6664 149.536 27.0584 149.608 26.1464 149.68V145.888ZM66.6456 138.352C67.1016 139.288 67.6296 140.68 67.8936 141.616L66.2376 142.168C65.9016 141.136 65.4936 139.84 65.0136 138.856L66.6456 138.352ZM69.1176 137.584C69.5736 138.52 70.1256 139.936 70.4136 140.848L68.7816 141.376C68.4216 140.32 67.9656 139.048 67.4856 138.088L69.1176 137.584ZM64.5816 146.776C64.5816 152.704 63.1416 156.352 57.3576 158.896L54.7656 156.472C59.4216 154.864 61.4376 152.776 61.4376 146.896V140.512C61.4376 139.528 61.3896 138.736 61.3176 138.28H64.7256C64.6776 138.76 64.5816 139.528 64.5816 140.512V146.776ZM55.8936 138.496C55.8456 138.928 55.7496 139.696 55.7496 140.656V149.248C55.7496 150.304 55.8216 151.288 55.8696 151.744H52.5096C52.5576 151.288 52.6296 150.328 52.6296 149.248V140.656C52.6296 139.96 52.5816 139.216 52.4856 138.496H55.8936ZM47.9976 142.816C48.4296 142.888 49.4136 143.032 50.6136 143.032H66.3336C67.6056 143.032 68.3256 142.984 68.9976 142.864V146.056C68.4696 145.984 67.6056 145.984 66.3576 145.984H50.6136C49.3896 145.984 48.5496 146.032 47.9976 146.08V142.816ZM72.7656 145.888C73.6536 145.96 75.3816 146.056 76.6296 146.056C79.4616 146.056 87.3816 146.056 89.5176 146.056C90.6456 146.056 91.7016 145.936 92.3496 145.888V149.68C91.7736 149.656 90.5496 149.536 89.5416 149.536C87.3576 149.536 79.4616 149.536 76.6296 149.536C75.2856 149.536 73.6776 149.608 72.7656 149.68V145.888Z" fill="#4D4D4D"/>
<path d="M295.439 138.016C297.023 138.88 299.663 140.56 300.911 141.448L299.135 144.088C297.791 143.152 295.295 141.544 293.711 140.656L295.439 138.016ZM290.999 155.056C293.687 154.6 296.543 153.784 299.159 152.344C303.239 150.064 306.599 146.776 308.495 143.344L310.343 146.608C308.135 149.944 304.727 152.968 300.815 155.248C298.367 156.616 294.911 157.816 292.799 158.2L290.999 155.056ZM291.743 143.488C293.351 144.352 295.991 145.984 297.239 146.872L295.463 149.56C294.119 148.6 291.623 146.992 290.015 146.128L291.743 143.488ZM331.583 140.752C331.391 141.016 330.959 141.736 330.743 142.24C329.759 144.52 327.983 147.784 325.919 150.184C323.231 153.28 319.607 156.256 315.887 158.008L313.391 155.416C317.279 153.976 320.975 151.048 323.231 148.552C324.815 146.752 326.279 144.376 326.831 142.672C325.823 142.672 319.703 142.672 318.671 142.672C317.687 142.672 316.367 142.792 315.839 142.84V139.408C316.487 139.504 317.975 139.576 318.671 139.576C319.943 139.576 326.087 139.576 327.143 139.576C328.199 139.576 329.135 139.456 329.639 139.288L331.583 140.752ZM326.231 148.192C328.703 150.208 332.111 153.784 333.671 155.704L330.935 158.08C329.159 155.608 326.543 152.752 323.975 150.424L326.231 148.192ZM339.959 138.616C340.727 138.712 341.711 138.784 342.527 138.784C344.039 138.784 350.759 138.784 352.175 138.784C352.967 138.784 353.927 138.712 354.743 138.616V141.712C353.927 141.664 352.991 141.616 352.175 141.616C350.759 141.616 344.039 141.616 342.527 141.616C341.711 141.616 340.679 141.664 339.959 141.712V138.616ZM337.151 144.736C337.871 144.832 338.711 144.88 339.455 144.88C340.967 144.88 353.759 144.88 355.175 144.88C355.679 144.88 356.735 144.856 357.383 144.736V147.856C356.759 147.832 355.847 147.808 355.175 147.808C353.759 147.808 340.967 147.808 339.455 147.808C338.759 147.808 337.823 147.832 337.151 147.88V144.736ZM349.439 146.416C349.439 149.56 348.887 151.96 347.855 153.952C347.039 155.632 345.167 157.48 343.055 158.584L340.223 156.544C341.927 155.872 343.631 154.504 344.567 153.088C345.767 151.264 346.103 149.008 346.103 146.44L349.439 146.416ZM371.249 138.904C370.937 139.624 370.601 140.512 370.241 141.592C369.353 144.28 366.857 152.008 365.825 154.504L362.297 154.624C363.593 151.552 366.089 143.68 366.881 140.896C367.217 139.696 367.337 138.928 367.433 138.136L371.249 138.904ZM375.545 146.656C377.273 149.248 379.721 153.976 380.825 156.64L377.585 158.08C376.505 155.176 374.273 150.208 372.569 147.904L375.545 146.656ZM362.057 153.544C365.393 153.424 373.241 152.536 376.601 152.08L377.297 155.152C373.745 155.608 365.489 156.472 362.249 156.808C361.649 156.88 360.737 157 359.993 157.096L359.417 153.568C360.233 153.592 361.289 153.568 362.057 153.544Z" fill="#4D4D4D"/>
<path d="M288 85L268 73.453L268 96.547L288 85ZM95 87L270 87L270 83L95 83L95 87Z" fill="#B3B3B3"/>
<path d="M95 126L115 137.547L115 114.453L95 126ZM113 128L288 128L288 124L113 124L113 128Z" fill="#B3B3B3"/>
<rect x="136" y="110" width="109" height="32" rx="8" fill="#FCE4E4"/>
<path fill-rule="evenodd" clip-rule="evenodd" d="M145.25 126C145.25 120.063 150.063 115.25 156 115.25C161.937 115.25 166.75 120.063 166.75 126C166.75 131.937 161.937 136.75 156 136.75C154.144 136.75 152.395 136.279 150.87 135.45L146.637 136.237C146.517 136.259 146.394 136.252 146.278 136.216C146.162 136.18 146.056 136.116 145.97 136.03C145.884 135.944 145.82 135.838 145.784 135.722C145.748 135.606 145.741 135.483 145.763 135.363L146.551 131.13C145.695 129.556 145.247 127.792 145.25 126ZM156 121.25C156.199 121.25 156.39 121.329 156.53 121.47C156.671 121.61 156.75 121.801 156.75 122V126C156.75 126.199 156.671 126.39 156.53 126.53C156.39 126.671 156.199 126.75 156 126.75C155.801 126.75 155.61 126.671 155.47 126.53C155.329 126.39 155.25 126.199 155.25 126V122C155.25 121.801 155.329 121.61 155.47 121.47C155.61 121.329 155.801 121.25 156 121.25ZM156.567 130.501C156.635 130.428 156.689 130.343 156.723 130.249C156.758 130.156 156.774 130.056 156.77 129.956C156.766 129.857 156.742 129.759 156.699 129.668C156.657 129.578 156.597 129.497 156.523 129.43C156.449 129.363 156.362 129.312 156.268 129.279C156.173 129.246 156.073 129.233 155.974 129.239C155.874 129.245 155.777 129.271 155.687 129.315C155.598 129.36 155.518 129.421 155.453 129.497L155.443 129.508C155.375 129.581 155.321 129.666 155.287 129.76C155.252 129.853 155.236 129.953 155.24 130.053C155.244 130.152 155.268 130.25 155.311 130.341C155.353 130.431 155.413 130.512 155.487 130.579C155.562 130.646 155.648 130.697 155.743 130.73C155.837 130.763 155.937 130.776 156.036 130.77C156.136 130.764 156.233 130.738 156.323 130.694C156.412 130.649 156.492 130.588 156.557 130.512L156.567 130.501Z" fill="#C41C1C"/>
<path d="M182.555 133.199C181.495 133.199 180.55 133.017 179.722 132.652C178.898 132.283 178.247 131.776 177.768 131.132C177.295 130.483 177.051 129.735 177.037 128.888H180.134C180.152 129.243 180.268 129.555 180.482 129.825C180.699 130.09 180.988 130.296 181.348 130.443C181.708 130.59 182.113 130.663 182.562 130.663C183.031 130.663 183.446 130.58 183.805 130.415C184.165 130.249 184.447 130.019 184.651 129.726C184.854 129.432 184.956 129.094 184.956 128.71C184.956 128.322 184.847 127.979 184.629 127.68C184.416 127.377 184.108 127.141 183.706 126.97C183.308 126.8 182.835 126.714 182.286 126.714H180.929V124.456H182.286C182.75 124.456 183.159 124.375 183.514 124.214C183.874 124.054 184.153 123.831 184.352 123.547C184.551 123.258 184.651 122.922 184.651 122.538C184.651 122.174 184.563 121.854 184.388 121.58C184.217 121.3 183.976 121.082 183.663 120.926C183.356 120.77 182.996 120.692 182.584 120.692C182.167 120.692 181.786 120.768 181.44 120.919C181.095 121.066 180.818 121.277 180.609 121.551C180.401 121.826 180.29 122.148 180.276 122.517H177.328C177.342 121.679 177.581 120.94 178.045 120.301C178.509 119.662 179.134 119.162 179.92 118.803C180.711 118.438 181.604 118.256 182.598 118.256C183.602 118.256 184.48 118.438 185.233 118.803C185.986 119.167 186.571 119.66 186.987 120.28C187.409 120.895 187.617 121.587 187.612 122.354C187.617 123.168 187.364 123.848 186.852 124.392C186.346 124.937 185.685 125.282 184.871 125.429V125.543C185.941 125.68 186.755 126.052 187.314 126.658C187.877 127.259 188.157 128.012 188.152 128.916C188.157 129.745 187.918 130.481 187.435 131.125C186.956 131.769 186.296 132.276 185.453 132.645C184.61 133.014 183.644 133.199 182.555 133.199ZM196.066 133.32C194.844 133.315 193.793 133.014 192.912 132.418C192.036 131.821 191.362 130.957 190.888 129.825C190.419 128.694 190.187 127.332 190.192 125.741C190.192 124.155 190.426 122.804 190.895 121.686C191.369 120.569 192.043 119.719 192.919 119.136C193.8 118.549 194.849 118.256 196.066 118.256C197.283 118.256 198.329 118.549 199.205 119.136C200.086 119.723 200.763 120.576 201.236 121.693C201.71 122.806 201.944 124.155 201.939 125.741C201.939 127.337 201.703 128.701 201.229 129.832C200.76 130.964 200.088 131.828 199.212 132.425C198.336 133.021 197.287 133.32 196.066 133.32ZM196.066 130.77C196.899 130.77 197.564 130.351 198.061 129.513C198.559 128.675 198.805 127.418 198.8 125.741C198.8 124.638 198.686 123.72 198.459 122.986C198.237 122.252 197.919 121.7 197.507 121.331C197.1 120.962 196.62 120.777 196.066 120.777C195.237 120.777 194.574 121.191 194.077 122.02C193.58 122.848 193.329 124.089 193.324 125.741C193.324 126.859 193.435 127.792 193.658 128.54C193.885 129.283 194.205 129.842 194.617 130.216C195.029 130.585 195.512 130.77 196.066 130.77ZM209.835 133.32C208.614 133.315 207.563 133.014 206.682 132.418C205.806 131.821 205.131 130.957 204.658 129.825C204.189 128.694 203.957 127.332 203.962 125.741C203.962 124.155 204.196 122.804 204.665 121.686C205.138 120.569 205.813 119.719 206.689 119.136C207.57 118.549 208.618 118.256 209.835 118.256C211.052 118.256 212.098 118.549 212.974 119.136C213.855 119.723 214.532 120.576 215.006 121.693C215.479 122.806 215.714 124.155 215.709 125.741C215.709 127.337 215.472 128.701 214.999 129.832C214.53 130.964 213.857 131.828 212.982 132.425C212.106 133.021 211.057 133.32 209.835 133.32ZM209.835 130.77C210.669 130.77 211.334 130.351 211.831 129.513C212.328 128.675 212.574 127.418 212.57 125.741C212.57 124.638 212.456 123.72 212.229 122.986C212.006 122.252 211.689 121.7 211.277 121.331C210.87 120.962 210.389 120.777 209.835 120.777C209.007 120.777 208.344 121.191 207.847 122.02C207.349 122.848 207.098 124.089 207.094 125.741C207.094 126.859 207.205 127.792 207.428 128.54C207.655 129.283 207.974 129.842 208.386 130.216C208.798 130.585 209.281 130.77 209.835 130.77ZM228.463 116.28H230.883V134.78H228.463V116.28ZM225.063 117.12L227.363 117.6C226.803 120.3 225.843 123.1 224.783 124.86C224.303 124.5 223.263 123.96 222.683 123.7C223.763 122.12 224.603 119.58 225.063 117.12ZM225.823 119.9H235.083V122.24H225.243L225.823 119.9ZM223.043 125.7H236.043V128.06H223.043V125.7ZM221.563 116.1L223.823 116.8C222.543 120.2 220.503 123.8 218.363 126.1C218.143 125.52 217.483 124.2 217.083 123.62C218.863 121.8 220.563 118.96 221.563 116.1ZM219.583 121.62L221.863 119.34V119.36V134.78H219.583V121.62Z" fill="#C41C1C"/>
<rect x="137" y="69" width="108" height="32" rx="8" fill="#DBF3E6"/>
<path fill-rule="evenodd" clip-rule="evenodd" d="M166.586 76.3037H158.988V74.5135L146.5 76.441V93.3362L158.988 95.4872V92.8337H166.586C166.816 92.8454 167.041 92.7655 167.213 92.6114C167.384 92.4574 167.487 92.2418 167.5 92.0117V77.125C167.487 76.8951 167.384 76.6797 167.212 76.5258C167.041 76.3719 166.816 76.2921 166.586 76.3037ZM166.706 92.1482H158.963L158.95 90.7315H160.815V89.0815H158.936L158.927 88.1065H160.815V86.4565H158.912L158.903 85.4815H160.815V83.8315H158.898V82.8565H160.815V81.2065H158.898V80.2315H160.815V78.5815H158.898V77.0815H166.706V92.1482Z" fill="#20744A"/>
<path d="M161.865 78.5792H165.107V80.2292H161.865V78.5792ZM161.865 81.205H165.107V82.855H161.865V81.205ZM161.865 83.8307H165.107V85.4807H161.865V83.8307ZM161.865 86.4565H165.107V88.1065H161.865V86.4565ZM161.865 89.0822H165.107V90.7322H161.865V89.0822Z" fill="#20744A"/>
<path fill-rule="evenodd" clip-rule="evenodd" d="M149.76 81.0048L151.37 80.9125L152.382 83.6943L153.577 80.7978L155.187 80.7055L153.232 84.655L155.187 88.6143L153.485 88.4995L152.336 85.4815L151.186 88.3848L149.622 88.2468L151.439 84.7495L149.76 81.0048Z" fill="white"/>
<path d="M177.58 85.46H187.7V87.38H177.58V85.46ZM177.82 78.4H187.64V80.28H177.82V78.4ZM181.18 84.02L183.4 84.5C182.42 86.56 181.12 89 180.16 90.6L178.06 89.96C179 88.42 180.32 85.92 181.18 84.02ZM184.02 86.8L186.22 86.98C185.5 91.18 183.4 92.86 178.64 93.82C178.5 93.16 178.06 92.32 177.66 91.84C181.64 91.34 183.38 90.08 184.02 86.8ZM185.44 75.26L187.46 76.06C186.8 76.96 186.16 77.88 185.64 78.5L184.1 77.8C184.56 77.1 185.12 76.02 185.44 75.26ZM181.62 75H183.82V84.3H181.62V75ZM178.3 76.06L180.02 75.34C180.56 76.1 181.06 77.12 181.24 77.84L179.4 78.64C179.26 77.94 178.8 76.88 178.3 76.06ZM181.68 79.34L183.24 80.28C182.24 81.86 180.32 83.6 178.64 84.54C178.36 84.02 177.84 83.22 177.4 82.78C179.02 82.12 180.82 80.7 181.68 79.34ZM183.62 79.92C184.34 80.26 186.62 81.6 187.18 81.98L185.9 83.64C185.16 82.9 183.38 81.48 182.5 80.86L183.62 79.92ZM189.02 78.64H196.36V80.86H189.02V78.64ZM189.24 75L191.66 75.34C191.04 79.48 189.84 83.32 188 85.76C187.62 85.32 186.64 84.46 186.1 84.06C187.78 82.02 188.76 78.58 189.24 75ZM192.86 80L195.32 80.22C194.46 87.06 192.4 91.34 187.34 93.88C187.1 93.3 186.4 92.2 185.96 91.68C190.52 89.68 192.26 85.92 192.86 80ZM190.38 80.42C191.18 85.48 192.94 89.8 196.62 91.68C196.06 92.16 195.3 93.12 194.94 93.78C190.92 91.38 189.18 86.74 188.2 80.76L190.38 80.42ZM179.82 89.98L181.1 88.34C183.46 89.24 185.96 90.64 187.32 91.72L185.66 93.42C184.38 92.3 182.06 90.9 179.82 89.98ZM198.16 76.4H215.84V78.74H198.16V76.4ZM204.56 82H212.56V84.32H204.56V82ZM211.7 82H214.22C214.22 82 214.2 82.76 214.16 83.06C213.86 89.24 213.52 91.68 212.72 92.58C212.14 93.26 211.5 93.48 210.6 93.56C209.78 93.66 208.4 93.64 207.08 93.58C207.04 92.9 206.7 91.88 206.22 91.22C207.62 91.36 209 91.36 209.58 91.36C210.02 91.36 210.28 91.32 210.54 91.08C211.14 90.54 211.46 88.02 211.7 82.4V82ZM202.86 78.38H205.38C205.2 84.06 204.82 90.34 199.12 93.78C198.74 93.12 198.02 92.3 197.38 91.82C202.66 88.88 202.7 83.32 202.86 78.38ZM225.92 76.16H235.7V78.44H225.92V76.16ZM231 82.38H233.46V91.02C233.46 92.3 233.2 92.98 232.32 93.36C231.46 93.72 230.2 93.74 228.4 93.74C228.32 93.04 228 92 227.68 91.3C228.82 91.36 230.14 91.36 230.5 91.36C230.88 91.34 231 91.26 231 90.96V82.38ZM225.06 81.7H236.22V83.98H225.06V81.7ZM220.58 84.06L222.68 81.96L222.98 82.08V93.82H220.58V84.06ZM222.84 79.38L225.12 80.24C223.54 82.9 221.08 85.7 218.94 87.46C218.6 86.96 217.78 85.88 217.3 85.4C219.34 83.96 221.52 81.64 222.84 79.38ZM222.08 75.02L224.38 75.96C222.92 77.86 220.76 79.94 218.86 81.26C218.54 80.72 217.92 79.78 217.52 79.3C219.18 78.22 221.1 76.42 222.08 75.02Z" fill="#1E1E1E"/>
</svg>
