<svg width="578" height="582" viewBox="0 0 578 582" fill="none" xmlns="http://www.w3.org/2000/svg">
<g clip-path="url(#clip0_105_2379)">
<rect width="578" height="582" fill="white"/>
<rect x="0.5" y="232.5" width="289" height="349" rx="7.5" fill="white" stroke="black"/>
<rect x="34" y="80" width="224" height="96" rx="6" fill="white" stroke="#E3E3E3" stroke-width="4" stroke-linecap="round"/>
<path d="M93.024 110.64C93.632 110.704 94.448 110.752 95.008 110.752H103.072C103.536 110.752 104.192 110.72 104.464 110.704C104.448 111.088 104.416 111.712 104.416 112.192V120.48C104.416 121.04 104.464 121.872 104.496 122.368H102.176C102.192 121.888 102.208 121.312 102.208 120.72V112.816H95.008C94.336 112.816 93.472 112.848 93.024 112.88V110.64ZM92.832 119.328C93.376 119.376 94.096 119.424 94.816 119.424H103.472V121.536H94.88C94.256 121.536 93.36 121.568 92.832 121.632V119.328ZM110.208 109.84C111.312 110.592 113.392 112.256 114.336 113.232L112.704 114.896C111.872 114 109.856 112.256 108.688 111.456L110.208 109.84ZM108.192 120.496C110.704 120.144 112.768 119.328 114.32 118.416C117.056 116.784 119.136 114.352 120.16 112.192L121.392 114.432C120.192 116.608 118.064 118.816 115.488 120.368C113.856 121.344 111.792 122.224 109.552 122.608L108.192 120.496ZM127.184 120.48C127.184 119.248 127.184 112.624 127.184 111.28C127.184 110.704 127.136 109.92 127.024 109.344H129.52C129.456 109.92 129.376 110.608 129.376 111.28C129.376 113.04 129.392 119.296 129.392 120.48C129.392 120.928 129.456 122.048 129.536 122.704H127.024C127.136 122.08 127.184 121.104 127.184 120.48ZM128.912 113.488C131.04 114.08 134.496 115.344 136.064 116.112L135.168 118.336C133.344 117.392 130.656 116.368 128.912 115.792V113.488ZM140.016 110.656C140.656 110.672 141.264 110.688 141.696 110.688C142.864 110.688 149.36 110.688 150.512 110.688C150.912 110.688 151.504 110.688 152.096 110.672C152.064 111.152 152.064 111.728 152.064 112.224C152.064 113.2 152.064 119.088 152.064 120.064C152.064 120.688 152.08 122.224 152.096 122.288H149.872C149.872 122.224 149.92 120.976 149.92 120.096C149.92 119.168 149.92 112.736 149.92 112.736H142.176C142.176 112.736 142.176 119.152 142.176 120.096C142.176 120.864 142.192 122.208 142.192 122.288H140C140 122.208 140.032 120.8 140.032 120.032C140.032 119.072 140.032 113.152 140.032 112.224C140.032 111.76 140.032 111.12 140.016 110.656ZM150.704 119.376V121.408H141.088V119.376H150.704ZM155.28 114.592C155.872 114.64 157.024 114.704 157.856 114.704C159.744 114.704 165.024 114.704 166.448 114.704C167.2 114.704 167.904 114.624 168.336 114.592V117.12C167.952 117.104 167.136 117.024 166.464 117.024C165.008 117.024 159.744 117.024 157.856 117.024C156.96 117.024 155.888 117.072 155.28 117.12V114.592ZM173.216 109.728C173.648 109.792 174.336 109.824 174.88 109.824C175.888 109.824 180.096 109.824 181.024 109.824C181.536 109.824 182.32 109.792 182.752 109.728V111.808C182.336 111.776 181.584 111.744 180.992 111.744C180.112 111.744 175.824 111.744 174.88 111.744C174.352 111.744 173.68 111.76 173.216 111.808V109.728ZM184.112 114.384C184 114.592 183.856 114.88 183.808 115.04C183.312 116.592 182.624 118.16 181.44 119.472C179.824 121.28 177.776 122.352 175.728 122.944L174.128 121.136C176.544 120.624 178.448 119.584 179.68 118.32C180.528 117.456 181.04 116.448 181.312 115.568C180.512 115.568 175.024 115.568 173.6 115.568C173.2 115.568 172.4 115.584 171.728 115.632V113.552C172.416 113.616 173.088 113.664 173.6 113.664C174.688 113.664 180.416 113.664 181.504 113.664C182.032 113.664 182.464 113.6 182.688 113.488L184.112 114.384ZM186.928 114.592C187.52 114.64 188.672 114.704 189.504 114.704C191.392 114.704 196.672 114.704 198.096 114.704C198.848 114.704 199.552 114.624 199.984 114.592V117.12C199.6 117.104 198.784 117.024 198.112 117.024C196.656 117.024 191.392 117.024 189.504 117.024C188.608 117.024 187.536 117.072 186.928 117.12V114.592ZM101.481 141.335C101.481 139.926 101.669 138.629 102.044 137.443C102.422 136.258 103 135.159 103.777 134.148H106.089C105.794 134.523 105.519 134.981 105.265 135.523C105.011 136.061 104.79 136.652 104.6 137.295C104.411 137.939 104.263 138.606 104.157 139.295C104.051 139.981 103.998 140.661 103.998 141.335C103.998 142.233 104.089 143.14 104.271 144.057C104.457 144.97 104.707 145.818 105.021 146.602C105.339 147.386 105.695 148.028 106.089 148.528H103.777C103 147.517 102.422 146.419 102.044 145.233C101.669 144.047 101.481 142.748 101.481 141.335ZM109.632 140.736C110.336 138.944 110.944 136.688 111.152 134.656L113.472 135.136C113.344 135.584 113.168 136.368 113.088 136.736C112.88 137.856 112.288 140.048 111.728 141.552C111.168 143.104 110.208 144.912 109.376 146.112L107.136 145.168C108.128 143.872 109.072 142.144 109.632 140.736ZM117.52 140.4C116.912 138.72 115.888 136.352 115.2 135.136L117.328 134.448C118 135.68 119.088 138.144 119.696 139.696C120.272 141.136 121.12 143.696 121.552 145.28L119.2 146.048C118.752 144.144 118.16 142.128 117.52 140.4ZM126.032 133.84C127.136 134.592 129.216 136.256 130.16 137.232L128.528 138.896C127.696 138 125.68 136.256 124.512 135.456L126.032 133.84ZM124.016 144.496C126.528 144.144 128.592 143.328 130.144 142.416C132.88 140.784 134.96 138.352 135.984 136.192L137.216 138.432C136.016 140.608 133.888 142.816 131.312 144.368C129.68 145.344 127.616 146.224 125.376 146.608L124.016 144.496ZM148.896 134.096C149.344 134.768 150 135.792 150.352 136.528L148.976 137.136C148.496 136.128 148.144 135.488 147.552 134.672L148.896 134.096ZM150.992 133.232C151.472 133.872 152.144 134.864 152.496 135.584L151.152 136.256C150.64 135.232 150.256 134.64 149.664 133.856L150.992 133.232ZM142.528 144.704C142.528 143.488 142.528 136.864 142.528 135.504C142.528 134.928 142.464 134.144 142.352 133.584H144.864C144.8 134.144 144.72 134.848 144.72 135.504C144.72 137.28 144.72 143.52 144.72 144.704C144.72 145.168 144.8 146.288 144.864 146.928H142.368C142.464 146.304 142.528 145.344 142.528 144.704ZM144.24 137.712C146.384 138.304 149.824 139.568 151.408 140.352L150.496 142.56C148.688 141.616 145.984 140.592 144.24 140.016V137.712ZM157.392 133.728C157.824 133.792 158.512 133.824 159.056 133.824C160.064 133.824 164.272 133.824 165.2 133.824C165.712 133.824 166.496 133.792 166.928 133.728V135.808C166.512 135.776 165.76 135.744 165.168 135.744C164.288 135.744 160 135.744 159.056 135.744C158.528 135.744 157.856 135.76 157.392 135.808V133.728ZM168.288 138.384C168.176 138.592 168.032 138.88 167.984 139.04C167.488 140.592 166.8 142.16 165.616 143.472C164 145.28 161.952 146.352 159.904 146.944L158.304 145.136C160.72 144.624 162.624 143.584 163.856 142.32C164.704 141.456 165.216 140.448 165.488 139.568C164.688 139.568 159.2 139.568 157.776 139.568C157.376 139.568 156.576 139.584 155.904 139.632V137.552C156.592 137.616 157.264 137.664 157.776 137.664C158.864 137.664 164.592 137.664 165.68 137.664C166.208 137.664 166.64 137.6 166.864 137.488L168.288 138.384ZM171.104 138.592C171.696 138.64 172.848 138.704 173.68 138.704C175.568 138.704 180.848 138.704 182.272 138.704C183.024 138.704 183.728 138.624 184.16 138.592V141.12C183.776 141.104 182.96 141.024 182.288 141.024C180.832 141.024 175.568 141.024 173.68 141.024C172.784 141.024 171.712 141.072 171.104 141.12V138.592ZM190.517 141.335C190.517 142.748 190.328 144.047 189.949 145.233C189.574 146.419 188.999 147.517 188.222 148.528H185.91C186.205 148.153 186.48 147.695 186.733 147.153C186.987 146.612 187.209 146.021 187.398 145.381C187.588 144.737 187.735 144.07 187.841 143.381C187.947 142.691 188 142.009 188 141.335C188 140.437 187.908 139.532 187.722 138.619C187.54 137.703 187.29 136.854 186.972 136.074C186.658 135.29 186.303 134.648 185.91 134.148H188.222C188.999 135.159 189.574 136.258 189.949 137.443C190.328 138.629 190.517 139.926 190.517 141.335Z" fill="black" fill-opacity="0.8"/>
<rect x="290" y="80" width="224" height="96" rx="6" fill="white" stroke="#E3E3E3" stroke-width="4" stroke-linecap="round"/>
<path d="M375.184 121.584C375.152 122.032 375.136 122.544 375.136 123.2C375.136 124.016 375.136 125.568 375.136 126.352C375.136 129.808 374.464 131.28 373.264 132.592C372.208 133.76 370.56 134.528 369.392 134.912L367.712 133.136C369.312 132.768 370.592 132.16 371.568 131.12C372.656 129.92 372.88 128.72 372.88 126.224C372.88 125.424 372.88 123.888 372.88 123.2C372.88 122.544 372.832 122.032 372.768 121.584H375.184ZM367.776 121.728C367.744 122.096 367.712 122.448 367.712 122.944C367.712 123.648 367.712 127.456 367.712 128.352C367.712 128.752 367.744 129.376 367.776 129.744H365.44C365.472 129.456 365.52 128.832 365.52 128.336C365.52 127.424 365.52 123.648 365.52 122.944C365.52 122.656 365.504 122.096 365.456 121.728H367.776ZM390.576 122.016C390.576 122.496 390.96 122.88 391.44 122.88C391.92 122.88 392.32 122.496 392.32 122.016C392.32 121.536 391.92 121.136 391.44 121.136C390.96 121.136 390.576 121.536 390.576 122.016ZM389.6 122.016C389.6 120.992 390.416 120.16 391.44 120.16C392.464 120.16 393.296 120.992 393.296 122.016C393.296 123.04 392.464 123.856 391.44 123.856C390.416 123.856 389.6 123.04 389.6 122.016ZM387.392 121.376C387.344 121.6 387.248 122.384 387.248 122.784C387.248 123.728 387.248 125.088 387.248 126.016C387.248 127.312 387.248 132.08 387.248 133.424C387.248 134.352 386.704 134.928 385.568 134.928C384.72 134.928 383.776 134.896 382.976 134.8L382.784 132.816C383.456 132.944 384.16 132.992 384.56 132.992C384.976 132.992 385.12 132.848 385.136 132.432C385.152 131.824 385.152 126.768 385.152 126.016C385.152 125.456 385.152 123.744 385.152 122.768C385.152 122.352 385.072 121.664 385.024 121.376H387.392ZM379.552 123.936C380.032 124 380.592 124.048 381.088 124.048C382.064 124.048 389.824 124.048 390.976 124.048C391.424 124.048 392.112 124 392.544 123.952V126.048C392.048 126 391.424 125.984 390.992 125.984C389.84 125.984 382.144 125.984 381.088 125.984C380.608 125.984 380 126 379.552 126.048V123.936ZM383.632 128.272C382.896 129.68 381.408 131.776 380.544 132.72L378.8 131.552C379.872 130.528 381.152 128.768 381.808 127.408L383.632 128.272ZM390.496 127.36C391.312 128.384 392.592 130.4 393.232 131.568L391.36 132.608C390.672 131.232 389.536 129.296 388.752 128.304L390.496 127.36ZM405.664 121.728C406.112 122.4 406.768 123.456 407.12 124.192L405.744 124.8C405.264 123.792 404.912 123.104 404.32 122.272L405.664 121.728ZM407.872 120.944C408.368 121.584 408.992 122.64 409.376 123.344L408 123.952C407.488 122.944 407.104 122.32 406.512 121.52L407.872 120.944ZM398.72 121.408C399.776 121.984 401.536 123.12 402.368 123.696L401.168 125.472C400.288 124.848 398.608 123.76 397.552 123.168L398.72 121.408ZM395.76 132.768C397.536 132.464 399.456 131.936 401.2 130.976C403.92 129.456 406.144 127.264 407.424 124.976L408.656 127.152C407.168 129.36 404.912 131.392 402.288 132.896C400.672 133.824 398.368 134.624 396.96 134.88L395.76 132.768ZM396.256 125.056C397.328 125.632 399.088 126.736 399.904 127.312L398.736 129.104C397.824 128.48 396.176 127.392 395.088 126.832L396.256 125.056ZM414.832 132.48C414.832 131.248 414.832 124.624 414.832 123.28C414.832 122.704 414.784 121.92 414.672 121.344H417.168C417.104 121.92 417.024 122.608 417.024 123.28C417.024 125.04 417.04 131.296 417.04 132.48C417.04 132.928 417.104 134.048 417.184 134.704H414.672C414.784 134.08 414.832 133.104 414.832 132.48ZM416.56 125.488C418.688 126.08 422.144 127.344 423.712 128.112L422.816 130.336C420.992 129.392 418.304 128.368 416.56 127.792V125.488ZM438.48 121.584C438.448 122.032 438.432 122.544 438.432 123.2C438.432 124.016 438.432 125.568 438.432 126.352C438.432 129.808 437.76 131.28 436.56 132.592C435.504 133.76 433.856 134.528 432.688 134.912L431.008 133.136C432.608 132.768 433.888 132.16 434.864 131.12C435.952 129.92 436.176 128.72 436.176 126.224C436.176 125.424 436.176 123.888 436.176 123.2C436.176 122.544 436.128 122.032 436.064 121.584H438.48ZM431.072 121.728C431.04 122.096 431.008 122.448 431.008 122.944C431.008 123.648 431.008 127.456 431.008 128.352C431.008 128.752 431.04 129.376 431.072 129.744H428.736C428.768 129.456 428.816 128.832 428.816 128.336C428.816 127.424 428.816 123.648 428.816 122.944C428.816 122.656 428.8 122.096 428.752 121.728H431.072Z" fill="black" fill-opacity="0.8"/>
<path d="M216.66 191C217.489 191 218.074 189.985 217.66 189.268L211 177.732C210.586 177.015 209.414 177.015 209 177.732L202.34 189.268C201.926 189.985 202.511 191 203.34 191H216.66ZM208.5 288C208.5 288.828 209.172 289.5 210 289.5C210.828 289.5 211.5 288.828 211.5 288H208.5ZM208.5 184.615C208.5 185.444 209.172 186.115 210 186.115C210.828 186.115 211.5 185.444 211.5 184.615H208.5ZM211.5 195.385C211.5 194.556 210.828 193.885 210 193.885C209.172 193.885 208.5 194.556 208.5 195.385H211.5ZM208.5 212.615C208.5 213.444 209.172 214.115 210 214.115C210.828 214.115 211.5 213.444 211.5 212.615H208.5ZM211.5 223.385C211.5 222.556 210.828 221.885 210 221.885C209.172 221.885 208.5 222.556 208.5 223.385H211.5ZM208.5 240.615C208.5 241.444 209.172 242.115 210 242.115C210.828 242.115 211.5 241.444 211.5 240.615H208.5ZM211.5 251.385C211.5 250.556 210.828 249.885 210 249.885C209.172 249.885 208.5 250.556 208.5 251.385H211.5ZM208.5 268.615C208.5 269.444 209.172 270.115 210 270.115C210.828 270.115 211.5 269.444 211.5 268.615H208.5ZM211.5 279.385C211.5 278.556 210.828 277.885 210 277.885C209.172 277.885 208.5 278.556 208.5 279.385H211.5ZM208.5 195.385V212.615H211.5V195.385H208.5ZM208.5 223.385V240.615H211.5V223.385H208.5ZM208.5 251.385V268.615H211.5V251.385H208.5ZM208.5 279.385V288H211.5V279.385H208.5Z" fill="#B3B3B3"/>
<path d="M216.66 399C217.489 399 218.074 397.985 217.66 397.268L211 385.732C210.586 385.015 209.414 385.015 209 385.732L202.34 397.268C201.926 397.985 202.511 399 203.34 399H216.66ZM208.5 448C208.5 448.828 209.172 449.5 210 449.5C210.828 449.5 211.5 448.828 211.5 448H208.5ZM208.5 393.846C208.5 394.675 209.172 395.346 210 395.346C210.828 395.346 211.5 394.675 211.5 393.846H208.5ZM211.5 406.154C211.5 405.325 210.828 404.654 210 404.654C209.172 404.654 208.5 405.325 208.5 406.154H211.5ZM208.5 425.846C208.5 426.675 209.172 427.346 210 427.346C210.828 427.346 211.5 426.675 211.5 425.846H208.5ZM211.5 438.154C211.5 437.325 210.828 436.654 210 436.654C209.172 436.654 208.5 437.325 208.5 438.154H211.5ZM208.5 406.154V425.846H211.5V406.154H208.5ZM208.5 438.154V448H211.5V438.154H208.5Z" fill="#B3B3B3"/>
<path d="M83.5 384C83.5 383.172 82.8284 382.5 82 382.5C81.1716 382.5 80.5 383.172 80.5 384H83.5ZM75.3397 433C74.5113 433 73.9255 434.015 74.3397 434.732L81 446.268C81.4142 446.985 82.5858 446.985 83 446.268L89.6603 434.732C90.0745 434.015 89.4887 433 88.6603 433H75.3397ZM80.5 384V434.5H83.5V384H80.5Z" fill="#B3B3B3"/>
<path d="M83.5 176C83.5 175.172 82.8284 174.5 82 174.5C81.1716 174.5 80.5 175.172 80.5 176H83.5ZM75.3397 273C74.5113 273 73.9255 274.015 74.3397 274.732L81 286.268C81.4142 286.985 82.5858 286.985 83 286.268L89.6603 274.732C90.0745 274.015 89.4887 273 88.6603 273H75.3397ZM80.5 176V274.5H83.5V176H80.5Z" fill="#B3B3B3"/>
<path fill-rule="evenodd" clip-rule="evenodd" d="M386.213 8.47049C390.498 6.86361 396.176 6 402 6C407.825 6 413.503 6.86361 417.788 8.47049C419.927 9.27276 421.739 10.2674 423.052 11.4559C424.364 12.6437 425.334 14.1809 425.334 16C425.334 17.8191 424.364 19.3563 423.052 20.5441C421.739 21.7326 419.927 22.7272 417.788 23.5295C413.503 25.1364 407.825 26 402 26C396.176 26 390.498 25.1364 386.213 23.5295C384.074 22.7272 382.261 21.7326 380.949 20.5441C379.637 19.3563 378.667 17.8191 378.667 16C378.667 14.1809 379.637 12.6437 380.949 11.4559C382.261 10.2674 384.074 9.27276 386.213 8.47049ZM402 10C396.509 10 391.334 10.8221 387.618 12.2158C385.756 12.9138 384.444 13.6868 383.633 14.4212C382.821 15.1563 382.667 15.6974 382.667 16C382.667 16.3026 382.821 16.8437 383.633 17.5788C384.444 18.3132 385.756 19.0862 387.618 19.7842C391.334 21.1779 396.509 22 402 22C407.492 22 412.666 21.1779 416.383 19.7842C418.244 19.0862 419.556 18.3132 420.367 17.5788C421.179 16.8437 421.334 16.3026 421.334 16C421.334 15.6974 421.179 15.1563 420.367 14.4212C419.556 13.6868 418.244 12.9138 416.383 12.2158C412.666 10.8221 407.492 10 402 10Z" fill="#2C3E50"/>
<path fill-rule="evenodd" clip-rule="evenodd" d="M380.667 14C381.772 14 382.667 14.8954 382.667 16V32C382.667 32.3026 382.821 32.8437 383.633 33.5788C384.444 34.3132 385.756 35.0862 387.618 35.7842C391.334 37.1779 396.509 38 402 38C407.492 38 412.666 37.1779 416.383 35.7842C418.244 35.0862 419.556 34.3132 420.367 33.5788C421.179 32.8437 421.334 32.3026 421.334 32V16C421.334 14.8954 422.229 14 423.334 14C424.438 14 425.334 14.8954 425.334 16V32C425.334 33.8191 424.364 35.3563 423.052 36.5441C421.739 37.7326 419.927 38.7272 417.788 39.5295C413.503 41.1364 407.825 42 402 42C396.176 42 390.498 41.1364 386.213 39.5295C384.074 38.7272 382.261 37.7326 380.949 36.5441C379.637 35.3563 378.667 33.8191 378.667 32V16C378.667 14.8954 379.562 14 380.667 14Z" fill="#2C3E50"/>
<path fill-rule="evenodd" clip-rule="evenodd" d="M380.667 30C381.772 30 382.667 30.8954 382.667 32V48C382.667 48.3026 382.821 48.8437 383.633 49.5788C384.444 50.3132 385.756 51.0862 387.618 51.7842C391.334 53.1779 396.509 54 402 54C407.492 54 412.666 53.1779 416.383 51.7842C418.244 51.0862 419.556 50.3132 420.367 49.5788C421.179 48.8437 421.334 48.3026 421.334 48V32C421.334 30.8954 422.229 30 423.334 30C424.438 30 425.334 30.8954 425.334 32V48C425.334 49.8191 424.364 51.3563 423.052 52.5441C421.739 53.7326 419.927 54.7272 417.788 55.5295C413.503 57.1364 407.825 58 402 58C396.176 58 390.498 57.1364 386.213 55.5295C384.074 54.7272 382.261 53.7326 380.949 52.5441C379.637 51.3563 378.667 49.8191 378.667 48V32C378.667 30.8954 379.562 30 380.667 30Z" fill="#2C3E50"/>
<path fill-rule="evenodd" clip-rule="evenodd" d="M122.667 34.6666C122.667 33.5621 123.562 32.6666 124.667 32.6666H138C139.105 32.6666 140 33.5621 140 34.6666C140 35.7712 139.105 36.6666 138 36.6666H124.667C123.562 36.6666 122.667 35.7712 122.667 34.6666Z" fill="#2C3E50"/>
<path fill-rule="evenodd" clip-rule="evenodd" d="M144 21.3334C144 20.2288 144.895 19.3334 146 19.3334H154C155.945 19.3334 157.81 20.106 159.185 21.4813C160.561 22.8565 161.333 24.7218 161.333 26.6667V29.3334C161.333 31.2783 160.561 33.1436 159.185 34.5188C157.81 35.8941 155.945 36.6667 154 36.6667H148V42.6667C148 43.7713 147.105 44.6667 146 44.6667C144.895 44.6667 144 43.7713 144 42.6667V21.3334ZM148 32.6667H154C154.884 32.6667 155.732 32.3155 156.357 31.6904C156.982 31.0653 157.333 30.2174 157.333 29.3334V26.6667C157.333 25.7827 156.982 24.9348 156.357 24.3097C155.732 23.6846 154.884 23.3334 154 23.3334H148V32.6667Z" fill="#2C3E50"/>
<path fill-rule="evenodd" clip-rule="evenodd" d="M167.333 19.3334C168.438 19.3334 169.333 20.2288 169.333 21.3334V42.6667C169.333 43.7713 168.438 44.6667 167.333 44.6667C166.228 44.6667 165.333 43.7713 165.333 42.6667V21.3334C165.333 20.2288 166.228 19.3334 167.333 19.3334Z" fill="#2C3E50"/>
<path fill-rule="evenodd" clip-rule="evenodd" d="M125.205 21.8718C126.831 20.2465 129.035 19.3334 131.334 19.3334C133.632 19.3334 135.837 20.2465 137.462 21.8718C139.087 23.4971 140 25.7015 140 28V42.6667C140 43.7713 139.105 44.6667 138 44.6667C136.896 44.6667 136 43.7713 136 42.6667V28C136 26.7624 135.509 25.5754 134.633 24.7002C133.758 23.825 132.571 23.3334 131.334 23.3334C130.096 23.3334 128.909 23.825 128.034 24.7002C127.159 25.5754 126.667 26.7624 126.667 28V42.6667C126.667 43.7713 125.772 44.6667 124.667 44.6667C123.562 44.6667 122.667 43.7713 122.667 42.6667V28C122.667 25.7015 123.58 23.4971 125.205 21.8718Z" fill="#2C3E50"/>
<path d="M479.768 497.385L481.28 495.969C482.384 496.545 483.728 497.505 484.4 498.249L482.792 499.809C482.192 499.089 480.872 498.057 479.768 497.385ZM472.64 506.745H477.008V513.537H472.64V511.425H475.088V508.833H472.64V506.745ZM481.664 503.529L484.136 503.985C482.648 510.417 479.864 515.265 475.568 518.289C475.184 517.809 474.2 516.873 473.672 516.417C477.896 513.849 480.44 509.361 481.664 503.529ZM468.344 499.425H470.864V506.169C470.864 509.769 470.528 515.025 468.512 518.409C468.056 517.953 466.928 517.209 466.352 516.945C468.2 513.849 468.344 509.409 468.344 506.169V499.425ZM469.88 499.425H484.208V501.969H469.88V499.425ZM471.656 503.313H476.792V505.401H471.656V503.313ZM471.536 506.745H473.432V514.809H471.536V506.745ZM463.04 498.129L464.672 496.041C466.016 496.617 467.792 497.553 468.68 498.345L466.952 500.649C466.136 499.857 464.432 498.801 463.04 498.129ZM461.912 504.633L463.496 502.521C464.864 503.025 466.616 503.937 467.504 504.705L465.8 507.033C465.008 506.265 463.28 505.233 461.912 504.633ZM462.056 516.513C462.968 514.569 464.264 511.401 465.2 508.497L467.528 509.985C466.688 512.649 465.656 515.529 464.648 517.953L462.056 516.513ZM477.008 496.161H479.624C479.72 505.977 480.896 514.905 482.192 514.953C482.552 514.977 482.768 513.777 482.912 511.545C483.344 512.097 484.496 512.817 484.928 513.033C484.352 517.425 483.128 518.385 482.168 518.385C478.424 518.313 477.296 509.145 477.008 496.161Z" fill="#0D99FF"/>
<path d="M457.856 496.617L459.992 498.801C456.584 499.881 451.952 500.625 447.944 501.033C447.824 500.385 447.44 499.353 447.152 498.753C450.992 498.321 455.264 497.529 457.856 496.617ZM446.384 498.009L449.192 498.921V512.409H446.384V498.009ZM444.848 511.857C447.104 511.593 450.368 511.137 453.512 510.633L453.656 513.225C450.8 513.681 447.752 514.161 445.4 514.521L444.848 511.857ZM448.088 504.009H460.952V506.601H448.088V504.009ZM452.864 499.329H455.768C455.696 506.961 457.232 514.833 458.6 514.833C458.96 514.833 459.152 513.801 459.224 511.569C459.824 512.193 460.76 512.793 461.456 513.081C461.096 516.801 460.208 517.641 458.312 517.641C454.496 517.641 453.032 508.305 452.864 499.329ZM445.688 515.433H455.336V517.953H445.688V515.433ZM443.408 495.993L446.12 496.833C444.56 500.937 442.064 505.257 439.448 507.993C439.184 507.297 438.416 505.713 437.912 505.017C440.096 502.833 442.184 499.425 443.408 495.993ZM441.08 502.617L443.816 499.881L443.84 499.905V518.409H441.08V502.617Z" fill="#0D99FF"/>
<path d="M425.84 497.025C425.648 497.913 425.336 499.329 424.664 501.057C424.16 502.233 423.464 503.601 422.792 504.561C423.44 504.273 424.712 504.105 425.528 504.105C427.52 504.105 429.032 505.281 429.032 507.513C429.032 508.809 429.104 511.425 429.128 512.937H426.248C426.344 511.809 426.392 509.769 426.368 508.473C426.368 506.937 425.408 506.433 424.4 506.433C423.08 506.433 421.568 507.225 420.656 508.089C419.936 508.809 419.264 509.673 418.448 510.729L415.88 508.809C418.952 505.977 420.8 503.385 421.808 500.745C422.288 499.449 422.6 497.985 422.672 496.761L425.84 497.025ZM416.792 499.257C418.016 499.425 419.792 499.521 421.016 499.521C424.184 499.521 428.528 499.353 432.008 498.729L431.984 501.513C428.6 501.993 423.776 502.209 420.848 502.209C419.864 502.209 418.112 502.161 416.792 502.041V499.257ZM435.8 506.073C435.056 506.289 433.76 506.769 432.944 507.081C431.384 507.681 429.224 508.545 426.968 509.697C424.784 510.825 423.608 511.857 423.608 513.177C423.608 514.497 424.76 514.857 427.088 514.857C429.128 514.857 431.816 514.593 433.928 514.161L433.832 517.257C432.224 517.473 429.296 517.689 427.016 517.689C423.272 517.689 420.464 516.753 420.464 513.657C420.464 510.321 423.896 508.353 426.776 506.913C428.984 505.761 430.496 505.185 431.936 504.513C432.872 504.105 433.712 503.721 434.624 503.265L435.8 506.073Z" fill="#0D99FF"/>
<path d="M399.176 502.737H413.552V505.401H399.176V502.737ZM408.752 504.057H411.584V515.241C411.584 516.705 411.272 517.449 410.24 517.857C409.208 518.265 407.744 518.313 405.728 518.313C405.584 517.545 405.128 516.369 404.744 515.625C406.136 515.697 407.72 515.697 408.152 515.697C408.608 515.673 408.752 515.553 408.752 515.193V504.057ZM396.344 501.585L399.104 502.497C397.664 505.713 395.312 509.025 392.96 511.065C392.648 510.441 391.76 509.025 391.208 508.377C393.248 506.745 395.216 504.225 396.344 501.585ZM400.592 506.961H407.144V514.017H400.592V511.689H404.528V509.289H400.592V506.961ZM399.152 506.961H401.816V515.385H399.152V506.961ZM391.952 497.457H413.408V500.073H391.952V497.457ZM396.992 495.897H399.824V501.849H396.992V495.897ZM405.392 495.897H408.272V501.849H405.392V495.897ZM394.424 507.153L397.232 504.345V504.369V518.433H394.424V507.153Z" fill="#0D99FF"/>
<path d="M374.888 497.481H381.68V499.689H373.136L374.888 497.481ZM373.976 507.081V508.449H384.488V507.081H373.976ZM373.976 510.537V511.929H384.488V510.537H373.976ZM373.976 503.673V505.017H384.488V503.673H373.976ZM371.096 501.417H387.488V514.161H371.096V501.417ZM374.288 495.897L377.408 496.521C375.656 499.401 373.352 502.089 370.016 504.321C369.56 503.649 368.576 502.689 367.904 502.257C370.976 500.457 373.112 498.033 374.288 495.897ZM380.624 497.481H381.272L381.728 497.361L383.72 498.657C382.832 500.193 381.224 502.161 379.952 503.409C379.376 502.977 378.416 502.353 377.792 501.993C378.896 500.889 380.144 499.113 380.624 498.033V497.481ZM380.72 515.553L383.072 514.017C385.496 514.929 388.352 516.153 390.008 516.993L386.768 518.457C385.448 517.641 383.024 516.465 380.72 515.553ZM374.984 514.017L377.768 515.289C375.8 516.585 372.728 517.833 370.328 518.553C369.8 517.953 368.744 516.825 368.072 516.297C370.544 515.817 373.352 514.929 374.984 514.017Z" fill="#0D99FF"/>
<path d="M357.68 513.297H364.256V515.985H357.68V513.297ZM356.384 497.961H365.6V517.401H362.672V500.673H359.168V517.737H356.384V497.961ZM348.896 500.217H351.8V504.849C351.8 508.929 350.936 514.857 346.112 518.361C345.752 517.761 344.648 516.609 344.072 516.201C348.464 513.033 348.896 508.329 348.896 504.801V500.217ZM346.928 498.945H355.16V501.609H346.928V498.945ZM344.432 505.401H355.76V508.137H344.432V505.401ZM351.08 508.785C352.064 509.649 355.232 513.273 355.976 514.161L354.032 516.585C352.904 514.809 350.552 511.833 349.328 510.417L351.08 508.785ZM346.664 495.897L349.424 496.449C348.8 499.617 347.648 502.785 346.28 504.801C345.776 504.345 344.6 503.529 343.976 503.145C345.272 501.417 346.184 498.657 346.664 495.897Z" fill="#0D99FF"/>
<path d="M334.352 497.817H336.944C336.488 501.729 335.432 505.689 331.016 508.017C330.704 507.369 329.96 506.433 329.384 505.977C333.272 504.129 333.992 500.817 334.352 497.817ZM330.2 501.921L331.544 499.929C333.92 500.649 336.728 501.969 338.336 503.001L336.968 505.209C335.408 504.081 332.552 502.665 330.2 501.921ZM339.824 496.833H342.512C342.512 496.833 342.512 497.553 342.488 497.889C342.248 503.361 342.008 505.617 341.36 506.385C340.904 506.985 340.448 507.201 339.752 507.297C339.176 507.393 338.192 507.393 337.136 507.369C337.112 506.577 336.824 505.497 336.44 504.801C337.256 504.873 337.976 504.873 338.336 504.873C338.648 504.897 338.864 504.825 339.056 504.585C339.44 504.129 339.656 502.305 339.824 497.265V496.833ZM332.84 509.769H335.48V515.025C335.48 515.697 335.528 515.769 335.984 515.769C336.2 515.769 336.992 515.769 337.232 515.769C337.688 515.769 337.784 515.481 337.856 513.249C338.36 513.681 339.488 514.089 340.208 514.281C339.944 517.449 339.248 518.265 337.52 518.265C337.088 518.265 335.984 518.265 335.528 518.265C333.296 518.265 332.84 517.473 332.84 515.073V509.769ZM330.392 510.705L332.648 511.305C332.432 513.465 331.976 515.745 330.824 517.161L328.712 515.865C329.696 514.665 330.176 512.673 330.392 510.705ZM333.368 508.113L335.024 506.457C336.56 507.225 338.456 508.473 339.344 509.481L337.568 511.353C336.728 510.369 334.904 509.001 333.368 508.113ZM338.672 511.089L341 510.153C342.248 511.977 343.304 514.425 343.616 516.129L341.096 517.161C340.832 515.481 339.848 512.937 338.672 511.089ZM330.512 496.833H341.048V499.233H330.512V496.833ZM321.8 503.265H328.832V505.425H321.8V503.265ZM321.872 496.641H328.76V498.825H321.872V496.641ZM321.8 506.529H328.832V508.713H321.8V506.529ZM320.696 499.881H329.48V502.161H320.696V499.881ZM323.048 509.865H328.856V517.161H323.048V514.881H326.456V512.145H323.048V509.865ZM321.752 509.865H324.104V518.121H321.752V509.865Z" fill="#0D99FF"/>
<path d="M564.344 461.241C564.2 462.249 564.08 463.497 564.032 464.457C563.912 467.049 563.744 472.401 563.744 475.377C563.744 477.801 565.184 478.593 567.056 478.593C571.016 478.593 573.512 476.313 575.264 473.697L577.448 476.361C575.888 478.665 572.48 481.857 567.008 481.857C563.072 481.857 560.552 480.129 560.552 476.025C560.552 472.809 560.768 466.521 560.768 464.457C560.768 463.305 560.672 462.153 560.48 461.217L564.344 461.241Z" fill="#0D99FF"/>
<path d="M535.208 464.433H541.232V466.473H535.208V464.433ZM546.296 464.433H552.344V466.473H546.296V464.433ZM551.216 460.857H554.12V478.929C554.12 480.609 553.784 481.425 552.728 481.881C551.672 482.361 550.088 482.433 547.76 482.433C547.616 481.617 547.136 480.249 546.728 479.457C548.24 479.577 550.04 479.553 550.544 479.529C551.048 479.529 551.216 479.385 551.216 478.905V460.857ZM535.448 460.857H543.008V470.169H535.448V467.865H540.296V463.185H535.448V460.857ZM552.776 460.857V463.185H547.4V467.913H552.776V470.217H544.664V460.857H552.776ZM533.792 460.857H536.648V482.433H533.792V460.857Z" fill="#0D99FF"/>
<path d="M513.848 461.241H520.64V464.169H513.848V461.241ZM519.224 461.241H522.2C522.2 465.801 522.848 474.633 531.752 479.841C531.08 480.369 529.928 481.641 529.424 482.361C520.28 476.865 519.224 466.137 519.224 461.241ZM518.192 466.497L521.504 467.097C519.824 474.225 516.632 479.385 511.616 482.409C511.088 481.785 509.744 480.585 509 480.057C514.016 477.513 516.896 472.857 518.192 466.497Z" fill="#0D99FF"/>
<path d="M492.8 460.953C495.08 461.673 500.312 462.609 502.424 462.825L501.704 465.777C499.256 465.441 493.928 464.337 492.056 463.857L492.8 460.953ZM492.968 465.777C492.632 467.121 492.224 470.025 492.056 471.417C494.216 469.833 496.616 469.113 499.136 469.113C503.336 469.113 505.784 471.705 505.784 474.609C505.784 479.001 502.304 482.361 492.344 481.497L491.408 478.353C498.632 479.361 502.424 477.609 502.424 474.537C502.424 472.977 500.96 471.849 498.848 471.849C496.136 471.849 493.712 472.857 492.2 474.681C491.768 475.185 491.504 475.569 491.312 476.049L488.528 475.377C489.008 473.025 489.584 468.321 489.728 465.345L492.968 465.777Z" fill="#0D99FF"/>
<path d="M472.328 461.337C472.184 461.961 472.04 462.729 471.896 463.329C471.68 464.409 471.368 465.897 471.128 467.121C470.336 470.505 468.392 477.345 465.896 481.401L462.752 480.153C465.608 476.313 467.408 469.977 468.08 466.953C468.536 464.793 468.8 462.753 468.776 460.953L472.328 461.337ZM480.608 463.569C482.072 465.657 484.088 470.217 484.832 472.521L481.784 473.937C481.16 471.249 479.456 466.929 477.728 464.793L480.608 463.569ZM462.608 466.257C463.472 466.305 464.288 466.281 465.176 466.257C467.096 466.209 471.632 465.681 473.432 465.681C475.952 465.681 477.752 466.809 477.752 470.289C477.752 473.121 477.416 477.009 476.408 479.073C475.592 480.753 474.272 481.281 472.472 481.281C471.536 481.281 470.408 481.137 469.568 480.945L469.064 477.777C470 478.041 471.368 478.281 471.992 478.281C472.808 478.281 473.408 478.041 473.792 477.249C474.464 475.905 474.776 472.977 474.776 470.625C474.776 468.705 473.936 468.417 472.448 468.417C471.008 468.417 466.88 468.945 465.56 469.113C464.864 469.209 463.616 469.377 462.896 469.497L462.608 466.257Z" fill="#0D99FF"/>
<path d="M444.056 466.905V468.657H455.384V466.905H444.056ZM444.056 463.041V464.745H455.384V463.041H444.056ZM441.176 460.713H458.384V470.961H441.176V460.713ZM453.008 469.449C454.592 471.609 457.712 473.385 461.072 474.225C460.424 474.801 459.56 475.929 459.152 476.673C455.624 475.521 452.504 473.217 450.584 470.337L453.008 469.449ZM446.456 469.425L449 470.409C447.056 473.193 443.816 475.545 440.408 476.769C439.976 476.049 439.112 474.969 438.488 474.393C441.728 473.481 444.872 471.585 446.456 469.425ZM444.752 473.817H447.728V475.473C447.728 477.777 447.032 480.849 442.232 482.601C441.848 481.881 440.888 480.801 440.264 480.249C444.272 478.953 444.752 476.913 444.752 475.377V473.817ZM448.256 461.889H451.16V469.809H448.256V461.889ZM452.072 473.865H455.072V482.361H452.072V473.865Z" fill="#0D99FF"/>
<path d="M415.04 465.681H437.36V468.465H415.04V465.681ZM420.008 478.137H436.496V480.897H420.008V478.137ZM425.936 472.257H432.104V474.945H425.936V472.257ZM418.496 460.617H421.472V482.433H418.496V460.617ZM424.736 460.113H427.64V475.929H424.736V460.113ZM430.856 460.353H433.76V475.881H430.856V460.353Z" fill="#0D99FF"/>
<path d="M392.6 464.553C393.632 464.673 394.928 464.721 395.792 464.721C398.768 464.721 402.008 464.217 404.336 463.473L404.408 466.257C402.344 466.833 398.888 467.457 395.816 467.433C394.856 467.433 393.848 467.409 392.816 467.361L392.6 464.553ZM401.936 460.953C401.624 462.225 401.048 464.577 400.4 466.617C399.296 470.073 397.136 474.537 395.096 477.369L392.192 475.881C394.352 473.241 396.512 469.041 397.448 466.449C398.024 464.721 398.552 462.489 398.624 460.641L401.936 460.953ZM407.576 468.441C407.504 469.449 407.528 470.457 407.552 471.513C407.6 472.929 407.816 476.505 407.816 477.849C407.816 480.081 406.616 481.833 403.184 481.833C400.208 481.833 397.856 480.489 397.856 477.849C397.856 475.521 399.824 473.697 403.16 473.697C407.36 473.697 410.672 475.809 412.664 477.609L411.08 480.201C409.352 478.593 406.616 476.121 402.992 476.121C401.6 476.121 400.688 476.721 400.688 477.561C400.688 478.449 401.456 479.073 402.776 479.073C404.408 479.073 404.936 478.161 404.936 476.817C404.936 475.377 404.672 470.961 404.552 468.441H407.576ZM411.704 469.713C410.312 468.585 407.576 467.025 405.92 466.281L407.48 463.929C409.208 464.673 412.16 466.281 413.408 467.169L411.704 469.713Z" fill="#0D99FF"/>
<path d="M370.52 463.785H377.888V479.961H370.52V477.417H375.272V466.305H370.52V463.785ZM368.84 463.785H371.456V481.737H368.84V463.785ZM370.4 470.193H376.544V472.689H370.4V470.193ZM372.248 459.873L375.392 460.329C374.84 461.961 374.24 463.665 373.76 464.793L371.456 464.289C371.792 463.041 372.128 461.193 372.248 459.873ZM381.056 463.617H388.064V466.233H381.056V463.617ZM387.08 463.617H389.744C389.744 463.617 389.744 464.553 389.72 464.913C389.408 475.713 389.12 479.529 388.136 480.801C387.464 481.737 386.792 482.001 385.808 482.145C384.896 482.289 383.432 482.265 382.04 482.193C381.992 481.401 381.608 480.177 381.08 479.409C382.64 479.529 384.08 479.553 384.68 479.553C385.16 479.553 385.424 479.457 385.736 479.121C386.504 478.305 386.816 474.177 387.08 464.169V463.617ZM381.128 459.897L383.888 460.545C382.952 464.097 381.392 467.745 379.76 470.049C379.232 469.569 378.056 468.753 377.384 468.369C378.992 466.353 380.36 463.089 381.128 459.897ZM379.952 470.529L382.208 469.257C383.384 470.913 384.968 473.217 385.712 474.633L383.264 476.121C382.616 474.657 381.104 472.305 379.952 470.529Z" fill="#0D99FF"/>
<path d="M358.28 460.977H364.496V463.569H358.28V460.977ZM358.28 466.401H364.496V468.921H358.28V466.401ZM358.28 471.873H364.52V474.441H358.28V471.873ZM363.248 460.977H366.032V479.265C366.032 480.657 365.768 481.449 364.904 481.881C364.064 482.337 362.84 482.409 361.04 482.409C360.968 481.641 360.584 480.393 360.224 479.673C361.256 479.721 362.432 479.721 362.768 479.697C363.128 479.697 363.248 479.577 363.248 479.217V460.977ZM357.104 460.977H359.792V469.785C359.792 473.577 359.48 479.073 357.44 482.481C356.96 481.977 355.784 481.137 355.16 480.849C356.96 477.777 357.104 473.217 357.104 469.785V460.977ZM344.528 462.729H356.288V465.225H344.528V462.729ZM347.672 466.641H353.384V468.849H347.672V466.641ZM347.672 470.385H353.408V472.569H347.672V470.385ZM344.24 474.177H356.12V476.697H344.24V474.177ZM346.424 460.161H349.016V475.089H346.424V460.161ZM352.016 460.161H354.656V475.089H352.016V460.161ZM347.24 476.865L349.952 477.657C349.064 479.433 347.648 481.305 346.376 482.481C345.824 482.001 344.72 481.185 344.048 480.801C345.344 479.817 346.568 478.329 347.24 476.865ZM350.792 477.945L352.976 476.745C353.936 477.801 355.16 479.265 355.712 480.249L353.384 481.617C352.904 480.657 351.752 479.073 350.792 477.945Z" fill="#0D99FF"/>
<path d="M325.976 465.465H337.976V467.889H325.976V465.465ZM327.104 469.713H329.744V479.385H327.104V469.713ZM328.544 469.713H336.92V477.801H328.544V475.401H334.256V472.065H328.544V469.713ZM321.8 461.025H341V463.761H324.584V482.457H321.8V461.025ZM339.392 461.025H342.224V479.145C342.224 480.633 341.936 481.449 341 481.905C340.088 482.385 338.768 482.457 336.728 482.457C336.632 481.665 336.2 480.345 335.768 479.625C337.04 479.673 338.432 479.673 338.84 479.673C339.248 479.649 339.392 479.505 339.392 479.097V461.025Z" fill="#0D99FF"/>
<rect x="34" y="288" width="224" height="96" rx="6" fill="white" stroke="#E3E3E3" stroke-width="4" stroke-linecap="round"/>
<path d="M112.133 331.616C112.053 331.84 111.973 332.224 111.957 332.352C111.749 333.968 111.045 338.304 110.821 339.76H108.469C108.725 338.32 109.413 334.208 109.461 333.056C108.213 333.056 104.949 333.056 103.941 333.056C103.285 333.056 102.693 333.088 102.117 333.136V330.88C102.645 330.944 103.381 330.992 103.925 330.992C104.933 330.992 108.005 330.992 108.965 330.992C109.381 330.992 110.181 330.912 110.453 330.784L112.133 331.616ZM100.373 339.104C100.885 339.2 101.461 339.232 101.957 339.232H112.613C113.189 339.232 113.701 339.168 114.117 339.104V341.44C113.669 341.376 112.997 341.344 112.613 341.344H101.957C101.461 341.344 100.901 341.376 100.373 341.44V339.104ZM116.517 334.592C117.109 334.64 118.261 334.704 119.093 334.704C120.981 334.704 126.261 334.704 127.685 334.704C128.437 334.704 129.141 334.624 129.573 334.592V337.12C129.189 337.104 128.373 337.024 127.701 337.024C126.245 337.024 120.981 337.024 119.093 337.024C118.197 337.024 117.125 337.072 116.517 337.12V334.592ZM143.416 331.168C143.288 331.344 143 331.824 142.856 332.16C142.2 333.68 141.016 335.856 139.64 337.456C137.848 339.52 135.432 341.504 132.952 342.672L131.288 340.944C133.88 339.984 136.344 338.032 137.848 336.368C138.904 335.168 139.88 333.584 140.248 332.448C139.576 332.448 135.496 332.448 134.808 332.448C134.152 332.448 133.272 332.528 132.92 332.56V330.272C133.352 330.336 134.344 330.384 134.808 330.384C135.656 330.384 139.752 330.384 140.456 330.384C141.16 330.384 141.784 330.304 142.12 330.192L143.416 331.168ZM139.848 336.128C141.496 337.472 143.768 339.856 144.808 341.136L142.984 342.72C141.8 341.072 140.056 339.168 138.344 337.616L139.848 336.128ZM153.08 329.472C152.904 329.888 152.696 330.432 152.552 330.784C152.28 331.584 151.784 332.768 151.368 333.584C150.728 334.848 149.64 336.384 148.584 337.328L146.568 336.112C147.72 335.264 148.744 333.824 149.352 332.816C149.784 332.08 150.088 331.232 150.28 330.624C150.456 330.096 150.584 329.488 150.616 328.992L153.08 329.472ZM150.552 331.952C151.832 331.952 157.912 331.952 159.016 331.952C159.416 331.952 160.152 331.92 160.68 331.84V334.016C160.072 333.968 159.384 333.968 159.016 333.968C157.896 333.968 151.832 333.968 150.392 333.968L150.552 331.952ZM156.808 333.104C156.696 337.824 155.016 340.944 151.928 342.88L149.768 341.44C150.344 341.2 150.904 340.88 151.272 340.56C153.096 339.168 154.52 336.96 154.584 333.104H156.808ZM163.192 334.592C163.784 334.64 164.936 334.704 165.768 334.704C167.656 334.704 172.936 334.704 174.36 334.704C175.112 334.704 175.816 334.624 176.248 334.592V337.12C175.864 337.104 175.048 337.024 174.376 337.024C172.92 337.024 167.656 337.024 165.768 337.024C164.872 337.024 163.8 337.072 163.192 337.12V334.592ZM190.091 331.168C189.963 331.344 189.675 331.824 189.531 332.16C188.875 333.68 187.691 335.856 186.315 337.456C184.523 339.52 182.107 341.504 179.627 342.672L177.963 340.944C180.555 339.984 183.019 338.032 184.523 336.368C185.579 335.168 186.555 333.584 186.923 332.448C186.251 332.448 182.171 332.448 181.483 332.448C180.827 332.448 179.947 332.528 179.595 332.56V330.272C180.027 330.336 181.019 330.384 181.483 330.384C182.331 330.384 186.427 330.384 187.131 330.384C187.835 330.384 188.459 330.304 188.795 330.192L190.091 331.168ZM186.523 336.128C188.171 337.472 190.443 339.856 191.483 341.136L189.659 342.72C188.475 341.072 186.731 339.168 185.019 337.616L186.523 336.128Z" fill="black" fill-opacity="0.8"/>
<path d="M273 311.403C273 310.575 271.985 309.989 271.268 310.403L259.732 317.064C259.015 317.478 259.015 318.649 259.732 319.064L271.268 325.724C271.985 326.138 273 325.552 273 324.724L273 311.403ZM347.988 191C348.816 191 349.402 189.985 348.988 189.268L342.328 177.732C341.913 177.015 340.742 177.015 340.328 177.732L333.667 189.268C333.253 189.985 333.839 191 334.667 191H347.988ZM271.5 319.564L317.328 319.563L317.328 316.563L271.5 316.564L271.5 319.564ZM342.828 294.063V189.5H339.828V294.063H342.828ZM317.328 319.563C331.411 319.563 342.828 308.147 342.828 294.063H339.828C339.828 306.49 329.754 316.563 317.328 316.563L317.328 319.563Z" fill="#B3B3B3"/>
<rect x="34" y="448" width="224" height="96" rx="6" fill="#BDE3FF" stroke="#22B4FF" stroke-width="4" stroke-linecap="round"/>
<path d="M125.16 466.096C125.608 466.768 126.264 467.792 126.616 468.528L125.24 469.136C124.76 468.128 124.408 467.488 123.816 466.672L125.16 466.096ZM127.256 465.232C127.736 465.872 128.408 466.864 128.76 467.584L127.416 468.256C126.904 467.232 126.52 466.64 125.928 465.856L127.256 465.232ZM118.792 476.704C118.792 475.488 118.792 468.864 118.792 467.504C118.792 466.928 118.728 466.144 118.616 465.584H121.128C121.064 466.144 120.984 466.848 120.984 467.504C120.984 469.28 120.984 475.52 120.984 476.704C120.984 477.168 121.064 478.288 121.128 478.928H118.632C118.728 478.304 118.792 477.344 118.792 476.704ZM120.504 469.712C122.648 470.304 126.088 471.568 127.672 472.352L126.76 474.56C124.952 473.616 122.248 472.592 120.504 472.016V469.712ZM143.576 466.24C143.352 466.608 143.048 467.312 142.904 467.696C142.296 469.28 141.32 471.392 139.992 473.12C138.504 475.04 136.536 477.104 133.432 478.816L131.656 477.184C134.568 475.792 136.568 474.016 138.264 471.808C139.528 470.144 140.248 468.496 140.808 466.896C140.952 466.48 141.112 465.824 141.192 465.424L143.576 466.24ZM134.776 467.792C136.36 468.784 138.552 470.304 139.896 471.36C141.608 472.688 143.288 474.192 144.584 475.568L142.936 477.408C141.544 475.776 140.136 474.464 138.44 473.056C137.288 472.096 135.416 470.656 133.4 469.424L134.776 467.792ZM146.904 471.792C149.768 471.056 152.104 470.016 153.896 468.912C155.528 467.904 157.352 466.304 158.392 465.04L160.12 466.672C158.664 468.144 156.712 469.648 154.824 470.784C153.016 471.856 150.424 473.056 147.896 473.808L146.904 471.792ZM153.56 469.952L155.832 469.408V476.624C155.832 477.328 155.864 478.32 155.976 478.72H153.432C153.496 478.336 153.56 477.328 153.56 476.624V469.952ZM165.592 465.84C166.696 466.592 168.776 468.256 169.72 469.232L168.088 470.896C167.256 470 165.24 468.256 164.072 467.456L165.592 465.84ZM163.576 476.496C166.088 476.144 168.152 475.328 169.704 474.416C172.44 472.784 174.52 470.352 175.544 468.192L176.776 470.432C175.576 472.608 173.448 474.816 170.872 476.368C169.24 477.344 167.176 478.224 164.936 478.608L163.576 476.496ZM93.8011 491.312C94.2171 491.36 94.8091 491.392 95.1451 491.392H103.929C104.425 491.392 104.921 491.36 105.305 491.312V492.704C104.905 492.672 104.393 492.64 103.929 492.64H95.1451C94.8251 492.64 94.2011 492.672 93.8011 492.704V491.312ZM98.7451 500.704V492.112H100.105V500.704H98.7451ZM92.8251 499.92C93.2891 499.984 93.7851 500.016 94.2331 500.016H104.809C105.289 500.016 105.721 499.952 106.121 499.92V501.36C105.705 501.312 105.113 501.312 104.809 501.312H94.2331C93.8011 501.312 93.3051 501.328 92.8251 501.36V499.92ZM110.937 490.288C112.057 491.04 114.121 492.704 115.001 493.584L114.009 494.608C113.193 493.776 111.209 492.048 110.009 491.264L110.937 490.288ZM109.561 501.008C112.345 500.592 114.425 499.616 115.945 498.672C118.425 497.12 120.361 494.752 121.289 492.768L122.057 494.144C120.969 496.128 119.113 498.304 116.697 499.824C115.081 500.832 113.065 501.824 110.393 502.32L109.561 501.008ZM126.553 490.176C127.017 490.224 127.481 490.256 128.009 490.256C128.937 490.256 133.593 490.256 134.489 490.256C134.937 490.256 135.513 490.224 135.977 490.176V491.504C135.497 491.472 134.937 491.44 134.489 491.44C133.593 491.44 128.937 491.44 128.025 491.44C127.497 491.44 126.969 491.472 126.553 491.504V490.176ZM124.649 494.192C125.081 494.24 125.545 494.256 126.041 494.256C126.969 494.256 135.657 494.256 136.505 494.256C136.841 494.256 137.369 494.24 137.769 494.192V495.504C137.401 495.488 136.905 495.472 136.505 495.472C135.657 495.472 126.969 495.472 126.041 495.472C125.561 495.472 125.081 495.488 124.649 495.52V494.192ZM132.185 494.832C132.185 496.848 131.929 498.512 131.209 499.856C130.633 500.928 129.417 502.064 128.073 502.768L126.889 501.904C128.121 501.376 129.273 500.464 129.897 499.44C130.697 498.176 130.825 496.608 130.841 494.848L132.185 494.832ZM139.936 497.888C142.048 497.376 144.4 496.256 145.712 495.456C147.216 494.544 148.688 493.216 149.52 492.208L150.512 493.168C149.584 494.16 147.92 495.552 146.256 496.56C144.912 497.36 142.688 498.416 140.56 499.072L139.936 497.888ZM145.568 496.192L146.896 495.856V501.856C146.896 502.336 146.912 503.008 146.976 503.248H145.488C145.52 503.008 145.568 502.336 145.568 501.856V496.192ZM157.248 490.176C157.712 490.224 158.176 490.256 158.704 490.256C159.632 490.256 164.288 490.256 165.184 490.256C165.632 490.256 166.208 490.224 166.672 490.176V491.504C166.192 491.472 165.632 491.44 165.184 491.44C164.288 491.44 159.632 491.44 158.72 491.44C158.192 491.44 157.664 491.472 157.248 491.504V490.176ZM155.344 494.192C155.776 494.24 156.24 494.256 156.736 494.256C157.664 494.256 166.352 494.256 167.2 494.256C167.536 494.256 168.064 494.24 168.464 494.192V495.504C168.096 495.488 167.6 495.472 167.2 495.472C166.352 495.472 157.664 495.472 156.736 495.472C156.256 495.472 155.776 495.488 155.344 495.52V494.192ZM162.88 494.832C162.88 496.848 162.624 498.512 161.904 499.856C161.328 500.928 160.112 502.064 158.768 502.768L157.584 501.904C158.816 501.376 159.968 500.464 160.592 499.44C161.392 498.176 161.52 496.608 161.536 494.848L162.88 494.832ZM170.631 497.888C172.743 497.376 175.095 496.256 176.407 495.456C177.911 494.544 179.383 493.216 180.215 492.208L181.207 493.168C180.279 494.16 178.615 495.552 176.951 496.56C175.607 497.36 173.383 498.416 171.255 499.072L170.631 497.888ZM176.263 496.192L177.591 495.856V501.856C177.591 502.336 177.607 503.008 177.671 503.248H176.183C176.215 503.008 176.263 502.336 176.263 501.856V496.192ZM193.383 491.856C192.775 491.232 191.719 490.256 191.047 489.744L191.959 489.088C192.487 489.504 193.703 490.512 194.295 491.136L193.383 491.856ZM188.295 490.464C188.423 490.736 188.695 491.248 188.855 491.552C189.479 492.672 190.247 494.288 190.903 495.744C191.767 497.744 192.791 500.704 193.335 502.48L191.959 502.848C191.463 500.944 190.695 498.384 189.783 496.288C189.031 494.608 188.311 493.056 187.767 492.144C187.575 491.824 187.255 491.312 186.999 490.992L188.295 490.464ZM185.463 495.136C185.927 495.024 186.487 494.832 186.775 494.704C188.999 493.856 192.887 491.68 195.543 491.68C197.767 491.68 199.111 492.928 199.111 494.672C199.111 496.528 197.943 497.92 195.447 497.92C194.551 497.92 193.639 497.696 193.047 497.472L193.079 496.208C193.703 496.496 194.503 496.736 195.351 496.736C197.111 496.736 197.831 495.76 197.831 494.624C197.831 493.68 197.079 492.8 195.511 492.8C192.839 492.8 188.103 495.568 186.087 496.448L185.463 495.136ZM96.144 514.208H105.776V515.264H96.144V514.208ZM96.48 525.408H105.872V526.48H96.48V525.408ZM100.672 512.576L101.872 512.64C101.76 514.112 101.552 515.984 101.36 517.12H100.224C100.4 515.952 100.592 514.016 100.672 512.576ZM99.632 519.712V521.04H103.728V519.712H99.632ZM99.632 521.92V523.248H103.728V521.92H99.632ZM99.632 517.536V518.848H103.728V517.536H99.632ZM98.496 516.624H104.88V524.176H98.496V516.624ZM95.952 517.424H97.088V527.264H95.952V517.424ZM94.752 512.624L95.888 512.976C94.832 515.696 93.184 518.4 91.456 520.192C91.328 519.92 90.992 519.28 90.768 519.008C92.352 517.456 93.856 515.056 94.752 512.624ZM93.088 516.752L94.208 515.616L94.24 515.632V527.264H93.088V516.752ZM116.896 513.488C116.832 513.92 116.8 514.384 116.816 514.816C116.832 516.592 116.944 522.176 116.96 525.168C116.976 526.016 116.464 526.464 115.504 526.464C114.688 526.464 113.744 526.416 112.944 526.368L112.832 525.04C113.6 525.168 114.496 525.232 115.104 525.232C115.552 525.232 115.696 525.024 115.696 524.592C115.696 522.304 115.632 516.592 115.552 514.816C115.52 514.208 115.488 513.824 115.424 513.488H116.896ZM108.304 516.288C108.768 516.336 109.296 516.368 109.776 516.368C110.624 516.368 118.544 516.368 119.36 516.368C119.776 516.368 120.4 516.32 120.72 516.272V517.632C120.336 517.616 119.792 517.584 119.392 517.584C118.688 517.584 110.528 517.584 109.808 517.584C109.264 517.584 108.816 517.616 108.304 517.648V516.288ZM107.728 523.76C111.104 522.096 114.064 519.296 115.248 517.344H115.888L115.904 518.416C114.688 520.32 111.712 523.168 108.64 524.8L107.728 523.76ZM134.256 512.704C134.64 513.264 135.216 514.208 135.536 514.816L134.64 515.216C134.32 514.56 133.776 513.648 133.376 513.072L134.256 512.704ZM136.32 512.304C136.704 512.848 137.296 513.792 137.632 514.416L136.736 514.8C136.384 514.144 135.872 513.216 135.44 512.672L136.32 512.304ZM135.696 515.584C135.6 515.808 135.52 516.08 135.456 516.384C135.12 518.064 134.336 520.656 133.072 522.288C131.616 524.176 129.712 525.648 126.784 526.576L125.696 525.376C128.784 524.592 130.592 523.232 131.92 521.52C133.056 520.08 133.808 517.84 134.016 516.304C133.104 516.304 126.752 516.304 125.84 516.304C125.2 516.304 124.656 516.336 124.24 516.368V514.944C124.688 514.992 125.312 515.056 125.84 515.056C126.752 515.056 133.136 515.056 133.872 515.056C134.112 515.056 134.432 515.04 134.72 514.96L135.696 515.584ZM149.456 514.064C149.856 514.656 150.576 515.792 150.944 516.56L150.032 516.976C149.632 516.128 149.088 515.168 148.56 514.448L149.456 514.064ZM151.536 513.296C151.968 513.856 152.688 515.008 153.072 515.744L152.16 516.16C151.744 515.328 151.184 514.4 150.656 513.696L151.536 513.296ZM142.608 513.824C143.552 514.352 145.392 515.584 146.096 516.096L145.328 517.184C144.576 516.608 142.832 515.44 141.888 514.912L142.608 513.824ZM140.208 525.264C141.968 524.96 143.952 524.336 145.584 523.408C148.24 521.888 150.336 519.808 151.632 517.552L152.416 518.864C151.024 521.008 148.816 523.088 146.256 524.576C144.64 525.52 142.432 526.272 140.96 526.576L140.208 525.264ZM140.208 517.424C141.152 517.936 143.024 519.088 143.712 519.584L142.976 520.704C142.192 520.144 140.464 519.024 139.488 518.528L140.208 517.424ZM157.072 517.744C157.424 517.776 157.92 517.808 158.176 517.808H165.552C165.952 517.808 166.352 517.776 166.672 517.744V519.024C166.336 518.992 165.904 518.976 165.552 518.976H158.192C157.936 518.976 157.408 518.992 157.072 519.024V517.744ZM161.136 525.52V518.464H162.416V525.52H161.136ZM156.304 524.784C156.672 524.832 157.088 524.848 157.44 524.848H166.288C166.672 524.848 167.04 524.816 167.36 524.784V526.112C167.04 526.08 166.544 526.064 166.288 526.064H157.44C157.088 526.064 156.688 526.08 156.304 526.112V524.784ZM183.584 516C183.456 516.224 183.296 516.592 183.216 516.848C182.784 518.464 181.808 520.624 180.384 522.368C178.928 524.144 177.008 525.6 174.016 526.72L172.848 525.664C175.792 524.8 177.776 523.36 179.248 521.648C180.48 520.192 181.472 518.112 181.792 516.656H175.872L176.384 515.504C177.024 515.504 180.976 515.504 181.472 515.504C181.904 515.504 182.272 515.456 182.528 515.36L183.584 516ZM178.224 513.584C177.968 514 177.68 514.544 177.52 514.832C176.576 516.608 174.912 518.896 172.336 520.592L171.216 519.776C173.984 518.128 175.552 515.792 176.256 514.368C176.416 514.08 176.656 513.504 176.752 513.088L178.224 513.584ZM190.848 524.592C190.848 523.696 190.848 516.624 190.848 515.296C190.848 514.832 190.816 514.128 190.736 513.616H192.304C192.24 514.112 192.192 514.8 192.192 515.296C192.192 517.776 192.208 523.84 192.208 524.592C192.208 525.104 192.24 525.968 192.304 526.496H190.752C190.832 525.984 190.848 525.184 190.848 524.592ZM191.904 517.824C194.016 518.432 197.248 519.664 199.024 520.528L198.464 521.888C196.64 520.912 193.648 519.776 191.904 519.232V517.824Z" fill="black" fill-opacity="0.8"/>
<path d="M159.152 262.246C158.976 262.55 158.752 262.982 158.624 263.382C158.192 264.822 157.28 266.95 155.824 268.726C154.304 270.582 152.384 272.054 149.376 273.238L147.488 271.558C150.752 270.566 152.528 269.174 153.936 267.59C155.024 266.342 155.952 264.422 156.208 263.238H150.816L151.552 261.414C152.256 261.414 155.616 261.414 156.112 261.414C156.608 261.414 157.152 261.35 157.504 261.222L159.152 262.246ZM153.936 259.702C153.552 260.262 153.136 260.998 152.96 261.334C151.872 263.27 149.968 265.526 147.664 267.094L145.872 265.766C148.672 264.054 150.08 261.99 150.864 260.614C151.104 260.23 151.44 259.494 151.584 258.934L153.936 259.702Z" fill="#1E1E1E"/>
<path d="M137.008 262.694C137.312 263.366 138.096 265.462 138.32 266.198L136.416 266.854C136.208 266.086 135.504 264.15 135.12 263.318L137.008 262.694ZM142.912 263.846C142.736 264.374 142.64 264.71 142.544 265.03C142.128 266.646 141.44 268.31 140.352 269.702C138.864 271.638 136.88 272.966 135.008 273.686L133.328 271.974C135.072 271.494 137.312 270.278 138.624 268.614C139.712 267.27 140.496 265.142 140.672 263.126L142.912 263.846ZM133.296 263.526C133.696 264.342 134.48 266.294 134.784 267.19L132.832 267.91C132.576 267.062 131.76 264.918 131.376 264.23L133.296 263.526Z" fill="#1E1E1E"/>
<path d="M124.784 259.91C125.232 260.582 125.888 261.638 126.24 262.374L124.864 262.982C124.384 261.974 124.032 261.286 123.44 260.454L124.784 259.91ZM126.992 259.126C127.488 259.766 128.112 260.822 128.496 261.526L127.12 262.134C126.608 261.126 126.224 260.502 125.632 259.702L126.992 259.126ZM117.84 259.59C118.896 260.166 120.656 261.302 121.488 261.878L120.288 263.654C119.408 263.03 117.728 261.942 116.672 261.35L117.84 259.59ZM114.88 270.95C116.656 270.646 118.576 270.118 120.32 269.158C123.04 267.638 125.264 265.446 126.544 263.158L127.776 265.334C126.288 267.542 124.032 269.574 121.408 271.078C119.792 272.006 117.488 272.806 116.08 273.062L114.88 270.95ZM115.376 263.238C116.448 263.814 118.208 264.918 119.024 265.494L117.856 267.286C116.944 266.662 115.296 265.574 114.208 265.014L115.376 263.238Z" fill="#1E1E1E"/>
<path d="M99.3119 260.838C99.9519 260.854 100.56 260.87 100.992 260.87C102.16 260.87 108.656 260.87 109.808 260.87C110.208 260.87 110.8 260.87 111.392 260.854C111.36 261.334 111.36 261.91 111.36 262.406C111.36 263.382 111.36 269.27 111.36 270.246C111.36 270.87 111.376 272.406 111.392 272.47H109.168C109.168 272.406 109.216 271.158 109.216 270.278C109.216 269.35 109.216 262.918 109.216 262.918H101.472C101.472 262.918 101.472 269.334 101.472 270.278C101.472 271.046 101.488 272.39 101.488 272.47H99.2959C99.2959 272.39 99.3279 270.982 99.3279 270.214C99.3279 269.254 99.3279 263.334 99.3279 262.406C99.3279 261.942 99.3279 261.302 99.3119 260.838ZM110 269.558V271.59H100.384V269.558H110Z" fill="#1E1E1E"/>
<path d="M94.7999 261.35C94.6719 261.526 94.3839 262.006 94.2399 262.342C93.5839 263.862 92.3999 266.038 91.0239 267.638C89.2319 269.702 86.8159 271.686 84.3359 272.854L82.6719 271.126C85.2639 270.166 87.7279 268.214 89.2319 266.55C90.2879 265.35 91.2639 263.766 91.6319 262.63C90.9599 262.63 86.8799 262.63 86.1919 262.63C85.5359 262.63 84.6559 262.71 84.3039 262.742V260.454C84.7359 260.518 85.7279 260.566 86.1919 260.566C87.0399 260.566 91.1359 260.566 91.8399 260.566C92.5439 260.566 93.1679 260.486 93.5039 260.374L94.7999 261.35ZM91.2319 266.31C92.8799 267.654 95.1519 270.038 96.1919 271.318L94.3679 272.902C93.1839 271.254 91.4399 269.35 89.7279 267.798L91.2319 266.31Z" fill="#1E1E1E"/>
<path d="M74.8798 259.126C74.8158 259.494 74.7678 260.102 74.7678 260.598C74.7678 261.078 74.7678 261.894 74.7678 262.374H72.6718C72.6718 261.894 72.6718 261.158 72.6718 260.598C72.6718 260.086 72.6558 259.51 72.5918 259.126H74.8798ZM79.3438 262.55C78.9438 262.966 78.4478 263.494 78.1118 263.878C77.2158 264.902 75.8718 266.23 74.4158 267.254C72.6878 268.486 70.2398 269.542 67.7598 270.294L66.5278 268.406C69.6158 267.718 71.6638 266.614 73.0398 265.718C74.2718 264.934 75.2638 263.99 75.7438 263.334C74.8798 263.334 70.6238 263.334 69.9518 263.334C69.3758 263.334 68.3678 263.366 67.8558 263.414V261.318C68.4638 261.398 69.3598 261.414 69.9038 261.414C70.6238 261.414 75.7438 261.414 76.6878 261.414C77.1838 261.414 77.6478 261.366 78.0158 261.27L79.3438 262.55ZM74.7358 266.038C74.7358 267.19 74.7358 269.766 74.7358 271.062C74.7358 271.686 74.7838 272.598 74.8318 273.094H72.5438C72.5918 272.646 72.6558 271.686 72.6558 271.062C72.6558 269.83 72.6558 267.862 72.6558 266.902L74.7358 266.038ZM79.5838 270.438C78.1918 269.35 77.1358 268.678 75.7598 267.894L77.0718 266.374C78.5438 267.158 79.3758 267.638 80.9118 268.678L79.5838 270.438Z" fill="#1E1E1E"/>
<path d="M61.4881 259.91C61.9361 260.582 62.5921 261.638 62.9441 262.374L61.5681 262.982C61.0881 261.974 60.7361 261.286 60.1441 260.454L61.4881 259.91ZM63.6961 259.126C64.1921 259.766 64.8161 260.822 65.2001 261.526L63.8241 262.134C63.3121 261.126 62.9281 260.502 62.3361 259.702L63.6961 259.126ZM54.5441 259.59C55.6001 260.166 57.3601 261.302 58.1921 261.878L56.9921 263.654C56.1121 263.03 54.4321 261.942 53.3761 261.35L54.5441 259.59ZM51.5841 270.95C53.3601 270.646 55.2801 270.118 57.0241 269.158C59.7441 267.638 61.9681 265.446 63.2481 263.158L64.4801 265.334C62.9921 267.542 60.7361 269.574 58.1121 271.078C56.4961 272.006 54.1921 272.806 52.7841 273.062L51.5841 270.95ZM52.0801 263.238C53.1521 263.814 54.9121 264.918 55.7281 265.494L54.5601 267.286C53.6481 266.662 52.0001 265.574 50.9121 265.014L52.0801 263.238Z" fill="#1E1E1E"/>
<path d="M45.8079 259.222C46.2079 259.814 46.7679 260.822 47.0719 261.414L45.7919 261.974C45.4559 261.318 44.9759 260.374 44.5439 259.75L45.8079 259.222ZM47.6959 258.502C48.1119 259.11 48.7039 260.118 48.9919 260.678L47.7119 261.238C47.3919 260.566 46.8639 259.638 46.4319 259.03L47.6959 258.502ZM38.8959 259.926C38.8319 260.406 38.7839 261.126 38.7839 261.59C38.7839 262.566 38.7839 268.454 38.7839 269.654C38.7839 270.358 39.1039 270.534 39.8239 270.662C40.3039 270.742 40.9599 270.758 41.6639 270.758C43.3439 270.758 45.9199 270.566 47.2479 270.214V272.55C45.7279 272.774 43.3119 272.87 41.5519 272.87C40.5119 272.87 39.5359 272.806 38.8479 272.694C37.4719 272.438 36.6559 271.686 36.6559 270.294C36.6559 268.454 36.6559 262.582 36.6559 261.59C36.6559 261.222 36.6079 260.406 36.5439 259.926H38.8959ZM37.8399 264.838C39.9039 264.39 42.6399 263.526 44.3199 262.838C44.8799 262.598 45.4239 262.342 46.0639 261.974L46.9119 263.99C46.3039 264.246 45.5839 264.55 45.0559 264.758C43.1679 265.478 40.0319 266.422 37.8559 266.934L37.8399 264.838Z" fill="#1E1E1E"/>
</g>
<defs>
<clipPath id="clip0_105_2379">
<rect width="578" height="582" fill="white"/>
</clipPath>
</defs>
</svg>
