<svg width="476" height="264" viewBox="0 0 476 264" fill="none" xmlns="http://www.w3.org/2000/svg">
<rect y="116" width="228" height="48" rx="3" fill="#E6E6E6"/>
<path d="M15.264 147.713H32.808V149.537H15.264V147.713ZM15.312 139.145H32.808V140.945H15.312V139.145ZM14.304 130.769H33.744V151.001H31.896V132.521H16.08V151.001H14.304V130.769ZM22.944 131.609H24.768V148.625H22.944V131.609ZM37.848 133.409H57.192V144.713H55.32V135.185H39.648V144.833H37.848V133.409ZM38.808 141.569H56.4V143.321H38.808V141.569ZM46.536 129.113H48.408V151.169H46.536V129.113Z" fill="#1E1E1E"/>
<path d="M151.304 133.409H170.648V144.713H168.776V135.185H153.104V144.833H151.304V133.409ZM152.264 141.569H169.856V143.321H152.264V141.569ZM159.992 129.113H161.864V151.169H159.992V129.113ZM175.784 135.857V138.497H183.08V135.857H175.784ZM175.784 131.825V134.441H183.08V131.825H175.784ZM174.272 130.337H184.64V140.009H174.272V130.337ZM174.224 142.697H184.664V144.353H174.224V142.697ZM173.456 148.529C176.336 148.169 180.872 147.569 185.24 146.969L185.288 148.577C181.136 149.201 176.72 149.849 173.696 150.281L173.456 148.529ZM185.432 130.361H194.192V131.993H185.432V130.361ZM185.168 138.089H194.552V139.793H185.168V138.089ZM193.424 130.361H193.856L194.24 130.265L195.416 131.057C194.168 132.977 192.224 135.065 190.424 136.361C190.184 136.049 189.68 135.569 189.392 135.329C190.904 134.177 192.608 132.185 193.424 130.697V130.361ZM186.392 134.561L187.52 133.457C189.656 134.537 192.104 136.313 193.328 137.561L192.176 138.809C190.928 137.489 188.504 135.689 186.392 134.561ZM194 138.089H194.288L194.576 138.017L195.8 138.329C195.2 140.321 194.48 142.625 193.76 144.041L192.296 143.633C192.896 142.337 193.568 140.153 194 138.401V138.089ZM189.032 138.929H190.808V149.009C190.808 150.017 190.616 150.569 189.848 150.881C189.104 151.169 187.88 151.169 186.08 151.169C186.008 150.665 185.744 149.921 185.48 149.393C186.92 149.441 188.144 149.441 188.552 149.417C188.936 149.417 189.032 149.297 189.032 148.961V138.929ZM178.664 130.889H180.224V139.337H180.32V148.217H178.592V139.337H178.664V130.889ZM209.552 137.345H218.6V138.953H209.552V137.345ZM203.912 148.673H216.008V150.281H203.912V148.673ZM208.688 134.489H210.512V143.273H208.688V134.489ZM202.952 142.409H216.992V151.193H215.144V144.041H204.704V151.241H202.952V142.409ZM207.848 129.137H209.696V133.217H207.848V129.137ZM199.856 132.233H218.936V133.961H199.856V132.233ZM198.968 132.233H200.768V138.449C200.768 142.145 200.432 147.569 198.368 151.217C198.056 150.905 197.264 150.401 196.832 150.209C198.8 146.753 198.968 141.905 198.968 138.449V132.233Z" fill="#1E1E1E"/>
<rect y="180" width="228" height="48" rx="3" fill="#E6E6E6"/>
<path d="M22.944 193.617H24.84V212.193H22.944V193.617ZM14.52 198.849H16.344V214.905H14.52V198.849ZM31.704 198.825H33.552V214.809H31.704V198.825ZM15.408 211.113H32.52V212.961H15.408V211.113ZM38.808 211.713H56.352V213.537H38.808V211.713ZM38.856 203.145H56.352V204.945H38.856V203.145ZM37.848 194.769H57.288V215.001H55.44V196.521H39.624V215.001H37.848V194.769ZM46.488 195.609H48.312V212.625H46.488V195.609Z" fill="#1E1E1E"/>
<path d="M130.592 194.745H146.312V214.833H144.416V196.569H132.44V214.929H130.592V194.745ZM131.816 203.073H145.208V204.849H131.816V203.073ZM131.792 211.569H145.256V213.369H131.792V211.569ZM151.448 198.177H172.4V200.001H151.448V198.177ZM156.248 208.881H167.432V210.705H156.248V208.881ZM160.928 193.137H162.824V215.193H160.928V193.137ZM160.376 198.777L161.984 199.329C159.848 204.417 156.08 209.001 151.928 211.425C151.64 210.969 151.04 210.297 150.632 209.937C154.64 207.849 158.456 203.385 160.376 198.777ZM163.424 198.849C165.32 203.409 169.088 207.777 173.24 209.769C172.784 210.153 172.16 210.873 171.872 211.377C167.624 209.025 163.928 204.441 161.816 199.401L163.424 198.849ZM182.432 197.145H196.208V198.609H182.432V197.145ZM186.944 201.249V203.337H191.504V201.249H186.944ZM185.408 200.049H193.112V204.537H185.408V200.049ZM182.744 205.665H194.888V207.081H184.4V215.217H182.744V205.665ZM194.12 205.665H195.8V213.321C195.8 214.185 195.656 214.641 195.008 214.905C194.36 215.169 193.376 215.169 191.864 215.169C191.792 214.737 191.528 214.089 191.312 213.657C192.44 213.705 193.424 213.705 193.736 213.681C194.048 213.657 194.12 213.585 194.12 213.321V205.665ZM193.736 193.473L194.816 194.673C191.888 195.369 187.112 195.729 183.296 195.777C183.248 195.441 183.056 194.865 182.888 194.529C186.632 194.409 191.288 194.049 193.736 193.473ZM191.672 197.649C192.704 199.497 194.792 201.345 196.784 202.233C196.4 202.521 195.896 203.121 195.632 203.529C193.592 202.449 191.48 200.265 190.352 198.129L191.672 197.649ZM187.568 195.177L189.248 195.417C188.384 198.441 186.44 201.513 182.84 203.601C182.576 203.193 182.072 202.641 181.688 202.425C185.096 200.577 186.896 197.745 187.568 195.177ZM186.944 208.377H192.344V212.865H186.944V211.689H190.976V209.553H186.944V208.377ZM186.176 208.377H187.544V213.945H186.176V208.377ZM174.68 198.321H182.192V200.025H174.68V198.321ZM177.896 193.113H179.552V215.169H177.896V193.113ZM177.872 199.329L178.976 199.713C178.28 203.505 176.768 208.257 175.112 210.657C174.896 210.177 174.464 209.505 174.176 209.097C175.712 206.913 177.248 202.761 177.872 199.329ZM179.408 201.681C179.936 202.329 181.904 205.353 182.336 206.025L181.376 207.345C180.872 206.169 179.24 203.337 178.664 202.401L179.408 201.681ZM210.464 201.345H219.512V202.953H210.464V201.345ZM204.824 212.673H216.92V214.281H204.824V212.673ZM209.6 198.489H211.424V207.273H209.6V198.489ZM203.864 206.409H217.904V215.193H216.056V208.041H205.616V215.241H203.864V206.409ZM208.76 193.137H210.608V197.217H208.76V193.137ZM200.768 196.233H219.848V197.961H200.768V196.233ZM199.88 196.233H201.68V202.449C201.68 206.145 201.344 211.569 199.28 215.217C198.968 214.905 198.176 214.401 197.744 214.209C199.712 210.753 199.88 205.905 199.88 202.449V196.233Z" fill="#1E1E1E"/>
<rect y="52" width="228" height="48" rx="3" fill="#1E1E1E"/>
<path d="M20.736 84.5767H32.328V86.2327H20.736V84.5767ZM19.92 67.5367H28.728V69.1447H19.92V67.5367ZM21 65.0407L23.016 65.4487C21.216 68.5687 18.336 71.8327 14.16 74.3047C13.896 73.8487 13.296 73.2247 12.888 72.9127C16.848 70.7527 19.608 67.6567 21 65.0407ZM28.128 67.5367H28.464L28.8 67.4407L30 68.0887C27.12 75.3367 20.352 80.1607 13.824 82.2727C13.608 81.7927 13.152 81.0487 12.768 80.6647C18.984 78.8647 25.632 74.1607 28.128 67.8487V67.5367ZM16.92 71.8087L18.264 70.6567C20.16 71.9527 22.464 73.8727 23.568 75.2407L22.104 76.5367C21.096 75.1687 18.816 73.1527 16.92 71.8087ZM31.44 76.9927H33.288V87.2407H31.44V76.9927ZM21.552 76.9927H32.352V78.6487H21.552V87.1927H19.752V78.4087L21.192 76.9927H21.552ZM36.816 68.9047H58.272V70.5847H36.816V68.9047ZM39.288 76.6327H46.008V78.0487H39.288V76.6327ZM39.288 80.4727H46.008V81.8887H39.288V80.4727ZM50.016 72.9367H51.72V82.8007H50.016V72.9367ZM45.36 72.7207H47.112V85.1287C47.112 86.0407 46.896 86.5207 46.224 86.8087C45.576 87.0967 44.52 87.0967 42.888 87.0967C42.792 86.6407 42.528 85.9687 42.288 85.5127C43.488 85.5607 44.592 85.5607 44.928 85.5367C45.264 85.5127 45.36 85.4167 45.36 85.1047V72.7207ZM54.888 72.2167H56.664V84.9607C56.664 86.0167 56.424 86.5207 55.68 86.8087C54.936 87.0727 53.736 87.1207 51.864 87.1207C51.768 86.6407 51.48 85.8727 51.216 85.3927C52.68 85.4407 53.976 85.4407 54.384 85.4167C54.768 85.3927 54.888 85.2967 54.888 84.9607V72.2167ZM40.536 65.7127L42.192 65.0887C43.128 66.1207 44.136 67.5367 44.592 68.4727L42.816 69.1207C42.432 68.2087 41.448 66.7447 40.536 65.7127ZM52.872 65.0167L54.792 65.6407C53.88 67.1287 52.8 68.7847 51.912 69.9127L50.328 69.3127C51.192 68.1607 52.272 66.3127 52.872 65.0167ZM38.328 72.7207H45.936V74.2807H40.032V87.0727H38.328V72.7207Z" fill="white"/>
<path d="M174.92 66.4567H185.264V68.1127H174.92V66.4567ZM186.968 73.2967H196.616V75.0247H186.968V73.2967ZM192.176 74.4247H193.952V87.2167H192.176V74.4247ZM186.272 67.4887L188.528 68.0887C188.504 68.2567 188.384 68.3527 188.048 68.4007V73.8967C188.048 77.7847 187.544 83.2807 183.944 87.1447C183.68 86.7607 183.032 86.1607 182.6 85.9447C185.936 82.3927 186.272 77.5687 186.272 73.8967V67.4887ZM175.808 70.6087H177.512V77.0887C177.512 80.1607 177.224 84.4087 175.376 87.2407C175.088 86.9047 174.344 86.3527 173.96 86.1367C175.64 83.5447 175.808 79.8487 175.808 77.0887V70.6087ZM194.552 65.4007L196.136 66.7687C193.76 67.9207 190.28 68.9047 187.28 69.6007C187.184 69.1927 186.896 68.5447 186.656 68.1367C189.512 67.4647 192.752 66.4327 194.552 65.4007ZM176.792 70.6087H184.664V78.0967H176.792V76.4647H182.912V72.2647H176.792V70.6087ZM200.336 66.1687H202.112V73.2007C202.112 77.2567 201.776 83.1367 199.328 87.0487C199.016 86.7847 198.224 86.3047 197.768 86.1607C200.144 82.3687 200.336 77.0407 200.336 73.2007V66.1687ZM201.416 66.1687H218.24V71.1847H201.416V69.7447H216.464V67.6087H201.416V66.1687ZM209.864 72.7687H211.52V84.2407H209.864V72.7687ZM205.616 76.1527V77.8567H215.888V76.1527H205.616ZM203.984 75.0007H217.568V79.0087H203.984V75.0007ZM203.024 80.4007H217.928V81.6967H204.68V87.2167H203.024V80.4007ZM216.968 80.4007H218.624V85.5847C218.624 86.3527 218.48 86.7367 217.904 86.9527C217.304 87.1687 216.344 87.1687 214.832 87.1687C214.736 86.7847 214.52 86.2807 214.352 85.8967C215.408 85.9447 216.296 85.9447 216.608 85.9207C216.896 85.8967 216.968 85.8247 216.968 85.5847V80.4007ZM205.64 83.7127C207.944 83.6647 211.376 83.5447 214.808 83.4007L214.784 84.6487C211.496 84.8167 208.16 84.9847 205.76 85.1047L205.64 83.7127ZM216.128 71.7607L217.232 72.8647C213.824 73.5367 208.352 73.8487 203.864 73.8967C203.84 73.5367 203.648 73.0087 203.504 72.6967C207.872 72.6247 213.248 72.3127 216.128 71.7607ZM213.008 82.3927L214.088 82.0567C214.88 83.1127 215.816 84.5287 216.248 85.3687L215.12 85.8007C214.688 84.9127 213.8 83.4727 213.008 82.3927Z" fill="white"/>
<path d="M85.7624 11.6967C85.6424 12.0327 85.5224 12.6087 85.4984 12.8007C85.1864 15.2247 84.1304 21.7287 83.7944 23.9127H80.2664C80.6504 21.7527 81.6824 15.5847 81.7544 13.8567C79.8824 13.8567 74.9864 13.8567 73.4744 13.8567C72.4904 13.8567 71.6024 13.9047 70.7384 13.9767V10.5927C71.5304 10.6887 72.6344 10.7607 73.4504 10.7607C74.9624 10.7607 79.5704 10.7607 81.0104 10.7607C81.6344 10.7607 82.8344 10.6407 83.2424 10.4487L85.7624 11.6967ZM68.1224 22.9287C68.8904 23.0727 69.7544 23.1207 70.4984 23.1207H86.4824C87.3464 23.1207 88.1144 23.0247 88.7384 22.9287V26.4327C88.0664 26.3367 87.0584 26.2887 86.4824 26.2887H70.4984C69.7544 26.2887 68.9144 26.3367 68.1224 26.4327V22.9287ZM92.1464 16.1607C93.0344 16.2327 94.7624 16.3287 96.0104 16.3287C98.8424 16.3287 106.762 16.3287 108.898 16.3287C110.026 16.3287 111.082 16.2087 111.73 16.1607V19.9527C111.154 19.9287 109.93 19.8087 108.922 19.8087C106.738 19.8087 98.8424 19.8087 96.0104 19.8087C94.6664 19.8087 93.0584 19.8807 92.1464 19.9527V16.1607ZM132.646 8.6247C133.102 9.5607 133.63 10.9527 133.894 11.8887L132.238 12.4407C131.902 11.4087 131.494 10.1127 131.014 9.1287L132.646 8.6247ZM135.118 7.8567C135.574 8.7927 136.126 10.2087 136.414 11.1207L134.782 11.6487C134.422 10.5927 133.966 9.3207 133.486 8.3607L135.118 7.8567ZM130.582 17.0487C130.582 22.9767 129.142 26.6247 123.358 29.1687L120.766 26.7447C125.422 25.1367 127.438 23.0487 127.438 17.1687V10.7847C127.438 9.8007 127.39 9.0087 127.318 8.5527H130.726C130.678 9.0327 130.582 9.8007 130.582 10.7847V17.0487ZM121.894 8.7687C121.846 9.2007 121.75 9.9687 121.75 10.9287V19.5207C121.75 20.5767 121.822 21.5607 121.87 22.0167H118.51C118.558 21.5607 118.63 20.6007 118.63 19.5207V10.9287C118.63 10.2327 118.582 9.4887 118.486 8.7687H121.894ZM113.998 13.0887C114.43 13.1607 115.414 13.3047 116.614 13.3047H132.334C133.606 13.3047 134.326 13.2567 134.998 13.1367V16.3287C134.47 16.2567 133.606 16.2567 132.358 16.2567H116.614C115.39 16.2567 114.55 16.3047 113.998 16.3527V13.0887ZM138.766 16.1607C139.654 16.2327 141.382 16.3287 142.63 16.3287C145.462 16.3287 153.382 16.3287 155.518 16.3287C156.646 16.3287 157.702 16.2087 158.35 16.1607V19.9527C157.774 19.9287 156.55 19.8087 155.542 19.8087C153.358 19.8087 145.462 19.8087 142.63 19.8087C141.286 19.8087 139.678 19.8807 138.766 19.9527V16.1607Z" fill="#1E1E1E"/>
<path d="M104.565 247.418C104.565 246.952 104.73 246.551 105.06 246.216C105.395 245.881 105.798 245.713 106.27 245.713C106.736 245.713 107.134 245.881 107.463 246.216C107.798 246.551 107.966 246.952 107.966 247.418C107.966 247.884 107.798 248.284 107.463 248.619C107.134 248.955 106.736 249.122 106.27 249.122C105.957 249.122 105.67 249.043 105.409 248.884C105.153 248.73 104.949 248.526 104.795 248.27C104.642 248.014 104.565 247.73 104.565 247.418ZM104.565 253.784C104.565 253.318 104.73 252.918 105.06 252.582C105.395 252.247 105.798 252.08 106.27 252.08C106.736 252.08 107.134 252.247 107.463 252.582C107.798 252.918 107.966 253.318 107.966 253.784C107.966 254.25 107.798 254.651 107.463 254.986C107.134 255.321 106.736 255.489 106.27 255.489C105.957 255.489 105.67 255.409 105.409 255.25C105.153 255.097 104.949 254.892 104.795 254.636C104.642 254.381 104.565 254.097 104.565 253.784ZM104.565 260.159C104.565 259.693 104.73 259.293 105.06 258.957C105.395 258.622 105.798 258.455 106.27 258.455C106.736 258.455 107.134 258.622 107.463 258.957C107.798 259.293 107.966 259.693 107.966 260.159C107.966 260.625 107.798 261.026 107.463 261.361C107.134 261.696 106.736 261.864 106.27 261.864C105.957 261.864 105.67 261.784 105.409 261.625C105.153 261.472 104.949 261.267 104.795 261.011C104.642 260.756 104.565 260.472 104.565 260.159Z" fill="#1E1E1E"/>
<rect x="248" y="115.727" width="228" height="48" rx="3" fill="#E6E6E6"/>
<path d="M262.304 133.136H281.648V144.44H279.776V134.912H264.104V144.56H262.304V133.136ZM263.264 141.296H280.856V143.048H263.264V141.296ZM270.992 128.84H272.864V150.896H270.992V128.84ZM286.784 135.584V138.224H294.08V135.584H286.784ZM286.784 131.552V134.168H294.08V131.552H286.784ZM285.272 130.064H295.64V139.736H285.272V130.064ZM285.224 142.424H295.664V144.08H285.224V142.424ZM284.456 148.256C287.336 147.896 291.872 147.296 296.24 146.696L296.288 148.304C292.136 148.928 287.72 149.576 284.696 150.008L284.456 148.256ZM296.432 130.088H305.192V131.72H296.432V130.088ZM296.168 137.816H305.552V139.52H296.168V137.816ZM304.424 130.088H304.856L305.24 129.992L306.416 130.784C305.168 132.704 303.224 134.792 301.424 136.088C301.184 135.776 300.68 135.296 300.392 135.056C301.904 133.904 303.608 131.912 304.424 130.424V130.088ZM297.392 134.288L298.52 133.184C300.656 134.264 303.104 136.04 304.328 137.288L303.176 138.536C301.928 137.216 299.504 135.416 297.392 134.288ZM305 137.816H305.288L305.576 137.744L306.8 138.056C306.2 140.048 305.48 142.352 304.76 143.768L303.296 143.36C303.896 142.064 304.568 139.88 305 138.128V137.816ZM300.032 138.656H301.808V148.736C301.808 149.744 301.616 150.296 300.848 150.608C300.104 150.896 298.88 150.896 297.08 150.896C297.008 150.392 296.744 149.648 296.48 149.12C297.92 149.168 299.144 149.168 299.552 149.144C299.936 149.144 300.032 149.024 300.032 148.688V138.656ZM289.664 130.616H291.224V139.064H291.32V147.944H289.592V139.064H289.664V130.616ZM320.552 137.072H329.6V138.68H320.552V137.072ZM314.912 148.4H327.008V150.008H314.912V148.4ZM319.688 134.216H321.512V143H319.688V134.216ZM313.952 142.136H327.992V150.92H326.144V143.768H315.704V150.968H313.952V142.136ZM318.848 128.864H320.696V132.944H318.848V128.864ZM310.856 131.96H329.936V133.688H310.856V131.96ZM309.968 131.96H311.768V138.176C311.768 141.872 311.432 147.296 309.368 150.944C309.056 150.632 308.264 150.128 307.832 149.936C309.8 146.48 309.968 141.632 309.968 138.176V131.96Z" fill="#1E1E1E"/>
<path d="M375.928 131.144H396.904V132.824H375.928V131.144ZM385.36 128.864H387.232V150.92H385.36V128.864ZM384.808 142.616L386.32 143.288C384.064 146.312 380.104 149.12 376.6 150.56C376.312 150.104 375.76 149.408 375.328 149.048C378.832 147.824 382.768 145.256 384.808 142.616ZM387.832 142.64C389.896 145.28 393.904 147.848 397.456 149.048C397.024 149.408 396.472 150.104 396.184 150.608C392.632 149.192 388.624 146.312 386.368 143.312L387.832 142.64ZM379.792 139.928V142.232H393.136V139.928H379.792ZM379.792 136.28V138.56H393.136V136.28H379.792ZM378.04 134.864H394.96V143.672H378.04V134.864ZM399.448 131.624H420.4V133.352H399.448V131.624ZM408.904 128.84H410.8V132.536H408.904V128.84ZM404.176 137.144V141.08H415.744V137.144H404.176ZM402.4 135.56H417.64V142.688H402.4V135.56ZM414.376 144.896L416.008 144.104C417.616 145.664 419.608 147.872 420.592 149.288L418.84 150.2C417.952 148.808 416.008 146.504 414.376 144.896ZM408.928 142.016H410.8V148.832C410.8 149.888 410.56 150.392 409.72 150.656C408.904 150.92 407.536 150.944 405.4 150.92C405.304 150.44 405.04 149.72 404.8 149.24C406.432 149.288 407.944 149.264 408.376 149.24C408.808 149.24 408.928 149.144 408.928 148.808V142.016ZM403.408 144.08L405.232 144.656C404.08 146.552 402.232 148.688 400.432 150.032C400.072 149.696 399.424 149.216 399.016 148.976C400.744 147.728 402.52 145.736 403.408 144.08ZM438.448 132.896L440.224 133.496C437.32 138.968 433 143.696 428.392 146.792C428.08 146.432 427.384 145.736 426.952 145.4C431.632 142.592 435.832 137.984 438.448 132.896ZM427.936 135.824L429.208 134.672C433.624 137.408 438.856 141.512 441.328 144.536L439.888 145.88C437.536 142.88 432.4 138.632 427.936 135.824ZM423.712 130.328H443.728V132.056H425.488V150.968H423.712V130.328ZM424.864 147.848H444.28V149.6H424.864V147.848ZM459.4 130.28H466.6V131.984H461.152V150.944H459.4V130.28ZM446.608 131.504H458.08V133.112H446.608V131.504ZM445.984 138.152H458.392V139.808H445.984V138.152ZM451.432 128.936H453.184V132.488H451.432V128.936ZM448.096 133.952L449.608 133.616C450.136 134.816 450.592 136.424 450.736 137.48L449.128 137.864C449.008 136.808 448.6 135.176 448.096 133.952ZM454.984 133.448L456.712 133.856C456.184 135.272 455.608 136.88 455.08 137.936L453.64 137.552C454.12 136.448 454.696 134.672 454.984 133.448ZM448.24 147.944H456.136V149.552H448.24V147.944ZM447.592 141.896H457.048V150.824H455.32V143.504H449.272V150.944H447.592V141.896ZM466.12 130.28H466.48L466.768 130.208L468.088 131.048C467.104 133.304 465.856 136.088 464.752 138.296C467.176 140.528 467.752 142.424 467.776 144.152C467.776 145.616 467.44 146.744 466.6 147.32C466.168 147.584 465.64 147.752 465.016 147.848C464.416 147.92 463.624 147.896 462.928 147.872C462.904 147.368 462.736 146.6 462.424 146.096C463.12 146.144 463.816 146.168 464.296 146.144C464.704 146.12 465.04 146.024 465.328 145.856C465.856 145.544 466.024 144.848 466.024 143.96C466 142.448 465.304 140.648 462.88 138.536C464.104 136.064 465.4 132.752 466.12 130.856V130.28Z" fill="#1E1E1E"/>
<rect x="248" y="179.727" width="228" height="48" rx="3" fill="#E6E6E6"/>
<path d="M264.224 194.472H279.944V214.56H278.048V196.296H266.072V214.656H264.224V194.472ZM265.448 202.8H278.84V204.576H265.448V202.8ZM265.424 211.296H278.888V213.096H265.424V211.296ZM285.08 197.904H306.032V199.728H285.08V197.904ZM289.88 208.608H301.064V210.432H289.88V208.608ZM294.56 192.864H296.456V214.92H294.56V192.864ZM294.008 198.504L295.616 199.056C293.48 204.144 289.712 208.728 285.56 211.152C285.272 210.696 284.672 210.024 284.264 209.664C288.272 207.576 292.088 203.112 294.008 198.504ZM297.056 198.576C298.952 203.136 302.72 207.504 306.872 209.496C306.416 209.88 305.792 210.6 305.504 211.104C301.256 208.752 297.56 204.168 295.448 199.128L297.056 198.576ZM316.064 196.872H329.84V198.336H316.064V196.872ZM320.576 200.976V203.064H325.136V200.976H320.576ZM319.04 199.776H326.744V204.264H319.04V199.776ZM316.376 205.392H328.52V206.808H318.032V214.944H316.376V205.392ZM327.752 205.392H329.432V213.048C329.432 213.912 329.288 214.368 328.64 214.632C327.992 214.896 327.008 214.896 325.496 214.896C325.424 214.464 325.16 213.816 324.944 213.384C326.072 213.432 327.056 213.432 327.368 213.408C327.68 213.384 327.752 213.312 327.752 213.048V205.392ZM327.368 193.2L328.448 194.4C325.52 195.096 320.744 195.456 316.928 195.504C316.88 195.168 316.688 194.592 316.52 194.256C320.264 194.136 324.92 193.776 327.368 193.2ZM325.304 197.376C326.336 199.224 328.424 201.072 330.416 201.96C330.032 202.248 329.528 202.848 329.264 203.256C327.224 202.176 325.112 199.992 323.984 197.856L325.304 197.376ZM321.2 194.904L322.88 195.144C322.016 198.168 320.072 201.24 316.472 203.328C316.208 202.92 315.704 202.368 315.32 202.152C318.728 200.304 320.528 197.472 321.2 194.904ZM320.576 208.104H325.976V212.592H320.576V211.416H324.608V209.28H320.576V208.104ZM319.808 208.104H321.176V213.672H319.808V208.104ZM308.312 198.048H315.824V199.752H308.312V198.048ZM311.528 192.84H313.184V214.896H311.528V192.84ZM311.504 199.056L312.608 199.44C311.912 203.232 310.4 207.984 308.744 210.384C308.528 209.904 308.096 209.232 307.808 208.824C309.344 206.64 310.88 202.488 311.504 199.056ZM313.04 201.408C313.568 202.056 315.536 205.08 315.968 205.752L315.008 207.072C314.504 205.896 312.872 203.064 312.296 202.128L313.04 201.408ZM344.096 201.072H353.144V202.68H344.096V201.072ZM338.456 212.4H350.552V214.008H338.456V212.4ZM343.232 198.216H345.056V207H343.232V198.216ZM337.496 206.136H351.536V214.92H349.688V207.768H339.248V214.968H337.496V206.136ZM342.392 192.864H344.24V196.944H342.392V192.864ZM334.4 195.96H353.48V197.688H334.4V195.96ZM333.512 195.96H335.312V202.176C335.312 205.872 334.976 211.296 332.912 214.944C332.6 214.632 331.808 214.128 331.376 213.936C333.344 210.48 333.512 205.632 333.512 202.176V195.96Z" fill="#1E1E1E"/>
<path d="M375.928 195.144H396.904V196.824H375.928V195.144ZM385.36 192.864H387.232V214.92H385.36V192.864ZM384.808 206.616L386.32 207.288C384.064 210.312 380.104 213.12 376.6 214.56C376.312 214.104 375.76 213.408 375.328 213.048C378.832 211.824 382.768 209.256 384.808 206.616ZM387.832 206.64C389.896 209.28 393.904 211.848 397.456 213.048C397.024 213.408 396.472 214.104 396.184 214.608C392.632 213.192 388.624 210.312 386.368 207.312L387.832 206.64ZM379.792 203.928V206.232H393.136V203.928H379.792ZM379.792 200.28V202.56H393.136V200.28H379.792ZM378.04 198.864H394.96V207.672H378.04V198.864ZM399.448 195.624H420.4V197.352H399.448V195.624ZM408.904 192.84H410.8V196.536H408.904V192.84ZM404.176 201.144V205.08H415.744V201.144H404.176ZM402.4 199.56H417.64V206.688H402.4V199.56ZM414.376 208.896L416.008 208.104C417.616 209.664 419.608 211.872 420.592 213.288L418.84 214.2C417.952 212.808 416.008 210.504 414.376 208.896ZM408.928 206.016H410.8V212.832C410.8 213.888 410.56 214.392 409.72 214.656C408.904 214.92 407.536 214.944 405.4 214.92C405.304 214.44 405.04 213.72 404.8 213.24C406.432 213.288 407.944 213.264 408.376 213.24C408.808 213.24 408.928 213.144 408.928 212.808V206.016ZM403.408 208.08L405.232 208.656C404.08 210.552 402.232 212.688 400.432 214.032C400.072 213.696 399.424 213.216 399.016 212.976C400.744 211.728 402.52 209.736 403.408 208.08ZM438.448 196.896L440.224 197.496C437.32 202.968 433 207.696 428.392 210.792C428.08 210.432 427.384 209.736 426.952 209.4C431.632 206.592 435.832 201.984 438.448 196.896ZM427.936 199.824L429.208 198.672C433.624 201.408 438.856 205.512 441.328 208.536L439.888 209.88C437.536 206.88 432.4 202.632 427.936 199.824ZM423.712 194.328H443.728V196.056H425.488V214.968H423.712V194.328ZM424.864 211.848H444.28V213.6H424.864V211.848ZM459.4 194.28H466.6V195.984H461.152V214.944H459.4V194.28ZM446.608 195.504H458.08V197.112H446.608V195.504ZM445.984 202.152H458.392V203.808H445.984V202.152ZM451.432 192.936H453.184V196.488H451.432V192.936ZM448.096 197.952L449.608 197.616C450.136 198.816 450.592 200.424 450.736 201.48L449.128 201.864C449.008 200.808 448.6 199.176 448.096 197.952ZM454.984 197.448L456.712 197.856C456.184 199.272 455.608 200.88 455.08 201.936L453.64 201.552C454.12 200.448 454.696 198.672 454.984 197.448ZM448.24 211.944H456.136V213.552H448.24V211.944ZM447.592 205.896H457.048V214.824H455.32V207.504H449.272V214.944H447.592V205.896ZM466.12 194.28H466.48L466.768 194.208L468.088 195.048C467.104 197.304 465.856 200.088 464.752 202.296C467.176 204.528 467.752 206.424 467.776 208.152C467.776 209.616 467.44 210.744 466.6 211.32C466.168 211.584 465.64 211.752 465.016 211.848C464.416 211.92 463.624 211.896 462.928 211.872C462.904 211.368 462.736 210.6 462.424 210.096C463.12 210.144 463.816 210.168 464.296 210.144C464.704 210.12 465.04 210.024 465.328 209.856C465.856 209.544 466.024 208.848 466.024 207.96C466 206.448 465.304 204.648 462.88 202.536C464.104 200.064 465.4 196.752 466.12 194.856V194.28Z" fill="#1E1E1E"/>
<rect x="248" y="51.7273" width="228" height="48" rx="3" fill="#1E1E1E"/>
<path d="M268.736 84.304H280.328V85.96H268.736V84.304ZM267.92 67.264H276.728V68.872H267.92V67.264ZM269 64.768L271.016 65.176C269.216 68.296 266.336 71.56 262.16 74.032C261.896 73.576 261.296 72.952 260.888 72.64C264.848 70.48 267.608 67.384 269 64.768ZM276.128 67.264H276.464L276.8 67.168L278 67.816C275.12 75.064 268.352 79.888 261.824 82C261.608 81.52 261.152 80.776 260.768 80.392C266.984 78.592 273.632 73.888 276.128 67.576V67.264ZM264.92 71.536L266.264 70.384C268.16 71.68 270.464 73.6 271.568 74.968L270.104 76.264C269.096 74.896 266.816 72.88 264.92 71.536ZM279.44 76.72H281.288V86.968H279.44V76.72ZM269.552 76.72H280.352V78.376H269.552V86.92H267.752V78.136L269.192 76.72H269.552ZM284.816 68.632H306.272V70.312H284.816V68.632ZM287.288 76.36H294.008V77.776H287.288V76.36ZM287.288 80.2H294.008V81.616H287.288V80.2ZM298.016 72.664H299.72V82.528H298.016V72.664ZM293.36 72.448H295.112V84.856C295.112 85.768 294.896 86.248 294.224 86.536C293.576 86.824 292.52 86.824 290.888 86.824C290.792 86.368 290.528 85.696 290.288 85.24C291.488 85.288 292.592 85.288 292.928 85.264C293.264 85.24 293.36 85.144 293.36 84.832V72.448ZM302.888 71.944H304.664V84.688C304.664 85.744 304.424 86.248 303.68 86.536C302.936 86.8 301.736 86.848 299.864 86.848C299.768 86.368 299.48 85.6 299.216 85.12C300.68 85.168 301.976 85.168 302.384 85.144C302.768 85.12 302.888 85.024 302.888 84.688V71.944ZM288.536 65.44L290.192 64.816C291.128 65.848 292.136 67.264 292.592 68.2L290.816 68.848C290.432 67.936 289.448 66.472 288.536 65.44ZM300.872 64.744L302.792 65.368C301.88 66.856 300.8 68.512 299.912 69.64L298.328 69.04C299.192 67.888 300.272 66.04 300.872 64.744ZM286.328 72.448H293.936V74.008H288.032V86.8H286.328V72.448Z" fill="white"/>
<path d="M401.392 69.2407C402.016 69.3127 402.904 69.3607 403.408 69.3607H416.584C417.328 69.3607 418.072 69.3127 418.648 69.2407V71.3287C418.048 71.2807 417.28 71.2327 416.584 71.2327H403.408C402.928 71.2327 401.992 71.2807 401.392 71.3287V69.2407ZM408.808 83.3287V70.4407H410.848V83.3287H408.808ZM399.928 82.1527C400.624 82.2487 401.368 82.2967 402.04 82.2967H417.904C418.624 82.2967 419.272 82.2007 419.872 82.1527V84.3127C419.248 84.2407 418.36 84.2407 417.904 84.2407H402.04C401.392 84.2407 400.648 84.2647 399.928 84.3127V82.1527ZM440.056 67.0807C440.008 67.6567 439.984 68.3527 439.984 69.1687C439.984 70.1047 439.984 72.1447 439.984 73.0327C439.984 78.8167 439.216 80.7127 437.464 82.7527C435.928 84.6247 433.528 85.6807 431.776 86.2807L430.192 84.6247C432.4 84.0487 434.44 83.1127 435.928 81.4087C437.632 79.4407 437.944 77.4727 437.944 72.9607C437.944 72.0247 437.944 70.0087 437.944 69.1687C437.944 68.3527 437.872 67.6567 437.8 67.0807H440.056ZM428.92 67.2727C428.872 67.7287 428.848 68.4247 428.848 68.9767C428.848 69.6967 428.848 75.9847 428.848 76.9927C428.848 77.6167 428.872 78.4087 428.92 78.8407H426.736C426.784 78.4567 426.832 77.6887 426.832 76.9927C426.832 75.9607 426.832 69.6967 426.832 68.9767C426.832 68.5687 426.808 67.7287 426.736 67.2727H428.92ZM467.344 69.0727C467.152 69.2887 466.864 69.6487 466.696 69.9127C465.736 71.5447 463.456 74.6407 460.72 76.5367L459.112 75.2647C461.344 73.9927 463.6 71.4007 464.368 69.9127C462.688 69.9127 451.84 69.9127 450.688 69.9127C449.8 69.9127 448.912 69.9607 447.976 70.0327V67.8727C448.816 67.9927 449.8 68.0887 450.688 68.0887C451.84 68.0887 463.048 68.0887 464.488 68.0887C464.944 68.0887 465.808 68.0167 466.144 67.9207L467.344 69.0727ZM457.744 72.2167C457.744 78.7207 457.168 83.1127 451.048 86.1847L449.296 84.7447C449.944 84.5287 450.784 84.1207 451.456 83.6647C455.152 81.3847 455.68 77.9767 455.68 73.9687C455.68 73.3927 455.68 72.8647 455.584 72.2167H457.744Z" fill="white"/>
<path d="M350.836 14.784H359.908V17.328H350.836V14.784ZM345.7 25.752H356.98V28.296H345.7V25.752ZM349.468 12.528H352.396V21.432H349.468V12.528ZM344.188 19.944H358.516V29.136H355.564V22.488H346.996V29.16H344.188V19.944ZM348.484 6.624H351.484V10.992H348.484V6.624ZM341.284 9.432H360.244V12.168H341.284V9.432ZM339.868 9.432H342.748V15.504C342.748 19.392 342.388 25.344 340.204 29.112C339.676 28.632 338.404 27.792 337.708 27.504C339.724 24.048 339.868 18.984 339.868 15.504V9.432ZM371.644 9.792H383.812V12.264H371.644V9.792ZM373.156 17.808H382.372V20.112H373.156V17.808ZM373.156 21.672H382.372V24H373.156V21.672ZM376.42 6.6H378.988V28.944H376.42V6.6ZM380.956 13.848H383.452V26.424C383.452 27.504 383.308 28.2 382.66 28.608C381.988 29.04 381.172 29.088 380.02 29.088C379.948 28.392 379.636 27.312 379.3 26.64C379.876 26.664 380.476 26.664 380.668 26.664C380.86 26.664 380.956 26.592 380.956 26.352V13.848ZM372.076 13.848H382.348V16.272H374.548V29.088H372.076V13.848ZM379.3 7.896L380.956 6.624C381.892 7.2 383.068 8.088 383.644 8.736L381.892 10.176C381.364 9.504 380.212 8.544 379.3 7.896ZM362.668 21.072H371.068V28.656H368.476V23.4H365.164V29.136H362.668V21.072ZM365.548 11.784H368.164V18.528H365.548V11.784ZM362.836 13.8H370.924V16.008H362.836V13.8ZM362.044 17.64H371.452V19.968H362.044V17.64ZM363.604 25.536H369.892V27.864H363.604V25.536ZM365.212 6.624H366.796V7.152H367.636V7.944C366.676 9.696 365.212 12.096 362.908 14.208C362.5 13.608 361.636 12.672 361.084 12.288C363.052 10.632 364.444 8.424 365.212 6.624ZM365.74 6.624H367.684C369.124 7.872 370.924 9.672 371.788 10.968L370.012 13.152C369.244 11.88 367.564 9.744 366.196 8.592H365.74V6.624Z" fill="#1E1E1E"/>
<path d="M352.565 247.145C352.565 246.679 352.73 246.278 353.06 245.943C353.395 245.608 353.798 245.44 354.27 245.44C354.736 245.44 355.134 245.608 355.463 245.943C355.798 246.278 355.966 246.679 355.966 247.145C355.966 247.611 355.798 248.011 355.463 248.347C355.134 248.682 354.736 248.849 354.27 248.849C353.957 248.849 353.67 248.77 353.409 248.611C353.153 248.457 352.949 248.253 352.795 247.997C352.642 247.741 352.565 247.457 352.565 247.145ZM352.565 253.511C352.565 253.045 352.73 252.645 353.06 252.31C353.395 251.974 353.798 251.807 354.27 251.807C354.736 251.807 355.134 251.974 355.463 252.31C355.798 252.645 355.966 253.045 355.966 253.511C355.966 253.977 355.798 254.378 355.463 254.713C355.134 255.048 354.736 255.216 354.27 255.216C353.957 255.216 353.67 255.136 353.409 254.977C353.153 254.824 352.949 254.619 352.795 254.364C352.642 254.108 352.565 253.824 352.565 253.511ZM352.565 259.886C352.565 259.42 352.73 259.02 353.06 258.685C353.395 258.349 353.798 258.182 354.27 258.182C354.736 258.182 355.134 258.349 355.463 258.685C355.798 259.02 355.966 259.42 355.966 259.886C355.966 260.352 355.798 260.753 355.463 261.088C355.134 261.423 354.736 261.591 354.27 261.591C353.957 261.591 353.67 261.511 353.409 261.352C353.153 261.199 352.949 260.994 352.795 260.739C352.642 260.483 352.565 260.199 352.565 259.886Z" fill="#1E1E1E"/>
</svg>
