<svg width="980" height="551" xmlns="http://www.w3.org/2000/svg" xmlns:xlink="http://www.w3.org/1999/xlink">
<path fill="#ff595e" d="M 396.17 337.27 Q 396.17 337.27 393.71 338.23 391.24 339.19 383.01 336.79 374.78 334.39 358.65 324.92 342.52 315.44 321.82 299.50 301.12 283.56 281.36 266.41 261.61 249.26 245.61 235.11 229.61 220.96 218.63 211.35 207.64 201.75 201.04 196.03 194.43 190.32 191.63 186.52 188.84 182.73 188.84 182.73 188.84 182.73 188.85 182.72 188.85 182.72 192.95 185.01 197.05 187.29 203.66 193.01 210.27 198.74 221.27 208.35 232.26 217.96 248.25 232.10 264.23 246.24 283.90 263.32 303.56 280.39 324.06 296.20 344.55 312.00 360.25 321.28 375.94 330.56 383.64 332.88 391.34 335.19 393.76 336.22 396.18 337.25 396.17 337.26 Z" data-drauu_index="0"></path><path fill="#ff595e" d="M 511.09 281.89 Q 511.09 281.89 513.99 280.90 516.89 279.90 523.16 279.90 529.44 279.90 538.78 279.90 548.12 279.90 558.91 279.90 569.71 279.90 581.56 279.90 593.40 279.90 605.40 279.90 617.40 279.90 628.36 279.90 639.31 279.90 648.77 279.90 658.22 279.90 666.20 279.90 674.18 279.90 681.06 279.90 687.93 279.90 694.35 279.90 700.76 279.90 707.29 279.90 713.81 279.90 720.71 279.90 727.62 279.90 734.61 279.90 741.61 279.90 748.01 279.90 754.41 279.90 759.46 279.90 764.52 279.90 768.03 279.90 771.55 279.90 774.99 280.90 778.43 281.89 778.43 281.90 778.43 281.90 778.43 281.91 778.43 281.91 774.99 282.91 771.55 283.90 768.03 283.90 764.52 283.90 759.46 283.90 754.41 283.90 748.01 283.90 741.61 283.90 734.61 283.90 727.62 283.90 720.71 283.90 713.81 283.90 707.29 283.90 700.76 283.90 694.35 283.90 687.93 283.90 681.06 283.90 674.18 283.90 666.20 283.90 658.22 283.90 648.77 283.90 639.31 283.90 628.36 283.90 617.40 283.90 605.40 283.90 593.40 283.90 581.56 283.90 569.71 283.90 558.91 283.90 548.12 283.90 538.78 283.90 529.44 283.90 523.16 283.90 516.89 283.90 513.99 282.91 511.09 281.91 511.09 281.90 Z" data-drauu_index="1"></path><path fill="#ff595e" d="M 500.27 327.34 Q 500.27 327.34 504.94 326.35 509.61 325.35 519.20 325.35 528.79 325.35 542.16 325.35 555.53 325.35 569.92 325.35 584.31 325.35 598.60 325.35 612.89 325.35 626.54 325.35 640.19 325.35 652.42 325.35 664.64 325.35 675.38 325.35 686.12 325.35 695.11 325.35 704.10 325.35 710.46 325.35 716.81 325.35 720.79 325.44 724.76 325.53 727.54 325.66 730.31 325.79 732.64 325.90 734.98 326.00 737.25 326.16 739.53 326.32 741.72 326.58 743.90 326.83 745.94 327.12 747.97 327.41 749.78 327.72 751.59 328.03 753.03 328.35 754.48 328.67 756.16 330.20 757.84 331.73 757.83 331.73 757.83 331.73 757.83 331.74 757.82 331.74 755.73 332.15 753.63 332.55 752.27 332.26 750.92 331.97 749.16 331.67 747.41 331.37 745.43 331.09 743.45 330.80 741.35 330.56 739.25 330.31 737.02 330.16 734.80 330.00 732.46 329.89 730.12 329.79 727.40 329.66 724.67 329.53 720.74 329.44 716.81 329.35 710.46 329.35 704.10 329.35 695.11 329.35 686.12 329.35 675.38 329.35 664.64 329.35 652.42 329.35 640.19 329.35 626.54 329.35 612.89 329.35 598.60 329.35 584.31 329.35 569.92 329.35 555.53 329.35 542.16 329.35 528.79 329.35 519.20 329.35 509.61 329.35 504.94 328.36 500.27 327.36 500.27 327.35 Z" data-drauu_index="2"></path>
</svg>