<svg width="980" height="551" xmlns="http://www.w3.org/2000/svg" xmlns:xlink="http://www.w3.org/1999/xlink">
<path d="M333.214 226.381C331.452 225.746 331.452 223.254 333.214 222.619L343.321 218.971C344.625 218.501 346 219.467 346 220.853L346 228.147C346 229.533 344.625 230.499 343.321 230.029L333.214 226.381Z" fill="#C41C1C"/>
<rect x="344" y="210" width="96" height="27" rx="4" fill="#C41C1C"/>
<path d="M356.976 216.12H362.672V217.8H356.976V216.12ZM358.592 219.528H361.312V221.192H358.064L358.592 219.528ZM357.6 223.928L358.416 222.488C359.056 222.92 359.856 223.56 360.224 223.992L359.376 225.608C359.024 225.128 358.24 224.424 357.6 223.928ZM362.56 217.272H364.256V226.648H362.56V217.272ZM365.248 215.72H367.024V228.264C367.024 229.288 366.832 229.784 366.256 230.088C365.664 230.392 364.768 230.456 363.504 230.456C363.424 229.944 363.168 229.112 362.912 228.584C363.792 228.616 364.608 228.616 364.896 228.616C365.152 228.6 365.248 228.52 365.248 228.264V215.72ZM358.16 216.712L359.984 216.968C359.52 219.896 358.688 223.384 356.912 225.464C356.656 225.08 356.128 224.44 355.776 224.12C357.264 222.328 357.904 219.16 358.16 216.712ZM360.592 219.528H360.928L361.232 219.464L362.336 219.8C361.76 225.016 360.08 228.648 357.616 230.44C357.36 230.008 356.784 229.256 356.416 228.968C358.72 227.4 360.144 224.296 360.592 219.896V219.528ZM355.344 215.432L357.12 215.96C356.208 218.76 354.736 221.784 353.104 223.688C352.944 223.224 352.48 222.12 352.176 221.624C353.472 220.104 354.656 217.768 355.344 215.432ZM354.08 219.832L355.792 218.12L355.84 218.152V230.424H354.08V219.832ZM371.808 217.752H375.728V219.56H371.808V217.752ZM378.512 215.448H380.512V230.408H378.512V215.448ZM370.048 222.488L371.008 221.048C372.208 221.704 373.76 222.744 374.48 223.496L373.456 225.128C372.768 224.328 371.248 223.208 370.048 222.488ZM372.016 215.4L373.92 215.8C373.072 219.016 371.632 221.976 369.84 223.832C369.504 223.496 368.688 222.872 368.24 222.584C370 220.984 371.312 218.296 372.016 215.4ZM377.52 219.304C378.768 221.656 381.248 223.96 383.856 225.112C383.392 225.512 382.784 226.28 382.464 226.792C379.776 225.368 377.376 222.76 375.888 219.896L377.52 219.304ZM375.2 217.752H375.552L375.888 217.688L377.152 218.104C376.208 224.296 373.68 228.344 370.224 230.312C369.904 229.88 369.168 229.16 368.704 228.872C372.112 227.08 374.448 223.592 375.2 218.184V217.752ZM391.264 216.488C391.168 216.904 391.072 217.416 390.992 217.816C390.832 218.536 390.64 219.528 390.464 220.344C389.936 222.6 388.656 227.16 386.976 229.864L384.88 229.032C386.784 226.472 387.984 222.248 388.432 220.232C388.736 218.792 388.912 217.432 388.896 216.232L391.264 216.488ZM396.784 218.088C397.76 219.48 399.104 222.456 399.6 223.976L397.568 224.92C397.152 223.144 396.016 220.328 394.864 218.904L396.784 218.088ZM384.784 219.768C385.36 219.8 385.904 219.784 386.496 219.768C387.776 219.736 390.816 219.384 392 219.384C393.696 219.384 394.896 220.136 394.896 222.456C394.896 224.344 394.656 226.936 393.984 228.312C393.456 229.432 392.56 229.784 391.36 229.784C390.736 229.784 389.984 229.688 389.44 229.56L389.088 227.448C389.712 227.624 390.624 227.784 391.04 227.784C391.584 227.784 392 227.624 392.24 227.096C392.688 226.2 392.896 224.248 392.896 222.68C392.896 221.4 392.352 221.208 391.344 221.208C390.4 221.208 387.632 221.56 386.752 221.672C386.288 221.736 385.456 221.848 384.976 221.928L384.784 219.768ZM396.496 215.88C396.896 216.456 397.456 217.48 397.76 218.072L396.48 218.616C396.144 217.96 395.648 217.016 395.216 216.392L396.496 215.88ZM398.384 215.144C398.8 215.752 399.392 216.776 399.68 217.336L398.4 217.88C398.08 217.208 397.552 216.28 397.12 215.672L398.384 215.144ZM403.664 220.84H412.368V222.648H403.664V220.84ZM401.936 216.024H406.464V217.688H401.936V216.024ZM401.584 224.472H414.336V226.232H401.584V224.472ZM405.792 216.024H406.128L406.464 215.96L407.744 216.552C406.656 219.816 404.256 222.104 401.52 223.4C401.264 222.968 400.736 222.312 400.352 221.96C402.736 220.968 404.96 218.792 405.792 216.36V216.024ZM405.024 221.752H406.928V224.52C406.928 226.792 406.352 229.176 402.4 230.504C402.16 230.072 401.568 229.32 401.168 228.984C404.576 227.912 405.024 226.136 405.024 224.488V221.752ZM409.744 215.432C410.768 218.184 412.864 220.568 415.68 221.688C415.232 222.072 414.64 222.84 414.336 223.352C411.36 221.944 409.28 219.256 408.032 215.928L409.744 215.432ZM401.44 218.936L402.656 217.928C403.264 218.36 404.096 218.984 404.512 219.416L403.248 220.52C402.864 220.104 402.064 219.416 401.44 218.936ZM411.984 215.672L413.424 216.68C412.592 217.448 411.616 218.248 410.864 218.744L409.712 217.864C410.432 217.304 411.424 216.36 411.984 215.672ZM413.888 217.496L415.296 218.488C414.432 219.272 413.376 220.104 412.56 220.648L411.408 219.768C412.192 219.192 413.264 218.216 413.888 217.496ZM408.912 221.832H410.912V227.96C410.912 228.552 410.976 228.632 411.424 228.632C411.616 228.632 412.416 228.632 412.64 228.632C413.072 228.632 413.152 228.328 413.216 226.824C413.616 227.128 414.4 227.448 414.928 227.56C414.752 229.688 414.24 230.344 412.832 230.344C412.48 230.344 411.424 230.344 411.072 230.344C409.328 230.344 408.912 229.768 408.912 227.96V221.832ZM419.312 218.312H430.448V220.184H419.312V218.312ZM418.656 223.032H429.84V224.872H418.656V223.032ZM416.8 228.104H431.264V229.976H416.8V228.104ZM423.024 215.416H425.024V229.032H423.024V215.416ZM419.328 215.608L421.312 216.056C420.608 218.536 419.44 221 418.192 222.536C417.808 222.2 416.96 221.64 416.464 221.368C417.728 220.024 418.752 217.816 419.328 215.608Z" fill="#FCE4E4"/>
<path d="M330.5 283.964C330.5 282.424 332.167 281.462 333.5 282.232L350 291.758C351.333 292.528 351.333 294.453 350 295.222L333.5 304.749C332.167 305.519 330.5 304.556 330.5 303.017L330.5 283.964Z" fill="#FCE4E4"/>
<rect x="302" y="291" width="319" height="27" rx="4" fill="#FCE4E4"/>
<path d="M312.208 298.832C312.624 298.896 313.296 298.944 313.728 298.944H322.448C322.928 298.944 323.488 298.896 323.936 298.832V301.04C323.472 300.992 322.912 300.96 322.448 300.96H313.728C313.296 300.96 312.624 300.992 312.208 301.04V298.832ZM316.832 308.688V300.064H319.056V308.688H316.832ZM311.184 307.376C311.696 307.456 312.272 307.504 312.752 307.504H323.312C323.872 307.504 324.384 307.424 324.8 307.376V309.68C324.352 309.632 323.68 309.616 323.312 309.616H312.752C312.288 309.616 311.712 309.632 311.184 309.68V307.376ZM329.568 297.728C330 297.792 330.688 297.824 331.232 297.824C332.24 297.824 336.448 297.824 337.376 297.824C337.888 297.824 338.672 297.792 339.104 297.728V299.808C338.688 299.776 337.936 299.744 337.344 299.744C336.464 299.744 332.176 299.744 331.232 299.744C330.704 299.744 330.032 299.76 329.568 299.808V297.728ZM340.464 302.384C340.352 302.592 340.208 302.88 340.16 303.04C339.664 304.592 338.976 306.16 337.792 307.472C336.176 309.28 334.128 310.352 332.08 310.944L330.48 309.136C332.896 308.624 334.8 307.584 336.032 306.32C336.88 305.456 337.392 304.448 337.664 303.568C336.864 303.568 331.376 303.568 329.952 303.568C329.552 303.568 328.752 303.584 328.08 303.632V301.552C328.768 301.616 329.44 301.664 329.952 301.664C331.04 301.664 336.768 301.664 337.856 301.664C338.384 301.664 338.816 301.6 339.04 301.488L340.464 302.384ZM343.456 302.592C344.048 302.64 345.2 302.704 346.032 302.704C347.92 302.704 353.2 302.704 354.624 302.704C355.376 302.704 356.08 302.624 356.512 302.592V305.12C356.128 305.104 355.312 305.024 354.64 305.024C353.184 305.024 347.92 305.024 346.032 305.024C345.136 305.024 344.064 305.072 343.456 305.12V302.592ZM365.152 298.816C367.12 299.088 370.32 299.008 372.032 298.8V300.864C370.08 301.056 367.168 301.056 365.168 300.864L365.152 298.816ZM366.432 305.648C366.304 306.192 366.24 306.576 366.24 306.992C366.24 307.712 366.864 308.144 368.496 308.144C369.92 308.144 371.104 308.016 372.496 307.712L372.544 309.872C371.504 310.08 370.208 310.192 368.4 310.192C365.648 310.192 364.32 309.2 364.32 307.568C364.32 306.928 364.416 306.304 364.608 305.488L366.432 305.648ZM362.688 297.744C362.576 298.08 362.368 298.896 362.304 299.184C362.08 300.24 361.52 303.44 361.52 305.04C361.52 305.36 361.536 305.76 361.584 306.08C361.824 305.536 362.08 304.992 362.32 304.448L363.312 305.232C362.848 306.576 362.32 308.304 362.16 309.152C362.112 309.392 362.064 309.744 362.064 309.904C362.08 310.08 362.08 310.352 362.096 310.576L360.256 310.688C359.936 309.6 359.632 307.648 359.632 305.472C359.632 303.056 360.112 300.368 360.288 299.12C360.352 298.688 360.432 298.08 360.448 297.568L362.688 297.744ZM375.312 299.52C376 299.6 376.864 299.632 377.44 299.632C379.424 299.632 381.584 299.296 383.136 298.8L383.184 300.656C381.808 301.04 379.504 301.456 377.456 301.44C376.816 301.44 376.144 301.424 375.456 301.392L375.312 299.52ZM381.536 297.12C381.328 297.968 380.944 299.536 380.512 300.896C379.776 303.2 378.336 306.176 376.976 308.064L375.04 307.072C376.48 305.312 377.92 302.512 378.544 300.784C378.928 299.632 379.28 298.144 379.328 296.912L381.536 297.12ZM385.296 302.112C385.248 302.784 385.264 303.456 385.28 304.16C385.312 305.104 385.456 307.488 385.456 308.384C385.456 309.872 384.656 311.04 382.368 311.04C380.384 311.04 378.816 310.144 378.816 308.384C378.816 306.832 380.128 305.616 382.352 305.616C385.152 305.616 387.36 307.024 388.688 308.224L387.632 309.952C386.48 308.88 384.656 307.232 382.24 307.232C381.312 307.232 380.704 307.632 380.704 308.192C380.704 308.784 381.216 309.2 382.096 309.2C383.184 309.2 383.536 308.592 383.536 307.696C383.536 306.736 383.36 303.792 383.28 302.112H385.296ZM388.048 302.96C387.12 302.208 385.296 301.168 384.192 300.672L385.232 299.104C386.384 299.6 388.352 300.672 389.184 301.264L388.048 302.96ZM392.272 303.232C392.752 303.152 393.488 302.96 393.968 302.8C395.072 302.48 397.776 301.552 399.712 301.552C402.256 301.552 403.952 303.056 403.952 305.488C403.952 308.368 401.392 310.352 396.32 310.656L395.472 308.688C399.12 308.592 401.824 307.616 401.824 305.44C401.824 304.256 400.928 303.408 399.52 303.408C397.664 303.408 394.48 304.736 393.104 305.312L392.272 303.232ZM406.339 299.008C406.963 298.992 407.603 298.96 407.907 298.928C409.251 298.8 411.875 298.576 414.819 298.32C416.467 298.176 418.211 298.08 419.347 298.032L419.363 300.096C418.499 300.096 417.123 300.112 416.259 300.304C414.339 300.816 412.883 302.896 412.883 304.784C412.883 307.424 415.347 308.368 418.051 308.512L417.315 310.704C413.955 310.496 410.787 308.688 410.787 305.216C410.787 302.912 412.083 301.104 413.171 300.288C411.667 300.448 408.403 300.784 406.547 301.2L406.339 299.008ZM427.91 297.184C427.766 297.776 427.702 298.192 427.622 298.608C427.43 299.984 426.678 305.264 426.678 306.88C426.678 308.208 427.478 308.928 429.046 308.928C431.286 308.928 432.518 307.888 432.518 306.576C432.518 305.504 431.91 304.464 430.87 303.488L433.11 303.008C434.182 304.352 434.662 305.472 434.662 306.832C434.662 309.248 432.502 310.992 428.998 310.992C426.47 310.992 424.694 309.904 424.694 307.216C424.694 305.584 425.462 300.72 425.622 298.48C425.686 297.744 425.686 297.424 425.654 297.056L427.91 297.184ZM422.198 299.168C423.59 299.632 425.574 299.84 427.206 299.84C428.438 299.84 429.574 299.76 430.374 299.616L430.31 301.536C429.366 301.632 428.486 301.68 427.142 301.68C425.526 301.68 423.574 301.424 422.102 301.008L422.198 299.168ZM421.846 303.136C423.574 303.728 425.43 303.856 427.046 303.856C428.022 303.856 429.206 303.792 430.246 303.664L430.198 305.568C429.318 305.664 428.374 305.712 427.366 305.712C425.238 305.712 423.206 305.488 421.75 305.072L421.846 303.136ZM449.302 299.616C449.222 299.84 449.142 300.224 449.126 300.352C448.918 301.968 448.214 306.304 447.99 307.76H445.638C445.894 306.32 446.582 302.208 446.63 301.056C445.382 301.056 442.118 301.056 441.11 301.056C440.454 301.056 439.862 301.088 439.286 301.136V298.88C439.814 298.944 440.55 298.992 441.094 298.992C442.102 298.992 445.174 298.992 446.134 298.992C446.55 298.992 447.35 298.912 447.622 298.784L449.302 299.616ZM437.542 307.104C438.054 307.2 438.63 307.232 439.126 307.232H449.782C450.358 307.232 450.87 307.168 451.286 307.104V309.44C450.838 309.376 450.166 309.344 449.782 309.344H439.126C438.63 309.344 438.07 309.376 437.542 309.44V307.104ZM453.862 302.592C454.454 302.64 455.606 302.704 456.438 302.704C458.326 302.704 463.606 302.704 465.03 302.704C465.782 302.704 466.486 302.624 466.918 302.592V305.12C466.534 305.104 465.718 305.024 465.046 305.024C463.59 305.024 458.326 305.024 456.438 305.024C455.542 305.024 454.47 305.072 453.862 305.12V302.592ZM481.166 297.568C481.47 298.192 481.822 299.12 481.998 299.744L480.894 300.112C480.67 299.424 480.398 298.56 480.078 297.904L481.166 297.568ZM482.814 297.056C483.118 297.68 483.486 298.624 483.678 299.232L482.59 299.584C482.35 298.88 482.046 298.032 481.726 297.392L482.814 297.056ZM479.79 303.184C479.79 307.136 478.83 309.568 474.974 311.264L473.246 309.648C476.35 308.576 477.694 307.184 477.694 303.264V299.008C477.694 298.352 477.662 297.824 477.614 297.52H479.886C479.854 297.84 479.79 298.352 479.79 299.008V303.184ZM473.998 297.664C473.966 297.952 473.902 298.464 473.902 299.104V304.832C473.902 305.536 473.95 306.192 473.982 306.496H471.742C471.774 306.192 471.822 305.552 471.822 304.832V299.104C471.822 298.64 471.79 298.144 471.726 297.664H473.998ZM468.734 300.544C469.022 300.592 469.678 300.688 470.478 300.688H480.958C481.806 300.688 482.286 300.656 482.734 300.576V302.704C482.382 302.656 481.806 302.656 480.974 302.656H470.478C469.662 302.656 469.102 302.688 468.734 302.72V300.544ZM485.55 302.592C486.142 302.64 487.294 302.704 488.126 302.704C490.014 302.704 495.294 302.704 496.718 302.704C497.47 302.704 498.174 302.624 498.606 302.592V305.12C498.222 305.104 497.406 305.024 496.734 305.024C495.278 305.024 490.014 305.024 488.126 305.024C487.23 305.024 486.158 305.072 485.55 305.12V302.592ZM507.246 298.816C509.214 299.088 512.414 299.008 514.126 298.8V300.864C512.174 301.056 509.262 301.056 507.262 300.864L507.246 298.816ZM508.526 305.648C508.398 306.192 508.334 306.576 508.334 306.992C508.334 307.712 508.958 308.144 510.59 308.144C512.014 308.144 513.198 308.016 514.59 307.712L514.638 309.872C513.598 310.08 512.302 310.192 510.494 310.192C507.742 310.192 506.414 309.2 506.414 307.568C506.414 306.928 506.51 306.304 506.702 305.488L508.526 305.648ZM504.782 297.744C504.67 298.08 504.462 298.896 504.398 299.184C504.174 300.24 503.614 303.44 503.614 305.04C503.614 305.36 503.63 305.76 503.678 306.08C503.918 305.536 504.174 304.992 504.414 304.448L505.406 305.232C504.942 306.576 504.414 308.304 504.254 309.152C504.206 309.392 504.158 309.744 504.158 309.904C504.174 310.08 504.174 310.352 504.19 310.576L502.35 310.688C502.03 309.6 501.726 307.648 501.726 305.472C501.726 303.056 502.206 300.368 502.382 299.12C502.446 298.688 502.526 298.08 502.542 297.568L504.782 297.744ZM520.446 302.656V308.544H518.574V304.432H516.782V302.656H520.446ZM520.446 307.712C521.102 308.784 522.334 309.232 524.03 309.296C525.902 309.376 529.534 309.328 531.694 309.152C531.486 309.6 531.182 310.528 531.086 311.104C529.15 311.2 525.918 311.232 523.998 311.152C521.998 311.072 520.654 310.608 519.614 309.36C518.926 309.984 518.222 310.592 517.374 311.296L516.43 309.296C517.15 308.848 517.966 308.288 518.702 307.712H520.446ZM516.798 297.936L518.222 296.784C519.166 297.472 520.318 298.496 520.862 299.248L519.326 300.496C518.862 299.744 517.742 298.656 516.798 297.936ZM523.054 297.056H530.99V298.832H523.054V297.056ZM523.294 300.32H529.166V302.032H523.294V300.32ZM522.142 297.056H523.982V300.8C523.982 303.12 523.726 306.432 522.094 308.544C521.774 308.224 520.942 307.712 520.494 307.504C521.998 305.584 522.142 302.816 522.142 300.784V297.056ZM528.702 300.32H529.054L529.406 300.272L530.622 300.656C529.742 305.024 527.39 307.536 524.046 308.864C523.822 308.384 523.342 307.632 522.958 307.248C525.854 306.304 528.014 303.952 528.702 300.624V300.32ZM525.518 301.552C526.462 304.352 528.43 306.416 531.63 307.248C531.214 307.632 530.67 308.4 530.398 308.912C526.958 307.808 524.99 305.424 523.822 301.952L525.518 301.552ZM545.07 297.376H546.958V306.8C546.958 307.664 546.814 308.24 546.27 308.576C545.742 308.912 545.038 308.96 544.062 308.96C543.998 308.4 543.726 307.504 543.454 306.976C544.03 307.008 544.638 307.008 544.83 307.008C545.006 307.008 545.07 306.944 545.07 306.752V297.376ZM541.118 297.376H545.982V299.168H542.974V311.44H541.118V297.376ZM533.086 298.688H540.126V300.416H533.086V298.688ZM532.574 302.448H540.622V304.224H532.574V302.448ZM535.726 296.416H537.582V303.408H535.726V296.416ZM532.558 308.096C534.222 307.952 536.734 307.68 539.118 307.408L539.182 309.12C536.958 309.424 534.606 309.728 532.83 309.952L532.558 308.096ZM537.262 305.824L538.814 305.2C539.662 306.608 540.59 308.48 540.91 309.712L539.23 310.432C538.926 309.216 538.078 307.296 537.262 305.824ZM534.91 303.552L536.942 304.08C536.35 305.76 535.646 307.68 535.054 308.896L533.47 308.384C534.014 307.072 534.622 305.056 534.91 303.552ZM556.19 298.656C556.078 298.288 555.886 297.712 555.694 297.184L557.854 296.928C558.094 298.16 558.478 299.424 558.862 300.448C559.358 301.792 560.11 303.168 560.638 303.904C560.91 304.304 561.198 304.64 561.486 304.976L560.51 306.4C559.614 306.224 557.582 306.016 556.238 305.904L556.398 304.208C557.182 304.288 558.238 304.368 558.734 304.416C558.158 303.472 557.454 302.128 556.958 300.8C556.606 299.92 556.382 299.184 556.19 298.656ZM550.366 299.408C553.358 299.76 555.79 299.744 557.71 299.536C559.134 299.36 560.542 299.088 561.806 298.704L562.046 300.704C560.99 301.008 559.614 301.248 558.334 301.392C556.206 301.648 553.678 301.712 550.398 301.44L550.366 299.408ZM553.582 304.848C553.054 305.616 552.798 306.32 552.798 307.008C552.798 308.368 553.998 308.928 556.19 308.944C557.934 308.944 559.342 308.768 560.462 308.544L560.35 310.576C559.438 310.736 557.998 310.944 556.062 310.944C552.782 310.944 550.734 309.68 550.734 307.36C550.734 306.384 551.038 305.472 551.582 304.384L553.582 304.848ZM579.694 309.168C578.942 309.856 577.982 310.368 576.67 310.368C575.47 310.368 574.67 309.504 574.67 307.952C574.67 306.208 575.246 303.872 575.246 302.4C575.246 301.616 574.846 301.232 574.158 301.232C572.67 301.232 570.286 303.584 569.006 305.216L568.99 302.752C569.966 301.728 572.638 299.328 574.75 299.328C576.478 299.328 577.262 300.352 577.262 301.696C577.262 303.344 576.734 305.696 576.734 307.36C576.734 307.776 576.958 308.064 577.358 308.064C577.95 308.064 578.702 307.648 579.422 306.928L579.694 309.168ZM568.638 301.552C567.918 301.632 566.398 301.824 565.342 301.984L565.134 299.92C565.582 299.936 565.95 299.936 566.526 299.904C567.534 299.856 569.582 299.552 570.302 299.312L570.942 300.144C570.67 300.512 570.174 301.296 569.902 301.712L568.974 304.72C568.27 305.744 566.846 307.888 565.998 309.056L564.75 307.296C565.758 306.048 567.678 303.52 568.478 302.256L568.51 301.84L568.638 301.552ZM568.446 298.464C568.446 298.016 568.462 297.536 568.366 297.04L570.702 297.104C570.43 298.384 569.902 302.576 569.902 305.44C569.902 306.736 569.902 308.096 569.998 309.584C570.014 309.872 570.078 310.464 570.11 310.816H567.918C567.95 310.448 567.966 309.888 567.966 309.632C567.982 308.08 567.998 307.008 568.046 305.008C568.094 303.584 568.446 299.104 568.446 298.464ZM581.406 299.52C582.094 299.6 582.958 299.632 583.534 299.632C585.518 299.632 587.678 299.296 589.23 298.8L589.278 300.656C587.902 301.04 585.598 301.456 583.55 301.44C582.91 301.44 582.238 301.424 581.55 301.392L581.406 299.52ZM587.63 297.12C587.422 297.968 587.038 299.536 586.606 300.896C585.87 303.2 584.43 306.176 583.07 308.064L581.134 307.072C582.574 305.312 584.014 302.512 584.638 300.784C585.022 299.632 585.374 298.144 585.422 296.912L587.63 297.12ZM591.39 302.112C591.342 302.784 591.358 303.456 591.374 304.16C591.406 305.104 591.55 307.488 591.55 308.384C591.55 309.872 590.75 311.04 588.462 311.04C586.478 311.04 584.91 310.144 584.91 308.384C584.91 306.832 586.222 305.616 588.446 305.616C591.246 305.616 593.454 307.024 594.782 308.224L593.726 309.952C592.574 308.88 590.75 307.232 588.334 307.232C587.406 307.232 586.798 307.632 586.798 308.192C586.798 308.784 587.31 309.2 588.19 309.2C589.278 309.2 589.63 308.592 589.63 307.696C589.63 306.736 589.454 303.792 589.374 302.112H591.39ZM594.142 302.96C593.214 302.208 591.39 301.168 590.286 300.672L591.326 299.104C592.478 299.6 594.446 300.672 595.278 301.264L594.142 302.96ZM600.238 298.576C600.126 299.136 600.046 300.08 600.046 300.528C600.046 301.568 600.046 302.752 600.142 303.92C600.366 306.224 600.846 307.808 601.854 307.808C602.622 307.808 603.246 305.92 603.55 304.656L605.166 306.592C604.094 309.392 603.102 310.352 601.822 310.352C600.046 310.352 598.526 308.784 598.078 304.496C597.918 303.024 597.902 301.136 597.902 300.16C597.902 299.728 597.886 299.04 597.774 298.544L600.238 298.576ZM608.238 298.928C609.758 300.768 610.99 304.768 611.166 307.216L609.054 308.048C608.814 305.456 607.95 301.584 606.206 299.6L608.238 298.928Z" fill="#C41C1C"/>
</svg>
</svg>